<svg width="40" height="40" viewBox="0 0 40 40" xmlns="http://www.w3.org/2000/svg">
<path d="M25.4722 20.4907C24.1291 20.4907 22.876 20.1053 21.8175 19.4391C23.0854 17.8407 23.8426 15.819 23.8426 13.6204C23.8426 11.4218 23.0854 9.39999 21.8175 7.80165C22.876 7.1354 24.1291 6.75 25.4722 6.75C29.2666 6.75 32.3426 9.82597 32.3426 13.6204C32.3426 17.4148 29.2666 20.4907 25.4722 20.4907Z"/>
<path d="M30.6944 22.6856V33.25H39.1944V24.4167L31.3618 21.4725C30.9023 21.8177 30.4115 22.1235 29.8944 22.3849L30.6944 22.6856Z"/>
<path fill-rule="evenodd" clip-rule="evenodd" d="M8.58269 21.4725L0.75 24.4167V33.25H28.1944V24.4167L20.3617 21.4725C18.7213 22.7049 16.682 23.4352 14.4722 23.4352C12.2624 23.4352 10.2232 22.7049 8.58269 21.4725ZM3.25 26.1477V30.75H25.6944V26.1477L20.6748 24.2609C18.8525 25.325 16.7312 25.9352 14.4722 25.9352C12.2132 25.9352 10.092 25.325 8.26964 24.2609L3.25 26.1477Z"/>
<path fill-rule="evenodd" clip-rule="evenodd" d="M21.3426 13.6204C21.3426 17.4148 18.2666 20.4907 14.4722 20.4907C10.6778 20.4907 7.60185 17.4148 7.60185 13.6204C7.60185 9.82597 10.6778 6.75 14.4722 6.75C18.2666 6.75 21.3426 9.82597 21.3426 13.6204ZM18.8426 13.6204C18.8426 16.0341 16.8859 17.9907 14.4722 17.9907C12.0585 17.9907 10.1019 16.0341 10.1019 13.6204C10.1019 11.2067 12.0585 9.25 14.4722 9.25C16.8859 9.25 18.8426 11.2067 18.8426 13.6204Z"/>
</svg>
