<svg width="40" height="40" viewBox="0 0 40 40" xmlns="http://www.w3.org/2000/svg">
<path fill-rule="evenodd" clip-rule="evenodd" d="M27.2592 13.2592C27.2592 17.2684 24.0091 20.5185 20 20.5185C15.9908 20.5185 12.7407 17.2684 12.7407 13.2592C12.7407 9.25008 15.9908 6 20 6C24.0091 6 27.2592 9.25008 27.2592 13.2592ZM24.7592 13.2592C24.7592 15.8877 22.6284 18.0185 20 18.0185C17.3715 18.0185 15.2407 15.8877 15.2407 13.2592C15.2407 10.6308 17.3715 8.5 20 8.5C22.6284 8.5 24.7592 10.6308 24.7592 13.2592Z"/>
<path fill-rule="evenodd" clip-rule="evenodd" d="M5.44444 24.6666L13.7771 21.5558C15.5104 22.8579 17.6651 23.6296 20 23.6296C22.3349 23.6296 24.4895 22.8579 26.2228 21.5558L34.5555 24.6666V33.9999H5.44444V24.6666ZM7.94444 31.4999V26.4018L13.4566 24.344C15.3747 25.4781 17.6137 26.1296 20 26.1296C22.3862 26.1296 24.6252 25.4781 26.5433 24.344L32.0555 26.4018V31.4999H7.94444Z"/>
</svg>
