<svg width="40" height="40" viewBox="0 0 40 40" xmlns="http://www.w3.org/2000/svg">
<path fill-rule="evenodd" clip-rule="evenodd" d="M22.3148 13.2592C22.3148 17.2684 19.0647 20.5185 15.0555 20.5185C11.0463 20.5185 7.79626 17.2684 7.79626 13.2592C7.79626 9.25008 11.0463 6 15.0555 6C19.0647 6 22.3148 9.25008 22.3148 13.2592ZM19.8148 13.2592C19.8148 15.8877 17.684 18.0185 15.0555 18.0185C12.4271 18.0185 10.2963 15.8877 10.2963 13.2592C10.2963 10.6308 12.4271 8.5 15.0555 8.5C17.684 8.5 19.8148 10.6308 19.8148 13.2592Z"/>
<path fill-rule="evenodd" clip-rule="evenodd" d="M26.7691 24.9651C26.7691 23.4656 27.9847 22.25 29.4842 22.25C30.9837 22.25 32.1993 23.4656 32.1993 24.9651V25.8987H33.2185V31.5H25.75V25.8987H26.7691V24.9651ZM27.9983 25.8987H30.9701V24.9651C30.9701 24.1444 30.3049 23.4792 29.4842 23.4792C28.6636 23.4792 27.9983 24.1444 27.9983 24.9651V25.8987ZM28.8619 28.077H30.1066V29.3217H28.8619V28.077Z"/>
<path fill-rule="evenodd" clip-rule="evenodd" d="M39.5 27C39.5 32.5228 35.0228 37 29.5 37C23.9772 37 19.5 32.5228 19.5 27C19.5 21.4772 23.9772 17 29.5 17C35.0228 17 39.5 21.4772 39.5 27ZM37 27C37 31.1421 33.6421 34.5 29.5 34.5C25.3579 34.5 22 31.1421 22 27C22 22.8579 25.3579 19.5 29.5 19.5C33.6421 19.5 37 22.8579 37 27Z"/>
<path d="M15.0555 23.6296C15.7169 23.6296 16.3638 23.5677 16.9908 23.4493C16.7545 24.2836 16.5994 25.1519 16.5345 26.0453C16.0491 26.101 15.5555 26.1296 15.0555 26.1296C12.6693 26.1296 10.4303 25.4782 8.51215 24.344L3 26.4018V31.5H17.2999C17.6255 32.3823 18.044 33.2196 18.5436 34H0.5V24.6666L8.83265 21.5558C10.566 22.858 12.7206 23.6296 15.0555 23.6296Z"/>
</svg>
