<svg width="40" height="40" viewBox="0 0 40 40" xmlns="http://www.w3.org/2000/svg">
<path fill-rule="evenodd" clip-rule="evenodd" d="M24.1326 18.849C23.0303 19.8409 21.5717 20.4444 19.9721 20.4444C16.5357 20.4444 13.7499 17.6586 13.7499 14.2222C13.7499 10.7858 16.5357 8 19.9721 8C23.2884 8 25.9988 10.5944 26.1842 13.8643C26.1909 13.9828 26.1944 14.1021 26.1944 14.2222C26.1944 16.0591 25.3984 17.7101 24.1326 18.849ZM23.6943 14.2222C23.6943 16.2779 22.0279 17.9444 19.9721 17.9444C17.9164 17.9444 16.2499 16.2779 16.2499 14.2222C16.2499 12.1665 17.9164 10.5 19.9721 10.5C22.0279 10.5 23.6943 12.1665 23.6943 14.2222Z"/>
<path d="M11.2499 14.2222C11.2499 13.8119 11.2783 13.4082 11.3331 13.013C11.2139 13.0044 11.0936 13 10.9722 13C8.25167 13 6.04626 15.2054 6.04626 17.9259C6.04626 19.2761 6.5895 20.4995 7.46934 21.3893L12.8955 19.3221C11.8601 17.8879 11.2499 16.1263 11.2499 14.2222Z"/>
<path d="M5.13885 24.1692L1.20831 25.6666V31.9999H5.13885V24.1692Z"/>
<path d="M28.6944 14.2222C28.6944 16.1263 28.0842 17.8879 27.0488 19.3221L32.475 21.3892C33.3548 20.4994 33.898 19.2761 33.898 17.9259C33.898 15.2054 31.6926 13 28.9721 13C28.8508 13 28.7304 13.0044 28.6112 13.013C28.666 13.4082 28.6944 13.8119 28.6944 14.2222Z"/>
<path d="M34.8055 31.9999H38.736V25.6666L34.8055 24.1693V31.9999Z"/>
<path fill-rule="evenodd" clip-rule="evenodd" d="M14.6383 21.3335L7.63885 23.9999V31.9999H32.3055V23.9999L25.3061 21.3335C23.8204 22.4497 21.9736 23.1111 19.9722 23.1111C17.9709 23.1111 16.124 22.4497 14.6383 21.3335ZM10.1389 25.7228V29.4999H29.8055V25.7228L25.6047 24.1225C23.9428 25.0696 22.0184 25.6111 19.9722 25.6111C17.926 25.6111 16.0017 25.0695 14.3397 24.1225L10.1389 25.7228Z"/>
</svg>
