<svg width="40" height="40" viewBox="0 0 40 40" xmlns="http://www.w3.org/2000/svg">
<path fill-rule="evenodd" clip-rule="evenodd" d="M23.1326 12.849C22.0303 13.8409 20.5717 14.4444 18.9721 14.4444C15.5357 14.4444 12.7499 11.6586 12.7499 8.22221C12.7499 4.78578 15.5357 2 18.9721 2C22.2884 2 24.9988 4.59441 25.1842 7.8643C25.1909 7.98275 25.1944 8.10207 25.1944 8.22221C25.1944 10.0591 24.3984 11.7101 23.1326 12.849ZM22.6943 8.22221C22.6943 10.2779 21.0279 11.9444 18.9721 11.9444C16.9164 11.9444 15.2499 10.2779 15.2499 8.22221C15.2499 6.16649 16.9164 4.5 18.9721 4.5C21.0279 4.5 22.6943 6.16649 22.6943 8.22221Z"/>
<path d="M10.2499 8.22221C10.2499 7.81191 10.2783 7.40823 10.3331 7.01302C10.2139 7.00439 10.0936 7 9.97218 7C7.25167 7 5.04626 9.20541 5.04626 11.9259C5.04626 13.2761 5.5895 14.4995 6.46934 15.3893L11.8955 13.3221C10.8601 11.8879 10.2499 10.1263 10.2499 8.22221Z"/>
<path d="M4.13885 18.1692L0.208313 19.6666V25.9999H4.13885V18.1692Z"/>
<path d="M27.6944 8.22221C27.6944 10.1263 27.0842 11.8879 26.0488 13.3221L31.475 15.3892C32.3548 14.4994 32.898 13.2761 32.898 11.9259C32.898 9.20541 30.6926 7 27.9721 7C27.8508 7 27.7304 7.00439 27.6112 7.01302C27.666 7.40823 27.6944 7.81191 27.6944 8.22221Z"/>
<path d="M9.13885 19.7228V23.4999H18.7719C18.3842 24.29 18.0774 25.1269 17.8623 25.9999H6.63885V17.9999L13.6383 15.3335C15.124 16.4497 16.9709 17.1111 18.9722 17.1111C20.9736 17.1111 22.8204 16.4497 24.3061 15.3335L27.8511 16.684C25.8151 17.0368 23.9479 17.8821 22.3768 19.0928C21.301 19.4295 20.1571 19.6111 18.9722 19.6111C16.926 19.6111 15.0017 19.0695 13.3397 18.1225L9.13885 19.7228Z"/>
<path fill-rule="evenodd" clip-rule="evenodd" d="M30.1403 38.9991C30.0936 38.9998 30.0469 39 30 39C29.9531 39 29.9063 38.9997 29.8596 38.999C29.0504 38.9879 28.2644 38.8807 27.5126 38.6883C25.206 38.0978 23.2206 36.7053 21.8711 34.8255C21.5246 34.3429 21.22 33.8281 20.9627 33.2866C20.3454 31.9874 20 30.534 20 29C20 23.4772 24.4772 19 30 19C35.5229 19 40 23.4772 40 29C40 30.534 39.6546 31.9874 39.0373 33.2865C38.7799 33.8281 38.4754 34.3429 38.1289 34.8256C36.7794 36.7053 34.794 38.0977 32.4875 38.6882C31.7356 38.8806 30.9495 38.988 30.1403 38.9991ZM30 37.2143C30.4524 37.2143 30.8963 37.1777 31.3288 37.1074C31.4487 36.8828 31.5712 36.6414 31.6939 36.3838C32.1377 35.4518 32.5803 34.314 32.9024 33.0067C31.9985 32.8464 31.0278 32.7501 30 32.7501C28.9722 32.7501 28.0015 32.8464 27.0976 33.0067C27.4197 34.314 27.8623 35.4518 28.3061 36.3838C28.4288 36.6414 28.5513 36.8828 28.6712 37.1074C29.1037 37.1777 29.5476 37.2143 30 37.2143ZM25.3578 33.4099C25.6266 34.5067 25.9719 35.4937 26.3354 36.3536C25.2328 35.803 24.2714 35.0119 23.52 34.0488C24.0795 33.8193 24.6939 33.6004 25.3578 33.4099ZM25.0144 31.6513C24.1147 31.9017 23.2968 32.2 22.5714 32.5102C22.0675 31.4458 21.7857 30.2558 21.7857 29C21.7857 27.7442 22.0675 26.5543 22.5713 25.4899C23.2968 25.8002 24.1147 26.0984 25.0144 26.3488C24.8923 27.1856 24.8214 28.0713 24.8214 28.9998C24.8214 29.9286 24.8923 30.8144 25.0144 31.6513ZM25.3577 24.5902C24.6938 24.3997 24.0794 24.1808 23.5199 23.9513C24.2713 22.9883 25.2327 22.1971 26.3352 21.6465C25.9717 22.5064 25.6265 23.4934 25.3577 24.5902ZM30 20.7857C29.5475 20.7857 29.1036 20.8223 28.671 20.8927C28.5512 21.1171 28.4287 21.3584 28.3061 21.6159C27.8622 22.548 27.4196 23.686 27.0975 24.9935C28.0014 25.1538 28.9722 25.2501 30 25.2501C31.0278 25.2501 31.9986 25.1538 32.9025 24.9935C32.5804 23.686 32.1378 22.548 31.6939 21.6159C31.5713 21.3584 31.4488 21.1171 31.329 20.8927C30.8964 20.8223 30.4525 20.7857 30 20.7857ZM34.6423 24.5902C34.3735 23.4934 34.0282 22.5064 33.6647 21.6465C34.7673 22.197 35.7287 22.9882 36.4801 23.9513C35.9206 24.1808 35.3062 24.3997 34.6423 24.5902ZM34.9856 26.3488C35.8853 26.0984 36.7032 25.8002 37.4287 25.4899C37.9325 26.5543 38.2143 27.7442 38.2143 29C38.2143 30.2558 37.9325 31.4458 37.4286 32.5102C36.7032 32.2 35.8852 31.9017 34.9855 31.6513C35.1077 30.8144 35.1786 29.9286 35.1786 28.9998C35.1786 28.0713 35.1077 27.1856 34.9856 26.3488ZM34.6422 33.4099C35.3061 33.6004 35.9205 33.8193 36.48 34.0488C35.7286 35.0119 34.7671 35.8031 33.6646 36.3536C34.0281 35.4937 34.3734 34.5067 34.6422 33.4099ZM33.3928 28.9998C33.3928 29.7856 33.3366 30.538 33.2384 31.2527C32.2321 31.0728 31.1489 30.9644 30 30.9644C28.851 30.9644 27.7679 31.0728 26.7615 31.2527C26.6634 30.538 26.6071 29.7856 26.6071 28.9998C26.6071 28.2143 26.6634 27.462 26.7615 26.7475C27.7679 26.9273 28.851 27.0358 30 27.0358C31.149 27.0358 32.2321 26.9273 33.2385 26.7475C33.3366 27.462 33.3928 28.2143 33.3928 28.9998Z"/>
</svg>
