<svg width="40" height="40" viewBox="0 0 40 40" xmlns="http://www.w3.org/2000/svg">
<path fill-rule="evenodd" clip-rule="evenodd" d="M22.3148 13.2592C22.3148 17.2684 19.0647 20.5185 15.0555 20.5185C11.0463 20.5185 7.79626 17.2684 7.79626 13.2592C7.79626 9.25008 11.0463 6 15.0555 6C19.0647 6 22.3148 9.25008 22.3148 13.2592ZM19.8148 13.2592C19.8148 15.8877 17.684 18.0185 15.0555 18.0185C12.4271 18.0185 10.2963 15.8877 10.2963 13.2592C10.2963 10.6308 12.4271 8.5 15.0555 8.5C17.684 8.5 19.8148 10.6308 19.8148 13.2592Z"/>
<path d="M15.0555 23.6296C15.7169 23.6296 16.3638 23.5677 16.9908 23.4493C16.7545 24.2836 16.5994 25.1519 16.5345 26.0453C16.049 26.101 15.5555 26.1296 15.0555 26.1296C12.6693 26.1296 10.4303 25.4782 8.51215 24.344L3 26.4018V31.5H17.2999C17.6255 32.3823 18.044 33.2196 18.5436 34H0.5V24.6666L8.83265 21.5558C10.566 22.858 12.7206 23.6296 15.0555 23.6296Z"/>
<path d="M31.4231 28.5385V30.8462L35.2692 27.3846L31.4231 23.9231V26.2308H23.7308V28.5385H31.4231Z"/>
<path fill-rule="evenodd" clip-rule="evenodd" d="M29.5 37C35.0228 37 39.5 32.5228 39.5 27C39.5 21.4772 35.0228 17 29.5 17C23.9772 17 19.5 21.4772 19.5 27C19.5 32.5228 23.9772 37 29.5 37ZM29.5 34.5C33.6421 34.5 37 31.1421 37 27C37 22.8579 33.6421 19.5 29.5 19.5C25.3579 19.5 22 22.8579 22 27C22 31.1421 25.3579 34.5 29.5 34.5Z"/>
</svg>
