<svg width="40" height="40" viewBox="0 0 40 40" xmlns="http://www.w3.org/2000/svg">
<path fill-rule="evenodd" clip-rule="evenodd" d="M14.8406 15.9814L12.3801 11.7197C11.9659 11.0023 11.0485 10.7565 10.3311 11.1707C9.61365 11.5849 9.36786 12.5023 9.78204 13.2197L12.1854 17.3824C9.38617 19.269 7.30573 22.1406 6.44104 25.5001C6.23322 26.3075 6.09564 27.1432 6.03516 28.0001H33.9648C33.9044 27.1432 33.7668 26.3075 33.5589 25.5001C32.6938 22.1388 30.6117 19.2661 27.8104 17.3796L30.212 13.2198C30.6263 12.5023 30.3804 11.585 29.663 11.1707C28.9456 10.7565 28.0282 11.0023 27.614 11.7198L25.1545 15.9795C23.5593 15.3475 21.8202 15.0001 20 15.0001C18.1779 15.0001 16.4372 15.3482 14.8406 15.9814ZM30.9581 25.5001C29.4777 20.861 25.1306 17.5001 20 17.5001C14.8694 17.5001 10.5223 20.861 9.04187 25.5001H30.9581ZM15 22.7501C15 23.4404 14.4404 24.0001 13.75 24.0001C13.0596 24.0001 12.5 23.4404 12.5 22.7501C12.5 22.0597 13.0596 21.5001 13.75 21.5001C14.4404 21.5001 15 22.0597 15 22.7501ZM26.25 24.0001C26.9404 24.0001 27.5 23.4404 27.5 22.7501C27.5 22.0597 26.9404 21.5001 26.25 21.5001C25.5596 21.5001 25 22.0597 25 22.7501C25 23.4404 25.5596 24.0001 26.25 24.0001Z"/>
</svg>
