<svg width="40" height="40" viewBox="0 0 40 40" xmlns="http://www.w3.org/2000/svg">
<path d="M13.7678 18.5355C15.021 19.7887 17.0528 19.7887 18.306 18.5355L16.0367 16.2666C14.7835 15.0134 14.6753 14.9051 13.7678 13.9973C12.5146 15.2505 12.5146 17.2823 13.7678 18.5355Z"/>
<path d="M26.2282 13.9974C27.4814 15.2506 27.4814 17.2824 26.2282 18.5356C24.975 19.7888 22.9432 19.7888 21.69 18.5356C22.5945 17.6315 22.7052 17.5207 23.9455 16.2804L26.2282 13.9974Z"/>
<path d="M16.118 27.559C16.877 26.0411 18.4041 25.25 20 25.25C21.5959 25.25 23.123 26.0411 23.882 27.559L26.118 26.441C24.877 23.9589 22.4041 22.75 20 22.75C17.5959 22.75 15.123 23.9589 13.882 26.441L16.118 27.559Z"/>
<path fill-rule="evenodd" clip-rule="evenodd" d="M34 20C34 27.732 27.732 34 20 34C12.268 34 6 27.732 6 20C6 12.268 12.268 6 20 6C27.732 6 34 12.268 34 20ZM31.5 20C31.5 26.3513 26.3513 31.5 20 31.5C13.6487 31.5 8.5 26.3513 8.5 20C8.5 13.6487 13.6487 8.5 20 8.5C26.3513 8.5 31.5 13.6487 31.5 20Z"/>
</svg>
