<svg width="40" height="40" viewBox="0 0 40 40" xmlns="http://www.w3.org/2000/svg">
<path fill-rule="evenodd" clip-rule="evenodd" d="M27.0896 27.3022L27.1004 27.2872C27.4107 26.8565 27.6588 26.4467 27.8596 26.0703C27.7392 25.9719 27.618 25.8675 27.497 25.757C26.2145 24.5854 24.8955 22.6558 24.8664 19.844L24.8663 19.8387C24.8492 17.7672 25.5993 16.168 26.4598 15.018C25.9721 14.8534 25.5241 14.8019 25.2355 14.7891L25.1675 14.7861L25.0998 14.7794C24.6339 14.7333 24.0513 14.8583 23.2159 15.1581C23.1144 15.1946 22.9488 15.2566 22.7651 15.3255C22.4791 15.4327 22.1495 15.5562 21.9509 15.6245C21.5679 15.7562 20.8981 15.9745 20.1801 15.9745C19.5103 15.9745 18.9036 15.8019 18.5032 15.672C18.1917 15.5708 17.8416 15.4377 17.5553 15.3288C17.4714 15.2969 17.3931 15.2671 17.3227 15.2408C16.565 14.9573 16.1104 14.8386 15.759 14.8433C14.3525 14.8682 13.0252 15.6389 12.2795 16.8879L12.2768 16.8925C11.5066 18.1763 11.3099 19.9646 11.6819 21.995C12.0506 24.0071 12.9266 25.9414 13.867 27.2443C14.4554 28.0568 14.9322 28.6831 15.409 29.1148C15.6322 29.3168 15.7943 29.4178 15.896 29.4649C15.9433 29.4869 15.9723 29.4947 15.9852 29.4975C15.9964 29.5 16.0021 29.5001 16.007 29.5C16.3544 29.4865 16.5411 29.4107 17.2399 29.1258C17.9878 28.821 19.0184 28.4323 20.5326 28.4323C22.0736 28.4323 23.1101 28.8598 23.8127 29.1513C24.4361 29.41 24.6053 29.467 24.9398 29.4599L24.9487 29.4597L24.9577 29.4595C25.076 29.4578 25.2729 29.4271 25.6504 29.0883C26.0741 28.7079 26.5052 28.1392 27.079 27.3173L27.0896 27.3022ZM16.0988 31.9983C14.3226 32.0633 12.9803 30.2824 11.8414 28.7095C9.52281 25.4987 7.74661 19.5841 10.133 15.6064C11.3126 13.6305 13.4278 12.3826 15.7192 12.3436C16.3414 12.3343 16.9532 12.477 17.5314 12.6639C17.8641 12.7715 18.1856 12.8937 18.4916 13.01C18.9929 13.2005 19.4526 13.3752 19.8513 13.4438C19.9661 13.4636 20.0758 13.4745 20.1801 13.4745C20.5894 13.4745 21.141 13.2661 21.7852 13.0227C22.8053 12.6373 24.0578 12.1641 25.346 12.2916C25.3556 12.292 25.3655 12.2925 25.3756 12.293C25.955 12.3214 27.1587 12.4612 28.3616 13.1373C29.039 13.518 29.7161 14.0687 30.2814 14.8654C30.2772 14.8681 30.2697 14.8726 30.2592 14.8789C30.1745 14.9302 29.8925 15.1006 29.5357 15.3945C28.6647 16.112 27.3477 17.5657 27.3662 19.8181C27.3988 22.9611 29.6824 24.4293 30.6125 24.8965C30.8442 25.0129 30.9919 25.0671 31 25.0697C30.9957 25.0793 30.986 25.1078 30.9704 25.1532C30.8775 25.4247 30.5776 26.301 29.9987 27.3621C29.7585 27.8024 29.4703 28.2746 29.1289 28.7485C28.0035 30.3604 26.8103 31.9333 24.9934 31.9593C24.1022 31.9784 23.5078 31.7316 22.8903 31.4753C22.2489 31.209 21.5825 30.9323 20.5326 30.9323C19.4221 30.9323 18.7235 31.2191 18.0499 31.4957C17.4651 31.7357 16.8991 31.9681 16.0988 31.9983ZM24.2418 9.80104C24.5171 9.43309 24.757 9.02646 24.9461 8.59505C25.2099 7.99307 25.3748 7.34284 25.3992 6.68213C25.4076 6.45548 25.3995 6.22759 25.3731 6C25.1735 6.00765 24.9678 6.03192 24.7589 6.07118C24.1362 6.18821 23.4853 6.43845 22.885 6.77913C22.3183 7.10078 21.7967 7.50303 21.3868 7.94987C21.0131 8.37534 20.6595 8.90689 20.3942 9.49365C20.2722 9.76352 20.1689 10.0451 20.0909 10.3333C20.0412 10.5173 20.0017 10.704 19.9743 10.8922C19.9212 11.2566 19.9133 11.6266 19.9631 11.9926C20.0354 11.9982 20.1077 12.0015 20.1801 12.0028C20.6579 12.0109 21.1354 11.926 21.5928 11.7709C21.8827 11.6726 22.1644 11.546 22.433 11.397C23.0246 11.0687 23.5525 10.6315 23.963 10.1467C24.0593 10.0359 24.1524 9.9205 24.2418 9.80104Z"/>
</svg>
