<svg width="40" height="40" viewBox="0 0 40 40" xmlns="http://www.w3.org/2000/svg">
<path fill-rule="evenodd" clip-rule="evenodd" d="M26.7917 5.35449H2.5V10.6462H26.7917V5.35449ZM4.79167 8.35449V7.64616H24.5V8.35449H4.79167Z"/>
<path d="M4.31865 11.3291H24.9729V12.7864C24.0968 12.9773 23.255 13.26 22.458 13.624H6.61357V27.8525H15.4728C15.6588 28.6495 15.9211 29.4172 16.2515 30.1475H4.31865V11.3291Z"/>
<path d="M9.1458 16H18.9711C18.0636 16.8749 17.288 17.8859 16.6773 19H9.1458V16Z"/>
<path d="M31.1458 23H28.8125V31H26.4792V23H24.1458L27.6458 19L31.1458 23Z"/>
<path fill-rule="evenodd" clip-rule="evenodd" d="M27.6458 15C22.123 15 17.6458 19.4772 17.6458 25C17.6458 30.5228 22.123 35 27.6458 35C33.1687 35 37.6458 30.5228 37.6458 25C37.6458 19.4772 33.1687 15 27.6458 15ZM27.6458 17.5C23.5037 17.5 20.1458 20.8579 20.1458 25C20.1458 29.1421 23.5037 32.5 27.6458 32.5C31.788 32.5 35.1458 29.1421 35.1458 25C35.1458 20.8579 31.788 17.5 27.6458 17.5Z"/>
</svg>
