<svg width="40" height="40" viewBox="0 0 40 40" xmlns="http://www.w3.org/2000/svg">
<path d="M30.8312 8.11949C30.8312 8.64632 30.8312 9.1146 30.8312 9.58289C30.8312 15.3633 30.8312 21.1437 30.8312 26.9241C30.8312 32.0314 27.5385 36.1143 22.5337 37.1533C19.5776 37.7679 16.6801 37.5776 13.9728 36.1289C10.9875 34.5192 9.2607 31.9875 8.74851 28.6363C8.64607 27.9778 8.61681 27.3046 8.60217 26.6315C8.58754 21.4949 8.55827 16.3584 8.6168 11.2365C8.64607 8.41217 9.72899 6.0122 12.1582 4.38783C13.8704 3.23175 15.8167 2.89517 17.8362 3.02687C19.5191 3.12931 21.0996 3.5537 22.5044 4.51954C23.7191 5.33904 24.6264 6.40732 25.1971 7.75364C25.3141 8.01705 25.4459 8.13413 25.7532 8.11949C27.2897 8.10486 28.8263 8.10486 30.3629 8.10486C30.5092 8.11949 30.6409 8.11949 30.8312 8.11949ZM15.8899 10.6365C15.8899 10.7829 15.8899 10.9146 15.8899 11.0463C15.8899 13.1097 15.8899 15.1731 15.8899 17.2218C15.8899 20.3096 15.8752 23.3973 15.9192 26.4705C15.9338 28.007 16.885 29.2948 18.2313 29.7485C19.7971 30.2899 21.6703 29.8217 22.6215 28.6802C23.28 27.9046 23.4995 26.9827 23.4995 26.0022C23.4995 23.1778 23.5142 20.3389 23.4995 17.5145C23.4995 15.2609 23.5581 12.9926 23.4264 10.7536C23.3093 8.60241 22.2264 6.96341 20.2069 6.08537C18.7728 5.47075 17.2655 5.35367 15.7289 5.61708C14.046 5.90976 12.7436 6.7439 11.8948 8.2512C11.3095 9.29021 11.1046 10.4463 11.1046 11.6316C11.1046 14.5292 11.1046 17.4413 11.1046 20.3388C11.1046 22.7681 11.0314 25.1973 11.1631 27.6119C11.3387 30.6558 12.8753 32.8948 15.6704 34.1679C17.6606 35.0752 19.7386 35.1338 21.8605 34.7387C25.7239 34.0216 28.3434 30.8753 28.3434 26.9534C28.3434 21.6559 28.3434 16.3438 28.3434 11.0463C28.3434 10.8999 28.3434 10.7682 28.3434 10.6365C27.48 10.6365 26.6751 10.6365 25.8556 10.6365C25.8556 10.7975 25.8556 10.9292 25.8556 11.0609C25.8556 16.3584 25.8556 21.6413 25.8556 26.9388C25.8556 29.3095 24.6556 31.1387 22.5337 31.9582C21.1874 32.485 19.7825 32.6167 18.363 32.3972C16.7679 32.1485 15.4216 31.4753 14.4997 30.0997C13.8411 29.1192 13.607 28.007 13.5924 26.8363C13.5924 23.0754 13.5924 19.3291 13.5924 15.5682C13.5924 14.0023 13.5924 12.4511 13.6509 10.8853C13.7094 9.46582 14.6021 8.42681 15.9045 8.13413C16.7826 7.92925 17.6752 7.95852 18.5533 8.16339C19.7386 8.44144 20.5581 9.12924 20.8508 10.3439C20.9532 10.7682 20.9971 11.2073 20.9971 11.6463C21.0118 16.1974 21.0118 20.734 21.0118 25.2851C21.0118 25.5485 21.0118 25.8266 21.0118 26.09C20.9825 27.2168 20.0459 27.8314 19.0069 27.3485C18.7874 27.2461 18.5825 26.9973 18.5094 26.7778C18.4069 26.4705 18.4069 26.1339 18.4069 25.8119C18.4069 20.9096 18.4069 16.0072 18.4069 11.1048C18.4069 10.9438 18.4069 10.7975 18.4069 10.6365C17.5289 10.6365 16.724 10.6365 15.8899 10.6365Z"/>
</svg>
