<svg width="40" height="40" viewBox="0 0 40 40" xmlns="http://www.w3.org/2000/svg">
<path fill-rule="evenodd" clip-rule="evenodd" d="M16.0304 21.9958L14.6579 14.6749V5.5H25.3421V14.6749L23.9696 21.9958H16.0304ZM22.8421 14.4426L21.8947 19.4958H18.1053L17.1579 14.4426V8H22.8421V14.4426ZM25.5 27.9398C25.5 30.9485 23.0694 33.5 20 33.5C16.9306 33.5 14.5 30.9485 14.5 27.9398C14.5 24.9311 16.9306 22.3796 20 22.3796C23.0694 22.3796 25.5 24.9311 25.5 27.9398ZM23 27.9398C23 29.6148 21.6421 31 20 31C18.3579 31 17 29.6148 17 27.9398C17 26.2647 18.3579 24.8796 20 24.8796C21.6421 24.8796 23 26.2647 23 27.9398Z"/>
</svg>
