<svg width="40" height="40" viewBox="0 0 40 40" xmlns="http://www.w3.org/2000/svg">
<g clip-path="url(#clip0_15843_7100)">
<path d="M23.75 31.2499V28.7499H33.75V31.2499H23.75Z"/>
<path d="M36.25 30L30.9375 34.3301V25.6698L36.25 30Z"/>
<path fill-rule="evenodd" clip-rule="evenodd" d="M30 38.2142C34.5366 38.2142 38.2143 34.5365 38.2143 29.9999C38.2143 25.4633 34.5366 21.7856 30 21.7856C25.4634 21.7856 21.7857 25.4633 21.7857 29.9999C21.7857 34.5365 25.4634 38.2142 30 38.2142ZM30 39.9999C35.5229 39.9999 40 35.5227 40 29.9999C40 24.4771 35.5229 19.9999 30 19.9999C24.4772 19.9999 20 24.4771 20 29.9999C20 35.5227 24.4772 39.9999 30 39.9999Z"/>
<path fill-rule="evenodd" clip-rule="evenodd" d="M18.3272 15.7223C21.7636 15.7223 24.5494 12.9365 24.5494 9.50004C24.5494 6.06361 21.7636 3.27783 18.3272 3.27783C14.8908 3.27783 12.105 6.06361 12.105 9.50004C12.105 9.62226 12.1085 9.74365 12.1155 9.86412C12.1369 11.1319 12.551 12.304 13.2412 13.2643C12.5513 12.3044 12.1374 11.1329 12.1155 9.86578C12.3049 13.132 15.0135 15.7223 18.3272 15.7223ZM18.3272 13.2223C20.3829 13.2223 22.0494 11.5558 22.0494 9.50004C22.0494 7.44432 20.3829 5.77783 18.3272 5.77783C16.2715 5.77783 14.605 7.44432 14.605 9.50004C14.605 11.5558 16.2715 13.2223 18.3272 13.2223Z"/>
<path d="M24.9605 14.6865C25.9607 13.3011 26.55 11.5995 26.55 9.7602C26.55 9.36389 26.5227 8.97397 26.4697 8.59222C26.5849 8.58388 26.7012 8.57963 26.8185 8.57963C29.4464 8.57963 31.5767 10.7099 31.5767 13.3378C31.5767 14.6421 31.052 15.8238 30.2021 16.6833L24.9605 14.6865Z"/>
<path d="M11.2892 14.6865L6.04774 16.6833C5.19787 15.8237 4.67313 14.6421 4.67313 13.3378C4.67313 10.71 6.80344 8.57965 9.43132 8.57965C9.54859 8.57965 9.66486 8.58389 9.78 8.59223C9.72706 8.97397 9.69969 9.36389 9.69969 9.7602C9.69969 11.5995 10.2891 13.3011 11.2892 14.6865Z"/>
<path d="M3.79669 19.3688V26.9328H0V20.8151L3.79669 19.3688Z"/>
<path d="M8.5 24.4375V20.6604L12.7009 19.06C14.3628 20.0071 16.2872 20.5486 18.3334 20.5486C20.2344 20.5486 22.0302 20.0812 23.6081 19.2555C24.8019 18.5438 26.1244 18.0253 27.5322 17.7434L23.6673 16.2711C22.1816 17.3872 20.3347 18.0486 18.3334 18.0486C16.332 18.0486 14.4852 17.3872 12.9994 16.271L6 18.9375V26.9375H17.8779C18.0979 26.064 18.4098 25.227 18.8027 24.4375H8.5Z"/>
</g>
<defs>
<clipPath id="clip0_15843_7100">
<rect width="40" height="40" fill="white"/>
</clipPath>
</defs>
</svg>
