<svg width="40" height="40" viewBox="0 0 40 40" xmlns="http://www.w3.org/2000/svg">
<g clip-path="url(#clip0_15843_7099)">
<path d="M28.75 23.75H31.25V36.25H28.75V23.75Z"/>
<path d="M23.75 31.25V28.75H36.25V31.25H23.75Z"/>
<path fill-rule="evenodd" clip-rule="evenodd" d="M30 38.2143C34.5366 38.2143 38.2143 34.5367 38.2143 30C38.2143 25.4634 34.5366 21.7858 30 21.7858C25.4634 21.7858 21.7857 25.4634 21.7857 30C21.7857 34.5367 25.4634 38.2143 30 38.2143ZM30 40C35.5229 40 40 35.5229 40 30C40 24.4772 35.5229 20 30 20C24.4772 20 20 24.4772 20 30C20 35.5229 24.4772 40 30 40Z"/>
<path fill-rule="evenodd" clip-rule="evenodd" d="M18.3272 15.7223C21.7636 15.7223 24.5494 12.9365 24.5494 9.50004C24.5494 6.06361 21.7636 3.27783 18.3272 3.27783C14.8908 3.27783 12.105 6.06361 12.105 9.50004C12.105 9.62225 12.1085 9.74363 12.1154 9.86409C12.1367 11.1201 12.5432 12.2822 13.2219 13.2375C12.5435 12.2827 12.1371 11.1211 12.1155 9.86575C12.3048 13.132 15.0135 15.7223 18.3272 15.7223ZM18.3272 13.2223C20.3829 13.2223 22.0494 11.5558 22.0494 9.50004C22.0494 7.44432 20.3829 5.77783 18.3272 5.77783C16.2715 5.77783 14.605 7.44432 14.605 9.50004C14.605 11.5558 16.2715 13.2223 18.3272 13.2223Z"/>
<path d="M24.9605 14.6867C25.9607 13.3013 26.55 11.5997 26.55 9.76039C26.55 9.36408 26.5227 8.97416 26.4697 8.59241C26.5849 8.58407 26.7012 8.57982 26.8185 8.57982C29.4464 8.57982 31.5767 10.7101 31.5767 13.338C31.5767 14.6423 31.052 15.824 30.2021 16.6835L24.9605 14.6867Z"/>
<path d="M11.2892 14.6867L6.04774 16.6834C5.19787 15.8239 4.67313 14.6423 4.67313 13.338C4.67313 10.7102 6.80344 8.57984 9.43132 8.57984C9.54859 8.57984 9.66486 8.58408 9.78 8.59242C9.72706 8.97416 9.69969 9.36408 9.69969 9.76039C9.69969 11.5997 10.2891 13.3013 11.2892 14.6867Z"/>
<path d="M3.79669 19.369V26.933H0V20.8153L3.79669 19.369Z"/>
<path d="M8.5 24.4375V20.6604L12.7009 19.0601C14.3628 20.0071 16.2872 20.5487 18.3334 20.5487C20.2349 20.5487 22.0312 20.081 23.6095 19.2548C24.803 18.5435 26.125 18.0253 27.5324 17.7436L23.6673 16.2711C22.1816 17.3873 20.3347 18.0487 18.3334 18.0487C16.332 18.0487 14.4852 17.3873 12.9994 16.2711L6 18.9375V26.9375H17.8779C18.0979 26.064 18.4098 25.227 18.8028 24.4375H8.5Z"/>
</g>
<defs>
<clipPath id="clip0_15843_7099">
<rect width="40" height="40" fill="white"/>
</clipPath>
</defs>
</svg>
