<svg width="40" height="40" viewBox="0 0 40 40" xmlns="http://www.w3.org/2000/svg">
<g clip-path="url(#clip0_15843_7098)">
<path fill-rule="evenodd" clip-rule="evenodd" d="M30.5634 31.5998C32.4034 31.5998 33.8301 30.3065 33.8301 28.5332C33.8301 26.7598 32.4034 25.3332 30.5634 25.3332H27.0301V29.7332H26.0967V31.5998H27.0301V32.1465H26.0967V33.4532H27.0301V34.6665H29.1634V33.4532H31.9634V32.1465H29.1634V31.5998H30.5634ZM29.1634 27.3332H30.5634C31.2167 27.3332 31.6967 27.8532 31.6967 28.5332C31.6967 29.2132 31.2167 29.7332 30.5634 29.7332H29.1634V27.3332Z"/>
<path fill-rule="evenodd" clip-rule="evenodd" d="M30 38.2141C34.5366 38.2141 38.2143 34.5365 38.2143 29.9999C38.2143 25.4632 34.5366 21.7856 30 21.7856C25.4634 21.7856 21.7857 25.4632 21.7857 29.9999C21.7857 34.5365 25.4634 38.2141 30 38.2141ZM30 39.9999C35.5229 39.9999 40 35.5227 40 29.9999C40 24.477 35.5229 19.9999 30 19.9999C24.4772 19.9999 20 24.477 20 29.9999C20 35.5227 24.4772 39.9999 30 39.9999Z"/>
<path fill-rule="evenodd" clip-rule="evenodd" d="M18.3333 15.4444C20.0429 15.4444 21.5915 14.7549 22.7162 13.6388C22.5389 13.8484 22.3476 14.0457 22.1437 14.2292C22.348 14.0454 22.5396 13.8478 22.7171 13.6379C23.8525 12.5106 24.5555 10.9485 24.5555 9.22221C24.5555 5.78578 21.7697 3 18.3333 3C14.8968 3 12.1111 5.78578 12.1111 9.22221C12.1111 9.32678 12.1136 9.43075 12.1187 9.53405C12.2816 12.8252 15.0017 15.4444 18.3333 15.4444ZM18.3333 12.9444C20.389 12.9444 22.0555 11.2779 22.0555 9.22221C22.0555 7.16649 20.389 5.5 18.3333 5.5C16.2776 5.5 14.6111 7.16649 14.6111 9.22221C14.6111 11.2779 16.2776 12.9444 18.3333 12.9444Z"/>
<path d="M24.9605 14.6864C25.9607 13.301 26.55 11.5994 26.55 9.76016C26.55 9.36385 26.5227 8.97392 26.4697 8.59218C26.5849 8.58384 26.7012 8.57959 26.8185 8.57959C29.4464 8.57959 31.5767 10.7099 31.5767 13.3378C31.5767 14.642 31.052 15.8237 30.2021 16.6832L24.9605 14.6864Z"/>
<path d="M11.2892 14.6865L6.04774 16.6832C5.19787 15.8237 4.67313 14.642 4.67313 13.3378C4.67313 10.7099 6.80344 8.5796 9.43132 8.5796C9.54859 8.5796 9.66486 8.58385 9.78 8.59219C9.72706 8.97393 9.69969 9.36385 9.69969 9.76016C9.69969 11.5994 10.2891 13.301 11.2892 14.6865Z"/>
<path d="M3.79669 19.3687V26.9328H0V20.8151L3.79669 19.3687Z"/>
<path d="M8.5 24.4999V20.7228L12.7009 19.1225C14.3628 20.0695 16.2872 20.6111 18.3334 20.6111C20.0476 20.6111 21.6762 20.231 23.1367 19.5509C24.4209 18.7057 25.8701 18.0909 27.4255 17.7653L23.6673 16.3335C22.1816 17.4497 20.3347 18.1111 18.3334 18.1111C16.332 18.1111 14.4852 17.4497 12.9994 16.3335L6 18.9999V26.9999H17.8623C18.0774 26.1269 18.3841 25.29 18.7719 24.4999H8.5Z"/>
</g>
<defs>
<clipPath id="clip0_15843_7098">
<rect width="40" height="40" fill="white"/>
</clipPath>
</defs>
</svg>
