<svg width="40" height="40" viewBox="0 0 40 40" xmlns="http://www.w3.org/2000/svg">
<path fill-rule="evenodd" clip-rule="evenodd" d="M24 10V3H10V10H2V13H4.15625L7 26H15.6591C15.7985 25.1337 16.0268 24.2971 16.3345 23.5H9.01224L6.71537 13H27.2846L26.7237 15.5644C27.1433 15.5218 27.5691 15.5 28 15.5C28.433 15.5 28.861 15.522 29.2827 15.565L29.8438 13H32V10H24ZM21.5 5.5H12.5V10H21.5V5.5Z"/>
<path d="M26.75 23.333V26.7497H23.3333V29.2497H26.75V32.6663H29.25V29.2497H32.6667V26.7497H29.25V23.333H26.75Z"/>
<path fill-rule="evenodd" clip-rule="evenodd" d="M28 38C33.5228 38 38 33.5228 38 28C38 22.4772 33.5228 18 28 18C22.4772 18 18 22.4772 18 28C18 33.5228 22.4772 38 28 38ZM28 35.5C32.1421 35.5 35.5 32.1421 35.5 28C35.5 23.8579 32.1421 20.5 28 20.5C23.8579 20.5 20.5 23.8579 20.5 28C20.5 32.1421 23.8579 35.5 28 35.5Z"/>
</svg>
