<svg width="40" height="40" viewBox="0 0 40 40" xmlns="http://www.w3.org/2000/svg">
<path d="M5.11609 6.88398L33.1161 34.884L34.8839 33.1162L6.88386 5.11621L5.11609 6.88398Z"/>
<path d="M11 18.0001C11 17.4675 11.0462 16.9456 11.135 16.4384L13.5 18.8034V25.6926L12.4154 27.5001H22.1967L24.6967 30.0001H7.99997L11 25.0001V18.0001Z"/>
<path d="M29 23.6968L26.5 21.1968V18.0001C26.5 14.9098 24.341 12.3179 21.4468 11.6611L20 11.3328L18.5532 11.6611C18.1392 11.7551 17.7403 11.8886 17.3606 12.0575L15.5046 10.2015C16.272 9.75812 17.111 9.42482 18 9.22311V8.00009C18 6.89552 18.8954 6.00009 20 6.00009C21.1045 6.00009 22 6.89552 22 8.00009V9.22311C26.0079 10.1326 29 13.7169 29 18.0001V23.6968Z"/>
<path d="M20 35.0002C21.6568 35.0002 23 33.657 23 32.0002H17C17 33.657 18.3431 35.0002 20 35.0002Z"/>
</svg>
