<svg width="40" height="40" viewBox="0 0 40 40" xmlns="http://www.w3.org/2000/svg">
<path d="M13.6711 5.79395C9.86313 6.83248 7.11915 10.1527 6.81642 14.0881L6.75366 14.904L9.2463 15.0958L9.30906 14.2799C9.53075 11.3979 11.5402 8.96639 14.3289 8.20585L13.6711 5.79395Z"/>
<path d="M20 35.0001C21.6568 35.0001 23 33.6569 23 32.0001H17C17 33.6569 18.3431 35.0001 20 35.0001Z"/>
<path d="M33.1835 14.0881C32.8808 10.1527 30.1368 6.83248 26.3289 5.79395L25.6711 8.20585C28.4597 8.96639 30.4692 11.3979 30.6909 14.2799L30.7537 15.0958L33.2463 14.904L33.1835 14.0881Z"/>
<path fill-rule="evenodd" clip-rule="evenodd" d="M7.99998 30H32L29 25V18C29 13.7168 26.008 10.1325 22 9.22302V8C22 6.89543 21.1046 6 20 6C18.8954 6 18 6.89543 18 8V9.22302C13.992 10.1325 11 13.7168 11 18V25L7.99998 30ZM18.5532 11.661L20 11.3327L21.4468 11.661C24.341 12.3178 26.5 14.9098 26.5 18V25.6925L27.5845 27.5H12.4155L13.5 25.6925V18C13.5 14.9098 15.6589 12.3178 18.5532 11.661Z"/>
</svg>
