<svg width="40" height="40" viewBox="0 0 40 40" xmlns="http://www.w3.org/2000/svg">
<path fill-rule="evenodd" clip-rule="evenodd" d="M8 30H32L29 25V18C29 13.7168 26.008 10.1325 22 9.22302V8C22 6.89543 21.1046 6 20 6C18.8954 6 18 6.89543 18 8V9.22302C13.992 10.1325 11 13.7168 11 18V25L8 30ZM18.5532 11.661L20 11.3327L21.4468 11.661C24.3411 12.3178 26.5 14.9098 26.5 18V25.6925L27.5845 27.5H12.4155L13.5 25.6925V18C13.5 14.9098 15.6589 12.3178 18.5532 11.661Z"/>
<path d="M20 35.0001C21.6569 35.0001 23 33.6569 23 32.0001H17C17 33.6569 18.3431 35.0001 20 35.0001Z"/>
</svg>
