<svg width="40" height="40" viewBox="0 0 40 40" xmlns="http://www.w3.org/2000/svg">
<path d="M13.5532 8.66104L15 8.33275L16.4468 8.66104C19.3411 9.31778 21.5 11.9098 21.5 15V15.3208C22.2698 14.8512 23.0944 14.4626 23.9619 14.1666C23.6031 10.2581 20.745 7.07281 17 6.22302V5C17 3.89543 16.1046 3 15 3C13.8954 3 13 3.89543 13 5V6.22302C8.99202 7.13247 6 10.7168 6 15V22L3 27H15.5394C15.5133 26.6701 15.5 26.3366 15.5 26C15.5 25.4924 15.5303 24.9918 15.5891 24.5H7.41548L8.5 22.6925V15C8.5 11.9098 10.6589 9.31778 13.5532 8.66104Z"/>
<path d="M16.7435 31.4417C16.3692 30.6689 16.0721 29.8516 15.8623 29L12 29.0001C12 30.6569 13.3431 32.0001 15 32.0001C15.6502 32.0001 16.2521 31.7932 16.7435 31.4417Z"/>
<path d="M27.06 27.45H28.98L29.46 23.45V20.25H26.58V23.45L27.06 27.45Z"/>
<path d="M28.02 31.674C28.852 31.674 29.54 30.986 29.54 30.154C29.54 29.322 28.852 28.634 28.02 28.634C27.188 28.634 26.5 29.322 26.5 30.154C26.5 30.986 27.188 31.674 28.02 31.674Z"/>
<path fill-rule="evenodd" clip-rule="evenodd" d="M28 36C33.5228 36 38 31.5228 38 26C38 20.4772 33.5228 16 28 16C22.4772 16 18 20.4772 18 26C18 31.5228 22.4772 36 28 36ZM28 33.5C32.1421 33.5 35.5 30.1421 35.5 26C35.5 21.8579 32.1421 18.5 28 18.5C23.8579 18.5 20.5 21.8579 20.5 26C20.5 30.1421 23.8579 33.5 28 33.5Z"/>
</svg>
