<svg width="40" height="40" viewBox="0 0 40 40" xmlns="http://www.w3.org/2000/svg">
<path fill-rule="evenodd" clip-rule="evenodd" d="M16.5577 2.06909L29.4756 14.6694L24.6179 20L29.4756 25.3306L16.5577 37.9309V28.8448L14.4659 31.1402L9.50928 26.3947L15.3367 20L9.50928 13.6053L14.4659 8.85976L16.5577 11.1552V2.06909ZM19.0577 17.6102L14.344 12.4376L13 13.7243L18.719 20L13 26.2757L14.344 27.5624L19.0577 22.3898V32L26 25.2283L21.2355 20L26 14.7717L19.0577 8V17.6102ZM20.8968 17.6102L23.4124 14.8497L20.8968 12.396V17.6102ZM20.8968 22.3898V27.604L23.4124 25.1503L20.8968 22.3898Z"/>
</svg>
