<svg width="40" height="40" viewBox="0 0 40 40" xmlns="http://www.w3.org/2000/svg">
<path d="M33.1161 34.884L34.8839 33.1162L6.88386 5.11621L5.11609 6.88398L33.1161 34.884Z"/>
<path d="M9.50921 26.3949L15.0314 20.3352L16.801 22.1049L13 26.276L14.3439 27.5627L18.1177 23.4215L19.0577 24.3615V32.0002L22.9246 28.2284L24.6925 29.9963L16.5577 37.9312V28.845L14.4659 31.1405L9.50921 26.3949Z"/>
<path d="M20.8967 27.6043V26.2005L21.6073 26.9111L20.8967 27.6043Z"/>
<path d="M24.9445 19.6417L23.1748 17.8721L26 14.7719L19.0577 8.00025V13.7549L16.5577 11.2549V2.06934L29.4755 14.6697L24.9445 19.6417Z"/>
<path d="M20.8967 15.5939L21.8582 16.5554L23.4123 14.85L20.8967 12.3962V15.5939Z"/>
</svg>
