<svg width="40" height="40" viewBox="0 0 40 40" xmlns="http://www.w3.org/2000/svg">
<path d="M29.9999 13.5L22.9999 15.25V17.25L29.9999 15.45V13.5Z"/>
<path d="M22.9999 19.75L29.9999 18V19.95L22.9999 21.75V19.75Z"/>
<path d="M29.9999 22.5L22.9999 24.25V26.25L29.9999 24.45V22.5Z"/>
<path d="M10 13.5L17 15.25V17.25L10 15.45V13.5Z"/>
<path d="M10 18L17 19.75V21.75L10 19.95V18Z"/>
<path d="M17 24.25L10 22.5V24.45L17 26.25V24.25Z"/>
<path fill-rule="evenodd" clip-rule="evenodd" d="M20 11.0104L5.75 7.39307V28.6724L18.75 31.9724V32H21.25V31.9724L34.25 28.6724V7.39307L20 11.0104ZM21.25 13.2724V29.3931L31.75 26.7277V10.607L21.25 13.2724ZM18.75 13.2724L8.25 10.607V26.7277L18.75 29.3931V13.2724Z"/>
</svg>
