<svg width="40" height="40" viewBox="0 0 40 40" xmlns="http://www.w3.org/2000/svg">
<path fill-rule="evenodd" clip-rule="evenodd" d="M19.6844 6.49268L31.431 13.2748L31.7168 13.4375L31.7152 13.9939V14.9419L31.7125 14.9435L31.6792 26.561L19.7385 33.5001L19.2065 33.1779L7.6936 26.561L7.73039 13.4418L7.73669 13.4381V13.4354L8.82878 12.8008L9.03016 12.6833L19.6844 6.49268ZM19.7543 18.8751L11.635 14.1873L19.6886 9.50739L27.8079 14.1952L19.7543 18.8751ZM21.0586 21.1343L21.0345 29.7297L29.0748 25.0573L29.0994 16.4619L21.0586 21.1343ZM10.3307 16.4465L10.3065 25.0572L18.4257 29.7445L18.4499 21.1343L10.3307 16.4465Z"/>
</svg>
