<svg width="40" height="40" viewBox="0 0 40 40" xmlns="http://www.w3.org/2000/svg">
<path d="M12 26.5C13.1046 26.5 14 25.6046 14 24.5C14 23.3954 13.1046 22.5 12 22.5C10.8954 22.5 10 23.3954 10 24.5C10 25.6046 10.8954 26.5 12 26.5Z"/>
<path d="M30 24.5C30 25.6046 29.1046 26.5 28 26.5C26.8954 26.5 26 25.6046 26 24.5C26 23.3954 26.8954 22.5 28 22.5C29.1046 22.5 30 23.3954 30 24.5Z"/>
<path fill-rule="evenodd" clip-rule="evenodd" d="M7 6H33V30H32V34H27V30H13V34H8V30H7V6ZM30 19H10V9H30V19ZM9.5 22V27.5H30.5V22H9.5Z"/>
</svg>
