<svg width="40" height="40" viewBox="0 0 40 40" xmlns="http://www.w3.org/2000/svg">
<path d="M20 11C21.1046 11 22 10.0598 22 8.9C22 7.7402 20 4 20 4C20 4 18 7.7402 18 8.9C18 10.0598 18.8954 11 20 11Z"/>
<path fill-rule="evenodd" clip-rule="evenodd" d="M22 12V16H33V33H7V16H18V12H22ZM9.5 18.5H30.5V21.3559C29.8433 21.7125 29.3496 22.1684 28.9281 22.5575L28.9021 22.5815C28.1163 23.3069 27.6138 23.75 26.5 23.75C25.3806 23.75 24.8567 23.3004 24.063 22.5765L24.0166 22.5341C23.1848 21.7748 22.0622 20.75 20 20.75C17.8857 20.75 16.7645 21.7853 15.9281 22.5575L15.9022 22.5815C15.1163 23.3069 14.6138 23.75 13.5 23.75C12.3862 23.75 11.8837 23.3069 11.0979 22.5815L11.0719 22.5575C10.6504 22.1684 10.1567 21.7125 9.5 21.3559V18.5ZM30.5 24.5088V30.5H9.5V24.5088C10.3289 25.2727 11.4457 26.25 13.5 26.25C15.6143 26.25 16.7355 25.2147 17.5719 24.4425L17.5978 24.4185C18.3837 23.6931 18.8862 23.25 20 23.25C21.0708 23.25 21.5701 23.6865 22.3783 24.4235L22.3918 24.4359C23.2412 25.2107 24.3806 26.25 26.5 26.25C28.5543 26.25 29.6711 25.2727 30.5 24.5088Z"/>
</svg>
