<svg width="40" height="40" viewBox="0 0 40 40" xmlns="http://www.w3.org/2000/svg">
<path fill-rule="evenodd" clip-rule="evenodd" d="M13.5 9V15H26.5V9H13.5ZM24 11.5H16V12.5H24V11.5Z"/>
<path d="M16.5 17H13.5V20H16.5V17Z"/>
<path d="M18.5 17H21.5V20H18.5V17Z"/>
<path d="M26.45 17H23.45V20H26.45V17Z"/>
<path d="M13.5 22H16.5V25H13.5V22Z"/>
<path d="M21.5 22H18.5V25H21.5V22Z"/>
<path d="M23.45 22H26.45V25H23.45V22Z"/>
<path d="M16.5 27H13.5V30H16.5V27Z"/>
<path d="M18.5 27H21.5V30H18.5V27Z"/>
<path d="M26.45 27H23.45V30H26.45V27Z"/>
<path fill-rule="evenodd" clip-rule="evenodd" d="M10 5V34H30V5H10ZM27.5 7.5H12.5V31.5H27.5V7.5Z"/>
</svg>
