<svg width="40" height="40" viewBox="0 0 40 40" xmlns="http://www.w3.org/2000/svg">
<path d="M11.25 4H8.75V6.5H6.25V9H31.75V6.5H29.25V4H26.75V6.5H11.25V4Z"/>
<path d="M17.75 17.5923C17.6288 17.7256 17.5104 17.8615 17.3949 18H15.25V15.5H17.75V17.5923Z"/>
<path d="M23.4884 14H8.75V29.5H14.9966C15.2519 30.377 15.6007 31.2142 16.0315 32H6.25V11.5H31.75V14.4341C30.2855 13.832 28.6815 13.5 27 13.5C25.7808 13.5 24.6024 13.6745 23.4884 14Z"/>
<path d="M10.25 15.5H12.75V18H10.25V15.5Z"/>
<path d="M10.25 20.5H12.75V23H10.25V20.5Z"/>
<path d="M12.75 25.5H10.25V28H12.75V25.5Z"/>
<path d="M25.0769 25.2308V22.9231L21.2308 26.3846L25.0769 29.8462V27.5385H32.7692V25.2308H25.0769Z"/>
<path fill-rule="evenodd" clip-rule="evenodd" d="M27 36C32.5228 36 37 31.5228 37 26C37 20.4772 32.5228 16 27 16C21.4772 16 17 20.4772 17 26C17 31.5228 21.4772 36 27 36ZM27 33.5C31.1421 33.5 34.5 30.1421 34.5 26C34.5 21.8579 31.1421 18.5 27 18.5C22.8579 18.5 19.5 21.8579 19.5 26C19.5 30.1421 22.8579 33.5 27 33.5Z"/>
</svg>
