<svg width="40" height="40" viewBox="0 0 40 40" xmlns="http://www.w3.org/2000/svg">
<path d="M11.25 4H8.75V6.5H6.25V9H31.75V6.5H29.25V4H26.75V6.5H11.25V4Z"/>
<path d="M17.75 17.5923C17.6288 17.7256 17.5104 17.8615 17.3949 18H15.25V15.5H17.75V17.5923Z"/>
<path d="M23.4884 14H8.75V29.5H14.9966C15.2519 30.377 15.6007 31.2142 16.0315 32H6.25V11.5H31.75V14.4341C30.2855 13.832 28.6815 13.5 27 13.5C25.7808 13.5 24.6024 13.6745 23.4884 14Z"/>
<path d="M10.25 15.5H12.75V18H10.25V15.5Z"/>
<path d="M10.25 20.5H12.75V23H10.25V20.5Z"/>
<path d="M12.75 25.5H10.25V28H12.75V25.5Z"/>
<path d="M27.87 27.424H25.31C25.31 26.4215 26.0442 25.7493 26.7263 25.125C27.3178 24.5835 27.87 24.078 27.87 23.424C27.87 22.864 27.502 22.496 26.686 22.496C25.806 22.496 25.278 23.088 24.958 23.84L22.75 22.576C23.454 20.928 25.006 20 26.782 20C28.606 20 30.43 21.12 30.43 23.2C30.43 24.6186 29.5235 25.4537 28.7894 26.13C28.2898 26.5902 27.87 26.9769 27.87 27.424Z"/>
<path d="M28.11 30.128C28.11 30.96 27.422 31.648 26.59 31.648C25.758 31.648 25.07 30.96 25.07 30.128C25.07 29.296 25.758 28.608 26.59 28.608C27.422 28.608 28.11 29.296 28.11 30.128Z"/>
<path fill-rule="evenodd" clip-rule="evenodd" d="M26.75 36C32.2728 36 36.75 31.5228 36.75 26C36.75 20.4772 32.2728 16 26.75 16C21.2272 16 16.75 20.4772 16.75 26C16.75 31.5228 21.2272 36 26.75 36ZM26.75 33.5C30.8921 33.5 34.25 30.1421 34.25 26C34.25 21.8579 30.8921 18.5 26.75 18.5C22.6079 18.5 19.25 21.8579 19.25 26C19.25 30.1421 22.6079 33.5 26.75 33.5Z"/>
</svg>
