<svg width="40" height="40" viewBox="0 0 40 40" xmlns="http://www.w3.org/2000/svg">
<path fill-rule="evenodd" clip-rule="evenodd" d="M26 20C26 23.3137 23.3137 26 20 26C16.6863 26 14 23.3137 14 20C14 16.6863 16.6863 14 20 14C23.3137 14 26 16.6863 26 20ZM23.5 20C23.5 21.933 21.933 23.5 20 23.5C18.067 23.5 16.5 21.933 16.5 20C16.5 18.067 18.067 16.5 20 16.5C21.933 16.5 23.5 18.067 23.5 20Z"/>
<path fill-rule="evenodd" clip-rule="evenodd" d="M26 9H14L11 12H7V30H33V12H29L26 9ZM9.5 14.5H12.0355L15.0355 11.5H24.9645L27.9645 14.5H30.5V27.5H9.5V14.5Z"/>
</svg>
