<svg width="40" height="40" viewBox="0 0 40 40" xmlns="http://www.w3.org/2000/svg">
<path d="M5.5 10.5H8.03553L11.0355 7.5H20.9645L23.9645 10.5H26.5V13.5098C26.6659 13.5033 26.8325 13.5 27 13.5C27.6807 13.5 28.3488 13.5544 29 13.6591V8H25L22 5H10L7 8H3V26H14.5C14.5 25.1438 14.5861 24.3078 14.75 23.5H5.5V10.5Z"/>
<path d="M16 10C18.8359 10 21.2123 11.9675 21.8386 14.612C21.0063 14.9898 20.2228 15.4562 19.5 15.9991C19.4995 14.0665 17.9327 12.5 16 12.5C14.067 12.5 12.5 14.067 12.5 16C12.5 17.933 14.067 19.5 16 19.5C16.1114 19.5 16.2215 19.4948 16.3302 19.4846C15.8598 20.2534 15.4701 21.0769 15.1729 21.9435C12.2506 21.5406 10 19.0331 10 16C10 12.6863 12.6863 10 16 10Z"/>
<path d="M22.3333 24.75H31.6667V27.25H22.3333V24.75Z"/>
<path fill-rule="evenodd" clip-rule="evenodd" d="M27 36C32.5228 36 37 31.5228 37 26C37 20.4772 32.5228 16 27 16C21.4772 16 17 20.4772 17 26C17 31.5228 21.4772 36 27 36ZM27 33.5C31.1421 33.5 34.5 30.1421 34.5 26C34.5 21.8579 31.1421 18.5 27 18.5C22.8579 18.5 19.5 21.8579 19.5 26C19.5 30.1421 22.8579 33.5 27 33.5Z"/>
</svg>
