<svg width="40" height="40" viewBox="0 0 40 40" xmlns="http://www.w3.org/2000/svg">
<path fill-rule="evenodd" clip-rule="evenodd" d="M5.11609 6.88398L33.1161 34.884L34.8839 33.1162L31.7676 30H31.7677L29.2677 27.5H29.2676H29.2676L25.0339 23.2662L25.0339 23.2662L23.1962 21.4284L23.1961 21.4285L18.5715 16.8038L18.5715 16.8038L16.7338 14.9661L16.7337 14.9661L14.1516 12.3839L14.1516 12.3839L12.3839 10.6161L12.3838 10.6162L6.88386 5.11621L5.11609 6.88398ZM6.99997 30V12.3033L9.49997 14.8033V27.5H22.1967L24.6967 30H6.99997ZM14 20C14 19.7767 14.0122 19.5562 14.0359 19.3393L20.6607 25.964C20.4437 25.9878 20.2233 26 20 26C16.6863 26 14 23.3137 14 20ZM33 27.6967L30.5 25.1967V14.5H27.9644L24.9644 11.5H16.8033L14.3033 9H26L29 12H33V27.6967ZM20 14C19.7767 14 19.5562 14.0122 19.3392 14.036L25.964 20.6607C25.9878 20.4438 26 20.2233 26 20C26 16.6863 23.3137 14 20 14Z"/>
</svg>
