<svg width="40" height="40" viewBox="0 0 40 40" xmlns="http://www.w3.org/2000/svg">
<path d="M12 23.5C13.1046 23.5 14 22.6046 14 21.5C14 20.3954 13.1046 19.5 12 19.5C10.8954 19.5 10 20.3954 10 21.5C10 22.6046 10.8954 23.5 12 23.5Z"/>
<path d="M30 21.5C30 22.6046 29.1046 23.5 28 23.5C26.8954 23.5 26 22.6046 26 21.5C26 20.3954 26.8954 19.5 28 19.5C29.1046 19.5 30 20.3954 30 21.5Z"/>
<path fill-rule="evenodd" clip-rule="evenodd" d="M29 8H11L8.33333 14H5V17H7V31H12V27H28V31H33V17H35V14H31.6667L29 8ZM30.5 18.5H9.5V24.5H30.5V18.5ZM27.3753 10.5L29.8198 16H10.1802L12.6247 10.5H27.3753Z"/>
</svg>
