<svg width="40" height="40" viewBox="0 0 40 40" xmlns="http://www.w3.org/2000/svg">
<path d="M20.3077 10.6918H18L21.4615 14.538L24.9231 10.6918H22.6154V2.99951H20.3077V10.6918Z"/>
<path fill-rule="evenodd" clip-rule="evenodd" d="M7 12.3065H12.0208L12.8732 15.871H33L30.1408 28.4516H15.8816L16.2922 30.1688C17.1718 30.3153 17.9192 30.8529 18.3494 31.5968H25.0054C25.5129 30.7193 26.4617 30.1288 27.5484 30.1288C29.1696 30.1288 30.4839 31.4431 30.4839 33.0643C30.4839 34.6855 29.1696 35.9998 27.5484 35.9998C26.1432 35.9998 24.9686 35.0124 24.6805 33.6936H18.6743C18.3862 35.0124 17.2117 35.9998 15.8065 35.9998C14.1852 35.9998 12.871 34.6855 12.871 33.0643C12.871 32.0209 13.4154 31.1046 14.2356 30.584L10.3663 14.4033H7V12.3065ZM14.3255 18.371L16.0484 25.9516H28.1452L29.8681 18.371H14.3255Z"/>
</svg>
