<svg width="40" height="40" viewBox="0 0 40 40" xmlns="http://www.w3.org/2000/svg">
<path d="M7.02079 4.31055H2V6.40732H5.3663L9.23561 22.588C8.41536 23.1086 7.87097 24.0249 7.87097 25.0683C7.87097 26.6895 9.18523 28.0038 10.8065 28.0038C12.2117 28.0038 13.3862 27.0164 13.6743 25.6976H15.5671C15.6415 24.9789 15.7769 24.2782 15.9679 23.6009H13.3494C12.9192 22.8569 12.1718 22.3193 11.2922 22.1728L10.8816 20.4556H17.3483C17.9141 19.5368 18.5954 18.6967 19.3721 17.9556H11.0484L9.32548 10.375H24.8681L23.7631 15.2368C24.6264 14.9259 25.5337 14.7072 26.4732 14.5928L28 7.875H7.87316L7.02079 4.31055Z"/>
<path d="M26.75 22.333V25.7497H23.3333V28.2497H26.75V31.6663H29.25V28.2497H32.6667V25.7497H29.25V22.333H26.75Z"/>
<path fill-rule="evenodd" clip-rule="evenodd" d="M28 37C33.5228 37 38 32.5228 38 27C38 21.4772 33.5228 17 28 17C22.4772 17 18 21.4772 18 27C18 32.5228 22.4772 37 28 37ZM28 34.5C32.1421 34.5 35.5 31.1421 35.5 27C35.5 22.8579 32.1421 19.5 28 19.5C23.8579 19.5 20.5 22.8579 20.5 27C20.5 31.1421 23.8579 34.5 28 34.5Z"/>
</svg>
