<svg width="40" height="40" viewBox="0 0 40 40" xmlns="http://www.w3.org/2000/svg">
<path d="M33.1161 34.884L34.8839 33.1162L6.88386 5.11621L5.11609 6.88398L33.1161 34.884Z"/>
<path d="M13.4401 27.0568L10.8273 16.1309L14.7415 20.0451L15.235 22.2163H16.9128L19.4128 24.7163H15.2462L15.6969 26.6012C16.6621 26.7619 17.4821 27.3518 17.9543 28.1681H22.8646L27.6749 32.9784C26.3019 32.8196 25.192 31.7975 24.9018 30.469H18.311C17.9949 31.9163 16.7059 32.9999 15.1638 32.9999C13.3848 32.9999 11.9426 31.5577 11.9426 29.7786C11.9426 28.6336 12.54 27.6281 13.4401 27.0568Z"/>
<path d="M30.0194 24.7163L27.5194 22.2163H28.8982L30.8994 13.4108H18.7139L16.2139 10.9108H34.0313L30.8937 24.7163H30.0194Z"/>
</svg>
