<svg width="40" height="40" viewBox="0 0 40 40" xmlns="http://www.w3.org/2000/svg">
<path d="M22.6154 6.84615H24.9231L21.4615 3L18 6.84615H20.3077V14.5385H22.6154V6.84615Z"/>
<path fill-rule="evenodd" clip-rule="evenodd" d="M7 12.3066H12.0208L12.8732 15.8711H33L30.1408 28.4517H15.8816L16.2922 30.1689C17.1718 30.3154 17.9192 30.853 18.3494 31.597H25.0054C25.5129 30.7194 26.4617 30.1289 27.5484 30.1289C29.1696 30.1289 30.4839 31.4432 30.4839 33.0644C30.4839 34.6856 29.1696 35.9999 27.5484 35.9999C26.1432 35.9999 24.9686 35.0125 24.6805 33.6937H18.6743C18.3862 35.0125 17.2117 35.9999 15.8065 35.9999C14.1852 35.9999 12.871 34.6856 12.871 33.0644C12.871 32.021 13.4154 31.1047 14.2356 30.5841L10.3663 14.4034H7V12.3066ZM14.3255 18.3711L16.0484 25.9517H28.1452L29.8681 18.3711H14.3255Z"/>
</svg>
