<svg width="40" height="40" viewBox="0 0 40 40" xmlns="http://www.w3.org/2000/svg">
<path fill-rule="evenodd" clip-rule="evenodd" d="M12.0824 16.2783C11.4235 15.2739 11 13.9348 11 12.5C11 11.0652 11.3765 9.72609 12.0824 8.72174C12.7882 7.71739 13.7765 7 15 7C16.2235 7 17.2118 7.71739 17.9176 8.72174C18.5765 9.72609 19 11.0652 19 12.5C19 13.9348 18.6235 15.2739 17.9176 16.2783C17.2118 17.2826 16.2235 18 15 18C13.7765 18 12.7882 17.2826 12.0824 16.2783ZM15.3287 15.3953C15.4755 15.3036 15.6681 15.1312 15.8723 14.8407C16.2274 14.3355 16.5 13.5247 16.5 12.5C16.5 11.5564 16.222 10.7108 15.849 10.1266C15.6535 9.85578 15.4699 9.6929 15.3287 9.60473C15.1982 9.52324 15.0991 9.5 15 9.5C14.9009 9.5 14.8018 9.52324 14.6713 9.60473C14.5245 9.69638 14.3319 9.86877 14.1277 10.1593C13.7726 10.6645 13.5 11.4753 13.5 12.5C13.5 13.4436 13.778 14.2892 14.1509 14.8734C14.3465 15.1442 14.5301 15.3071 14.6713 15.3953C14.8018 15.4768 14.9009 15.5 15 15.5C15.0991 15.5 15.1982 15.4768 15.3287 15.3953Z"/>
<path fill-rule="evenodd" clip-rule="evenodd" d="M17.3375 31.2011C17.9255 30.7373 18.5511 30.2438 19.9992 30.2438C21.4473 30.2438 22.0729 30.7373 22.6608 31.2011C23.182 31.6122 23.6736 31.9999 24.6821 31.9999C27.687 31.9999 29.365 28.6828 27.8041 26.5365C26.2431 24.3901 19.9992 19.9023 19.9992 19.9023C17.0724 21.8536 13.7553 24.3901 12.1943 26.5365C10.6333 28.6828 12.3114 31.9999 15.3163 31.9999C16.3248 31.9999 16.8164 31.6122 17.3375 31.2011ZM17.4641 28.2069C18.2054 27.9013 19.0353 27.7438 19.9992 27.7438C20.9631 27.7438 21.793 27.9013 22.5343 28.2069C23.2612 28.5065 23.7794 28.9014 24.1009 29.1531C24.4607 29.4346 24.5017 29.4659 24.5504 29.491C24.5632 29.4935 24.6038 29.4999 24.6821 29.4999C25.1948 29.4999 25.5625 29.2382 25.7617 28.8739C25.9748 28.484 25.9056 28.1765 25.7822 28.0069C25.5579 27.6985 25.0455 27.1636 24.2559 26.4548C23.5043 25.78 22.6215 25.0531 21.7645 24.3747C21.106 23.8533 20.474 23.3695 19.9456 22.9715C17.5214 24.6873 15.2766 26.5488 14.2161 28.0069C14.0928 28.1765 14.0236 28.484 14.2367 28.8739C14.4358 29.2382 14.8036 29.4999 15.3163 29.4999C15.3945 29.4999 15.4351 29.4935 15.448 29.491C15.4966 29.4659 15.5377 29.4346 15.8974 29.1531C16.219 28.9014 16.7372 28.5065 17.4641 28.2069Z"/>
<path fill-rule="evenodd" clip-rule="evenodd" d="M21 12.5C21 13.9348 21.4235 15.2739 22.0824 16.2783C22.7882 17.2826 23.7765 18 25 18C26.2235 18 27.2118 17.2826 27.9176 16.2783C28.6235 15.2739 29 13.9348 29 12.5C29 11.0652 28.5765 9.72609 27.9176 8.72174C27.2118 7.71739 26.2235 7 25 7C23.7765 7 22.7882 7.71739 22.0824 8.72174C21.3765 9.72609 21 11.0652 21 12.5ZM25.8723 14.8407C25.6681 15.1312 25.4755 15.3036 25.3287 15.3953C25.1982 15.4768 25.0991 15.5 25 15.5C24.9009 15.5 24.8018 15.4768 24.6713 15.3953C24.5301 15.3071 24.3465 15.1442 24.1509 14.8734C23.778 14.2892 23.5 13.4436 23.5 12.5C23.5 11.4753 23.7726 10.6645 24.1277 10.1593C24.3319 9.86877 24.5245 9.69638 24.6713 9.60473C24.8018 9.52324 24.9009 9.5 25 9.5C25.0991 9.5 25.1982 9.52324 25.3287 9.60473C25.4699 9.6929 25.6535 9.85578 25.849 10.1266C26.222 10.7108 26.5 11.5564 26.5 12.5C26.5 13.5247 26.2274 14.3355 25.8723 14.8407Z"/>
<path fill-rule="evenodd" clip-rule="evenodd" d="M11.6189 19.6974C12.051 20.9902 12.105 22.283 11.8349 23.3603C11.5108 24.4914 10.8087 25.461 9.72842 25.8381C8.64816 26.2151 7.51388 25.8919 6.54165 25.2994C5.62343 24.653 4.81323 23.5757 4.38113 22.3368C3.94902 21.0441 3.89501 19.7513 4.16507 18.674C4.48915 17.5428 5.19132 16.5733 6.27158 16.1962C7.35184 15.7653 8.54013 16.0885 9.45835 16.7349C10.3766 17.3812 11.1868 18.4585 11.6189 19.6974ZM7.14707 18.5385L7.09544 18.5566C7.02485 18.5812 6.7617 18.7226 6.58035 19.3219C6.45016 19.8789 6.46003 20.6611 6.7469 21.5284C7.01025 22.2736 7.48213 22.8788 7.91866 23.2098C8.51583 23.5552 8.82035 23.5071 8.90456 23.4777C8.97515 23.4531 9.2383 23.3117 9.41965 22.7124C9.54984 22.1553 9.53997 21.3732 9.2531 20.5058C8.97722 19.7252 8.47249 19.0982 8.01928 18.7791C7.80491 18.6282 7.59891 18.5452 7.44254 18.5144C7.29809 18.486 7.22848 18.5061 7.19787 18.5183L7.14707 18.5385Z"/>
<path fill-rule="evenodd" clip-rule="evenodd" d="M28.1651 23.3603C27.895 22.283 27.949 20.9902 28.3811 19.6974C28.8132 18.4585 29.6234 17.3812 30.5416 16.7349C31.4599 16.0885 32.6482 15.7653 33.7284 16.1962C34.8087 16.5733 35.5108 17.5428 35.8349 18.674C36.105 19.7513 36.051 21.0441 35.6189 22.3368C35.1868 23.5757 34.3766 24.653 33.4584 25.2994C32.4861 25.8919 31.3518 26.2151 30.2716 25.8381C29.1913 25.461 28.4892 24.4914 28.1651 23.3603ZM32.9046 18.5566L32.8529 18.5385L32.8021 18.5183C32.7715 18.5061 32.7019 18.486 32.5575 18.5144C32.4011 18.5452 32.1951 18.6282 31.9807 18.7791C31.5275 19.0982 31.0228 19.7252 30.7469 20.5058C30.46 21.3732 30.4502 22.1553 30.5804 22.7124C30.7617 23.3117 31.0249 23.4531 31.0954 23.4777C31.1797 23.5071 31.4842 23.5552 32.0813 23.2098C32.5179 22.8788 32.9897 22.2736 33.2531 21.5284C33.54 20.6611 33.5498 19.8789 33.4196 19.3219C33.2383 18.7226 32.9751 18.5812 32.9046 18.5566Z"/>
</svg>
