<svg width="40" height="40" viewBox="0 0 40 40" xmlns="http://www.w3.org/2000/svg">
<path d="M27.2 24.5H33.5V30.8H27.2V24.5Z"/>
<path d="M25.85 27.2H24.5V33.5H30.8V32.1498H25.85V27.2Z"/>
<path fill-rule="evenodd" clip-rule="evenodd" d="M39 29C39 34.5228 34.5228 39 29 39C23.4772 39 19 34.5228 19 29C19 23.4772 23.4772 19 29 19C34.5228 19 39 23.4772 39 29ZM36.5 29C36.5 33.1421 33.1421 36.5 29 36.5C24.8579 36.5 21.5 33.1421 21.5 29C21.5 24.8579 24.8579 21.5 29 21.5C33.1421 21.5 36.5 24.8579 36.5 29Z"/>
<path fill-rule="evenodd" clip-rule="evenodd" d="M21.7348 7.26376C20.4662 5.98434 18.4067 5.98434 17.1382 7.26376L17.1374 7.26448L13.0276 11.3743L13.0269 11.3751C11.748 12.6431 11.7474 14.7013 13.0252 15.97C13.2263 16.162 13.3569 16.3972 13.4171 16.6454C13.5287 17.1056 13.3982 17.6102 13.0255 17.9662C12.673 18.3172 12.1767 18.442 11.7219 18.3406C11.47 18.2845 11.2308 18.159 11.0359 17.9641C10.8583 17.7864 10.694 17.6004 10.543 17.4073C10.0996 16.84 9.77139 16.2116 9.55841 15.5537C8.87918 13.4557 9.37169 11.0586 11.0359 9.39432L15.1574 5.27282C17.5212 2.90906 21.3634 2.90906 23.7272 5.27282C25.5263 7.07191 25.956 9.72746 25.0165 11.9357C24.7372 12.5923 24.3368 13.2094 23.8153 13.7526C23.7863 13.7828 23.7569 13.8128 23.7272 13.8426L23.5586 14.0112L21.565 12.0316L21.7362 11.8618C21.7696 11.8287 21.8022 11.7951 21.8338 11.7609C23.0148 10.4862 22.9823 8.50065 21.7362 7.2652L21.7348 7.26376ZM20.1732 9.74382C20.2353 9.50029 20.1695 9.23236 19.976 9.04047L19.9674 9.03196L19.9595 9.024C19.7581 8.82088 19.473 8.75853 19.2202 8.83697C19.3999 8.96376 19.5712 9.10749 19.7318 9.26816C19.8861 9.42241 20.0332 9.5811 20.1732 9.74382ZM17.2781 10.6594C16.8233 10.558 16.327 10.6828 15.9745 11.0338C15.6018 11.3898 15.4713 11.8944 15.5829 12.3546C15.6431 12.6027 15.7737 12.838 15.9748 13.0299C17.2526 14.2986 17.252 16.3569 15.9731 17.6249L15.9724 17.6257L11.8626 21.7355L11.8618 21.7362C10.5933 23.0157 8.53378 23.0157 7.2652 21.7362L7.26376 21.7348C6.01775 20.4994 5.98521 18.5138 7.16613 17.2391C7.1978 17.205 7.23034 17.1713 7.26376 17.1382L7.43501 16.9684L5.44142 14.9888L5.27282 15.1574C5.24306 15.1872 5.21367 15.2172 5.18465 15.2474C4.66321 15.7906 4.26282 16.4077 3.98348 17.0643C3.04395 19.2725 3.47373 21.9281 5.27282 23.7272C7.63658 26.0909 11.4788 26.0909 13.8426 23.7272L17.9641 19.6057C19.6283 17.9414 20.1208 15.5443 19.4416 13.4463C19.2286 12.7884 18.9004 12.16 18.457 11.5927C18.306 11.3996 18.1417 11.2136 17.9641 11.0359C17.7692 10.841 17.53 10.7155 17.2781 10.6594ZM22.194 16.1794L23.5648 17.5405L25.4949 15.6103C28.835 12.2703 28.835 6.84513 25.4949 3.50506C22.1549 0.164981 16.7297 0.164982 13.3897 3.50505L9.26816 7.62655C7.81653 9.07818 6.99579 10.9237 6.80595 12.8206L5.43519 11.4595L3.50506 13.3897C0.164983 16.7297 0.16498 22.1549 3.50505 25.4949C6.84513 28.835 12.2703 28.835 15.6103 25.4949L19.7318 21.3734C21.1835 19.9218 22.0042 18.0763 22.194 16.1794ZM8.8268 19.2562C8.76473 19.4997 8.83046 19.7676 9.02398 19.9595L9.03258 19.968L9.04048 19.976C9.24187 20.1791 9.52701 20.2415 9.77981 20.163C9.60013 20.0362 9.42884 19.8925 9.26816 19.7318C9.11392 19.5776 8.9668 19.4189 8.8268 19.2562Z"/>
</svg>
