<svg width="40" height="40" viewBox="0 0 40 40" xmlns="http://www.w3.org/2000/svg">
<path fill-rule="evenodd" clip-rule="evenodd" d="M27.2348 12.7638C25.9662 11.4843 23.9067 11.4843 22.6382 12.7638L22.6374 12.7645L18.5276 16.8743L18.5269 16.8751C17.248 18.1431 17.2474 20.2013 18.5252 21.47C18.7263 21.662 18.8569 21.8972 18.9171 22.1454C19.0287 22.6056 18.8982 23.1102 18.5255 23.4662C18.173 23.8172 17.6767 23.942 17.2219 23.8406C16.97 23.7845 16.7308 23.659 16.5359 23.4641C16.3583 23.2864 16.194 23.1004 16.043 22.9073C15.5996 22.34 15.2714 21.7116 15.0584 21.0537C14.3792 18.9557 14.8717 16.5586 16.5359 14.8943L20.6574 10.7728C23.0212 8.40906 26.8634 8.40906 29.2272 10.7728C31.0263 12.5719 31.456 15.2275 30.5165 17.4357C30.2372 18.0923 29.8368 18.7094 29.3153 19.2526C29.2863 19.2828 29.2569 19.3128 29.2272 19.3426L29.0586 19.5112L27.065 17.5316L27.2362 17.3618C27.2696 17.3287 27.3022 17.2951 27.3338 17.2609C28.5148 15.9862 28.4823 14.0007 27.2362 12.7652L27.2348 12.7638ZM25.6732 15.2438C25.7353 15.0003 25.6695 14.7324 25.476 14.5405L25.4674 14.532L25.4595 14.524C25.2581 14.3209 24.973 14.2585 24.7202 14.337C24.8999 14.4638 25.0712 14.6075 25.2318 14.7682C25.3861 14.9224 25.5332 15.0811 25.6732 15.2438ZM22.7781 16.1594C22.3233 16.058 21.827 16.1828 21.4745 16.5338C21.1018 16.8898 20.9713 17.3944 21.0829 17.8546C21.1431 18.1027 21.2737 18.338 21.4748 18.5299C22.7526 19.7986 22.752 21.8569 21.4731 23.1249L21.4724 23.1257L17.3626 27.2355L17.3618 27.2362C16.0933 28.5157 14.0338 28.5157 12.7652 27.2362L12.7638 27.2348C11.5177 25.9994 11.4852 24.0138 12.6661 22.7391C12.6978 22.705 12.7303 22.6713 12.7638 22.6382L12.935 22.4684L10.9414 20.4888L10.7728 20.6574C10.7431 20.6872 10.7137 20.7172 10.6847 20.7474C10.1632 21.2906 9.76282 21.9077 9.48348 22.5643C8.54395 24.7725 8.97373 27.4281 10.7728 29.2272C13.1366 31.5909 16.9788 31.5909 19.3426 29.2272L23.4641 25.1057C25.1283 23.4414 25.6208 21.0443 24.9416 18.9463C24.7286 18.2884 24.4004 17.66 23.957 17.0927C23.806 16.8996 23.6417 16.7136 23.4641 16.5359C23.2692 16.341 23.03 16.2155 22.7781 16.1594ZM27.694 21.6794L29.0648 23.0405L30.9949 21.1103C34.335 17.7703 34.335 12.3451 30.9949 9.00506C27.6549 5.66498 22.2297 5.66498 18.8897 9.00505L14.7682 13.1266C13.3165 14.5782 12.4958 16.4237 12.306 18.3206L10.9352 16.9595L9.00506 18.8897C5.66498 22.2297 5.66498 27.6549 9.00505 30.9949C12.3451 34.335 17.7703 34.335 21.1103 30.9949L25.2318 26.8734C26.6835 25.4218 27.5042 23.5763 27.694 21.6794ZM14.3268 24.7562C14.2647 24.9997 14.3305 25.2676 14.524 25.4595L14.5326 25.468L14.5405 25.476C14.7419 25.6791 15.027 25.7415 15.2798 25.663C15.1001 25.5362 14.9288 25.3925 14.7682 25.2318C14.6139 25.0776 14.4668 24.9189 14.3268 24.7562Z"/>
</svg>
