<svg width="40" height="40" viewBox="0 0 40 40" xmlns="http://www.w3.org/2000/svg">
<path d="M8.38388 14.7679L14.2678 8.88398L12.5 7.11621L8.38388 11.2323L6.76777 9.61621L5 11.384L8.38388 14.7679Z"/>
<path d="M34.3839 11H15.3839V13.5H34.3839V11Z"/>
<path d="M15.3839 19H34.3839V21.5H15.3839V19Z"/>
<path d="M34.3839 27H15.3839V29.5H34.3839V27Z"/>
<path fill-rule="evenodd" clip-rule="evenodd" d="M6.75 20C6.75 18.2051 8.20507 16.75 10 16.75C11.7949 16.75 13.25 18.2051 13.25 20C13.25 21.7949 11.7949 23.25 10 23.25C8.20507 23.25 6.75 21.7949 6.75 20ZM10 19.25C9.58579 19.25 9.25 19.5858 9.25 20C9.25 20.4142 9.58579 20.75 10 20.75C10.4142 20.75 10.75 20.4142 10.75 20C10.75 19.5858 10.4142 19.25 10 19.25Z"/>
<path fill-rule="evenodd" clip-rule="evenodd" d="M10 24.75C8.20507 24.75 6.75 26.2051 6.75 28C6.75 29.7949 8.20507 31.25 10 31.25C11.7949 31.25 13.25 29.7949 13.25 28C13.25 26.2051 11.7949 24.75 10 24.75ZM9.25 28C9.25 27.5858 9.58579 27.25 10 27.25C10.4142 27.25 10.75 27.5858 10.75 28C10.75 28.4142 10.4142 28.75 10 28.75C9.58579 28.75 9.25 28.4142 9.25 28Z"/>
</svg>
