<svg width="40" height="40" viewBox="0 0 40 40" xmlns="http://www.w3.org/2000/svg">
<path d="M18.75 6V34H21.25V6H18.75Z"/>
<path d="M3.75 8.75H16.25V11.25H6.25V12.75H16.25V15.25H3.75V8.75Z"/>
<path d="M23.75 8.75V11.25H26.75V12.75H23.75V15.25H29.25V8.75H23.75Z"/>
<path d="M7.75 16.75H16.25V19.25H10.25V20.75H16.25V23.25H7.75V16.75Z"/>
<path d="M23.75 16.75V19.25H30.75V20.75H23.75V23.25H33.25V16.75H23.75Z"/>
<path d="M11.75 24.75H16.25V27.25H14.25V28.75H16.25V31.25H11.75V24.75Z"/>
<path d="M23.75 24.75V27.25H34.75V28.75H23.75V31.25H37.25V24.75H23.75Z"/>
</svg>
