<svg width="40" height="40" viewBox="0 0 40 40" xmlns="http://www.w3.org/2000/svg">
<path d="M17.5245 26.8358L27.9269 15.3384L26.0731 13.6611L17.4755 23.1637L13.9042 19.4224L12.0958 21.1486L17.5245 26.8358Z"/>
<path fill-rule="evenodd" clip-rule="evenodd" d="M33 20C33 27.1797 27.1797 33 20 33C12.8203 33 7 27.1797 7 20C7 12.8203 12.8203 7 20 7C27.1797 7 33 12.8203 33 20ZM30.5 20C30.5 25.799 25.799 30.5 20 30.5C14.201 30.5 9.5 25.799 9.5 20C9.5 14.201 14.201 9.5 20 9.5C25.799 9.5 30.5 14.201 30.5 20Z"/>
</svg>
