<svg width="40" height="40" viewBox="0 0 40 40" xmlns="http://www.w3.org/2000/svg">
<path fill-rule="evenodd" clip-rule="evenodd" d="M35.7272 10.8936L19.2728 1.39355L11.1291 15.4988L13.8205 15.8372L14.6878 14.3349L17.2859 15.8349L17.0501 16.2433L25.6625 17.3262L26.9641 15.0718L29.5622 16.5718L28.8922 17.7322L31.5836 18.0706L35.7272 10.8936ZM22.7859 6.30862L20.1878 4.80862L18.6878 7.40669L21.2859 8.90669L22.7859 6.30862ZM24.951 7.55862L27.549 9.05862L26.049 11.6567L23.451 10.1567L24.951 7.55862ZM32.3122 11.8086L29.7141 10.3086L28.2141 12.9067L30.8122 14.4067L32.3122 11.8086ZM17.4378 9.57176L20.0359 11.0718L18.5359 13.6698L15.9378 12.1698L17.4378 9.57176ZM24.799 13.8218L22.201 12.3218L20.701 14.9198L23.299 16.4198L24.799 13.8218Z"/>
<path fill-rule="evenodd" clip-rule="evenodd" d="M9.77277 17.848L3.27277 29.1065L19.7272 38.6065L30.2273 20.4198L9.77277 17.848ZM9.86281 22.6922L6.68783 28.1914L18.8122 35.1914L21.9872 29.6922L9.86281 22.6922ZM11.1332 20.5389L23.2372 27.5271L26.1796 22.4307L11.1332 20.5389Z"/>
</svg>
