<svg width="40" height="40" viewBox="0 0 40 40" xmlns="http://www.w3.org/2000/svg">
<path fill-rule="evenodd" clip-rule="evenodd" d="M16 9H15V12.0881C12.7334 13.1284 10.8467 14.8542 9.60539 17C9.18529 17.7262 8.83912 18.5005 8.57715 19.3127C8.55709 19.3749 8.53751 19.4373 8.51844 19.5C8.33675 20.0968 8.20032 20.7133 8.11313 21.3455C8.03854 21.8863 8 22.4386 8 23C8 23.6213 8.04722 24.2316 8.13827 24.8275C8.14302 24.8586 8.1479 24.8897 8.1529 24.9208C8.23965 25.46 8.36234 25.9873 8.51844 26.5C8.78344 27.3704 9.14472 28.1989 9.58986 28.9731L9.60539 29C11.6802 32.5868 15.5583 35 20 35C24.4417 35 28.3198 32.5868 30.3946 29C30.8352 28.2384 31.1944 27.424 31.4605 26.5684L31.4816 26.5C31.6632 25.9033 31.7997 25.2869 31.8868 24.6547C31.9614 24.1138 32 23.5614 32 23C32 22.3946 31.9552 21.7997 31.8687 21.2184C31.7812 20.6306 31.6511 20.0567 31.4816 19.5C31.232 18.6803 30.8971 17.8978 30.4872 17.1629C30.4567 17.1083 30.4259 17.054 30.3946 17C29.1533 14.8542 27.2666 13.1284 25 12.0881V9H24V8C24 5.79086 22.2091 4 20 4C17.7909 4 16 5.79086 16 8V9ZM18.5 9H21.5V8C21.5 7.17157 20.8284 6.5 20 6.5C19.1716 6.5 18.5 7.17157 18.5 8V9ZM10.5 23C10.5 21.8828 10.6929 20.8106 11.0471 19.8149L17.7321 26.5H13.2677L10.5302 23.7625C10.5102 23.511 10.5 23.2567 10.5 23ZM20 32.5C17.0288 32.5 14.3762 31.136 12.6342 29H27.3658C25.6238 31.136 22.9712 32.5 20 32.5ZM29.5 23C29.5 24.1173 29.3071 25.1895 28.9529 26.1852L22.2677 19.5H26.7321L29.4699 22.2377C29.4898 22.4892 29.5 22.7434 29.5 23ZM12.6342 17H27.3658C25.6238 14.864 22.9712 13.5 20 13.5C17.0288 13.5 14.3762 14.864 12.6342 17ZM18.7321 19.5H14.2677L21.2677 26.5H25.7321L18.7321 19.5Z"/>
</svg>
