<svg width="40" height="40" viewBox="0 0 40 40" xmlns="http://www.w3.org/2000/svg">
<path d="M20.3872 18.99L17 17.0344V7.5H14.5V18.4672L18.6146 20.8486C19.1406 20.17 19.7349 19.5471 20.3872 18.99Z"/>
<path d="M16.0095 28.9906C9.33327 28.7329 4 23.2393 4 16.5C4 9.59644 9.59644 4 16.5 4C23.2393 4 28.7329 9.33327 28.9906 16.0095C29.852 16.0427 30.6912 16.1631 31.4994 16.3622C31.4254 8.14137 24.7383 1.5 16.5 1.5C8.21573 1.5 1.5 8.21573 1.5 16.5C1.5 24.7383 8.14137 31.4254 16.3622 31.4994C16.1631 30.6912 16.0427 29.852 16.0095 28.9906Z"/>
<path d="M27.25 23.8333H29.75V27.25H33.1667V29.75H29.75V33.1666H27.25V29.75H23.8333V27.25H27.25V23.8333Z"/>
<path fill-rule="evenodd" clip-rule="evenodd" d="M28.5 38.5C34.0228 38.5 38.5 34.0228 38.5 28.5C38.5 22.9772 34.0228 18.5 28.5 18.5C22.9772 18.5 18.5 22.9772 18.5 28.5C18.5 34.0228 22.9772 38.5 28.5 38.5ZM28.5 36C32.6421 36 36 32.6421 36 28.5C36 24.3579 32.6421 21 28.5 21C24.3579 21 21 24.3579 21 28.5C21 32.6421 24.3579 36 28.5 36Z"/>
</svg>
