<svg width="40" height="40" viewBox="0 0 40 40" xmlns="http://www.w3.org/2000/svg">
<path d="M17 17.0344L20.3872 18.99C19.7349 19.5471 19.1406 20.17 18.6146 20.8486L14.5 18.4672V7.5H17V17.0344Z"/>
<path d="M4 16.5C4 23.2393 9.33327 28.7329 16.0095 28.9906C16.0427 29.852 16.1631 30.6912 16.3622 31.4994C8.14137 31.4254 1.5 24.7383 1.5 16.5C1.5 8.21573 8.21573 1.5 16.5 1.5C24.7383 1.5 31.4254 8.14137 31.4994 16.3622C30.6912 16.1631 29.852 16.0427 28.9906 16.0095C28.7329 9.33327 23.2393 4 16.5 4C9.59644 4 4 9.59644 4 16.5Z"/>
<path d="M31.3535 24.67L28.25 21.5664V23.5925C25.4666 23.723 23.25 26.021 23.25 28.8367C23.25 31.7362 25.6005 34.0867 28.5 34.0867C31.3995 34.0867 33.75 31.7362 33.75 28.8367C33.75 27.7031 33.3905 26.6528 32.7792 25.7945L32.6078 25.5537L31.0579 27.1036L31.1566 27.2705C31.4277 27.7293 31.5833 28.2644 31.5833 28.8367C31.5833 30.5395 30.2029 31.92 28.5 31.92C26.7971 31.92 25.4167 30.5395 25.4167 28.8367C25.4167 27.2179 26.664 25.8906 28.25 25.7633V27.7735L31.3535 24.67Z"/>
<path fill-rule="evenodd" clip-rule="evenodd" d="M38.5 28.5C38.5 34.0228 34.0228 38.5 28.5 38.5C22.9772 38.5 18.5 34.0228 18.5 28.5C18.5 22.9772 22.9772 18.5 28.5 18.5C34.0228 18.5 38.5 22.9772 38.5 28.5ZM36 28.5C36 32.6421 32.6421 36 28.5 36C24.3579 36 21 32.6421 21 28.5C21 24.3579 24.3579 21 28.5 21C32.6421 21 36 24.3579 36 28.5Z"/>
</svg>
