<svg width="40" height="40" viewBox="0 0 40 40" xmlns="http://www.w3.org/2000/svg">
<path d="M22.12 21.924H19.56C19.56 20.9215 20.2942 20.2493 20.9763 19.625C21.5678 19.0835 22.12 18.578 22.12 17.924C22.12 17.364 21.752 16.996 20.936 16.996C20.056 16.996 19.528 17.588 19.208 18.34L17 17.076C17.704 15.428 19.256 14.5 21.032 14.5C22.856 14.5 24.68 15.62 24.68 17.7C24.68 19.1186 23.7735 19.9537 23.0394 20.63C22.5398 21.0902 22.12 21.4769 22.12 21.924Z"/>
<path d="M22.36 24.628C22.36 25.46 21.672 26.148 20.84 26.148C20.008 26.148 19.32 25.46 19.32 24.628C19.32 23.796 20.008 23.108 20.84 23.108C21.672 23.108 22.36 23.796 22.36 24.628Z"/>
<path fill-rule="evenodd" clip-rule="evenodd" d="M31.3889 30.0001V29.9749C34.5347 29.6914 37 27.0475 37 23.8279C37 20.5239 34.404 17.8262 31.1404 17.6634C30.1227 13.1617 26.0984 9.80005 21.2889 9.80005C17.2595 9.80005 13.7812 12.1597 12.1604 15.5725C11.6662 15.4668 11.1535 15.4112 10.6278 15.4112C6.59915 15.4112 3.33331 18.6771 3.33331 22.7057C3.33331 26.5455 6.30021 29.6923 10.0666 29.9789V30.0001H31.3889ZM10.4411 27.5001L10.2563 27.4861C7.78324 27.2979 5.83331 25.2283 5.83331 22.7057C5.83331 20.0578 7.97986 17.9112 10.6278 17.9112C10.9767 17.9112 11.3142 17.9481 11.6376 18.0172L13.5707 18.4306L14.4186 16.645C15.641 14.0711 18.2606 12.3 21.2889 12.3C24.9048 12.3 27.9362 14.8276 28.7019 18.2147L29.1204 20.0658L31.0158 20.1603C32.9555 20.2571 34.5 21.8629 34.5 23.8279C34.5 25.7421 33.0335 27.3166 31.1645 27.485L30.9969 27.5001H10.4411Z"/>
</svg>
