<svg width="40" height="40" viewBox="0 0 40 40" xmlns="http://www.w3.org/2000/svg">
<path d="M21.48 22.2H19.56L19.08 18.2V15H21.96V18.2L21.48 22.2Z"/>
<path d="M22.04 24.904C22.04 25.736 21.352 26.424 20.52 26.424C19.688 26.424 19 25.736 19 24.904C19 24.072 19.688 23.384 20.52 23.384C21.352 23.384 22.04 24.072 22.04 24.904Z"/>
<path fill-rule="evenodd" clip-rule="evenodd" d="M31.3889 30.0001V29.9749C34.5347 29.6914 37 27.0475 37 23.8279C37 20.5239 34.404 17.8262 31.1404 17.6634C30.1227 13.1617 26.0984 9.80005 21.2889 9.80005C17.2595 9.80005 13.7812 12.1597 12.1604 15.5725C11.6662 15.4668 11.1535 15.4112 10.6278 15.4112C6.59915 15.4112 3.33331 18.6771 3.33331 22.7057C3.33331 26.5455 6.30021 29.6923 10.0666 29.9789V30.0001H31.3889ZM10.4411 27.5001L10.2563 27.4861C7.78324 27.2979 5.83331 25.2283 5.83331 22.7057C5.83331 20.0578 7.97986 17.9112 10.6278 17.9112C10.9767 17.9112 11.3142 17.9481 11.6376 18.0172L13.5707 18.4306L14.4186 16.645C15.641 14.0711 18.2606 12.3 21.2889 12.3C24.9048 12.3 27.9362 14.8276 28.7019 18.2147L29.1204 20.0658L31.0158 20.1603C32.9555 20.2571 34.5 21.8629 34.5 23.8279C34.5 25.7421 33.0335 27.3166 31.1645 27.485L30.9969 27.5001H10.4411Z"/>
</svg>
