<svg width="40" height="40" viewBox="0 0 40 40" xmlns="http://www.w3.org/2000/svg">
<path d="M25 24.25H15V21.75H25V24.25Z"/>
<path d="M15 28.25H25V25.75H15V28.25Z"/>
<path fill-rule="evenodd" clip-rule="evenodd" d="M29 25.9997V32H11V25.9997H10.9868L10.9333 25.9999L10.8798 25.9997H10.4V25.9797C6.82003 25.7074 4 22.7163 4 19.0666C4 15.2374 7.10416 12.1332 10.9333 12.1332C11.433 12.1332 11.9203 12.1861 12.39 12.2865C13.9306 9.04262 17.2367 6.7998 21.0667 6.7998C25.638 6.7998 29.4631 9.99501 30.4305 14.2739C33.5325 14.4287 36 16.9928 36 20.1332C36 23.1935 33.6568 25.7065 30.6667 25.976V25.9997H30.1804L30.1334 25.9999L30.0863 25.9997H29ZM30.0962 23.4997L30.106 23.4998L30.1334 23.4999L30.1607 23.4998L30.1706 23.4997H30.2909L30.4423 23.486C32.1556 23.3317 33.5 21.888 33.5 20.1332C33.5 18.3318 32.084 16.8595 30.3059 16.7708L28.4105 16.6763L27.992 14.8252C27.2767 11.661 24.4444 9.2998 21.0667 9.2998C18.2379 9.2998 15.7904 10.954 14.6483 13.359L13.8003 15.1446L11.8673 14.7313C11.5684 14.6673 11.2562 14.6332 10.9333 14.6332C8.48487 14.6332 6.5 16.6181 6.5 19.0666C6.5 21.3991 8.30306 23.3129 10.5896 23.4869L10.7579 23.4997H10.8893L10.8988 23.4998L10.9333 23.4999L10.9678 23.4998L10.9773 23.4997H11V18H29V23.4997L30.0962 23.4997ZM13.5 20.5H26.5V29.5H13.5V20.5Z"/>
</svg>
