<svg width="40" height="40" viewBox="0 0 40 40" xmlns="http://www.w3.org/2000/svg">
<path fill-rule="evenodd" clip-rule="evenodd" d="M15.5 20.5518C15.5 17.8723 17.6721 15.7002 20.3516 15.7002C23.031 15.7002 25.2032 17.8723 25.2032 20.5518C25.2032 21.5421 24.906 22.464 24.3962 23.232L26.5 25.3358L25.1356 26.7002L23.0318 24.5964C22.2639 25.1062 21.3419 25.4034 20.3516 25.4034C17.6721 25.4034 15.5 23.2313 15.5 20.5518ZM20.3516 17.6297C18.7378 17.6297 17.4295 18.938 17.4295 20.5518C17.4295 22.1656 18.7378 23.4739 20.3516 23.4739C21.9654 23.4739 23.2736 22.1656 23.2736 20.5518C23.2736 18.938 21.9654 17.6297 20.3516 17.6297Z"/>
<path fill-rule="evenodd" clip-rule="evenodd" d="M4 23.2668C4 26.9165 6.82003 29.9076 10.4 30.1799V30.1999H10.8798L10.9333 30.2001L10.9868 30.1999H21.0185L21.0667 30.2L21.1148 30.1999H30.0863L30.1334 30.2001L30.1804 30.1999H30.6667V30.1762C33.6568 29.9067 36 27.3937 36 24.3334C36 21.193 33.5325 18.6289 30.4305 18.4741C29.4631 14.1952 25.638 11 21.0667 11C17.2367 11 13.9306 13.2428 12.39 16.4867C11.9203 16.3863 11.433 16.3334 10.9333 16.3334C7.10416 16.3334 4 19.4376 4 23.2668ZM30.106 27.7L30.0962 27.6999L21.1148 27.6999L21.1026 27.6999L21.0667 27.7L21.0307 27.6999H10.9773L10.9678 27.7L10.9333 27.7001L10.8988 27.7L10.8893 27.6999H10.7579L10.5896 27.6871C8.30306 27.5131 6.5 25.5993 6.5 23.2668C6.5 20.8183 8.48487 18.8334 10.9333 18.8334C11.2562 18.8334 11.5684 18.8675 11.8673 18.9314L13.8003 19.3448L14.6483 17.5592C15.7904 15.1542 18.2379 13.5 21.0667 13.5C24.4444 13.5 27.2767 15.8612 27.992 19.0254L28.4105 20.8765L30.3059 20.971C32.084 21.0597 33.5 22.532 33.5 24.3334C33.5 26.0882 32.1556 27.5319 30.4423 27.6862L30.2909 27.6999H30.1706L30.1607 27.7L30.1334 27.7001L30.106 27.7Z"/>
</svg>
