<svg width="40" height="40" viewBox="0 0 40 40" xmlns="http://www.w3.org/2000/svg">
<path fill-rule="evenodd" clip-rule="evenodd" d="M30.0962 27.4997L30.106 27.4998L30.1334 27.4999L30.1607 27.4998L30.1706 27.4997H30.2909L30.4423 27.486C32.1556 27.3317 33.5 25.888 33.5 24.1332C33.5 22.3318 32.084 20.8595 30.3059 20.7708L28.4105 20.6763L27.992 18.8252C27.2767 15.661 24.4444 13.2998 21.0667 13.2998C18.2379 13.2998 15.7904 14.954 14.6483 17.359L13.8003 19.1446L11.8673 18.7313C11.5684 18.6673 11.2562 18.6332 10.9333 18.6332C8.48487 18.6332 6.5 20.6181 6.5 23.0666C6.5 25.3991 8.30306 27.3129 10.5896 27.4869L10.7579 27.4997H10.8893L10.8988 27.4998L10.9333 27.4999L10.9678 27.4998L10.9773 27.4997H21.0307L21.0667 27.4998L21.1026 27.4997L21.1148 27.4997L30.0962 27.4997ZM10.4 29.9797C6.82003 29.7074 4 26.7163 4 23.0666C4 19.2374 7.10416 16.1332 10.9333 16.1332C11.433 16.1332 11.9203 16.1861 12.39 16.2865C13.9306 13.0426 17.2367 10.7998 21.0667 10.7998C25.638 10.7998 29.4631 13.995 30.4305 18.2739C33.5325 18.4287 36 20.9928 36 24.1332C36 27.1935 33.6568 29.7065 30.6667 29.976V29.9997H30.1804L30.1334 29.9999L30.0863 29.9997H21.1148L21.0667 29.9998L21.0185 29.9997H10.9868L10.9333 29.9999L10.8798 29.9997H10.4V29.9797Z"/>
</svg>
