<svg width="40" height="40" viewBox="0 0 40 40" xmlns="http://www.w3.org/2000/svg">
<path d="M22.1667 18.5H24.5L21 14.5L17.5 18.5H19.8333V26.5H22.1667V18.5Z"/>
<path fill-rule="evenodd" clip-rule="evenodd" d="M4 23.0666C4 26.7163 6.82003 29.7074 10.4 29.9797V29.9997H10.8798L10.9333 29.9999L10.9868 29.9997H21.0185L21.0667 29.9998L21.1148 29.9997H30.0863L30.1334 29.9999L30.1804 29.9997H30.6667V29.976C33.6568 29.7065 36 27.1935 36 24.1332C36 20.9928 33.5325 18.4287 30.4305 18.2739C29.4631 13.995 25.638 10.7998 21.0667 10.7998C17.2367 10.7998 13.9306 13.0426 12.39 16.2865C11.9203 16.1861 11.433 16.1332 10.9333 16.1332C7.10416 16.1332 4 19.2374 4 23.0666ZM30.106 27.4998L30.0962 27.4997L21.1148 27.4997L21.1026 27.4997L21.0667 27.4998L21.0307 27.4997H10.9773L10.9678 27.4998L10.9333 27.4999L10.8988 27.4998L10.8893 27.4997H10.7579L10.5896 27.4869C8.30306 27.3129 6.5 25.3991 6.5 23.0666C6.5 20.6181 8.48487 18.6332 10.9333 18.6332C11.2562 18.6332 11.5684 18.6673 11.8673 18.7313L13.8003 19.1446L14.6483 17.359C15.7904 14.954 18.2379 13.2998 21.0667 13.2998C24.4444 13.2998 27.2767 15.661 27.992 18.8252L28.4105 20.6763L30.3059 20.7708C32.084 20.8595 33.5 22.3318 33.5 24.1332C33.5 25.888 32.1556 27.3317 30.4423 27.486L30.2909 27.4997H30.1706L30.1607 27.4998L30.1334 27.4999L30.106 27.4998Z"/>
</svg>
