<svg width="40" height="40" viewBox="0 0 40 40" xmlns="http://www.w3.org/2000/svg">
<path d="M6.11612 7.88398L32.1161 33.884L33.8839 32.1162L7.88388 6.11621L6.11612 7.88398Z"/>
<path d="M4 23.0666C4 19.2717 7.04884 16.1889 10.8307 16.134L13.8135 19.1168L13.8003 19.1446L11.8673 18.7313C11.5684 18.6673 11.2562 18.6332 10.9333 18.6332C8.48487 18.6332 6.5 20.6181 6.5 23.0666C6.5 25.3991 8.30306 27.3129 10.5896 27.4869L10.7579 27.4997H10.8893L10.8988 27.4998L10.9333 27.4999L10.9678 27.4998L10.9773 27.4997H21.0307L21.0667 27.4998L21.1026 27.4997L21.1148 27.4997L22.1964 27.4997L24.6964 29.9997H21.1148L21.0667 29.9998L21.0185 29.9997H10.9868L10.9333 29.9999L10.8798 29.9997H10.4V29.9797C6.82003 29.7074 4 26.7163 4 23.0666Z"/>
<path d="M33.9187 28.6154L32.1402 26.8369C32.9652 26.2231 33.5 25.2401 33.5 24.1332C33.5 22.3318 32.084 20.8595 30.3059 20.7708L28.4105 20.6763L27.992 18.8252C27.2767 15.661 24.4444 13.2998 21.0667 13.2998C20.3225 13.2998 19.6047 13.4143 18.9301 13.6268L17.0031 11.6997C18.2371 11.1224 19.6142 10.7998 21.0667 10.7998C25.638 10.7998 29.4631 13.995 30.4305 18.2739C33.5325 18.4287 36 20.9928 36 24.1332C36 25.9306 35.1917 27.5393 33.9187 28.6154Z"/>
</svg>
