<svg width="40" height="40" viewBox="0 0 40 40" xmlns="http://www.w3.org/2000/svg">
<path d="M21 3C19.8954 3 19 3.89543 19 5V9C20.1046 9 21 8.10457 21 7V3Z"/>
<path d="M17.5 5C16.3954 5 15.5 5.89543 15.5 7V9C16.6046 9 17.5 8.10457 17.5 7V5Z"/>
<path fill-rule="evenodd" clip-rule="evenodd" d="M12 14L14.2857 11H25.7143L28 14H29V17H11V14H12ZM25.238 14.5H14.762L15.5239 13.5H24.4761L25.238 14.5Z"/>
<path fill-rule="evenodd" clip-rule="evenodd" d="M12 18L14 36H26L28 18H12ZM14.7932 20.5L15.0709 23H24.9291L25.2068 20.5H14.7932ZM15.6265 28L15.3487 25.5H24.6513L24.3735 28H15.6265ZM15.9043 30.5L16.2376 33.5H23.7624L24.0957 30.5H15.9043Z"/>
<path d="M22.5 7C22.5 5.89543 23.3954 5 24.5 5V7C24.5 8.10457 23.6046 9 22.5 9V7Z"/>
</svg>
