<svg width="40" height="40" viewBox="0 0 40 40" xmlns="http://www.w3.org/2000/svg">
<path d="M21.0034 9.24988V3.5H13.0034V9.24988C12.1058 9.60039 11.2656 10.0654 10.5007 10.6269L5.57996 7.7859L1.57996 14.7141L6.20645 17.3852C6.07318 18.0696 6.00336 18.7766 6.00336 19.5C6.00336 19.9038 6.02511 20.3025 6.06752 20.695L1.57996 23.2859L5.57996 30.2141L9.77519 27.792C10.7223 28.6183 11.8124 29.285 13.0034 29.7501V34.5H18.999C18.4212 33.7307 17.93 32.8925 17.5401 32H15.5034V28.0426L13.9128 27.4214C12.9945 27.0628 12.152 26.5479 11.4187 25.9081L10.0724 24.7336L6.49502 26.799L4.99502 24.201L8.72799 22.0457L8.55306 20.4265C8.52027 20.123 8.50336 19.8139 8.50336 19.5C8.50336 18.9379 8.55758 18.3908 8.66036 17.8631L9.00134 16.1121L4.99502 13.799L6.49502 11.201L10.6643 13.6081L11.9801 12.6422C12.5718 12.2078 13.2208 11.8489 13.9128 11.5786L15.5034 10.9574V6H18.5034V10.9574L20.0939 11.5786C20.7859 11.8489 21.4349 12.2078 22.0266 12.6422L23.3424 13.6081L27.5117 11.201L29.0117 13.799L27.6779 14.5691C28.1124 14.5234 28.5534 14.5 29 14.5C30.0767 14.5 31.1216 14.6361 32.1184 14.8921L32.4267 14.7141L28.4267 7.7859L23.506 10.6269C22.7411 10.0654 21.9009 9.60039 21.0034 9.24988Z"/>
<path d="M17.0034 15C18.7324 15 20.2337 15.9752 20.9872 17.4055C20.2487 18.023 19.5826 18.7241 19.0033 19.4943C19.0003 18.3923 18.106 17.5 17.0034 17.5C15.8988 17.5 15.0034 18.3954 15.0034 19.5C15.0034 20.6046 15.8988 21.5 17.0034 21.5C17.3142 21.5 17.6085 21.4291 17.8709 21.3025C17.4365 22.1495 17.0959 23.0525 16.8628 23.9978C14.4426 23.9236 12.5034 21.9383 12.5034 19.5C12.5034 17.0147 14.5181 15 17.0034 15Z"/>
<path d="M28.9999 25.6699L31.4999 23.1699L28.9999 20.6699V22.3366C26.2385 22.3366 24 24.5752 24 27.3366C24 30.098 26.2385 32.3366 29 32.3366C31.7614 32.3366 34 30.098 34 27.3366C34 26.2567 33.6576 25.2568 33.0755 24.4395L31.8717 25.6433C32.165 26.1395 32.3333 26.7184 32.3333 27.3366C32.3333 29.1776 30.8409 30.67 29 30.67C27.159 30.67 25.6666 29.1776 25.6666 27.3366C25.6666 25.4957 27.159 24.0033 28.9999 24.0033V25.6699Z"/>
<path fill-rule="evenodd" clip-rule="evenodd" d="M29 37C34.5228 37 39 32.5228 39 27C39 21.4772 34.5228 17 29 17C23.4771 17 19 21.4772 19 27C19 32.5228 23.4771 37 29 37ZM29 34.5C33.1421 34.5 36.5 31.1421 36.5 27C36.5 22.8579 33.1421 19.5 29 19.5C24.8578 19.5 21.5 22.8579 21.5 27C21.5 31.1421 24.8578 34.5 29 34.5Z"/>
</svg>
