<svg width="40" height="40" viewBox="0 0 40 40" xmlns="http://www.w3.org/2000/svg">
<path d="M20.0001 13.5601C20.4262 14.2072 20.8702 14.898 21.313 15.6121C22.3985 17.3627 23.4358 19.1876 24.1894 20.8191C25.0107 22.5974 25.25 23.6376 25.25 23.9999C25.25 26.8993 22.8995 29.2498 20 29.2499L20.0001 13.5601Z"/>
<path fill-rule="evenodd" clip-rule="evenodd" d="M20 6.99994L21.0009 6.25111L20 4.91333L18.9991 6.25111L18.9914 6.26142L18.9709 6.28896L18.8932 6.39399C18.8255 6.48563 18.727 6.61975 18.6021 6.79169C18.3522 7.13551 17.9963 7.63088 17.5697 8.2404C16.7172 9.45829 15.5785 11.1374 14.4377 12.9773C13.2995 14.8128 12.1453 16.8308 11.2715 18.7226C10.4199 20.5663 9.75 22.4643 9.75 23.9999C9.75 29.6609 14.3391 34.2499 20 34.2499C25.6609 34.2499 30.25 29.6609 30.25 23.9999C30.25 22.4643 29.5801 20.5663 28.7285 18.7226C27.8547 16.8308 26.7005 14.8128 25.5623 12.9773C24.4215 11.1374 23.2828 9.45829 22.4303 8.2404C22.0037 7.63088 21.6478 7.13551 21.3979 6.79169C21.273 6.61975 21.1745 6.48563 21.1068 6.39399L21.0291 6.28896L21.0086 6.26142L21.0016 6.25205C21.0014 6.25186 21.0009 6.25111 20 6.99994ZM20 6.99994C18.9991 6.25111 18.9993 6.25092 18.9991 6.25111L20 6.99994ZM19.6178 9.674C19.7529 9.48095 19.8807 9.29972 20 9.13158C20.1193 9.29972 20.2471 9.48095 20.3822 9.674C21.2012 10.8441 22.286 12.4433 23.374 14.1922C23.3854 14.2106 23.3969 14.229 23.4083 14.2474C23.4181 14.2632 23.4279 14.2789 23.4377 14.2947C24.5495 16.0878 25.6453 18.0092 26.459 19.7709C27.2949 21.5806 27.75 23.0503 27.75 23.9999C27.75 28.2801 24.2802 31.7499 20 31.7499C15.7198 31.7499 12.25 28.2801 12.25 23.9999C12.25 23.0503 12.7051 21.5806 13.541 19.7709C14.3547 18.0092 15.4505 16.0878 16.5623 14.2947C17.6715 12.5058 18.7828 10.867 19.6178 9.674Z"/>
</svg>
