<svg width="40" height="40" viewBox="0 0 40 40" xmlns="http://www.w3.org/2000/svg">
<path d="M7.88389 6.11621L6.11612 7.88398L32.1161 33.884L33.8839 32.1162L7.88389 6.11621Z"/>
<path d="M11.2715 18.7226C11.4906 18.2482 11.7274 17.7658 11.9771 17.2804L13.8396 19.1428C13.7364 19.3541 13.6368 19.5636 13.5411 19.7709C12.7051 21.5806 12.25 23.0503 12.25 23.9999C12.25 28.2801 15.7198 31.7499 20 31.7499C21.808 31.7499 23.4714 31.1308 24.7898 30.093L26.567 31.8703C24.7884 33.3559 22.4986 34.2499 20 34.2499C14.3391 34.2499 9.75 29.6609 9.75 23.9999C9.75 22.4643 10.4199 20.5663 11.2715 18.7226Z"/>
<path d="M20.0001 25.3034L23.0033 28.3066C22.1523 28.9011 21.1169 29.2498 20 29.2499L20.0001 25.3034Z"/>
<path fill-rule="evenodd" clip-rule="evenodd" d="M30.2104 24.9071L27.3755 22.0722C27.1587 21.3921 26.8506 20.6188 26.459 19.7709C25.6453 18.0092 24.5495 16.0878 23.4377 14.2947L23.374 14.1922C22.286 12.4433 21.2012 10.8441 20.3822 9.674C20.2471 9.48095 20.1193 9.29972 20 9.13158C19.8807 9.29972 19.7529 9.48095 19.6178 9.674C19.0824 10.4389 18.4334 11.3872 17.7442 12.4408L15.9391 10.6358C16.5382 9.73 17.0978 8.91454 17.5697 8.2404C17.9963 7.63088 18.3522 7.13551 18.6021 6.79169C18.727 6.61975 18.8255 6.48563 18.8932 6.39399L18.9709 6.28896L18.9914 6.26142L18.9991 6.25111L20 6.99994C21.0009 6.25111 21.0014 6.25186 21.0016 6.25205L21.0086 6.26142L21.0291 6.28896L21.1068 6.39399C21.1745 6.48563 21.273 6.61975 21.3979 6.79169C21.6478 7.13551 22.0037 7.63088 22.4303 8.2404C23.2828 9.45829 24.4215 11.1374 25.5624 12.9773C26.7005 14.8128 27.8548 16.8308 28.7286 18.7226C29.5801 20.5663 30.25 22.4643 30.25 23.9999C30.25 24.3056 30.2366 24.6082 30.2104 24.9071ZM20 6.99994L21.0009 6.25111L20 4.91333L18.9991 6.25111C18.9993 6.25092 18.9991 6.25111 20 6.99994Z"/>
<path d="M20.0001 13.5601L20.0001 14.6968L21.9329 16.6296C21.7292 16.2889 21.522 15.9491 21.313 15.6121C20.8702 14.898 20.4263 14.2072 20.0001 13.5601Z"/>
</svg>
