<svg width="40" height="40" viewBox="0 0 40 40" xmlns="http://www.w3.org/2000/svg">
<path d="M19.5 27.2322L14.5178 22.25H24.4822L19.5 27.2322Z"/>
<path fill-rule="evenodd" clip-rule="evenodd" d="M31.5772 21.5563L19.5564 33.5772L7.53554 21.5563L17.7886 11.3033L14.2531 7.76777L16.0208 6L31.5772 21.5563ZM19.5564 13.0711L11.0711 21.5563L19.5564 30.0416L28.0416 21.5563L19.5564 13.0711Z"/>
<path fill-rule="evenodd" clip-rule="evenodd" d="M31.5 26L32.4754 25.2182L32.4785 25.2222L32.4853 25.2306L32.509 25.2606C32.5293 25.2862 32.5582 25.323 32.5945 25.3698C32.6672 25.4633 32.7698 25.597 32.8924 25.7612C33.1367 26.0885 33.4647 26.543 33.7951 27.0464C34.1226 27.5454 34.4678 28.1159 34.7356 28.6719C34.9816 29.1827 35.25 29.8541 35.25 30.5C35.25 32.571 33.5711 34.25 31.5 34.25C29.4289 34.25 27.75 32.571 27.75 30.5C27.75 29.8541 28.0184 29.1827 28.2645 28.6719C28.5323 28.1159 28.8775 27.5454 29.2049 27.0464C29.5353 26.543 29.8634 26.0885 30.1077 25.7612C30.2302 25.597 30.3328 25.4633 30.4055 25.3698C30.4418 25.323 30.4707 25.2862 30.491 25.2606L30.5147 25.2306L30.5215 25.2222L30.5246 25.2182L31.5 26ZM31.5 26C32.4754 25.2182 32.4753 25.2181 32.4754 25.2182L31.5 24.0012L30.5246 25.2182C30.5247 25.2181 30.5246 25.2182 31.5 26ZM31.2951 28.418C31.3636 28.3136 31.4322 28.2113 31.5 28.1118C31.5678 28.2113 31.6364 28.3136 31.7049 28.418C32.0025 28.8714 32.2823 29.3396 32.4832 29.7568C32.5834 29.9648 32.6551 30.142 32.7001 30.2851C32.7452 30.4283 32.7497 30.4948 32.75 30.5C32.75 31.1903 32.1904 31.75 31.5 31.75C30.8097 31.75 30.25 31.19 30.25 30.4997C30.2504 30.4945 30.2549 30.4283 30.2999 30.2851C30.3449 30.142 30.4166 29.9648 30.5168 29.7568C30.7178 29.3396 30.9976 28.8714 31.2951 28.418Z"/>
</svg>
