<svg width="40" height="40" viewBox="0 0 40 40" xmlns="http://www.w3.org/2000/svg">
<path d="M7 31V26H3V8H31V14.8623C30.1946 14.6639 29.3584 14.5436 28.5 14.5098V10.5H5.5V23.5H9.5V25.6624L12.0949 23.5H15.9966C15.7629 24.3029 15.6076 25.1392 15.5394 26H13L7 31Z"/>
<path d="M26 13V14.6591C24.9849 14.8224 24.0106 15.1079 23.0928 15.5H8V13H26Z"/>
<path d="M8 18H19.3253C18.5555 18.7422 17.8806 19.5822 17.3208 20.5H8V18Z"/>
<path d="M23.3333 25.75H32.6667V28.25H23.3333V25.75Z"/>
<path fill-rule="evenodd" clip-rule="evenodd" d="M28 37C33.5228 37 38 32.5228 38 27C38 21.4772 33.5228 17 28 17C22.4772 17 18 21.4772 18 27C18 32.5228 22.4772 37 28 37ZM28 34.5C32.1421 34.5 35.5 31.1421 35.5 27C35.5 22.8579 32.1421 19.5 28 19.5C23.8579 19.5 20.5 22.8579 20.5 27C20.5 31.1421 23.8579 34.5 28 34.5Z"/>
</svg>
