<svg width="40" height="40" viewBox="0 0 40 40" xmlns="http://www.w3.org/2000/svg">
<path d="M5.11609 6.88398L33.1161 34.884L34.8839 33.1162L6.88386 5.11621L5.11609 6.88398Z"/>
<path d="M5.99997 20C5.99997 17.4961 6.65728 15.1458 7.80876 13.1121L9.65912 14.9625C8.91663 16.4838 8.49997 18.1932 8.49997 20C8.49997 26.3513 13.6487 31.5 20 31.5C21.8067 31.5 23.5162 31.0833 25.0375 30.3409L26.8879 32.1912C24.8542 33.3427 22.5038 34 20 34C12.268 34 5.99997 27.732 5.99997 20Z"/>
<path d="M13.636 26.364L15.6984 21.0017L18.9982 24.3016L13.636 26.364Z"/>
<path d="M32.1912 26.8879L30.3408 25.0376C31.0833 23.5163 31.5 21.8068 31.5 20C31.5 13.6487 26.3512 8.5 20 8.5C18.1932 8.5 16.4837 8.91667 14.9624 9.65916L13.1121 7.8088C15.1457 6.65732 17.4961 6 20 6C27.732 6 34 12.268 34 20C34 22.5039 33.3427 24.8542 32.1912 26.8879Z"/>
<path d="M26.3639 13.636L21.0017 15.6984L24.3015 18.9983L26.3639 13.636Z"/>
</svg>
