<svg width="40" height="40" viewBox="0 0 40 40" xmlns="http://www.w3.org/2000/svg">
<path fill-rule="evenodd" clip-rule="evenodd" d="M17.1716 17.1716L26.3639 13.636L22.8284 22.8284L13.636 26.364L17.1716 17.1716ZM21.4142 21.4142C20.6332 22.1953 19.3668 22.1953 18.5858 21.4142C17.8047 20.6332 17.8047 19.3668 18.5858 18.5858C19.3668 17.8047 20.6332 17.8047 21.4142 18.5858C22.1953 19.3668 22.1953 20.6332 21.4142 21.4142Z"/>
<path fill-rule="evenodd" clip-rule="evenodd" d="M34 20C34 27.732 27.732 34 20 34C12.268 34 6 27.732 6 20C6 12.268 12.268 6 20 6C27.732 6 34 12.268 34 20ZM31.5 20C31.5 26.3513 26.3513 31.5 20 31.5C13.6487 31.5 8.5 26.3513 8.5 20C8.5 13.6487 13.6487 8.5 20 8.5C26.3513 8.5 31.5 13.6487 31.5 20Z"/>
</svg>
