<svg width="40" height="40" viewBox="0 0 40 40" xmlns="http://www.w3.org/2000/svg">
<path fill-rule="evenodd" clip-rule="evenodd" d="M5 14V22H15.25C15.0861 22.8078 15 23.6438 15 24.5H2.5V5.5H28.5V12.0394C28.1701 12.0133 27.8366 12 27.5 12C24.9987 12 22.669 12.7347 20.7149 14H5ZM5 8H26V10H5V8Z"/>
<path d="M27.8333 18.5H26.1667L26.1667 25.8115L31.1667 28.7053L32 27.2619L27.8333 24.8563V18.5Z"/>
<path fill-rule="evenodd" clip-rule="evenodd" d="M27.5 34.5C33.0228 34.5 37.5 30.0228 37.5 24.5C37.5 18.9772 33.0228 14.5 27.5 14.5C21.9772 14.5 17.5 18.9772 17.5 24.5C17.5 30.0228 21.9772 34.5 27.5 34.5ZM27.5 32C31.6421 32 35 28.6421 35 24.5C35 20.3579 31.6421 17 27.5 17C23.3579 17 20 20.3579 20 24.5C20 28.6421 23.3579 32 27.5 32Z"/>
</svg>
