<svg width="40" height="40" viewBox="0 0 40 40" xmlns="http://www.w3.org/2000/svg">
<path fill-rule="evenodd" clip-rule="evenodd" d="M5 22V14H20.7149C22.669 12.7347 24.9987 12 27.5 12C27.8366 12 28.1701 12.0133 28.5 12.0394V5.5H2.5V24.5H15C15 23.6438 15.0861 22.8078 15.25 22H5ZM26 8H5V10H26V8Z"/>
<path d="M28.62 25.924H26.06C26.06 24.9215 26.7942 24.2493 27.4763 23.625C28.0678 23.0835 28.62 22.578 28.62 21.924C28.62 21.364 28.252 20.996 27.436 20.996C26.556 20.996 26.028 21.588 25.708 22.34L23.5 21.076C24.204 19.428 25.756 18.5 27.532 18.5C29.356 18.5 31.18 19.62 31.18 21.7C31.18 23.1186 30.2735 23.9537 29.5394 24.63C29.0398 25.0902 28.62 25.4769 28.62 25.924Z"/>
<path d="M28.86 28.628C28.86 29.46 28.172 30.148 27.34 30.148C26.508 30.148 25.82 29.46 25.82 28.628C25.82 27.796 26.508 27.108 27.34 27.108C28.172 27.108 28.86 27.796 28.86 28.628Z"/>
<path fill-rule="evenodd" clip-rule="evenodd" d="M27.5 34.5C33.0228 34.5 37.5 30.0228 37.5 24.5C37.5 18.9772 33.0228 14.5 27.5 14.5C21.9772 14.5 17.5 18.9772 17.5 24.5C17.5 30.0228 21.9772 34.5 27.5 34.5ZM27.5 32C31.6421 32 35 28.6421 35 24.5C35 20.3579 31.6421 17 27.5 17C23.3579 17 20 20.3579 20 24.5C20 28.6421 23.3579 32 27.5 32Z"/>
</svg>
