<svg width="40" height="40" viewBox="0 0 40 40" xmlns="http://www.w3.org/2000/svg">
<path fill-rule="evenodd" clip-rule="evenodd" d="M5 22V14H20.7149C22.669 12.7347 24.9987 12 27.5 12C27.8366 12 28.1701 12.0133 28.5 12.0394V5.5H2.5V24.5H15C15 23.6438 15.0861 22.8078 15.25 22H5ZM26 8H5V10H26V8Z"/>
<path fill-rule="evenodd" clip-rule="evenodd" d="M31.6932 22.6724V23.5049L32.7964 23.5049L33.2058 23.5049V22.6724C33.2058 21.2202 32.0286 20.043 30.5764 20.043C29.1242 20.043 27.9469 21.2202 27.9469 22.6724V23.5049H23.5V28.5H30.1601V23.5049H29.4595V22.6724C29.4595 22.0556 29.9595 21.5555 30.5764 21.5555C31.1932 21.5555 31.6932 22.0556 31.6932 22.6724ZM27.3851 25.4474H26.2751V26.5575H27.3851V25.4474Z"/>
<path fill-rule="evenodd" clip-rule="evenodd" d="M27.5 34.5C33.0228 34.5 37.5 30.0228 37.5 24.5C37.5 18.9772 33.0228 14.5 27.5 14.5C21.9772 14.5 17.5 18.9772 17.5 24.5C17.5 30.0228 21.9772 34.5 27.5 34.5ZM27.5 32C31.6421 32 35 28.6421 35 24.5C35 20.3579 31.6421 17 27.5 17C23.3579 17 20 20.3579 20 24.5C20 28.6421 23.3579 32 27.5 32Z"/>
</svg>
