<svg width="40" height="40" viewBox="0 0 40 40" xmlns="http://www.w3.org/2000/svg">
<path fill-rule="evenodd" clip-rule="evenodd" d="M5 22V14H20.7149C22.669 12.7347 24.9987 12 27.5 12C27.8366 12 28.1701 12.0133 28.5 12.0394V5.5H2.5V24.5H15C15 23.6438 15.0861 22.8078 15.25 22H5ZM26 8H5V10H26V8Z"/>
<path fill-rule="evenodd" clip-rule="evenodd" d="M27.4842 19.75C25.9847 19.75 24.7691 20.9656 24.7691 22.4651V23.3987H23.75V29H31.2185V23.3987H30.1993V22.4651C30.1993 20.9656 28.9837 19.75 27.4842 19.75ZM28.9701 23.3987H25.9983V22.4651C25.9983 21.6444 26.6636 20.9792 27.4842 20.9792C28.3049 20.9792 28.9701 21.6444 28.9701 22.4651V23.3987ZM28.1066 25.577H26.8619V26.8217H28.1066V25.577Z"/>
<path fill-rule="evenodd" clip-rule="evenodd" d="M27.5 34.5C33.0228 34.5 37.5 30.0228 37.5 24.5C37.5 18.9772 33.0228 14.5 27.5 14.5C21.9772 14.5 17.5 18.9772 17.5 24.5C17.5 30.0228 21.9772 34.5 27.5 34.5ZM27.5 32C31.6421 32 35 28.6421 35 24.5C35 20.3579 31.6421 17 27.5 17C23.3579 17 20 20.3579 20 24.5C20 28.6421 23.3579 32 27.5 32Z"/>
</svg>
