<svg width="40" height="40" viewBox="0 0 40 40" xmlns="http://www.w3.org/2000/svg">
<path fill-rule="evenodd" clip-rule="evenodd" d="M1.75 10.8929C1.75 9.29518 3.04518 8 4.64286 8H34.6429C36.2405 8 37.5357 9.29518 37.5357 10.8929V29.1071C37.5357 30.7048 36.2405 32 34.6429 32H4.64286C3.04518 32 1.75 30.7048 1.75 29.1071V10.8929ZM4.64286 9.5C3.8736 9.5 3.25 10.1236 3.25 10.8929V13.3571H36.0357V10.8929C36.0357 10.1236 35.4121 9.5 34.6429 9.5H4.64286ZM36.0357 14.8571H12.8929V30.5H34.6429C35.4121 30.5 36.0357 29.8764 36.0357 29.1071V14.8571ZM11.3929 30.5V14.8571H3.25V29.1071C3.25 29.8764 3.8736 30.5 4.64286 30.5H11.3929Z"/>
<path fill-rule="evenodd" clip-rule="evenodd" d="M4.14286 16.7857C4.14286 16.5095 4.36672 16.2857 4.64286 16.2857H10C10.2761 16.2857 10.5 16.5095 10.5 16.7857C10.5 17.0618 10.2761 17.2857 10 17.2857H4.64286C4.36672 17.2857 4.14286 17.0618 4.14286 16.7857Z"/>
<path fill-rule="evenodd" clip-rule="evenodd" d="M4.14286 18.9286C4.14286 18.6524 4.36672 18.4286 4.64286 18.4286H10C10.2761 18.4286 10.5 18.6524 10.5 18.9286C10.5 19.2047 10.2761 19.4286 10 19.4286H4.64286C4.36672 19.4286 4.14286 19.2047 4.14286 18.9286Z"/>
<path fill-rule="evenodd" clip-rule="evenodd" d="M4.14286 21.0714C4.14286 20.7953 4.36672 20.5714 4.64286 20.5714H7.85714C8.13329 20.5714 8.35714 20.7953 8.35714 21.0714C8.35714 21.3476 8.13329 21.5714 7.85714 21.5714H4.64286C4.36672 21.5714 4.14286 21.3476 4.14286 21.0714Z"/>
<path fill-rule="evenodd" clip-rule="evenodd" d="M4.14286 25.3571C4.14286 25.081 4.36672 24.8571 4.64286 24.8571H7.85714C8.13329 24.8571 8.35714 25.081 8.35714 25.3571C8.35714 25.6333 8.13329 25.8571 7.85714 25.8571H4.64286C4.36672 25.8571 4.14286 25.6333 4.14286 25.3571Z"/>
<path fill-rule="evenodd" clip-rule="evenodd" d="M4.14286 23.2143C4.14286 22.9382 4.36672 22.7143 4.64286 22.7143H10C10.2761 22.7143 10.5 22.9382 10.5 23.2143C10.5 23.4905 10.2761 23.7143 10 23.7143H4.64286C4.36672 23.7143 4.14286 23.4905 4.14286 23.2143Z"/>
<path d="M5.71429 11.4286C5.71429 11.7245 5.47444 11.9643 5.17857 11.9643C4.88271 11.9643 4.64286 11.7245 4.64286 11.4286C4.64286 11.1327 4.88271 10.8929 5.17857 10.8929C5.47444 10.8929 5.71429 11.1327 5.71429 11.4286Z"/>
<path d="M7.85715 11.4286C7.85715 11.7245 7.6173 11.9643 7.32143 11.9643C7.02557 11.9643 6.78572 11.7245 6.78572 11.4286C6.78572 11.1327 7.02557 10.8929 7.32143 10.8929C7.6173 10.8929 7.85715 11.1327 7.85715 11.4286Z"/>
<path d="M10 11.4286C10 11.7245 9.76016 11.9643 9.46429 11.9643C9.16843 11.9643 8.92858 11.7245 8.92858 11.4286C8.92858 11.1327 9.16843 10.8929 9.46429 10.8929C9.76016 10.8929 10 11.1327 10 11.4286Z"/>
<path d="M17.6886 24.9414C16.7857 24.9414 16.04 24.6414 15.4514 24.0414C14.8629 23.4414 14.5686 22.7014 14.5686 21.8214C14.5686 20.9357 14.8629 20.1957 15.4514 19.6014C16.04 19.0014 16.7857 18.7014 17.6886 18.7014C18.2314 18.7014 18.7314 18.83 19.1886 19.0871C19.6514 19.3386 20.0114 19.6814 20.2686 20.1157L19.2486 20.7071C19.1 20.4386 18.8886 20.23 18.6143 20.0814C18.34 19.9271 18.0314 19.85 17.6886 19.85C17.1057 19.85 16.6343 20.0329 16.2743 20.3986C15.92 20.7643 15.7429 21.2386 15.7429 21.8214C15.7429 22.3986 15.92 22.87 16.2743 23.2357C16.6343 23.6014 17.1057 23.7843 17.6886 23.7843C18.0314 23.7843 18.34 23.71 18.6143 23.5614C18.8943 23.4071 19.1057 23.1986 19.2486 22.9357L20.2686 23.5271C20.0114 23.9614 19.6543 24.3071 19.1971 24.5643C18.74 24.8157 18.2371 24.9414 17.6886 24.9414Z"/>
<path d="M24.5438 24.8214L23.3352 22.7386H22.4352V24.8214H21.2523V18.8214H23.6523C24.2066 18.8214 24.6781 19.0157 25.0666 19.4043C25.4552 19.7929 25.6495 20.2614 25.6495 20.81C25.6495 21.1814 25.5438 21.5271 25.3323 21.8471C25.1209 22.1614 24.8409 22.3986 24.4923 22.5586L25.8209 24.8214H24.5438ZM22.4352 19.9271V21.7014H23.6523C23.8752 21.7014 24.0666 21.6157 24.2266 21.4443C24.3866 21.2671 24.4666 21.0557 24.4666 20.81C24.4666 20.5643 24.3866 20.3557 24.2266 20.1843C24.0666 20.0129 23.8752 19.9271 23.6523 19.9271H22.4352Z"/>
<path d="M32.646 18.8214V24.8214H31.4717V20.93L29.7831 23.7157H29.646L27.9574 20.9386V24.8214H26.7745V18.8214H27.9917L29.7146 21.6586L31.4288 18.8214H32.646Z"/>
</svg>
