<svg width="40" height="40" viewBox="0 0 40 40" xmlns="http://www.w3.org/2000/svg">
<path d="M20.4625 25.2723C21.8853 25.4106 23.1968 26.1886 23.882 27.559L26.118 26.441C24.8871 23.9791 22.4445 22.7698 20.059 22.7502C20.2732 23.2648 20.5 23.9567 20.5 24.6668C20.5 24.8732 20.4872 25.0752 20.4625 25.2723Z"/>
<path d="M14.8315 26.9157C13.7756 26.6427 13 25.7391 13 24.6667C13 23.378 15.5 20 15.5 20C15.5 20 18 23.378 18 24.6667C18 24.9514 17.9454 25.2241 17.8454 25.4764C17.852 25.4596 17.8585 25.4428 17.8647 25.4259C17.801 25.5988 17.7162 25.7625 17.6131 25.9143C17.3791 26.2587 17.051 26.5421 16.6627 26.7328C16.3154 26.9034 15.9197 27.0001 15.5 27.0001C15.2685 27.0001 15.0443 26.9707 14.8315 26.9157Z"/>
<path d="M18 16.5C18 17.8807 16.8807 19 15.5 19C14.1193 19 13 17.8807 13 16.5C13 15.1193 14.1193 14 15.5 14C16.8807 14 18 15.1193 18 16.5Z"/>
<path d="M24.5 19C25.8807 19 27 17.8807 27 16.5C27 15.1193 25.8807 14 24.5 14C23.1193 14 22 15.1193 22 16.5C22 17.8807 23.1193 19 24.5 19Z"/>
<path fill-rule="evenodd" clip-rule="evenodd" d="M20 34C27.732 34 34 27.732 34 20C34 12.268 27.732 6 20 6C12.268 6 6 12.268 6 20C6 27.732 12.268 34 20 34ZM20 31.5C26.3513 31.5 31.5 26.3513 31.5 20C31.5 13.6487 26.3513 8.5 20 8.5C13.6487 8.5 8.5 13.6487 8.5 20C8.5 26.3513 13.6487 31.5 20 31.5Z"/>
</svg>
