<svg width="40" height="40" viewBox="0 0 40 40" xmlns="http://www.w3.org/2000/svg">
<path fill-rule="evenodd" clip-rule="evenodd" d="M15 4C21.6274 4 27 5.79086 27 8V10.5C27 12.7091 21.6274 14.5 15 14.5C8.37258 14.5 3 12.7091 3 10.5V8C3 5.79086 8.37258 4 15 4ZM22.6947 7.54328C20.8404 6.92519 18.1198 6.5 15 6.5C11.8802 6.5 9.15955 6.92519 7.30529 7.54328C6.37515 7.85333 5.79704 8.16795 5.5 8.39907V10.1009C5.79704 10.3321 6.37515 10.6467 7.30529 10.9567C9.15955 11.5748 11.8802 12 15 12C18.1198 12 20.8404 11.5748 22.6947 10.9567C23.6248 10.6467 24.203 10.3321 24.5 10.1009V8.39907C24.203 8.16795 23.6248 7.85333 22.6947 7.54328ZM24.6503 8.53449C24.6503 8.53449 24.6454 8.52974 24.6383 8.52008C24.6472 8.52964 24.6503 8.53449 24.6503 8.53449ZM24.6503 9.96551C24.6503 9.96551 24.6472 9.97036 24.6383 9.97992C24.6454 9.97026 24.6503 9.96551 24.6503 9.96551ZM5.34968 9.96551C5.34968 9.96551 5.35461 9.97028 5.36176 9.97995C5.3528 9.97037 5.34968 9.96551 5.34968 9.96551ZM5.34968 8.53449C5.34968 8.53449 5.3528 8.52963 5.36176 8.52005C5.35461 8.52972 5.34968 8.53449 5.34968 8.53449Z"/>
<path d="M15.7516 23.9923C15.5868 24.8014 15.5002 25.6389 15.5 26.4966C15.3342 26.4989 15.1675 26.5 15 26.5C8.37258 26.5 3 24.7091 3 22.5V20.5H3.09284C3.83099 22.4732 8.88057 24 15 24C15.2524 24 15.5031 23.9974 15.7516 23.9923Z"/>
<path d="M17.064 20.4411C17.6082 19.4608 18.2804 18.5615 19.058 17.7655C17.7906 17.9173 16.4243 18 15 18C8.88057 18 3.83099 16.4732 3.09284 14.5H3V16.5C3 18.7091 8.37258 20.5 15 20.5C15.7038 20.5 16.3934 20.4798 17.064 20.4411Z"/>
<path fill-rule="evenodd" clip-rule="evenodd" d="M22.5 26.3516C22.5 23.6721 24.6721 21.5 27.3516 21.5C30.031 21.5 32.2032 23.6721 32.2032 26.3516C32.2032 27.3419 31.906 28.2639 31.3962 29.0318L33.5 31.1356L32.1356 32.5L30.0318 30.3962C29.2639 30.906 28.3419 31.2032 27.3516 31.2032C24.6721 31.2032 22.5 29.0311 22.5 26.3516ZM27.3516 23.4295C25.7378 23.4295 24.4295 24.7378 24.4295 26.3516C24.4295 27.9654 25.7378 29.2737 27.3516 29.2737C28.9654 29.2737 30.2736 27.9654 30.2736 26.3516C30.2736 24.7378 28.9654 23.4295 27.3516 23.4295Z"/>
<path fill-rule="evenodd" clip-rule="evenodd" d="M28 37C33.5228 37 38 32.5228 38 27C38 21.4772 33.5228 17 28 17C22.4772 17 18 21.4772 18 27C18 32.5228 22.4772 37 28 37ZM28 34.5C32.1421 34.5 35.5 31.1421 35.5 27C35.5 22.8579 32.1421 19.5 28 19.5C23.8579 19.5 20.5 22.8579 20.5 27C20.5 31.1421 23.8579 34.5 28 34.5Z"/>
</svg>
