<svg width="40" height="40" viewBox="0 0 40 40" xmlns="http://www.w3.org/2000/svg">
<path fill-rule="evenodd" clip-rule="evenodd" d="M27 8C27 5.79086 21.6274 4 15 4C8.37258 4 3 5.79086 3 8V10.5C3 12.7091 8.37258 14.5 15 14.5C21.6274 14.5 27 12.7091 27 10.5V8ZM15 6.5C18.1198 6.5 20.8404 6.92519 22.6947 7.54328C23.6248 7.85333 24.203 8.16795 24.5 8.39907V10.1009C24.203 10.3321 23.6248 10.6467 22.6947 10.9567C20.8404 11.5748 18.1198 12 15 12C11.8802 12 9.15955 11.5748 7.30529 10.9567C6.37515 10.6467 5.79704 10.3321 5.5 10.1009V8.39907C5.79704 8.16795 6.37515 7.85333 7.30529 7.54328C9.15955 6.92519 11.8802 6.5 15 6.5ZM24.6503 8.53449C24.6503 8.53449 24.6454 8.52974 24.6383 8.52008C24.6472 8.52964 24.6503 8.53449 24.6503 8.53449ZM24.6503 9.96551C24.6503 9.96551 24.6472 9.97036 24.6383 9.97992C24.6454 9.97026 24.6503 9.96551 24.6503 9.96551ZM5.34968 9.96551C5.34968 9.96551 5.35461 9.97028 5.36176 9.97995C5.3528 9.97037 5.34968 9.96551 5.34968 9.96551ZM5.34968 8.53449C5.34968 8.53449 5.3528 8.52963 5.36176 8.52005C5.35461 8.52972 5.34968 8.53449 5.34968 8.53449Z"/>
<path d="M15.5 26.4966C15.5002 25.6389 15.5868 24.8014 15.7516 23.9923C15.5031 23.9974 15.2524 24 15 24C8.88057 24 3.83099 22.4732 3.09284 20.5H3V22.5C3 24.7091 8.37258 26.5 15 26.5C15.1675 26.5 15.3342 26.4989 15.5 26.4966Z"/>
<path d="M19.058 17.7655C18.2804 18.5615 17.6082 19.4608 17.064 20.4411C16.3934 20.4798 15.7038 20.5 15 20.5C8.37258 20.5 3 18.7091 3 16.5V14.5H3.09284C3.83099 16.4732 8.88057 18 15 18C16.4243 18 17.7906 17.9173 19.058 17.7655Z"/>
<path d="M33.7435 24.8909L31.8419 23.3306L26.8415 28.1752L25.0451 26.4248L23.2836 28.1412L26.9387 31.7027L33.7435 24.8909Z"/>
<path fill-rule="evenodd" clip-rule="evenodd" d="M28 37C33.5228 37 38 32.5228 38 27C38 21.4772 33.5228 17 28 17C22.4772 17 18 21.4772 18 27C18 32.5228 22.4772 37 28 37ZM28 34.5C32.1421 34.5 35.5 31.1421 35.5 27C35.5 22.8579 32.1421 19.5 28 19.5C23.8579 19.5 20.5 22.8579 20.5 27C20.5 31.1421 23.8579 34.5 28 34.5Z"/>
</svg>
