<svg width="40" height="40" viewBox="0 0 40 40" xmlns="http://www.w3.org/2000/svg">
<path fill-rule="evenodd" clip-rule="evenodd" d="M14 5C20.6274 5 26 6.79086 26 9V11.5C26 13.7091 20.6274 15.5 14 15.5C7.37258 15.5 2 13.7091 2 11.5V9C2 6.79086 7.37258 5 14 5ZM21.8528 8.06894C19.9351 7.4297 17.1586 7 14 7C10.8414 7 8.0649 7.4297 6.14717 8.06894C5.17786 8.39205 4.53771 8.7327 4.18097 9.01384C4.09251 9.08356 4.03547 9.13758 4 9.17534V11.3247C4.03547 11.3624 4.09251 11.4164 4.18097 11.4862C4.53771 11.7673 5.17786 12.108 6.14717 12.4311C8.0649 13.0703 10.8414 13.5 14 13.5C17.1586 13.5 19.9351 13.0703 21.8528 12.4311C22.8221 12.108 23.4623 11.7673 23.819 11.4862C23.9075 11.4164 23.9645 11.3624 24 11.3247V9.17534C23.9645 9.13758 23.9075 9.08356 23.819 9.01384C23.4623 8.7327 22.8221 8.39205 21.8528 8.06894ZM24.0518 9.24021C24.0518 9.24021 24.0482 9.23585 24.0436 9.22697C24.0499 9.23574 24.0518 9.24021 24.0518 9.24021ZM24.0518 11.2598C24.0518 11.2598 24.0499 11.2643 24.0436 11.273C24.0482 11.2642 24.0518 11.2598 24.0518 11.2598ZM3.94823 11.2598C3.94823 11.2598 3.95183 11.2642 3.95639 11.2731C3.95007 11.2643 3.94823 11.2598 3.94823 11.2598ZM3.94823 9.24021C3.94823 9.24021 3.95007 9.23573 3.95639 9.22692C3.95183 9.23583 3.94823 9.24021 3.94823 9.24021Z"/>
<path d="M15.8266 24.954C15.7919 25.3412 15.7742 25.7333 15.7742 26.1296C15.7742 26.5764 15.7967 27.018 15.8407 27.4532C15.2406 27.484 14.6259 27.5 14 27.5C7.37258 27.5 2 25.7091 2 23.5V21.5H2.09284C2.83099 23.4732 7.88057 25 14 25C14.621 25 15.231 24.9843 15.8266 24.954Z"/>
<path d="M16.6595 21.4014C17.0248 20.4648 17.4956 19.5813 18.057 18.7656C16.7898 18.9173 15.4239 19 14 19C7.88057 19 2.83099 17.4732 2.09284 15.5H2V17.5C2 19.7091 7.37258 21.5 14 21.5C14.9139 21.5 15.804 21.4659 16.6595 21.4014Z"/>
<path d="M26.3333 24.5V26.5L23 23.5L26.3333 20.5V22.5H33V24.5H26.3333Z"/>
<path fill-rule="evenodd" clip-rule="evenodd" d="M28.3549 35.7593C33.8777 35.7593 38.3549 31.2821 38.3549 25.7593C38.3549 20.2364 33.8777 15.7593 28.3549 15.7593C22.832 15.7593 18.3549 20.2364 18.3549 25.7593C18.3549 31.2821 22.832 35.7593 28.3549 35.7593ZM28.3549 33.2593C32.497 33.2593 35.8549 29.9014 35.8549 25.7593C35.8549 21.6171 32.497 18.2593 28.3549 18.2593C24.2127 18.2593 20.8549 21.6171 20.8549 25.7593C20.8549 29.9014 24.2127 33.2593 28.3549 33.2593Z"/>
<path d="M29.6667 31.1875V29.1875H23V27.1875H29.6667V25.1875L33 28.1875L29.6667 31.1875Z"/>
</svg>
