<svg width="40" height="40" viewBox="0 0 40 40" xmlns="http://www.w3.org/2000/svg">
<path fill-rule="evenodd" clip-rule="evenodd" d="M32 12.5C32 10.2909 26.6274 8.5 20 8.5C13.3726 8.5 8 10.2909 8 12.5V15C8 17.2091 13.3726 19 20 19C26.6274 19 32 17.2091 32 15V12.5ZM20 11C23.1198 11 25.8404 11.4252 27.6947 12.0433C28.6248 12.3533 29.203 12.6679 29.5 12.8991V14.6009C29.203 14.8321 28.6248 15.1467 27.6947 15.4567C25.8404 16.0748 23.1198 16.5 20 16.5C16.8802 16.5 14.1596 16.0748 12.3053 15.4567C11.3752 15.1467 10.797 14.8321 10.5 14.6009V12.8991C10.797 12.6679 11.3752 12.3533 12.3053 12.0433C14.1596 11.4252 16.8802 11 20 11ZM29.6503 13.0345C29.6503 13.0345 29.6454 13.0297 29.6383 13.0201C29.6472 13.0296 29.6503 13.0345 29.6503 13.0345ZM29.6503 14.4655C29.6503 14.4655 29.6472 14.4704 29.6383 14.4799C29.6454 14.4703 29.6503 14.4655 29.6503 14.4655ZM10.3497 14.4655C10.3497 14.4655 10.3546 14.4703 10.3618 14.4799C10.3528 14.4704 10.3497 14.4655 10.3497 14.4655ZM10.3497 13.0345C10.3497 13.0345 10.3528 13.0296 10.3618 13.0201C10.3546 13.0297 10.3497 13.0345 10.3497 13.0345Z"/>
<path d="M31.9072 19H32V21C32 23.2091 26.6274 25 20 25C13.3726 25 8 23.2091 8 21V19H8.09284C8.83099 20.9732 13.8806 22.5 20 22.5C26.1194 22.5 31.169 20.9732 31.9072 19Z"/>
<path d="M31.9072 25C31.169 26.9732 26.1194 28.5 20 28.5C13.8806 28.5 8.83099 26.9732 8.09284 25H8V27C8 29.2091 13.3726 31 20 31C26.6274 31 32 29.2091 32 27V25H31.9072Z"/>
</svg>
