<svg width="40" height="40" viewBox="0 0 40 40" xmlns="http://www.w3.org/2000/svg">
<path d="M20 21C23.866 21 27 23.6863 27 27C24.8162 26.9997 24.1375 26.9998 22.9967 26.9998L13 27C13 23.6863 16.134 21 20 21Z"/>
<path d="M17.2677 16.4999L18.8839 14.8837L17.1161 13.116L15.4999 14.7322L13.8839 13.1162L12.1161 14.8839L13.7321 16.4999L12.1161 18.116L13.8839 19.8837L15.4999 18.2677L17.1161 19.8839L18.8839 18.1162L17.2677 16.4999Z"/>
<path d="M27.8839 14.8837L26.2677 16.4999L27.8839 18.1162L26.1161 19.8839L24.4999 18.2677L22.8839 19.8837L21.1161 18.116L22.7321 16.4999L21.1161 14.8839L22.8839 13.1162L24.4999 14.7322L26.1161 13.116L27.8839 14.8837Z"/>
<path fill-rule="evenodd" clip-rule="evenodd" d="M34 20C34 27.732 27.732 34 20 34C12.268 34 6 27.732 6 20C6 12.268 12.268 6 20 6C27.732 6 34 12.268 34 20ZM31.5 20C31.5 26.3513 26.3513 31.5 20 31.5C13.6487 31.5 8.5 26.3513 8.5 20C8.5 13.6487 13.6487 8.5 20 8.5C26.3513 8.5 31.5 13.6487 31.5 20Z"/>
</svg>
