<svg width="40" height="40" viewBox="0 0 40 40" xmlns="http://www.w3.org/2000/svg">
<path d="M4.11612 5.88398L34.1161 35.884L35.8839 34.1162L5.88389 4.11621L4.11612 5.88398Z"/>
<path d="M4.5 28.5001V9.80341L7 12.3034V26.0001H20.6967L23.1967 28.5001H23V30.0001H24.6967L26 31.3034V33.0001H14V30.0001H17V28.5001H4.5Z"/>
<path d="M11.8033 6.50012L14.3033 9.00012H33V26.0001H31.3033L33.8033 28.5001H35.5V6.50012H11.8033Z"/>
<path d="M8 25.0001V13.3034L10.5 15.8034V22.5001H17.1967L19.6967 25.0001H8Z"/>
<path d="M15.3033 10.0001L17.8033 12.5001H29.5V22.5001H27.8033L30.3033 25.0001H32V10.0001H15.3033Z"/>
</svg>
