<svg width="40" height="40" viewBox="0 0 40 40" xmlns="http://www.w3.org/2000/svg">
<path d="M1.5 5.5H32.5V15.2411C31.7013 14.9524 30.8649 14.7427 30 14.6215V8H4V25H15.9091C15.8044 25.6512 15.75 26.3193 15.75 27C15.75 28.7778 16.1211 30.4688 16.7901 32H11V29H14V27.5H1.5V5.5Z"/>
<path d="M29 14.5221V9H5V24H16.1123C16.3274 23.127 16.6342 22.29 17.0219 21.5H7.5V11.5H26.5V14.6215C27.0718 14.5414 27.6561 14.5 28.25 14.5C28.5018 14.5 28.7519 14.5074 29 14.5221Z"/>
<path fill-rule="evenodd" clip-rule="evenodd" d="M32.4432 25.1724V26.0049L33.5464 26.0049L33.9558 26.0049V25.1724C33.9558 23.7202 32.7786 22.543 31.3264 22.543C29.8742 22.543 28.6969 23.7202 28.6969 25.1724V26.0049H24.25V31H30.9101V26.0049H30.2095V25.1724C30.2095 24.5556 30.7095 24.0555 31.3264 24.0555C31.9432 24.0555 32.4432 24.5556 32.4432 25.1724ZM28.1351 27.9474H27.0251V29.0575H28.1351V27.9474Z"/>
<path fill-rule="evenodd" clip-rule="evenodd" d="M28.25 37C33.7728 37 38.25 32.5228 38.25 27C38.25 21.4772 33.7728 17 28.25 17C22.7272 17 18.25 21.4772 18.25 27C18.25 32.5228 22.7272 37 28.25 37ZM28.25 34.5C32.3921 34.5 35.75 31.1421 35.75 27C35.75 22.8579 32.3921 19.5 28.25 19.5C24.1079 19.5 20.75 22.8579 20.75 27C20.75 31.1421 24.1079 34.5 28.25 34.5Z"/>
</svg>
