<svg width="40" height="40" viewBox="0 0 40 40" xmlns="http://www.w3.org/2000/svg">
<path d="M1.5 5.5H32.5V15.2411C31.7013 14.9524 30.8649 14.7427 30 14.6215V8H4V25H15.9091C15.8044 25.6512 15.75 26.3193 15.75 27C15.75 28.7778 16.1211 30.4688 16.7901 32H11V29H14V27.5H1.5V5.5Z"/>
<path d="M29 14.5221V9H5V24H16.1123C16.3274 23.127 16.6342 22.29 17.0219 21.5H7.5V11.5H26.5V14.6215C27.0718 14.5414 27.6561 14.5 28.25 14.5C28.5018 14.5 28.7519 14.5074 29 14.5221Z"/>
<path fill-rule="evenodd" clip-rule="evenodd" d="M28.2342 22.25C26.7347 22.25 25.5191 23.4656 25.5191 24.9651V25.8987H24.5V31.5H31.9685V25.8987H30.9493V24.9651C30.9493 23.4656 29.7337 22.25 28.2342 22.25ZM29.7201 25.8987H26.7483V24.9651C26.7483 24.1444 27.4136 23.4792 28.2342 23.4792C29.0549 23.4792 29.7201 24.1444 29.7201 24.9651V25.8987ZM28.8566 28.077H27.6119V29.3217H28.8566V28.077Z"/>
<path fill-rule="evenodd" clip-rule="evenodd" d="M28.25 37C33.7728 37 38.25 32.5228 38.25 27C38.25 21.4772 33.7728 17 28.25 17C22.7272 17 18.25 21.4772 18.25 27C18.25 32.5228 22.7272 37 28.25 37ZM28.25 34.5C32.3921 34.5 35.75 31.1421 35.75 27C35.75 22.8579 32.3921 19.5 28.25 19.5C24.1079 19.5 20.75 22.8579 20.75 27C20.75 31.1421 24.1079 34.5 28.25 34.5Z"/>
</svg>
