<svg width="40" height="40" viewBox="0 0 40 40" xmlns="http://www.w3.org/2000/svg">
<path d="M1.5 5.5H32.5V15.2411C31.7013 14.9524 30.8649 14.7427 30 14.6215V8H4V25H15.9091C15.8044 25.6512 15.75 26.3193 15.75 27C15.75 28.7778 16.1211 30.4688 16.7901 32H11V29H14V27.5H1.5V5.5Z"/>
<path d="M29 14.5221V9H5V24H16.1123C16.3274 23.127 16.6342 22.29 17.0219 21.5H7.5V11.5H26.5V14.6215C27.0718 14.5414 27.6561 14.5 28.25 14.5C28.5018 14.5 28.7519 14.5074 29 14.5221Z"/>
<path fill-rule="evenodd" clip-rule="evenodd" d="M29.7781 21H26.6775V23.2285C26.3296 23.3644 26.004 23.5446 25.7075 23.7622L23.8003 22.6611L22.25 25.3463L24.0431 26.3816C23.9915 26.6468 23.9644 26.9209 23.9644 27.2012C23.9644 27.3577 23.9729 27.5123 23.9893 27.6644L22.25 28.6686L23.8003 31.3538L25.4263 30.415C25.7934 30.7353 26.2159 30.9937 26.6775 31.1739V33.0149H29.7781V31.1739C30.2397 30.9937 30.6621 30.7353 31.0292 30.415L32.6552 31.3538L34.2055 28.6686L32.4663 27.6644C32.4827 27.5123 32.4911 27.3577 32.4911 27.2012C32.4911 26.9209 32.4641 26.6468 32.4124 26.3816L34.2055 25.3463L32.6552 22.6611L30.748 23.7622C30.4516 23.5446 30.1259 23.3644 29.7781 23.2285V21ZM29.7781 27.2012C29.7781 28.0574 29.084 28.7515 28.2278 28.7515C27.3716 28.7515 26.6775 28.0574 26.6775 27.2012C26.6775 26.345 27.3716 25.6509 28.2278 25.6509C29.084 25.6509 29.7781 26.345 29.7781 27.2012Z"/>
<path fill-rule="evenodd" clip-rule="evenodd" d="M28.25 37C33.7728 37 38.25 32.5228 38.25 27C38.25 21.4772 33.7728 17 28.25 17C22.7272 17 18.25 21.4772 18.25 27C18.25 32.5228 22.7272 37 28.25 37ZM28.25 34.5C32.3921 34.5 35.75 31.1421 35.75 27C35.75 22.8579 32.3921 19.5 28.25 19.5C24.1079 19.5 20.75 22.8579 20.75 27C20.75 31.1421 24.1079 34.5 28.25 34.5Z"/>
</svg>
