<svg width="40" height="40" viewBox="0 0 40 40" xmlns="http://www.w3.org/2000/svg">
<path d="M9.76403 10.4486C9.72979 10.4154 9.69571 10.3819 9.66178 10.3479C7.86835 8.5545 7.08441 6.31982 7.6249 4.88916C7.23188 5.10868 6.86225 5.38546 6.5282 5.71951C4.57963 7.66808 4.57963 10.8273 6.5282 12.7759C6.84401 13.0917 7.19162 13.3563 7.56073 13.5698C8.15175 12.4287 8.89517 11.3794 9.76403 10.4486Z"/>
<path d="M13.7678 18.5354C15.021 19.7886 17.0528 19.7886 18.306 18.5354L16.0368 16.2664C14.7836 15.0132 14.6753 14.905 13.7678 13.9972C12.5146 15.2504 12.5146 17.2822 13.7678 18.5354Z"/>
<path d="M26.2282 13.9973C27.4814 15.2505 27.4814 17.2823 26.2282 18.5355C24.975 19.7887 22.9432 19.7887 21.69 18.5355C22.5945 17.6313 22.7053 17.5205 23.9455 16.2803L26.2282 13.9973Z"/>
<path d="M16.118 23.4409C16.877 24.9587 18.4042 25.7499 20 25.7499C21.5959 25.7499 23.123 24.9587 23.882 23.4409L26.118 24.5589C24.877 27.041 22.4042 28.2499 20 28.2499C17.5959 28.2499 15.123 27.041 13.882 24.5589L16.118 23.4409Z"/>
<path fill-rule="evenodd" clip-rule="evenodd" d="M34 19.9999C34 27.7319 27.732 33.9999 20 33.9999C12.268 33.9999 6.00001 27.7319 6.00001 19.9999C6.00001 12.2679 12.268 5.99988 20 5.99988C24.0147 5.99988 27.6348 7.68979 30.1876 10.3971C30.4798 10.1701 30.7661 9.91818 31.0419 9.64233C32.35 8.3343 33.121 6.79154 33.2328 5.4972C33.3137 5.56825 33.3927 5.64236 33.4699 5.71952C35.4185 7.66809 35.4185 10.8273 33.4699 12.7759C33.1545 13.0913 32.8074 13.3556 32.4388 13.5689C33.4364 15.4946 34 17.6814 34 19.9999ZM31.5 19.9999C31.5 26.3512 26.3513 31.4999 20 31.4999C13.6487 31.4999 8.50001 26.3512 8.50001 19.9999C8.50001 13.6486 13.6487 8.49988 20 8.49988C26.3513 8.49988 31.5 13.6486 31.5 19.9999Z"/>
</svg>
