<svg width="40" height="40" viewBox="0 0 40 40" xmlns="http://www.w3.org/2000/svg">
<path fill-rule="evenodd" clip-rule="evenodd" d="M20.4995 5.69775L21.9146 5.88629C27.9537 6.69092 32.7949 11.2695 33.9932 17.1738L34.2974 18.6724H25.6833L25.3691 17.8864C24.6918 16.1921 23.2321 14.8941 21.4412 14.4383L20.4995 14.1987V5.69775ZM19.529 5.69775V14.1987L18.5873 14.4383C16.0933 15.073 14.25 17.3353 14.25 20.0249C14.25 20.3438 14.2758 20.6557 14.3251 20.959L14.4808 21.9162L6.68983 25.3247L6.29707 23.9496C5.94051 22.7013 5.75 21.3843 5.75 20.0249C5.75 12.7908 11.1339 6.81628 18.1139 5.8863L19.529 5.69775ZM22.9995 8.64251V12.3166C24.8657 13.0397 26.4021 14.4195 27.3272 16.1724H31.1335C29.8579 12.4902 26.803 9.63729 22.9995 8.64251ZM17.029 8.64247C11.9778 9.9633 8.25 14.5596 8.25 20.0249C8.25 20.6469 8.29816 21.2569 8.39081 21.8518L11.7575 20.3788C11.7525 20.2614 11.75 20.1434 11.75 20.0249C11.75 16.5122 13.9407 13.5137 17.029 12.3167V8.64247ZM25.8701 19.6428H34.335L34.2473 20.975C34.0317 24.2489 32.7113 27.2214 30.658 29.5213L29.7064 30.5872L24.1733 24.1319L24.7326 23.3371C25.2629 22.5832 25.6164 21.698 25.7347 20.7397L25.8701 19.6428ZM28.0043 22.1428C27.8377 22.7728 27.5986 23.3732 27.2968 23.9345L29.6869 26.723C30.6231 25.3739 31.2837 23.8204 31.5885 22.1428H28.0043ZM14.871 22.8048L15.4682 23.5694C16.5252 24.9228 18.1682 25.7891 20.0142 25.7891C20.9331 25.7891 21.7984 25.5751 22.5662 25.1952L23.4372 24.7643L28.9699 31.2192L27.7722 31.9968C25.5385 33.447 22.8728 34.2891 20.0142 34.2891C14.8484 34.2891 10.3252 31.5423 7.82382 27.4354L7.07955 26.2135L14.871 22.8048ZM10.7851 27.3211C12.9412 30.0447 16.2744 31.7891 20.0142 31.7891C21.8591 31.7891 23.6026 31.3653 25.1549 30.6098L22.7639 27.8203C21.9027 28.1241 20.9768 28.2891 20.0142 28.2891C17.7215 28.2891 15.6466 27.3545 14.1507 25.8486L10.7851 27.3211Z"/>
</svg>
