<svg width="40" height="40" viewBox="0 0 40 40" xmlns="http://www.w3.org/2000/svg">
<path fill-rule="evenodd" clip-rule="evenodd" d="M26.5758 28.8876C25.7616 29.6872 24.8138 30.2659 23.772 30.6507V33.3H17.092V30.7831C16.2318 30.5192 15.4199 30.1352 14.6703 29.6191L14.6623 29.6136L14.6543 29.608C13.2594 28.6316 12.2591 27.3015 11.6592 25.7018L10.9167 23.7217L14.5258 21.6294C14.2599 21.3978 14.0104 21.1496 13.7819 20.8829L13.7406 20.8348L13.7018 20.7846C13.2468 20.1958 12.9036 19.5322 12.6432 18.8378C12.3322 18.0084 12.196 17.1379 12.196 16.256C12.196 14.2033 12.8806 12.323 14.4325 10.9241C15.2256 10.2002 16.1195 9.66292 17.092 9.30417V6.69995H23.772V9.3972C25.7936 10.1763 27.3435 11.6664 28.2875 13.8073L29.1871 15.8475L25.808 17.8249C25.9471 17.9227 26.0823 18.0282 26.2084 18.1417C26.437 18.3474 26.6911 18.6039 26.9571 18.8857C27.3771 19.3112 27.7723 19.8321 28.0362 20.4605C28.2111 20.8643 28.3511 21.3003 28.467 21.7449C28.6235 22.3446 28.692 22.9593 28.692 23.576C28.692 25.6011 28.0341 27.4548 26.5758 28.8876ZM26 14.816C25.7794 14.3156 25.5175 13.8681 25.2144 13.4735C25.0145 13.2132 24.7966 12.9759 24.5608 12.7616C23.8851 12.1476 23.0622 11.7225 22.092 11.4863C21.8295 11.4223 21.5561 11.3722 21.272 11.336V9.19995H19.592V11.288C19.4577 11.3004 19.3254 11.3164 19.1952 11.336C19.0517 11.3575 18.9106 11.3832 18.772 11.4133C17.7489 11.6351 16.8622 12.0893 16.112 12.776C15.168 13.624 14.696 14.784 14.696 16.256C14.696 16.88 14.792 17.448 14.984 17.96C15.176 18.472 15.408 18.904 15.68 19.256C15.968 19.592 16.336 19.912 16.784 20.216C16.8119 20.2349 16.8397 20.2536 16.8673 20.2721C17.2817 20.5496 17.654 20.7709 17.984 20.936C18.2129 21.04 18.4755 21.1541 18.772 21.2785C18.9315 21.3453 19.1009 21.4152 19.28 21.488L19.424 21.56C19.4349 21.5621 19.4454 21.5643 19.4554 21.5665C19.5188 21.5803 19.5644 21.5941 19.592 21.608V24.92C19.5164 24.9067 19.4421 24.8907 19.3693 24.872C19.1585 24.8176 18.9594 24.7398 18.772 24.6387C18.4272 24.4526 18.1219 24.1873 17.8563 23.8428C17.7759 23.7385 17.6991 23.627 17.626 23.5083C17.5126 23.3243 17.4079 23.1228 17.312 22.904L14 24.824C14.2527 25.4979 14.5958 26.0896 15.0292 26.5993C15.1284 26.7159 15.2323 26.8283 15.341 26.9363C15.5691 27.1631 15.8181 27.371 16.088 27.56C16.8619 28.0928 17.7566 28.4446 18.772 28.6153C18.9487 28.645 19.1291 28.6692 19.3131 28.688C19.4051 28.6973 19.4981 28.7053 19.592 28.712V30.8H21.272V28.688C21.5561 28.654 21.8294 28.6069 22.092 28.5467C23.1902 28.2951 24.1009 27.8141 24.824 27.104C25.736 26.208 26.192 25.032 26.192 23.576C26.192 23.144 26.144 22.744 26.048 22.376C25.952 22.008 25.848 21.696 25.736 21.44C25.624 21.168 25.432 20.896 25.16 20.624C24.904 20.352 24.696 20.144 24.536 20C24.376 19.856 24.104 19.688 23.72 19.496C23.5671 19.4131 23.4333 19.3417 23.3184 19.2818C23.1448 19.1911 23.0147 19.1265 22.928 19.088C22.8027 19.0253 22.524 18.909 22.092 18.739C22.0827 18.7353 22.0734 18.7316 22.064 18.728C21.616 18.536 21.352 18.424 21.272 18.392V15.152C21.5851 15.2612 21.8584 15.4284 22.092 15.6536C22.1349 15.695 22.1765 15.7383 22.2168 15.7836C22.328 15.9088 22.4289 16.049 22.5196 16.2041C22.6099 16.3586 22.69 16.5278 22.76 16.712L26 14.816ZM18.772 15.5452C18.908 15.3767 19.1029 15.2456 19.3566 15.152C19.4301 15.1248 19.5086 15.1008 19.592 15.08V17.6C19.2208 17.389 18.9475 17.167 18.772 16.9339C18.6147 16.7248 18.536 16.5069 18.536 16.28C18.536 15.985 18.6147 15.74 18.772 15.5452ZM22.092 22.9103C21.9121 22.6854 21.6387 22.4832 21.272 22.304V24.872C21.6387 24.7742 21.9121 24.6182 22.092 24.4042C22.2653 24.1981 22.352 23.938 22.352 23.624C22.352 23.3649 22.2653 23.127 22.092 22.9103Z"/>
</svg>
