<svg width="40" height="40" viewBox="0 0 40 40" xmlns="http://www.w3.org/2000/svg">
<path fill-rule="evenodd" clip-rule="evenodd" d="M4.25 20C4.25 17.3766 6.37665 15.25 9 15.25C11.6234 15.25 13.75 17.3766 13.75 20C13.75 22.6234 11.6234 24.75 9 24.75C6.37665 24.75 4.25 22.6234 4.25 20ZM9 17.75C7.75736 17.75 6.75 18.7574 6.75 20C6.75 21.2426 7.75736 22.25 9 22.25C10.2426 22.25 11.25 21.2426 11.25 20C11.25 18.7574 10.2426 17.75 9 17.75ZM15.25 20C15.25 17.3766 17.3766 15.25 20 15.25C22.6234 15.25 24.75 17.3766 24.75 20C24.75 22.6234 22.6234 24.75 20 24.75C17.3766 24.75 15.25 22.6234 15.25 20ZM20 17.75C18.7574 17.75 17.75 18.7574 17.75 20C17.75 21.2426 18.7574 22.25 20 22.25C21.2426 22.25 22.25 21.2426 22.25 20C22.25 18.7574 21.2426 17.75 20 17.75ZM31 17.75C29.7574 17.75 28.75 18.7574 28.75 20C28.75 21.2426 29.7574 22.25 31 22.25C32.2426 22.25 33.25 21.2426 33.25 20C33.25 18.7574 32.2426 17.75 31 17.75ZM26.25 20C26.25 17.3766 28.3766 15.25 31 15.25C33.6234 15.25 35.75 17.3766 35.75 20C35.75 22.6234 33.6234 24.75 31 24.75C28.3766 24.75 26.25 22.6234 26.25 20Z"/>
</svg>
