<svg width="40" height="40" viewBox="0 0 40 40" xmlns="http://www.w3.org/2000/svg">
<path fill-rule="evenodd" clip-rule="evenodd" d="M20 35.75C17.3766 35.75 15.25 33.6234 15.25 31C15.25 28.3766 17.3766 26.25 20 26.25C22.6234 26.25 24.75 28.3766 24.75 31C24.75 33.6234 22.6234 35.75 20 35.75ZM17.75 31C17.75 32.2426 18.7574 33.25 20 33.25C21.2426 33.25 22.25 32.2426 22.25 31C22.25 29.7574 21.2426 28.75 20 28.75C18.7574 28.75 17.75 29.7574 17.75 31ZM20 24.75C17.3766 24.75 15.25 22.6234 15.25 20C15.25 17.3766 17.3766 15.25 20 15.25C22.6234 15.25 24.75 17.3766 24.75 20C24.75 22.6234 22.6234 24.75 20 24.75ZM17.75 20C17.75 21.2426 18.7574 22.25 20 22.25C21.2426 22.25 22.25 21.2426 22.25 20C22.25 18.7574 21.2426 17.75 20 17.75C18.7574 17.75 17.75 18.7574 17.75 20ZM17.75 9C17.75 10.2426 18.7574 11.25 20 11.25C21.2426 11.25 22.25 10.2426 22.25 9C22.25 7.75736 21.2426 6.75 20 6.75C18.7574 6.75 17.75 7.75736 17.75 9ZM20 13.75C17.3766 13.75 15.25 11.6234 15.25 9C15.25 6.37665 17.3766 4.25 20 4.25C22.6234 4.25 24.75 6.37665 24.75 9C24.75 11.6234 22.6234 13.75 20 13.75Z"/>
</svg>
