<svg width="40" height="40" viewBox="0 0 40 40" xmlns="http://www.w3.org/2000/svg">
<path fill-rule="evenodd" clip-rule="evenodd" d="M4.75 27.25V20.75H11.25V27.25H4.75ZM7.25 24.75H8.75V23.25H7.25V24.75ZM4.75 19.25V12.75H11.25V19.25H4.75ZM7.25 16.75H8.75V15.25H7.25L7.25 16.75ZM12.75 27.25V20.75H19.25V27.25H12.75ZM15.25 24.75H16.75V23.25H15.25V24.75ZM12.75 19.25V12.75H19.25V19.25H12.75ZM15.25 16.75H16.75V15.25H15.25V16.75ZM20.75 27.25V20.75H27.25V27.25H20.75ZM23.25 24.75H24.75V23.25H23.25V24.75ZM20.75 19.25V12.75H27.25V19.25H20.75ZM23.25 16.75H24.75V15.25H23.25V16.75ZM28.75 27.25V20.75H35.25V27.25L28.75 27.25ZM31.25 24.75H32.75V23.25H31.25V24.75ZM28.75 19.25V12.75H35.25V19.25H28.75ZM31.25 16.75H32.75V15.25H31.25V16.75Z"/>
</svg>
