<svg width="40" height="40" viewBox="0 0 40 40" xmlns="http://www.w3.org/2000/svg">
<path fill-rule="evenodd" clip-rule="evenodd" d="M8.75 4.75H15.25V11.25H8.75V4.75ZM11.25 7.25V8.75H12.75V7.25H11.25ZM16.75 4.75H23.25V11.25H16.75V4.75ZM19.25 7.25V8.75H20.75V7.25H19.25ZM24.75 4.75H31.25V11.25H24.75V4.75ZM27.25 7.25V8.75H28.75V7.25H27.25ZM8.75 12.75H15.25V19.25H8.75V12.75ZM11.25 15.25V16.75H12.75V15.25H11.25ZM16.75 12.75H23.25V19.25H16.75V12.75ZM19.25 15.25V16.75H20.75V15.25H19.25ZM24.75 12.75H31.25V19.25H24.75V12.75ZM27.25 15.25V16.75H28.75V15.25H27.25ZM8.75 20.75H15.25V27.25H8.75V20.75ZM11.25 23.25V24.75H12.75V23.25H11.25ZM16.75 20.75H23.25V27.25H16.75V20.75ZM19.25 23.25V24.75H20.75V23.25H19.25ZM24.75 20.75H31.25V27.25H24.75V20.75ZM27.25 23.25V24.75H28.75V23.25H27.25ZM8.75 28.75H15.25V35.25H8.75V28.75ZM11.25 31.25V32.75H12.75V31.25H11.25ZM16.75 28.75H23.25V35.25H16.75V28.75ZM19.25 31.25V32.75H20.75V31.25H19.25ZM24.75 28.75H31.25V35.25H24.75V28.75ZM27.25 31.25V32.75H28.75V31.25H27.25Z"/>
</svg>
