<svg width="40" height="40" viewBox="0 0 40 40" xmlns="http://www.w3.org/2000/svg">
<path fill-rule="evenodd" clip-rule="evenodd" d="M13 18L6 13.5L13 9L20 13.5L13 18ZM13 15.028L10.6231 13.5L13 11.972L15.3769 13.5L13 15.028Z"/>
<path fill-rule="evenodd" clip-rule="evenodd" d="M20 22.5L13 18L6 22.5L13 27L20 22.5ZM10.6231 22.5L13 24.028L15.3769 22.5L13 20.972L10.6231 22.5Z"/>
<path fill-rule="evenodd" clip-rule="evenodd" d="M27 18L34 22.5L27 27L20 22.5L27 18ZM24.6231 22.5L27 20.972L29.3769 22.5L27 24.028L24.6231 22.5Z"/>
<path fill-rule="evenodd" clip-rule="evenodd" d="M27 18L20 13.5L27 9L34 13.5L27 18ZM27 11.972L24.6231 13.5L27 15.028L29.3769 13.5L27 11.972Z"/>
<path fill-rule="evenodd" clip-rule="evenodd" d="M13 28.5L20 33L27 28.5L20 24L13 28.5ZM17.6231 28.5L20 30.028L22.3769 28.5L20 26.972L17.6231 28.5Z"/>
</svg>
