<svg width="40" height="40" viewBox="0 0 40 40" xmlns="http://www.w3.org/2000/svg">
<path d="M5.11609 6.88398L33.1161 34.884L34.8839 33.1162L6.88386 5.11621L5.11609 6.88398Z"/>
<path fill-rule="evenodd" clip-rule="evenodd" d="M5.99997 20C5.99997 17.4961 6.65728 15.1458 7.80877 13.1121L9.91511 15.2184C9.80867 15.1745 9.70355 15.1303 9.59979 15.0859C8.89448 16.576 8.49997 18.2419 8.49997 20C8.49997 21.7581 8.89451 23.4241 9.59988 24.9143C10.6155 24.48 11.7606 24.0624 13.0202 23.7119C12.8492 22.5401 12.7499 21.3001 12.7499 19.9998C12.7499 19.359 12.774 18.7328 12.8189 18.1223L15.2568 20.5601C15.2786 21.4586 15.3522 22.3243 15.4661 23.1537C16.141 23.0331 16.8406 22.9354 17.5631 22.8664L19.9469 25.2502C18.5276 25.2534 17.1864 25.3877 15.9366 25.6093C16.3875 27.4396 17.0071 29.0325 17.6285 30.3374C17.8002 30.698 17.9718 31.036 18.1396 31.3503C18.7452 31.4488 19.3666 31.5 20 31.5C20.6333 31.5 21.2547 31.4488 21.8603 31.3503C22.0281 31.036 22.1997 30.698 22.3714 30.3374C22.6421 29.7689 22.9125 29.1457 23.1687 28.472L26.8879 32.1912C25.8307 32.7898 24.6879 33.2549 23.4824 33.5634C22.4298 33.8329 21.3293 33.9832 20.1964 33.9988C20.131 33.9997 20.0656 34 20 34C19.9343 34 19.8688 33.9995 19.8034 33.9986C18.6705 33.9831 17.5702 33.833 16.5175 33.5636C13.2884 32.7369 10.5089 30.7874 8.61957 28.1557C8.13447 27.48 7.708 26.7594 7.34774 26.0012C6.48351 24.1824 5.99997 22.1476 5.99997 20ZM14.8695 30.295C14.3606 29.0912 13.8772 27.7094 13.5009 26.1739C12.5714 26.4406 11.7113 26.7471 10.928 27.0683C11.98 28.4166 13.3259 29.5243 14.8695 30.295Z"/>
<path fill-rule="evenodd" clip-rule="evenodd" d="M24.5339 16.8465C24.6477 17.6758 24.7213 18.5414 24.7431 19.4398L27.1809 21.8776C27.2258 21.267 27.2499 20.6407 27.2499 19.9998C27.2499 18.6998 27.1508 17.4599 26.9798 16.2883C28.2394 15.9378 29.3845 15.5202 30.4001 15.0859C31.1055 16.576 31.5 18.2419 31.5 20C31.5 21.7582 31.1054 23.4242 30.4001 24.9143C30.2965 24.87 30.1915 24.8259 30.0853 24.782L32.1912 26.8879C32.355 26.5986 32.5089 26.3029 32.6522 26.0012C33.5164 24.1824 34 22.1477 34 20C34 12.268 27.732 6 20 6C17.4961 6 15.1458 6.65731 13.1121 7.80879L16.8311 11.5278C17.0874 10.854 17.3578 10.2308 17.6285 9.66221C17.8001 9.30181 17.9716 8.96394 18.1394 8.64974C18.745 8.55122 19.3665 8.5 20 8.5C20.6334 8.5 21.2549 8.55122 21.8605 8.64973C22.0283 8.96394 22.1997 9.3018 22.3714 9.66221C22.9928 10.9672 23.6125 12.5603 24.0635 14.3909C22.8137 14.6125 21.4725 14.7468 20.0533 14.75L22.4371 17.1338C23.1595 17.0647 23.859 16.9671 24.5339 16.8465ZM25.1306 9.70509C25.6395 10.9089 26.1229 12.2907 26.4991 13.8263C27.4286 13.5596 28.2888 13.2531 29.0721 12.9318C28.0201 11.5835 26.6741 10.4758 25.1306 9.70509Z"/>
</svg>
