<svg width="40" height="40" viewBox="0 0 40 40" xmlns="http://www.w3.org/2000/svg">
<path fill-rule="evenodd" clip-rule="evenodd" d="M3 22H16.1537C16.4512 21.1185 16.8444 20.2811 17.3208 19.5H5.5V10.3603L17 14.3177L28.5 10.3603V13.5098C29.3584 13.5436 30.1946 13.6639 31 13.8623V4H3V22ZM28.5 6.5H5.5V7.83615L17 11.6824L28.5 7.83615V6.5Z"/>
<path d="M29.3882 23.1117L31.0815 21.4185L32.7748 23.1117L31.0815 24.805L29.3882 23.1117Z"/>
<path d="M24.2517 28.2482L28.6593 23.8406L30.3526 25.5339L25.945 29.9415L24.0966 30.0966L24.2517 28.2482Z"/>
<path fill-rule="evenodd" clip-rule="evenodd" d="M28 36C33.5228 36 38 31.5228 38 26C38 20.4772 33.5228 16 28 16C22.4772 16 18 20.4772 18 26C18 31.5228 22.4772 36 28 36ZM28 33.5C32.1421 33.5 35.5 30.1421 35.5 26C35.5 21.8579 32.1421 18.5 28 18.5C23.8579 18.5 20.5 21.8579 20.5 26C20.5 30.1421 23.8579 33.5 28 33.5Z"/>
</svg>
