<svg width="40" height="40" viewBox="0 0 40 40" xmlns="http://www.w3.org/2000/svg">
<path fill-rule="evenodd" clip-rule="evenodd" d="M23.08 20.324H18.28V19.556H23.08V17.54H18.544C18.5865 17.37 18.6342 17.2087 18.687 17.056C19.1515 15.7147 20.0159 15.044 21.28 15.044C21.808 15.044 22.256 15.18 22.624 15.452C22.7819 15.5619 22.9339 15.7026 23.08 15.8743C23.1724 15.9829 23.2624 16.1038 23.3501 16.2371C23.4469 16.3843 23.5409 16.5466 23.632 16.724L26.824 14.876C26.6624 14.555 26.489 14.2555 26.3039 13.9777C26.0159 13.5455 25.6995 13.1656 25.3546 12.838C24.2751 11.8127 22.9169 11.3 21.28 11.3C19.52 11.3 18.064 11.86 16.912 12.98C15.8578 13.9903 15.1385 15.349 14.7543 17.056C14.7186 17.2144 14.6859 17.3757 14.656 17.54H13V19.556H14.44V20.324H13V22.34H14.632C14.6585 22.5042 14.6878 22.6656 14.72 22.824C15.0767 24.5807 15.7833 25.9874 16.84 27.0441C17.992 28.1961 19.472 28.7721 21.28 28.7721C23.0204 28.7721 24.4435 28.2021 25.5491 27.0623C25.7892 26.8148 26.0144 26.5404 26.2246 26.239C26.4879 25.8616 26.7277 25.4419 26.944 24.9801L23.752 23.156C23.6196 23.4275 23.4817 23.6688 23.3383 23.88C23.2541 24.004 23.168 24.1177 23.08 24.2209C22.9558 24.3667 22.8278 24.4917 22.696 24.5961C22.5653 24.6941 22.4244 24.7754 22.2734 24.84C21.9806 24.9654 21.6494 25.028 21.28 25.028C20.8949 25.028 20.5468 24.9654 20.2356 24.84C19.4813 24.5362 18.9439 23.8642 18.6235 22.824C18.5763 22.6707 18.5338 22.5094 18.496 22.34H23.08V20.324ZM12.6728 24.84C13.1769 26.3543 13.9608 27.7004 15.0722 28.8118C16.7466 30.4862 18.8887 31.2721 21.28 31.2721C22.9993 31.2721 24.6194 30.8464 26.0308 29.9015C27.4309 28.9641 28.467 27.6226 29.208 26.0404L30.1856 23.953L25.58 21.3212V18.485L30.1172 15.8582L29.0571 13.752C28.2995 12.247 27.2642 10.9775 25.8931 10.0932C24.5125 9.20266 22.9419 8.80005 21.28 8.80005C18.9402 8.80005 16.84 9.56659 15.1758 11.1813C14.0595 12.2531 13.2621 13.5618 12.7369 15.04H10.5V24.84H12.6728Z"/>
</svg>
