<svg width="40" height="40" viewBox="0 0 40 40" xmlns="http://www.w3.org/2000/svg">
<path fill-rule="evenodd" clip-rule="evenodd" d="M25 20C25 22.7614 22.7614 25 20 25C17.2386 25 15 22.7614 15 20C15 17.2386 17.2386 15 20 15C22.7614 15 25 17.2386 25 20ZM22 20C22 21.1046 21.1046 22 20 22C18.8954 22 18 21.1046 18 20C18 18.8954 18.8954 18 20 18C21.1046 18 22 18.8954 22 20Z"/>
<path fill-rule="evenodd" clip-rule="evenodd" d="M20 29C10 29 5 20 5 20C5 20 10 11 20 11C30 11 35 20 35 20C35 20 30 29 20 29ZM7.18225 21.2198L7.18086 21.2222C7.18051 21.2228 7.18134 21.2214 7.18334 21.2179L7.18225 21.2198ZM10.4224 17.3582C9.36281 18.3119 8.55584 19.2686 8.00738 20C8.55584 20.7314 9.36281 21.6881 10.4224 22.6418C12.6241 24.6233 15.8042 26.5 20 26.5C24.1958 26.5 27.3759 24.6233 29.5776 22.6418C30.6372 21.6881 31.4442 20.7314 31.9926 20C31.4442 19.2686 30.6372 18.3119 29.5776 17.3582C27.3759 15.3767 24.1958 13.5 20 13.5C15.8042 13.5 12.6241 15.3767 10.4224 17.3582ZM7.18225 18.7802L7.18334 18.7821C7.18134 18.7786 7.18051 18.7772 7.18086 18.7778L7.18225 18.7802ZM32.8178 18.7802L32.8191 18.7778C32.8195 18.7772 32.8187 18.7786 32.8167 18.7821L32.8178 18.7802ZM32.8178 21.2198L32.8167 21.2179C32.8184 21.2209 32.8192 21.2224 32.8192 21.2224L32.8178 21.2198Z"/>
</svg>
