<svg width="40" height="40" viewBox="0 0 40 40" xmlns="http://www.w3.org/2000/svg">
<path fill-rule="evenodd" clip-rule="evenodd" d="M32.2843 8.24262C30.7222 6.68052 28.1895 6.68052 26.6274 8.24262L23.799 11.071L29.4559 16.7279L32.2843 13.8995C33.8464 12.3374 33.8464 9.80471 32.2843 8.24262ZM29.4559 13.1924L30.5165 12.1317C31.1023 11.5459 31.1023 10.5962 30.5165 10.0104C29.9307 9.4246 28.981 9.4246 28.3952 10.0104L27.3345 11.071L29.4559 13.1924Z"/>
<path fill-rule="evenodd" clip-rule="evenodd" d="M28.7488 17.435L28.7502 17.4335L23.0934 11.7767L23.0919 11.7781L21.6777 10.3639L19.9099 12.1317L21.3242 13.5459L10.0262 24.8438L7.53557 31.5771L8.94978 32.9913L15.683 30.5007L26.981 19.2027L28.3952 20.6169L30.163 18.8492L28.7488 17.435ZM25.2132 17.435L23.0919 15.3136L12.2028 26.2028L14.3241 28.3241L25.2132 17.435Z"/>
</svg>
