<svg width="40" height="40" viewBox="0 0 40 40" xmlns="http://www.w3.org/2000/svg">
<path fill-rule="evenodd" clip-rule="evenodd" d="M17.1586 8.53004C18.3811 7.27531 20.203 6.75 22.5063 6.75H27.25V13.25H23.9062C23.5849 13.25 23.3834 13.2743 23.2633 13.3008C23.2556 13.3709 23.25 13.4724 23.25 13.6187V14.75H27.4072L26.6353 21.25H23.25V33.25H15.5625V21.25H12.75V14.75H15.5625V13.3313C15.5625 11.5049 15.9407 9.78011 17.1586 8.53004ZM23.1566 13.3324C23.1562 13.3326 23.1566 13.3324 23.1566 13.3324V13.3324ZM18.9492 10.2746C18.3906 10.848 18.0625 11.7889 18.0625 13.3313V17.25H15.25V18.75H18.0625V30.75H20.75V18.75H24.4147L24.5928 17.25H20.75V13.6187C20.75 13.0843 20.78 12.1916 21.4396 11.5262C22.0873 10.8729 23.0256 10.75 23.9062 10.75H24.75V9.25H22.5063C20.5282 9.25 19.5033 9.70594 18.9492 10.2746Z"/>
</svg>
