<svg width="40" height="40" viewBox="0 0 40 40" xmlns="http://www.w3.org/2000/svg">
<path d="M21.3333 15.9799V17.6667H24L23.6833 20.5H21.3333V29H17.875V20.5H16V17.6667H17.875V15.7763C17.875 13.3901 18.8167 12 21.6708 12H24V14.8333H22.6042C21.4917 14.8333 21.3333 15.2185 21.3333 15.9799Z"/>
<path fill-rule="evenodd" clip-rule="evenodd" d="M35 20C35 28.2843 28.2843 35 20 35C11.7157 35 5 28.2843 5 20C5 11.7157 11.7157 5 20 5C28.2843 5 35 11.7157 35 20ZM32.5 20C32.5 26.9036 26.9036 32.5 20 32.5C13.0964 32.5 7.5 26.9036 7.5 20C7.5 13.0964 13.0964 7.5 20 7.5C26.9036 7.5 32.5 13.0964 32.5 20Z"/>
</svg>
