<svg width="40" height="40" viewBox="0 0 40 40" xmlns="http://www.w3.org/2000/svg">
<path fill-rule="evenodd" clip-rule="evenodd" d="M28 8.41429L30.7071 5.70718L29.2929 4.29297L26 7.58586V10.75H16.75V13.25H17.7738L18.5238 20.75H7.81981L5.73648 27L7.81981 33.25H30.2262L32.2262 13.25H33.25V10.75H28V8.41429ZM22.031 30.6976L22.0362 30.75H27.9638L28.2388 28H22.9302L22.031 30.6976ZM28.9388 21L28.4388 26H22.9302L21.2635 21H28.9388ZM29.1388 19L29.7138 13.25H20.2862L20.8612 19H29.1388ZM19.3783 23.25L20.295 26H8.70505L9.62171 23.25H19.3783ZM9.62171 30.75L8.70505 28H20.295L19.3783 30.75H9.62171Z"/>
</svg>
