<svg width="40" height="40" viewBox="0 0 40 40" xmlns="http://www.w3.org/2000/svg">
<path fill-rule="evenodd" clip-rule="evenodd" d="M5.5 27.5H14.5098C14.5033 27.6659 14.5 27.8325 14.5 28C14.5 28.6807 14.5544 29.3488 14.6591 30H3V3H18L23 8V16.1537C22.1185 16.4512 21.2811 16.8444 20.5 17.3208V11.25H14.25V5.5H5.5V27.5ZM20.2145 8.75L16.9645 5.5H16.75V8.75H20.2145Z"/>
<path d="M8 16H18V18.5H8V16Z"/>
<path d="M14 21H8V23.5H14V21Z"/>
<path fill-rule="evenodd" clip-rule="evenodd" d="M25.4275 22H28.5281V24.2285C28.8759 24.3644 29.2016 24.5446 29.498 24.7622L31.4052 23.6611L32.9555 26.3463L31.1624 27.3816C31.2141 27.6468 31.2411 27.9209 31.2411 28.2012C31.2411 28.3577 31.2327 28.5123 31.2163 28.6644L32.9555 29.6686L31.4052 32.3538L29.7792 31.415C29.4121 31.7353 28.9897 31.9937 28.5281 32.1739V34.0149H25.4275V32.1739C24.9659 31.9937 24.5434 31.7353 24.1763 31.415L22.5503 32.3538L21 29.6686L22.7393 28.6644C22.7229 28.5123 22.7144 28.3577 22.7144 28.2012C22.7144 27.9209 22.7415 27.6468 22.7931 27.3816L21 26.3463L22.5503 23.6611L24.4575 24.7622C24.754 24.5446 25.0796 24.3644 25.4275 24.2285V22ZM26.9778 29.7515C27.834 29.7515 28.5281 29.0574 28.5281 28.2012C28.5281 27.345 27.834 26.6509 26.9778 26.6509C26.1216 26.6509 25.4275 27.345 25.4275 28.2012C25.4275 29.0574 26.1216 29.7515 26.9778 29.7515Z"/>
<path fill-rule="evenodd" clip-rule="evenodd" d="M27 38C32.5228 38 37 33.5228 37 28C37 22.4772 32.5228 18 27 18C21.4772 18 17 22.4772 17 28C17 33.5228 21.4772 38 27 38ZM27 35.5C31.1421 35.5 34.5 32.1421 34.5 28C34.5 23.8579 31.1421 20.5 27 20.5C22.8579 20.5 19.5 23.8579 19.5 28C19.5 32.1421 22.8579 35.5 27 35.5Z"/>
</svg>
