<svg width="40" height="40" viewBox="0 0 40 40" xmlns="http://www.w3.org/2000/svg">
<path fill-rule="evenodd" clip-rule="evenodd" d="M31.3211 14.6501C30.1955 14.6501 29.2597 14.9836 28.4787 15.6382C27.7472 16.2496 27.3711 17.0668 27.3711 18.1601C27.3711 18.7236 27.4708 19.1853 27.6489 19.5625C27.8286 19.9431 28.0843 20.2579 28.4224 20.5135C28.828 20.7954 29.22 21.0174 29.5984 21.1832C30.0081 21.3568 30.5147 21.5347 31.1223 21.7158C32.2531 22.0353 33.1171 22.3543 33.6441 22.6879C34.2645 23.0664 34.6111 23.6502 34.6111 24.3801C34.6111 25.0228 34.3259 25.5598 33.8202 25.9532C33.2905 26.3651 32.5478 26.5101 31.7211 26.5101C30.8241 26.5101 30.0228 26.3094 29.3563 25.8664C28.887 25.5545 28.5102 25.1395 28.2192 24.6379L26.9628 25.3726C27.3112 26.076 27.8203 26.6476 28.4973 27.0963C29.3164 27.6262 30.3524 27.9101 31.6411 27.9101C33.0368 27.9101 34.1001 27.5599 34.8907 26.9161L34.8942 26.9132C35.676 26.2856 36.0711 25.4512 36.0711 24.3401C36.0711 23.9979 36.0255 23.6991 35.942 23.4382L35.9374 23.4237L35.9335 23.4091C35.852 23.1066 35.7533 22.8739 35.6465 22.699L35.6395 22.6875L35.6329 22.6758C35.5463 22.5198 35.403 22.3447 35.1801 22.1554C34.929 21.9419 34.715 21.7828 34.5366 21.6713L34.5285 21.6662L34.5206 21.6609C34.3801 21.5673 34.1392 21.4477 33.7706 21.3078L33.7577 21.303L33.7451 21.2975C33.3812 21.1416 33.1083 21.0397 32.9177 20.9837L32.895 20.977L32.8729 20.9687C32.6773 20.8954 32.3718 20.7932 31.9487 20.661C30.909 20.341 30.1108 20.0229 29.6433 19.689L29.6325 19.6813L29.6221 19.6732C29.1105 19.2753 28.8311 18.7291 28.8311 18.0801C28.8311 17.4716 29.0792 16.9499 29.5564 16.5715C30.0388 16.1861 30.6513 16.0301 31.3211 16.0301C32.0449 16.0301 32.7052 16.2088 33.2735 16.5905C33.6568 16.8479 33.9792 17.1848 34.2463 17.5878L35.4443 16.8959C35.0496 16.2659 34.5527 15.7673 33.9543 15.3899L33.9444 15.3836C33.2086 14.9007 32.3422 14.6501 31.3211 14.6501ZM27.644 14.6416C28.6762 13.7765 29.9136 13.3501 31.3211 13.3501C32.5646 13.3501 33.6832 13.6585 34.6528 14.2934C35.6268 14.9091 36.3774 15.7701 36.9056 16.8557L37.1705 17.4002L33.712 19.3977L33.4121 18.755C33.1706 18.2375 32.8768 17.89 32.5487 17.6697C32.2237 17.4514 31.824 17.3301 31.3211 17.3301C30.8448 17.3301 30.5512 17.4405 30.3672 17.5877L30.3646 17.5897C30.2026 17.718 30.1311 17.8624 30.1311 18.0801C30.1311 18.3073 30.2091 18.4791 30.4098 18.6389C30.6938 18.8373 31.3059 19.103 32.3323 19.4188L32.335 19.4197C32.7512 19.5497 33.0777 19.658 33.3076 19.7434C33.5634 19.8202 33.8783 19.9406 34.2446 20.0973C34.6395 20.2477 34.9777 20.4047 35.2335 20.5738C35.4795 20.7283 35.7429 20.9275 36.0221 21.1648C36.3288 21.4255 36.583 21.7132 36.7626 22.0325C36.9434 22.3313 37.0814 22.6764 37.1849 23.0567C37.3115 23.4583 37.3711 23.8878 37.3711 24.3401C37.3711 25.8149 36.8202 27.0333 35.7098 27.9255C34.634 28.8008 33.2579 29.2101 31.6411 29.2101C30.1579 29.2101 28.8615 28.8813 27.7877 28.1856L27.7823 28.1821C26.7722 27.5134 26.04 26.6141 25.5971 25.4982V28.9301H16.1971V13.6301H20.2571V24.9901H25.4099L25.3454 24.8124L28.8341 22.7724L29.1081 23.4875C29.3423 24.0987 29.6714 24.5149 30.0759 24.7837C30.4828 25.0541 31.0181 25.2101 31.7211 25.2101C32.4411 25.2101 32.8317 25.0751 33.0221 24.927C33.2363 24.7604 33.3111 24.5907 33.3111 24.3801C33.3111 24.1257 33.22 23.951 32.9642 23.796L32.9581 23.7923L32.9522 23.7885C32.5993 23.5639 31.8938 23.2845 30.7645 22.9656L30.7555 22.9631C30.1135 22.7719 29.556 22.5773 29.0873 22.3785L29.0806 22.3756C28.6096 22.1696 28.1392 21.9008 27.6695 21.5734L27.6602 21.5669L27.6511 21.5601C27.1402 21.1769 26.7454 20.6938 26.4734 20.1177C26.1981 19.5349 26.0711 18.8766 26.0711 18.1601C26.0711 16.7202 26.5889 15.5236 27.644 14.6416ZM2.07661 13.6301H6.70955L8.84002 17.2093L10.9705 13.6301H15.6052L11.1571 21.0801L15.8453 28.9301H11.1909L8.84002 24.9889L6.48916 28.9301H1.85583L6.52343 21.0999L2.07661 13.6301ZM4.36343 14.9301L8.03661 21.1003L4.14421 27.6301H5.75089L8.84002 22.4513L11.9292 27.6301H13.5547L9.64295 21.0801L13.3149 14.9301H11.7096L8.84002 19.7509L5.97049 14.9301H4.36343ZM17.4971 14.9301V27.6301H24.2971V26.2901H18.9571V14.9301H17.4971Z"/>
</svg>
