<svg width="40" height="40" viewBox="0 0 40 40" xmlns="http://www.w3.org/2000/svg">
<path fill-rule="evenodd" clip-rule="evenodd" d="M5.5 27.5H14.5098C14.5033 27.6659 14.5 27.8325 14.5 28C14.5 28.6807 14.5544 29.3488 14.6591 30H3V3H18L23 8V16.1537C22.1185 16.4512 21.2811 16.8444 20.5 17.3208V11.25H14.25V5.5H5.5V27.5ZM20.2145 8.75L16.9645 5.5H16.75V8.75H20.2145Z"/>
<path d="M8 16H18V18.5H8V16Z"/>
<path d="M14 21H8V23.5H14V21Z"/>
<path d="M22.479 26.2189C21.493 27.1125 21 27.9999 21 27.9999C21 27.9999 23 31.5999 27 31.5999C27.2797 31.5999 27.5496 31.5823 27.8097 31.5496L25.9818 29.7217C25.6923 29.5501 25.4498 29.3076 25.2782 29.018L22.479 26.2189Z"/>
<path d="M28.7216 26.9814L31.5211 29.7809C32.507 28.8873 33 27.9999 33 27.9999C33 27.9999 31 24.3999 27 24.3999C26.7204 24.3999 26.4505 24.4175 26.1904 24.4502L28.0185 26.2783C28.3078 26.4498 28.5501 26.6921 28.7216 26.9814Z"/>
<path fill-rule="evenodd" clip-rule="evenodd" d="M27 38C32.5228 38 37 33.5228 37 28C37 22.4772 32.5228 18 27 18C21.4772 18 17 22.4772 17 28C17 33.5228 21.4772 38 27 38ZM27 35.5C28.6633 35.5 30.2001 34.9586 31.4439 34.0423L20.9577 23.5561C20.0414 24.7999 19.5 26.3367 19.5 28C19.5 32.1421 22.8579 35.5 27 35.5ZM22.5561 21.9578L33.0422 32.4439C33.9585 31.2002 34.5 29.6633 34.5 28C34.5 23.8579 31.1421 20.5 27 20.5C25.3367 20.5 23.7998 21.0415 22.5561 21.9578Z"/>
</svg>
