<svg width="40" height="40" viewBox="0 0 40 40" xmlns="http://www.w3.org/2000/svg">
<path fill-rule="evenodd" clip-rule="evenodd" d="M5.5 27.5H14.5098C14.5033 27.6659 14.5 27.8325 14.5 28C14.5 28.6807 14.5544 29.3488 14.6591 30H3V3H18L23 8V16.1537C22.1185 16.4512 21.2811 16.8444 20.5 17.3208V11.25H14.25V5.5H5.5V27.5ZM20.2145 8.75L16.9645 5.5H16.75V8.75H20.2145Z"/>
<path d="M8 16H18V18.5H8V16Z"/>
<path d="M14 21H8V23.5H14V21Z"/>
<path d="M26.8333 28.7777C27.2629 28.7777 27.6111 28.4295 27.6111 27.9999C27.6111 27.5704 27.2629 27.2221 26.8333 27.2221C26.4038 27.2221 26.0556 27.5704 26.0556 27.9999C26.0556 28.4295 26.4038 28.7777 26.8333 28.7777Z"/>
<path fill-rule="evenodd" clip-rule="evenodd" d="M32.6667 28C32.6667 28 30.7222 31.5 26.8333 31.5C22.9444 31.5 21 28 21 28C21 28 22.9444 24.5 26.8333 24.5C30.7222 24.5 32.6667 28 32.6667 28ZM28.7778 28C28.7778 29.0738 27.9072 29.9444 26.8333 29.9444C25.7594 29.9444 24.8889 29.0738 24.8889 28C24.8889 26.9261 25.7594 26.0555 26.8333 26.0555C27.9072 26.0555 28.7778 26.9261 28.7778 28Z"/>
<path fill-rule="evenodd" clip-rule="evenodd" d="M27 38C32.5228 38 37 33.5228 37 28C37 22.4772 32.5228 18 27 18C21.4772 18 17 22.4772 17 28C17 33.5228 21.4772 38 27 38ZM27 35.5C31.1421 35.5 34.5 32.1421 34.5 28C34.5 23.8579 31.1421 20.5 27 20.5C22.8579 20.5 19.5 23.8579 19.5 28C19.5 32.1421 22.8579 35.5 27 35.5Z"/>
</svg>
