<svg width="40" height="40" viewBox="0 0 40 40" xmlns="http://www.w3.org/2000/svg">
<path fill-rule="evenodd" clip-rule="evenodd" d="M1.67041 13.6831H7.54041C9.04974 13.6831 10.3494 14.1981 11.3967 15.2301C12.4436 16.2619 12.9704 17.5434 12.9704 19.0331C12.9704 20.5229 12.4436 21.8043 11.3967 22.8361C10.3494 23.8681 9.04974 24.3831 7.54041 24.3831H5.73041V28.9831H1.67041V13.6831ZM2.97041 14.9831V27.6831H4.43041V23.0831H7.54041C8.72442 23.0831 9.69141 22.6914 10.4842 21.9101C11.2772 21.1286 11.6704 20.1834 11.6704 19.0331C11.6704 17.8829 11.2772 16.9376 10.4842 16.1561C9.69141 15.3748 8.72442 14.9831 7.54041 14.9831H2.97041ZM14.0673 13.6831H20.2773C22.3682 13.6831 24.1403 14.4244 25.5474 15.9042C26.9632 17.3791 27.6673 19.2031 27.6673 21.3331C27.6673 23.4632 26.9632 25.2872 25.5473 26.7621C24.1402 28.2419 22.3681 28.9831 20.2773 28.9831H14.0673V13.6831ZM15.3673 14.9831V27.6831H20.2773C22.0259 27.6831 23.4534 27.0781 24.6062 25.8653L24.6085 25.8629C25.7784 24.6446 26.3673 23.1491 26.3673 21.3331C26.3673 19.5171 25.7784 18.0216 24.6085 16.8033L24.6062 16.8009C23.4534 15.5881 22.0259 14.9831 20.2773 14.9831H15.3673ZM28.9251 13.6831H38.5851V17.6231H32.9851V19.6431H38.4251V23.5831H32.9851V28.9831H28.9251V13.6831ZM30.2251 14.9831V27.6831H31.6851V22.2831H37.1251V20.9431H31.6851V16.3231H37.2851V14.9831H30.2251ZM4.43041 16.2631H7.54041C8.29255 16.2631 8.95135 16.5271 9.46775 17.0613C9.98407 17.5955 10.2304 18.2701 10.2304 19.0331C10.2304 19.7871 9.98163 20.4557 9.47509 20.9972L9.46782 21.0049C8.95141 21.5391 8.29255 21.8031 7.54041 21.8031H4.43041V16.2631ZM5.73041 17.5631V20.5031H7.54041C7.95959 20.5031 8.27312 20.3684 8.52937 20.1052C8.79378 19.8207 8.93041 19.4771 8.93041 19.0331C8.93041 18.5695 8.79008 18.2307 8.53307 17.9649C8.27614 17.6991 7.9616 17.5631 7.54041 17.5631H5.73041ZM16.8273 16.3231H20.2773C21.6517 16.3231 22.8159 16.7912 23.7104 17.7474C24.6034 18.6884 25.0273 19.9048 25.0273 21.3331C25.0273 22.7627 24.6028 23.9838 23.7122 24.9369L23.7085 24.9408C22.8129 25.8836 21.6491 26.3431 20.2773 26.3431H16.8273V16.3231ZM18.1273 17.6231V25.0431H20.2773C21.3311 25.0431 22.1401 24.7033 22.7642 24.0473C23.3924 23.374 23.7273 22.4891 23.7273 21.3331C23.7273 20.1757 23.3918 19.2994 22.766 18.6408L22.7623 18.6369C22.1371 17.9677 21.3286 17.6231 20.2773 17.6231H18.1273Z"/>
</svg>
