<svg width="40" height="40" viewBox="0 0 40 40" xmlns="http://www.w3.org/2000/svg">
<g clip-path="url(#clip0_15906_6813)">
<path fill-rule="evenodd" clip-rule="evenodd" d="M8.05286 14.7033C6.10638 14.7033 4.53827 15.343 3.29688 16.6085L3.2947 16.6107C2.04957 17.8679 1.42286 19.4268 1.42286 21.3333C1.42286 23.2253 2.04883 24.7859 3.29688 26.0581C4.53827 27.3236 6.10638 27.9633 8.05286 27.9633C9.22807 27.9633 10.2919 27.6954 11.2569 27.1653C12.0242 26.7332 12.6525 26.1882 13.1483 25.5286L11.8989 24.8042C11.5361 25.2737 11.0759 25.6599 10.5266 25.9626L10.5225 25.9649C9.77821 26.368 8.95003 26.5633 8.05286 26.5633C6.54451 26.5633 5.26881 26.084 4.28964 25.0893L4.28599 25.0856C3.3259 24.0945 2.86286 22.8244 2.86286 21.3333C2.86286 19.8309 3.32471 18.5534 4.28601 17.5611L4.28962 17.5573C5.26879 16.5626 6.54451 16.0833 8.05286 16.0833C8.95241 16.0833 9.78232 16.2864 10.527 16.7043C11.0728 17.0007 11.5314 17.388 11.8977 17.8632L13.1473 17.1386C12.6508 16.4835 12.0185 15.9459 11.2426 15.5245L11.2342 15.5199C10.2683 14.9766 9.21197 14.7033 8.05286 14.7033ZM2.36994 15.697C3.87505 14.1633 5.78656 13.4033 8.05286 13.4033C9.42545 13.4033 10.701 13.7293 11.8674 14.3844C13.0438 15.0244 13.9705 15.9046 14.6322 17.0222L14.9664 17.5866L11.4451 19.6283L11.1241 19.048C10.8385 18.5318 10.436 18.1334 9.90328 17.8449L9.89415 17.8399C9.36002 17.5395 8.7515 17.3833 8.05286 17.3833C6.84227 17.3833 5.91852 17.7567 5.21791 18.4675C4.52705 19.1816 4.16286 20.1168 4.16286 21.3333C4.16286 22.5345 4.52585 23.4638 5.21791 24.1792C5.91852 24.8899 6.84227 25.2633 8.05286 25.2633C8.7548 25.2633 9.36595 25.1124 9.90121 24.8229C10.4525 24.5187 10.8522 24.119 11.1218 23.6229L11.4408 23.0358L14.9208 25.0536L14.8526 24.8656L18.3413 22.8257L18.6153 23.5407C18.8495 24.152 19.1786 24.5681 19.5831 24.837C19.99 25.1074 20.5253 25.2633 21.2283 25.2633C21.9483 25.2633 22.3389 25.1283 22.5293 24.9802C22.7435 24.8136 22.8183 24.6439 22.8183 24.4333C22.8183 24.1789 22.7272 24.0042 22.4714 23.8492L22.4654 23.8455L22.4594 23.8417C22.1065 23.6172 21.4011 23.3377 20.2717 23.0189L20.2628 23.0163C19.6207 22.8251 19.0632 22.6305 18.5945 22.4317L18.5878 22.4289C18.1168 22.2228 17.6465 21.954 17.1767 21.6266L17.1674 21.6201L17.1583 21.6133C16.6474 21.2301 16.2527 20.7471 15.9806 20.1709C15.7054 19.5881 15.5783 18.9299 15.5783 18.2133C15.5783 16.7734 16.0962 15.5768 17.1512 14.6948C18.1834 13.8297 19.4208 13.4033 20.8283 13.4033C22.0718 13.4033 23.1904 13.7118 24.16 14.3467C25.134 14.9623 25.8847 15.8233 26.4128 16.909L26.6777 17.4534L23.2192 19.4509L22.9193 18.8082C22.6778 18.2908 22.384 17.9433 22.0559 17.7229C21.7309 17.5046 21.3312 17.3833 20.8283 17.3833C20.352 17.3833 20.0584 17.4937 19.8744 17.6409L19.8718 17.643C19.7098 17.7712 19.6383 17.9157 19.6383 18.1333C19.6383 18.3605 19.7163 18.5323 19.917 18.6921C20.201 18.8906 20.8131 19.1562 21.8395 19.4721L21.8422 19.4729C22.2584 19.603 22.5849 19.7112 22.8148 19.7966C23.0706 19.8734 23.3855 19.9938 23.7518 20.1505C24.1467 20.3009 24.4848 20.4579 24.7406 20.627C24.9866 20.7815 25.2501 20.9807 25.5293 21.2181C25.836 21.4788 26.0902 21.7664 26.2699 22.0857C26.4506 22.3845 26.5886 22.7296 26.6921 23.1099C26.8187 23.5115 26.8783 23.9411 26.8783 24.3933C26.8783 25.8681 26.3274 27.0865 25.217 27.9788C24.1412 28.854 22.7651 29.2633 21.1483 29.2633C19.6651 29.2633 18.3687 28.9345 17.2949 28.2388L17.2895 28.2353C16.2266 27.5317 15.4715 26.5727 15.0372 25.3748L14.9441 25.1178L14.6322 25.6445C13.9717 26.76 13.0536 27.6462 11.8915 28.2998L11.8861 28.3029C10.7185 28.9451 9.43655 29.2633 8.05286 29.2633C5.78601 29.2633 3.87413 28.503 2.36885 26.9685C0.870227 25.4408 0.122864 23.548 0.122864 21.3333C0.122864 19.1071 0.869136 17.213 2.36994 15.697ZM20.8283 14.7033C19.7027 14.7033 18.7669 15.0368 17.9859 15.6915C17.2545 16.3028 16.8783 17.12 16.8783 18.2133C16.8783 18.7768 16.978 19.2386 17.1561 19.6158C17.3358 19.9963 17.5915 20.3111 17.9296 20.5667C18.3352 20.8487 18.7273 21.0706 19.1056 21.2364C19.5153 21.41 20.0219 21.5879 20.6295 21.7691C21.7603 22.0885 22.6243 22.4075 23.1513 22.7412C23.7717 23.1196 24.1183 23.7034 24.1183 24.4333C24.1183 25.076 23.8331 25.6131 23.3274 26.0064C22.7977 26.4184 22.055 26.5633 21.2283 26.5633C20.3313 26.5633 19.53 26.3626 18.8636 25.9197C18.3942 25.6078 18.0174 25.1927 17.7264 24.6911L16.47 25.4258C16.8184 26.1292 17.3275 26.7008 18.0045 27.1496C18.8236 27.6794 19.8596 27.9633 21.1483 27.9633C22.5441 27.9633 23.6073 27.6131 24.3979 26.9693L24.4014 26.9664C25.1832 26.3388 25.5783 25.5044 25.5783 24.3933C25.5783 24.0511 25.5327 23.7523 25.4493 23.4914L25.4446 23.477L25.4407 23.4623C25.3592 23.1598 25.2606 22.9271 25.1537 22.7523L25.1467 22.7408L25.1401 22.729C25.0535 22.5731 24.9102 22.398 24.6874 22.2086C24.4362 21.9951 24.2223 21.836 24.0438 21.7245L24.0357 21.7195L24.0278 21.7142C23.8873 21.6205 23.6464 21.5009 23.2778 21.3611L23.2649 21.3562L23.2523 21.3508C22.8884 21.1948 22.6155 21.093 22.4249 21.0369L22.4022 21.0302L22.3801 21.0219C22.1845 20.9486 21.879 20.8464 21.4559 20.7142C20.4163 20.3942 19.618 20.0762 19.1505 19.7422L19.1397 19.7345L19.1293 19.7264C18.6177 19.3285 18.3383 18.7823 18.3383 18.1333C18.3383 17.5249 18.5864 17.0031 19.0636 16.6247C19.5461 16.2393 20.1586 16.0833 20.8283 16.0833C21.5521 16.0833 22.2124 16.262 22.7807 16.6437C23.164 16.9011 23.4864 17.238 23.7535 17.6411L24.9515 16.9491C24.5568 16.3192 24.06 15.8205 23.4616 15.4431L23.4516 15.4368C22.7158 14.9539 21.8494 14.7033 20.8283 14.7033ZM25.5961 13.6833H29.9754L32.9182 22.9418L35.8437 13.6833H40.2451L35.0868 28.9833H30.7325L25.5961 13.6833ZM27.4038 14.9833L31.6674 27.6833H34.1532L38.4349 14.9833H36.7963L32.9218 27.2449L29.0245 14.9833H27.4038Z"/>
</g>
<defs>
<clipPath id="clip0_15906_6813">
<rect width="40" height="40" fill="white"/>
</clipPath>
</defs>
</svg>
