<svg width="40" height="40" viewBox="0 0 40 40" xmlns="http://www.w3.org/2000/svg">
<path fill-rule="evenodd" clip-rule="evenodd" d="M5.5 27.5H14.5098C14.5033 27.6659 14.5 27.8325 14.5 28C14.5 28.6807 14.5544 29.3488 14.6591 30H3V3H18L23 8V16.1537C22.1185 16.4512 21.2811 16.8444 20.5 17.3208V11.25H14.25V5.5H5.5V27.5ZM20.2145 8.75L16.9645 5.5H16.75V8.75H20.2145Z"/>
<path d="M8 16H18V18.5H8V16Z"/>
<path d="M14 21H8V23.5H14V21Z"/>
<path d="M25.56 29.424H28.12C28.12 28.9769 28.5398 28.5902 29.0394 28.13C29.7735 27.4537 30.68 26.6186 30.68 25.2C30.68 23.12 28.856 22 27.032 22C25.256 22 23.704 22.928 23 24.576L25.208 25.84C25.528 25.088 26.056 24.496 26.936 24.496C27.752 24.496 28.12 24.864 28.12 25.424C28.12 26.078 27.5678 26.5835 26.9763 27.125C26.2942 27.7493 25.56 28.4215 25.56 29.424Z"/>
<path d="M26.84 33.648C27.672 33.648 28.36 32.96 28.36 32.128C28.36 31.296 27.672 30.608 26.84 30.608C26.008 30.608 25.32 31.296 25.32 32.128C25.32 32.96 26.008 33.648 26.84 33.648Z"/>
<path fill-rule="evenodd" clip-rule="evenodd" d="M27 38C32.5228 38 37 33.5228 37 28C37 22.4772 32.5228 18 27 18C21.4772 18 17 22.4772 17 28C17 33.5228 21.4772 38 27 38ZM27 35.5C31.1421 35.5 34.5 32.1421 34.5 28C34.5 23.8579 31.1421 20.5 27 20.5C22.8579 20.5 19.5 23.8579 19.5 28C19.5 32.1421 22.8579 35.5 27 35.5Z"/>
</svg>
