<svg width="40" height="40" viewBox="0 0 40 40" xmlns="http://www.w3.org/2000/svg">
<path fill-rule="evenodd" clip-rule="evenodd" d="M5.5 27.5H14.5098C14.5033 27.6659 14.5 27.8325 14.5 28C14.5 28.6807 14.5544 29.3488 14.6591 30H3V3H18L23 8V16.1537C22.1185 16.4512 21.2811 16.8444 20.5 17.3208V11.25H14.25V5.5H5.5V27.5ZM20.2145 8.75L16.9645 5.5H16.75V8.75H20.2145Z"/>
<path d="M8 16H18V18.5H8V16Z"/>
<path d="M14 21H8V23.5H14V21Z"/>
<path d="M30.5 26H28.1667V34H25.8333V26H23.5L27 22L30.5 26Z"/>
<path fill-rule="evenodd" clip-rule="evenodd" d="M27 38C32.5228 38 37 33.5228 37 28C37 22.4772 32.5228 18 27 18C21.4772 18 17 22.4772 17 28C17 33.5228 21.4772 38 27 38ZM27 35.5C31.1421 35.5 34.5 32.1421 34.5 28C34.5 23.8579 31.1421 20.5 27 20.5C22.8579 20.5 19.5 23.8579 19.5 28C19.5 32.1421 22.8579 35.5 27 35.5Z"/>
</svg>
