<svg width="40" height="40" viewBox="0 0 40 40" xmlns="http://www.w3.org/2000/svg">
<path d="M11 11H14.5V14.5H11V11Z"/>
<path d="M11 18H14.5V21.5H11V18Z"/>
<path d="M14.5 25H11V28.5H14.5V25Z"/>
<path d="M25.5 11H29V14.5H25.5V11Z"/>
<path d="M29 18H25.5V21.5H29V18Z"/>
<path d="M25.5 25H29V28.5H25.5V25Z"/>
<path fill-rule="evenodd" clip-rule="evenodd" d="M12.25 4.75H5.75V35.25H12.25V33.25H13.25V35.25H26.75V33.25H27.75V35.25H34.25V4.75H27.75V6.25H26.75V4.75H13.25V6.25H12.25V4.75ZM9.75 30.75V32.75H8.25V7.25H9.75V8.75H15.75V7.25H24.25V8.75H30.25V7.25H31.75V32.75H30.25V30.75H24.25V32.75H15.75V30.75H9.75Z"/>
</svg>
