<svg width="40" height="40" viewBox="0 0 40 40" xmlns="http://www.w3.org/2000/svg">
<path fill-rule="evenodd" clip-rule="evenodd" d="M26.5762 7.80973C27.2373 7.40536 27.8627 6.87313 28.4429 6.17925C28.461 6.15737 28.4688 6.1652 28.4673 6.19944C28.4587 6.38651 28.1734 7.35758 27.7784 8.57895C27.6014 9.12635 27.4024 9.72406 27.1963 10.3241C26.6506 11.9134 26.0557 13.5189 25.691 14.248C25.0119 15.606 23.8729 17.8843 29.4273 19.4969C30.248 19.7351 31.2148 19.9589 32.3509 20.163C31.5657 21.1016 30.6979 21.7444 29.7708 22.1751C27.4187 23.2678 24.685 22.9946 21.9514 22.7214C19.2057 22.4469 16.4599 22.1725 14.1007 23.2822C14.0994 23.2828 14.0981 23.2835 14.0968 23.2841L16.2453 30.6503L13.8453 31.3503L11.9865 24.7983C11.9715 24.8138 11.9564 24.8293 11.9414 24.8449L8.26536 11.6816L8.21384 11.5L8.15766 11.2959C8.12011 11.1583 8.06722 11.0253 8 10.8994C10.7399 8.00755 14.3916 8.37258 18.0436 8.73765C20.5183 8.98503 22.9931 9.23242 25.1846 8.46656C25.663 8.2994 26.1278 8.08397 26.5762 7.80973ZM18.1761 11.2633C19.9348 11.4388 22.0616 11.651 24.2013 11.2868C23.8965 12.112 23.6281 12.7837 23.455 13.1298C23.4409 13.158 23.4241 13.1908 23.405 13.228C23.0442 13.9304 21.8838 16.1897 23.2825 18.4931C23.7647 19.2871 24.4629 19.9296 25.3098 20.4588C24.4643 20.4433 23.5219 20.3653 22.4616 20.2599C22.293 20.2431 22.1202 20.2253 21.9437 20.2072C19.5068 19.9564 16.3445 19.631 13.4219 20.8517L10.8823 11.7579C12.5596 10.7654 14.7419 10.9214 18.0347 11.2492L18.1761 11.2633Z"/>
</svg>
