<svg width="40" height="40" viewBox="0 0 40 40" xmlns="http://www.w3.org/2000/svg">
<path d="M22.2006 29.3284C22.761 29.1673 23.4815 28.7484 23.9298 28.3617H23.9138C24.8745 27.4755 25.4349 26.0255 25.3869 24.7043C25.3869 24.4627 25.3549 24.2371 25.2908 24.0115C25.0304 22.5859 24.1328 21.7877 23.2022 20.9602C22.7025 20.5159 22.1934 20.0632 21.7683 19.5003C21.4 19.017 21.0798 18.4047 20.8076 17.7925C20.3592 18.9042 20.3272 19.9192 20.5194 21.1115C20.5791 21.4675 20.6626 21.8089 20.7448 22.1453C20.9491 22.981 21.1458 23.7853 20.9517 24.7043C20.6314 26.1383 19.5106 27.5561 17.6052 28.0072C18.678 29.0706 20.4393 29.9728 22.2006 29.3284Z"/>
<path fill-rule="evenodd" clip-rule="evenodd" d="M28.9227 18.3565C28.8943 18.3224 28.8657 18.2885 28.8367 18.2547C28.7217 18.1204 28.6045 17.971 28.4838 17.817C28.2741 17.5495 28.0538 17.2685 27.8155 17.0298L27.6766 16.8903C27.3719 16.6073 27.0534 16.3478 26.7301 16.0967C26.5477 15.9551 26.3638 15.8163 26.1799 15.6774C25.5763 15.2216 24.973 14.766 24.4262 14.2158C22.8236 12.6032 22.0939 10.2712 22.2629 8.00367C22.3405 6.96367 22.6071 5.93723 23.0652 5C21.9423 5.28559 20.8859 5.84871 19.9474 6.51234C19.6682 6.70979 19.3994 6.91614 19.1424 7.12673C16.7921 9.06339 15.2653 11.8556 14.7659 14.8472C14.7602 14.8815 14.7546 14.9158 14.7492 14.9502C14.4616 16.7613 14.5503 18.6425 15.0603 20.449C15.1172 20.6503 15.1792 20.8507 15.2466 21.05L15.2707 21.1206L15.2744 21.1313L15.2985 21.2002C15.3298 21.2891 15.3622 21.3777 15.3956 21.466C15.4597 21.6271 15.5237 21.7883 15.5237 21.9977C15.5237 22.3522 15.2836 22.6744 14.9633 22.8033C14.6111 22.9644 14.2268 22.8677 13.9386 22.6099C13.8425 22.5294 13.7785 22.4488 13.6984 22.3361C13.6603 22.2863 13.623 22.236 13.5863 22.1853L13.5669 22.1584C13.5289 22.1053 13.4916 22.0517 13.4551 21.9977C13.3334 21.8178 13.22 21.6326 13.115 21.443C12.7025 20.6981 12.4183 19.8841 12.2629 19.0435C11.9564 17.3856 12.151 15.6245 12.8498 14.0869C12.65 14.2536 12.4573 14.429 12.2716 14.6125C11.1233 15.7471 10.2484 17.188 9.69355 18.7555C9.1588 20.2662 8.92135 21.8946 9.02299 23.48C9.08704 24.2856 9.18311 25.0911 9.45531 25.8967C9.67947 26.8634 10.0958 27.8301 10.6081 28.684C12.2734 31.4713 15.2035 33.4691 18.3578 33.8719C21.7202 34.3069 25.3229 33.6786 27.9007 31.2941C30.7828 28.6196 31.8236 24.3339 30.3025 20.6604L30.0943 20.2415C29.7965 19.5522 29.4016 18.9325 28.9227 18.3565ZM24.6516 17.6561C25.107 18.0003 25.4731 18.277 25.8062 18.5696L26.9208 19.861C27.3055 20.3068 27.5926 20.7545 27.7994 21.2332L27.8258 21.2943L28.0224 21.6899C29.082 24.3387 28.332 27.4823 26.2015 29.4604C24.3417 31.1794 21.5781 31.7677 18.6786 31.3926L18.6745 31.3921C16.3273 31.0924 14.0502 29.5709 12.7543 27.4018L12.7519 27.3977C12.3526 26.7323 12.0473 26.0072 11.8907 25.332L11.863 25.2126L11.8238 25.0964C11.6807 24.6731 11.6026 24.2142 11.5457 23.6298C11.5916 23.6936 11.6383 23.7568 11.6859 23.8196C11.8084 23.9902 12.003 24.2436 12.3024 24.5003C13.1614 25.2506 14.5489 25.7163 15.954 25.0988C17.1059 24.6096 18.0237 23.4405 18.0237 21.9977C18.0237 21.2961 17.8029 20.7504 17.73 20.5704L17.7256 20.5595C16.3484 16.896 17.2671 12.6735 19.813 9.92435C20.0699 12.1609 21.009 14.3238 22.653 15.9781C23.295 16.6241 23.9759 17.145 24.5311 17.565L24.6516 17.6561Z"/>
</svg>
