<svg width="40" height="40" viewBox="0 0 40 40" xmlns="http://www.w3.org/2000/svg">
<path d="M17.7308 4H2.5V6.5H19.5L17.7308 4Z"/>
<path d="M5 11.5H28V13.5098C28.8584 13.5436 29.6946 13.6639 30.5 13.8623V9H2.5V25H15.0394C15.1076 24.1392 15.2629 23.3029 15.4966 22.5H5V11.5Z"/>
<path fill-rule="evenodd" clip-rule="evenodd" d="M31.6932 25.0049V24.1724C31.6932 23.5556 31.1932 23.0555 30.5764 23.0555C29.9595 23.0555 29.4595 23.5556 29.4595 24.1724V25.0049H30.1601V30H23.5V25.0049H27.9469V24.1724C27.9469 22.7202 29.1242 21.543 30.5764 21.543C32.0286 21.543 33.2058 22.7202 33.2058 24.1724V25.0049H32.7964H31.6932ZM26.2751 26.9474H27.3851V28.0575H26.2751V26.9474Z"/>
<path fill-rule="evenodd" clip-rule="evenodd" d="M27.5 36C33.0228 36 37.5 31.5228 37.5 26C37.5 20.4772 33.0228 16 27.5 16C21.9772 16 17.5 20.4772 17.5 26C17.5 31.5228 21.9772 36 27.5 36ZM27.5 33.5C31.6421 33.5 35 30.1421 35 26C35 21.8579 31.6421 18.5 27.5 18.5C23.3579 18.5 20 21.8579 20 26C20 30.1421 23.3579 33.5 27.5 33.5Z"/>
</svg>
