<svg width="40" height="40" viewBox="0 0 40 40" xmlns="http://www.w3.org/2000/svg">
<path d="M17.7308 4H2.5V6.5H19.5L17.7308 4Z"/>
<path d="M5 11.5H28V13.5098C28.8584 13.5436 29.6946 13.6639 30.5 13.8623V9H2.5V25H15.0394C15.1076 24.1392 15.2629 23.3029 15.4966 22.5H5V11.5Z"/>
<path d="M27.3333 26.7777C27.7629 26.7777 28.1111 26.4295 28.1111 25.9999C28.1111 25.5704 27.7629 25.2221 27.3333 25.2221C26.9038 25.2221 26.5556 25.5704 26.5556 25.9999C26.5556 26.4295 26.9038 26.7777 27.3333 26.7777Z"/>
<path fill-rule="evenodd" clip-rule="evenodd" d="M33.1667 26C33.1667 26 31.2222 29.5 27.3333 29.5C23.4444 29.5 21.5 26 21.5 26C21.5 26 23.4444 22.5 27.3333 22.5C31.2222 22.5 33.1667 26 33.1667 26ZM29.2778 26C29.2778 27.0738 28.4072 27.9444 27.3333 27.9444C26.2594 27.9444 25.3889 27.0738 25.3889 26C25.3889 24.9261 26.2594 24.0555 27.3333 24.0555C28.4072 24.0555 29.2778 24.9261 29.2778 26Z"/>
<path fill-rule="evenodd" clip-rule="evenodd" d="M27.5 36C33.0228 36 37.5 31.5228 37.5 26C37.5 20.4772 33.0228 16 27.5 16C21.9772 16 17.5 20.4772 17.5 26C17.5 31.5228 21.9772 36 27.5 36ZM27.5 33.5C31.6421 33.5 35 30.1421 35 26C35 21.8579 31.6421 18.5 27.5 18.5C23.3579 18.5 20 21.8579 20 26C20 30.1421 23.3579 33.5 27.5 33.5Z"/>
</svg>
