<svg width="40" height="40" viewBox="0 0 40 40" xmlns="http://www.w3.org/2000/svg">
<path d="M17.7308 4H2.5V6.5H19.5L17.7308 4Z"/>
<path d="M5 11.5H28V13.5098C28.8584 13.5436 29.6946 13.6639 30.5 13.8623V9H2.5V25H15.0394C15.1076 24.1392 15.2629 23.3029 15.4966 22.5H5V11.5Z"/>
<path fill-rule="evenodd" clip-rule="evenodd" d="M26.8516 20.5C24.1721 20.5 22 22.6721 22 25.3516C22 28.0311 24.1721 30.2032 26.8516 30.2032C27.8419 30.2032 28.7639 29.906 29.5318 29.3962L31.6356 31.5L33 30.1356L30.8962 28.0318C31.406 27.2639 31.7032 26.3419 31.7032 25.3516C31.7032 22.6721 29.531 20.5 26.8516 20.5ZM23.9295 25.3516C23.9295 23.7378 25.2378 22.4295 26.8516 22.4295C28.4654 22.4295 29.7736 23.7378 29.7736 25.3516C29.7736 26.9654 28.4654 28.2737 26.8516 28.2737C25.2378 28.2737 23.9295 26.9654 23.9295 25.3516Z"/>
<path fill-rule="evenodd" clip-rule="evenodd" d="M27.5 36C33.0228 36 37.5 31.5228 37.5 26C37.5 20.4772 33.0228 16 27.5 16C21.9772 16 17.5 20.4772 17.5 26C17.5 31.5228 21.9772 36 27.5 36ZM27.5 33.5C31.6421 33.5 35 30.1421 35 26C35 21.8579 31.6421 18.5 27.5 18.5C23.3579 18.5 20 21.8579 20 26C20 30.1421 23.3579 33.5 27.5 33.5Z"/>
</svg>
