<svg width="40" height="40" viewBox="0 0 40 40" xmlns="http://www.w3.org/2000/svg">
<path d="M17.7308 4H2.5V6.5H19.5L17.7308 4Z"/>
<path d="M5 11.5H28V13.5098C28.8584 13.5436 29.6946 13.6639 30.5 13.8623V9H2.5V25H15.0394C15.1076 24.1392 15.2629 23.3029 15.4966 22.5H5V11.5Z"/>
<path d="M22.979 24.2189C21.993 25.1125 21.5 25.9999 21.5 25.9999C21.5 25.9999 23.5 29.5999 27.5 29.5999C27.7797 29.5999 28.0496 29.5823 28.3097 29.5496L26.4818 27.7217C26.1923 27.5501 25.9498 27.3076 25.7782 27.018L22.979 24.2189Z"/>
<path d="M29.2216 24.9814L32.0211 27.7809C33.007 26.8873 33.5 25.9999 33.5 25.9999C33.5 25.9999 31.5 22.3999 27.5 22.3999C27.2204 22.3999 26.9505 22.4175 26.6904 22.4502L28.5185 24.2783C28.8078 24.4498 29.0501 24.6921 29.2216 24.9814Z"/>
<path fill-rule="evenodd" clip-rule="evenodd" d="M27.5 36C33.0228 36 37.5 31.5228 37.5 26C37.5 20.4772 33.0228 16 27.5 16C21.9772 16 17.5 20.4772 17.5 26C17.5 31.5228 21.9772 36 27.5 36ZM27.5 33.5C29.1633 33.5 30.7001 32.9586 31.9439 32.0423L21.4577 21.5561C20.5414 22.7999 20 24.3367 20 26C20 30.1421 23.3579 33.5 27.5 33.5ZM23.0561 19.9578L33.5422 30.4439C34.4585 29.2002 35 27.6633 35 26C35 21.8579 31.6421 18.5 27.5 18.5C25.8367 18.5 24.2998 19.0415 23.0561 19.9578Z"/>
</svg>
