<svg width="40" height="40" viewBox="0 0 40 40" xmlns="http://www.w3.org/2000/svg">
<path d="M17.7308 4H2.5V6.5H19.5L17.7308 4Z"/>
<path d="M5 11.5H28V13.5098C28.8584 13.5436 29.6946 13.6639 30.5 13.8623V9H2.5V25H15.0394C15.1076 24.1392 15.2629 23.3029 15.4966 22.5H5V11.5Z"/>
<path fill-rule="evenodd" clip-rule="evenodd" d="M27.431 32C27.431 32 31.6034 27.8276 31.6034 25.0741C31.6034 22.824 29.7354 21 27.431 21C25.1267 21 23.2586 22.824 23.2586 25.0741C23.2586 27.8276 27.431 32 27.431 32ZM27.431 27.0691C28.4785 27.0691 29.3276 26.22 29.3276 25.1726C29.3276 24.1251 28.4785 23.276 27.431 23.276C26.3836 23.276 25.5345 24.1251 25.5345 25.1726C25.5345 26.22 26.3836 27.0691 27.431 27.0691Z"/>
<path fill-rule="evenodd" clip-rule="evenodd" d="M27.5 36C33.0228 36 37.5 31.5228 37.5 26C37.5 20.4772 33.0228 16 27.5 16C21.9772 16 17.5 20.4772 17.5 26C17.5 31.5228 21.9772 36 27.5 36ZM27.5 33.5C31.6421 33.5 35 30.1421 35 26C35 21.8579 31.6421 18.5 27.5 18.5C23.3579 18.5 20 21.8579 20 26C20 30.1421 23.3579 33.5 27.5 33.5Z"/>
</svg>
