<svg width="40" height="40" viewBox="0 0 40 40" xmlns="http://www.w3.org/2000/svg">
<path d="M21.2308 10H6V12.5H23L21.2308 10Z"/>
<path d="M23.9461 19.6598C23.9461 20.1498 23.5361 20.5598 23.0461 20.5598C22.5561 20.5598 22.1461 20.1498 22.1461 19.6598C22.1461 19.1698 22.5561 18.7598 23.0461 18.7598C23.5361 18.7598 23.9461 19.1698 23.9461 19.6598Z"/>
<path d="M23.7961 20.9998V25.9998H22.2961V20.9998H23.7961Z"/>
<path d="M21.3 21.9998L19.41 24.5998H21.4V25.9998H17.4V24.9998L19.29 22.3998H17.5V20.9998H21.3V21.9998Z"/>
<path fill-rule="evenodd" clip-rule="evenodd" d="M27.8838 20.8598C27.2138 20.8598 26.7238 21.0898 26.3938 21.4698V20.9998H24.8938V27.9998H26.3938V25.5298C26.7238 25.9098 27.2138 26.1398 27.8838 26.1398C29.1938 26.1398 30.2738 24.9898 30.2738 23.4998C30.2738 22.0098 29.1938 20.8598 27.8838 20.8598ZM27.5838 24.7198C26.8938 24.7198 26.3938 24.2498 26.3938 23.4998C26.3938 22.7498 26.8938 22.2798 27.5838 22.2798C28.2738 22.2798 28.7738 22.7498 28.7738 23.4998C28.7738 24.2498 28.2738 24.7198 27.5838 24.7198Z"/>
<path fill-rule="evenodd" clip-rule="evenodd" d="M6 15V31H34V15H6ZM31.5 17.5H8.5V28.5H31.5V17.5Z"/>
</svg>
