<svg width="40" height="40" viewBox="0 0 40 40" xmlns="http://www.w3.org/2000/svg">
<path d="M17.7308 4H2.5V6.5H19.5L17.7308 4Z"/>
<path d="M5 11.5H28V13.5098C28.8584 13.5436 29.6946 13.6639 30.5 13.8623V9H2.5V25H15.0394C15.1076 24.1392 15.2629 23.3029 15.4966 22.5H5V11.5Z"/>
<path fill-rule="evenodd" clip-rule="evenodd" d="M25.9275 20H29.0281V22.2285C29.3759 22.3644 29.7016 22.5446 29.998 22.7622L31.9052 21.6611L33.4555 24.3463L31.6624 25.3816C31.7141 25.6468 31.7411 25.9209 31.7411 26.2012C31.7411 26.3577 31.7327 26.5123 31.7163 26.6644L33.4555 27.6686L31.9052 30.3538L30.2792 29.415C29.9121 29.7353 29.4897 29.9937 29.0281 30.1739V32.0149H25.9275V30.1739C25.4659 29.9937 25.0434 29.7353 24.6763 29.415L23.0503 30.3538L21.5 27.6686L23.2393 26.6644C23.2229 26.5123 23.2144 26.3577 23.2144 26.2012C23.2144 25.9209 23.2415 25.6468 23.2931 25.3816L21.5 24.3463L23.0503 21.6611L24.9575 22.7622C25.254 22.5446 25.5796 22.3644 25.9275 22.2285V20ZM27.4778 27.7515C28.334 27.7515 29.0281 27.0574 29.0281 26.2012C29.0281 25.345 28.334 24.6509 27.4778 24.6509C26.6216 24.6509 25.9275 25.345 25.9275 26.2012C25.9275 27.0574 26.6216 27.7515 27.4778 27.7515Z"/>
<path fill-rule="evenodd" clip-rule="evenodd" d="M27.5 36C33.0228 36 37.5 31.5228 37.5 26C37.5 20.4772 33.0228 16 27.5 16C21.9772 16 17.5 20.4772 17.5 26C17.5 31.5228 21.9772 36 27.5 36ZM27.5 33.5C31.6421 33.5 35 30.1421 35 26C35 21.8579 31.6421 18.5 27.5 18.5C23.3579 18.5 20 21.8579 20 26C20 30.1421 23.3579 33.5 27.5 33.5Z"/>
</svg>
