<svg width="40" height="40" viewBox="0 0 40 40" xmlns="http://www.w3.org/2000/svg">
<path d="M17.7308 4H2.5V6.5H19.5L17.7308 4Z"/>
<path d="M5 11.5H28V13.5098C28.8584 13.5436 29.6946 13.6639 30.5 13.8623V9H2.5V25H15.0394C15.1076 24.1392 15.2629 23.3029 15.4966 22.5H5V11.5Z"/>
<path d="M26.06 27.424H28.62C28.62 26.9769 29.0398 26.5902 29.5394 26.13C30.2735 25.4537 31.18 24.6186 31.18 23.2C31.18 21.12 29.356 20 27.532 20C25.756 20 24.204 20.928 23.5 22.576L25.708 23.84C26.028 23.088 26.556 22.496 27.436 22.496C28.252 22.496 28.62 22.864 28.62 23.424C28.62 24.078 28.0678 24.5835 27.4763 25.125C26.7942 25.7493 26.06 26.4215 26.06 27.424Z"/>
<path d="M27.34 31.648C28.172 31.648 28.86 30.96 28.86 30.128C28.86 29.296 28.172 28.608 27.34 28.608C26.508 28.608 25.82 29.296 25.82 30.128C25.82 30.96 26.508 31.648 27.34 31.648Z"/>
<path fill-rule="evenodd" clip-rule="evenodd" d="M27.5 36C33.0228 36 37.5 31.5228 37.5 26C37.5 20.4772 33.0228 16 27.5 16C21.9772 16 17.5 20.4772 17.5 26C17.5 31.5228 21.9772 36 27.5 36ZM27.5 33.5C31.6421 33.5 35 30.1421 35 26C35 21.8579 31.6421 18.5 27.5 18.5C23.3579 18.5 20 21.8579 20 26C20 30.1421 23.3579 33.5 27.5 33.5Z"/>
</svg>
