<svg width="40" height="40" viewBox="0 0 40 40" xmlns="http://www.w3.org/2000/svg">
<path d="M17.7308 4H2.5V6.5H19.5L17.7308 4Z"/>
<path d="M5 11.5H28V13.5098C28.8584 13.5436 29.6946 13.6639 30.5 13.8623V9H2.5V25H15.0394C15.1076 24.1392 15.2629 23.3029 15.4966 22.5H5V11.5Z"/>
<path d="M25.9167 19.75H28.0833V26.2119L32.3415 28.6704L31.2581 30.547L25.9167 27.4556L25.9167 19.75Z"/>
<path fill-rule="evenodd" clip-rule="evenodd" d="M37.5 26C37.5 31.5228 33.0228 36 27.5 36C21.9772 36 17.5 31.5228 17.5 26C17.5 20.4772 21.9772 16 27.5 16C33.0228 16 37.5 20.4772 37.5 26ZM35 26C35 30.1421 31.6421 33.5 27.5 33.5C23.3579 33.5 20 30.1421 20 26C20 21.8579 23.3579 18.5 27.5 18.5C31.6421 18.5 35 21.8579 35 26Z"/>
</svg>
