<svg width="40" height="40" viewBox="0 0 40 40" xmlns="http://www.w3.org/2000/svg">
<path d="M17.7308 4H2.5V6.5H19.5L17.7308 4Z"/>
<path d="M5 11.5H28V13.5098C28.8584 13.5436 29.6946 13.6639 30.5 13.8623V9H2.5V25H15.0394C15.1076 24.1392 15.2629 23.3029 15.4966 22.5H5V11.5Z"/>
<path d="M27.25 19.0664L30.3535 22.17L27.25 25.2735V23.2633C25.664 23.3906 24.4167 24.7179 24.4167 26.3367C24.4167 28.0395 25.7971 29.42 27.5 29.42C29.2029 29.42 30.5833 28.0395 30.5833 26.3367C30.5833 25.7644 30.4277 25.2293 30.1566 24.7705L30.0579 24.6036L31.6078 23.0537L31.7792 23.2945C32.3905 24.1528 32.75 25.2031 32.75 26.3367C32.75 29.2362 30.3995 31.5867 27.5 31.5867C24.6005 31.5867 22.25 29.2362 22.25 26.3367C22.25 23.521 24.4666 21.223 27.25 21.0925V19.0664Z"/>
<path fill-rule="evenodd" clip-rule="evenodd" d="M37.5 26C37.5 31.5228 33.0228 36 27.5 36C21.9772 36 17.5 31.5228 17.5 26C17.5 20.4772 21.9772 16 27.5 16C33.0228 16 37.5 20.4772 37.5 26ZM35 26C35 30.1421 31.6421 33.5 27.5 33.5C23.3579 33.5 20 30.1421 20 26C20 21.8579 23.3579 18.5 27.5 18.5C31.6421 18.5 35 21.8579 35 26Z"/>
</svg>
