<svg width="40" height="40" viewBox="0 0 40 40" xmlns="http://www.w3.org/2000/svg">
<path d="M17.7308 4H2.5V6.5H19.5L17.7308 4Z"/>
<path d="M5 11.5H28V13.5098C28.8584 13.5436 29.6946 13.6639 30.5 13.8623V9H2.5V25H15.0394C15.1076 24.1392 15.2629 23.3029 15.4966 22.5H5V11.5Z"/>
<path d="M30.5815 21.4185L28.8882 23.1117L30.5815 24.805L32.2748 23.1117L30.5815 21.4185Z"/>
<path d="M28.1593 23.8406L23.7517 28.2482L23.5966 30.0966L25.445 29.9415L29.8526 25.5339L28.1593 23.8406Z"/>
<path fill-rule="evenodd" clip-rule="evenodd" d="M27.5 36C33.0228 36 37.5 31.5228 37.5 26C37.5 20.4772 33.0228 16 27.5 16C21.9772 16 17.5 20.4772 17.5 26C17.5 31.5228 21.9772 36 27.5 36ZM27.5 33.5C31.6421 33.5 35 30.1421 35 26C35 21.8579 31.6421 18.5 27.5 18.5C23.3579 18.5 20 21.8579 20 26C20 30.1421 23.3579 33.5 27.5 33.5Z"/>
</svg>
