<svg width="40" height="40" viewBox="0 0 40 40" xmlns="http://www.w3.org/2000/svg">
<path fill-rule="evenodd" clip-rule="evenodd" d="M27.5833 9.29167C27.5833 10.3526 27.1475 11.3118 26.4452 12H33V19.5833H30.8333V33.125H9.16664V19.5833H7V12H13.5547C12.8524 11.3118 12.4167 10.3526 12.4167 9.29167C12.4167 7.19759 14.1143 5.5 16.2083 5.5C18.3024 5.5 20 7.19759 20 9.29167C20 7.19759 21.6976 5.5 23.7916 5.5C25.8857 5.5 27.5833 7.19759 27.5833 9.29167ZM23.5208 10.3747C24.1191 10.3747 24.6041 9.88965 24.6041 9.29134C24.6041 8.69303 24.1191 8.20801 23.5208 8.20801C22.9225 8.20801 22.4375 8.69303 22.4375 9.29134C22.4375 9.88965 22.9225 10.3747 23.5208 10.3747ZM18.6459 14.7083H9.70833V16.875H18.6459V14.7083ZM21.3542 14.7083V16.875H30.2917V14.7083H21.3542ZM18.6459 19.5833H11.875V30.4167H18.6459V19.5833ZM21.3542 30.4167V19.5833H28.125V30.4167H21.3542ZM15.3958 9.29134C15.3958 9.88965 15.8809 10.3747 16.4792 10.3747C17.0775 10.3747 17.5625 9.88965 17.5625 9.29134C17.5625 8.69303 17.0775 8.20801 16.4792 8.20801C15.8809 8.20801 15.3958 8.69303 15.3958 9.29134Z"/>
</svg>
