<svg width="40" height="40" viewBox="0 0 40 40" xmlns="http://www.w3.org/2000/svg">
<path d="M20 25.75C18.4041 25.75 16.877 24.9589 16.118 23.441L13.882 24.559C15.123 27.0411 17.5959 28.25 20 28.25C22.4041 28.25 24.877 27.0411 26.118 24.559L23.882 23.441C23.123 24.9589 21.5959 25.75 20 25.75Z"/>
<path d="M17.3994 15H10V16.5C10 18.9853 12.0147 21 14.5 21C16.7157 21 18.5574 19.3986 18.9309 17.2902C19.2279 17.2656 19.582 17.25 20 17.25C20.418 17.25 20.7721 17.2656 21.0691 17.2902C21.4426 19.3986 23.2843 21 25.5 21C27.9853 21 30 18.9853 30 16.5V15H22.6006C22.5526 14.9883 22.5034 14.977 22.453 14.966C21.8655 14.8383 21.0647 14.75 20 14.75C18.9353 14.75 18.1345 14.8383 17.547 14.966C17.4966 14.977 17.4474 14.9883 17.3994 15Z"/>
<path fill-rule="evenodd" clip-rule="evenodd" d="M20 34C27.732 34 34 27.732 34 20C34 12.268 27.732 6 20 6C12.268 6 6 12.268 6 20C6 27.732 12.268 34 20 34ZM20 31.5C26.3513 31.5 31.5 26.3513 31.5 20C31.5 13.6487 26.3513 8.5 20 8.5C13.6487 8.5 8.5 13.6487 8.5 20C8.5 26.3513 13.6487 31.5 20 31.5Z"/>
</svg>
