<svg width="40" height="40" viewBox="0 0 40 40" xmlns="http://www.w3.org/2000/svg">
<path fill-rule="evenodd" clip-rule="evenodd" d="M2.84375 12H7.68322L12.1832 7.5H25.4192L30.4817 12H37.6562V24.875H32.7543L33.6293 25.75L27.8438 31.5355L25.5938 29.2855L23.3438 31.5355L21.0938 29.2855L18.8438 31.5355L12.1832 24.875H2.84375V12ZM17.7718 10L15.6281 12.45C15.0016 13.166 14.6562 14.0851 14.6562 15.0365V15.0774C14.6562 17.3818 16.5244 19.25 18.8289 19.25C19.8616 19.25 20.852 18.8398 21.5823 18.1095L22.0178 17.674L30.0938 25.75L27.8438 28L25.5938 25.75L23.3438 28L21.0938 25.75L18.8438 28L13.2188 22.375H5.34375V14.5H8.71875L13.2188 10H17.7718ZM22.2188 13.9375L30.6562 22.375H35.1562V14.5H29.5312L24.4688 10H21.0938L17.5095 14.0962C17.2818 14.3565 17.1562 14.6906 17.1562 15.0365V15.0774C17.1562 16.0011 17.9051 16.75 18.8289 16.75C19.1986 16.75 19.5531 16.6031 19.8145 16.3417L22.2188 13.9375Z"/>
</svg>
