<svg width="40" height="40" viewBox="0 0 40 40" xmlns="http://www.w3.org/2000/svg">
<path d="M23.2553 13H20.9048V25.9524H23.2612V25.7162C23.2612 25.3249 23.2607 24.9337 23.2603 24.5425V24.5387C23.2602 24.4726 23.2602 24.4065 23.2601 24.3404C23.2596 23.8777 23.2592 23.4147 23.2596 22.9524C23.2599 22.6592 23.2605 22.366 23.2616 22.0728C23.2623 21.8795 23.2632 21.6863 23.2644 21.493C23.267 21.0837 23.2914 20.6747 23.3375 20.268C23.4002 19.7154 23.5974 19.2783 23.9048 18.9762C23.961 18.9208 24.021 18.87 24.0846 18.8238C24.2827 18.6797 24.5154 18.5808 24.7779 18.5307C24.9525 18.4974 25.1405 18.4856 25.3402 18.4964C25.497 18.5049 25.6434 18.535 25.7766 18.5849C26.0908 18.7025 26.331 18.9302 26.4583 19.2437C26.4699 19.2723 26.4806 19.3016 26.4902 19.3316L26.493 19.3401C26.5171 19.4165 26.535 19.4973 26.5461 19.5823C26.5773 19.836 26.5991 20.0906 26.6115 20.3457L26.612 20.3551C26.6134 20.3848 26.6147 20.4144 26.6159 20.444C26.6216 20.5894 26.6243 20.7349 26.624 20.8805C26.6276 21.57 26.6287 22.2595 26.6288 22.9491C26.6289 23.4269 26.6285 23.9047 26.628 24.3826C26.6277 24.8243 26.6273 25.2661 26.6273 25.7078V25.9491H28.9987V25.7221V25.7078C28.9987 25.2397 28.999 24.7716 28.9993 24.3034L28.9993 24.2952L28.9993 24.2847L29 23.0495C29.0001 22.3282 28.9995 21.607 28.9972 20.8858L28.9971 20.8681C28.9965 20.6934 28.9958 20.5187 28.995 20.344C28.9947 19.9914 28.9778 19.6391 28.9442 19.2882L28.9422 19.2675C28.9349 19.1934 28.927 19.1194 28.9183 19.0454C28.8338 18.3506 28.5722 17.7318 28.0087 17.2856C27.5061 16.8877 26.8896 16.669 26.2553 16.6265C25.9841 16.6084 25.7097 16.6224 25.4395 16.6684C25.4131 16.6729 25.3868 16.6777 25.3605 16.6828C25.2267 16.7088 25.0942 16.7426 24.9637 16.7843C24.585 16.9055 24.2245 17.0929 23.9048 17.3458C23.8808 17.3648 23.857 17.3842 23.8334 17.4039C23.7017 17.5143 23.5783 17.6347 23.4475 17.7622C23.3858 17.8224 23.3219 17.8847 23.2553 17.9478V13Z"/>
<path fill-rule="evenodd" clip-rule="evenodd" d="M20.0944 24.2509C20.094 24.7438 20.0936 25.2368 20.0936 25.7299V25.9524H17.7237V25.7409V25.7299C17.7237 25.285 17.724 24.8401 17.7244 24.3953C17.7248 23.9143 17.7252 23.4333 17.7251 22.9524C17.725 22.2605 17.724 21.5687 17.7208 20.877C17.7198 20.6511 17.7109 20.4248 17.6966 20.1988L17.6959 20.1885C17.6844 20.0091 17.6694 19.8299 17.6521 19.6513C17.6399 19.5257 17.6133 19.4081 17.5737 19.2996L17.5694 19.2879C17.5607 19.2649 17.5515 19.2423 17.5417 19.2202L17.5403 19.2172C17.4203 18.9482 17.2153 18.7428 16.9503 18.6216C16.7952 18.5506 16.6195 18.5085 16.4283 18.4995C16.2079 18.4891 16.0022 18.5056 15.8128 18.5478L15.8106 18.5483C15.5811 18.5998 15.3757 18.6889 15.1976 18.8135C15.1274 18.8626 15.0615 18.9172 15 18.9771C14.7129 19.257 14.5229 19.6535 14.4502 20.1518C14.4007 20.4902 14.3746 20.8316 14.3721 21.1736C14.3699 21.4813 14.3682 21.7889 14.3668 22.0966C14.3633 22.9149 14.3623 23.7336 14.3614 24.5517C14.3609 24.9491 14.3604 25.3465 14.3597 25.7438V25.9516H12V13H14.3611V17.9425C14.4239 17.8822 14.4826 17.8244 14.5389 17.7691C14.6509 17.6589 14.7536 17.5578 14.8618 17.463C14.907 17.4235 14.953 17.3853 15 17.3485C15.4421 17.0012 15.9626 16.769 16.5148 16.6723C16.5883 16.6594 16.6625 16.6489 16.7371 16.6409C16.9454 16.6184 17.1543 16.6155 17.3611 16.6314C17.5445 16.6455 17.7263 16.6746 17.9048 16.7181C18.1957 16.789 18.4776 16.8986 18.743 17.0451C19.4771 17.4516 19.8584 18.1037 19.9888 18.9082C20.0154 19.0777 20.0367 19.2481 20.0528 19.4188C20.0767 19.6736 20.0889 19.9295 20.0892 20.1856C20.0904 20.4123 20.0915 20.6396 20.0923 20.8664C20.0963 21.9942 20.0954 23.1226 20.0944 24.2509ZM20 32.5C23.3954 32.5 26.4745 31.1463 28.7272 28.9491C28.8191 28.8595 28.9096 28.7685 28.9987 28.6761C29.781 27.8648 30.4547 26.948 30.9963 25.9491C31.0371 25.8739 31.0771 25.7982 31.1163 25.7221C31.4777 25.0215 31.7748 24.2822 31.9998 23.5122C32.3254 22.398 32.5 21.2194 32.5 20C32.5 13.0964 26.9036 7.5 20 7.5C17.1854 7.5 14.5881 8.43022 12.4988 10C12.3291 10.1275 12.1628 10.2592 12 10.3949C11.0976 11.1473 10.3029 12.0245 9.64233 13C9.41145 13.341 9.19696 13.6939 9 14.0578C8.04324 15.8252 7.5 17.8491 7.5 20C7.5 22.1509 8.04324 24.1748 9 25.9422L9.0051 25.9516C9.6087 27.0644 10.3763 28.0752 11.2754 28.9516C13.5279 31.1473 16.606 32.5 20 32.5ZM28.9987 25.7078C28.9987 25.2397 28.999 24.7716 28.9993 24.3034L28.9987 25.7078ZM35 20C35 28.2843 28.2843 35 20 35C11.7157 35 5 28.2843 5 20C5 11.7157 11.7157 5 20 5C28.2843 5 35 11.7157 35 20Z"/>
</svg>
