<svg width="40" height="40" viewBox="0 0 40 40" xmlns="http://www.w3.org/2000/svg">
<path fill-rule="evenodd" clip-rule="evenodd" d="M19.9385 27.5647L19.9421 27.568L20 27.6206L20.0615 27.5647C23.2007 24.7207 25.6044 22.5326 27.2525 20.5181C28.8733 18.537 29.5 17.0313 29.5 15.594C29.5 13.2752 27.7204 11.5 25.4 11.5C24.0669 11.5 22.7467 12.133 21.8964 13.1228L20 15.3303L18.1036 13.1228C17.2533 12.133 15.9331 11.5 14.6 11.5C12.2796 11.5 10.5 13.2752 10.5 15.594C10.5 17.0313 11.1267 18.537 12.7475 20.5181C14.3956 22.5326 16.7993 24.7207 19.9385 27.5647ZM18.3924 10.1127C18.9963 10.493 19.541 10.9594 20 11.4937C20.459 10.9594 21.0037 10.493 21.6076 10.1127C22.7248 9.40915 24.0447 9 25.4 9C29.096 9 32 11.8894 32 15.594C32 20.1139 27.92 23.8185 21.74 29.4174L20 31L18.26 29.4174C12.08 23.8185 8 20.1139 8 15.594C8 11.8894 10.904 9 14.6 9C15.9553 9 17.2752 9.40915 18.3924 10.1127Z"/>
</svg>
