<svg width="40" height="40" viewBox="0 0 40 40" xmlns="http://www.w3.org/2000/svg">
<path d="M16.5394 29C16.5133 28.6701 16.5 28.3366 16.5 28C16.5 24.4655 17.967 21.2736 20.3253 19H13V26.5H9.5V13.5H7.49761L16.5515 5.32232L26.1894 13.5H24.5V16.3345C25.8963 15.7955 27.4136 15.5 29 15.5C30.2192 15.5 31.3976 15.6745 32.5116 16H33L16.5 2L1 16H7V29H16.5394Z"/>
<path fill-rule="evenodd" clip-rule="evenodd" d="M26.2691 25.9651C26.2691 24.4656 27.4847 23.25 28.9842 23.25C30.4837 23.25 31.6993 24.4656 31.6993 25.9651V26.8987H32.7185V32.5H25.25V26.8987H26.2691V25.9651ZM30.4701 26.8987V25.9651C30.4701 25.1445 29.8049 24.4792 28.9842 24.4792C28.1636 24.4792 27.4983 25.1445 27.4983 25.9651V26.8987H30.4701ZM28.3619 29.077H29.6066V30.3217H28.3619V29.077Z"/>
<path fill-rule="evenodd" clip-rule="evenodd" d="M29 38C34.5228 38 39 33.5228 39 28C39 22.4772 34.5228 18 29 18C23.4772 18 19 22.4772 19 28C19 33.5228 23.4772 38 29 38ZM29 35.5C33.1421 35.5 36.5 32.1421 36.5 28C36.5 23.8579 33.1421 20.5 29 20.5C24.8579 20.5 21.5 23.8579 21.5 28C21.5 32.1421 24.8579 35.5 29 35.5Z"/>
</svg>
