<svg width="40" height="40" viewBox="0 0 40 40" xmlns="http://www.w3.org/2000/svg">
<path d="M16.5394 29C16.5133 28.6701 16.5 28.3366 16.5 28C16.5 24.4655 17.967 21.2736 20.3253 19H13V26.5H9.5V13.5H7.49761L16.5515 5.32232L26.1894 13.5H24.5V16.3345C25.8963 15.7955 27.4136 15.5 29 15.5C30.2192 15.5 31.3976 15.6745 32.5116 16H33L16.5 2L1 16H7V29H16.5394Z"/>
<path d="M29 33L31 30.6C30.4444 30.225 29.75 30 29 30C28.25 30 27.5556 30.225 27 30.6L29 33Z"/>
<path d="M29 24C26.75 24 24.6722 24.67 23 25.8L24 27C25.3889 26.06 27.1222 25.5 29 25.5C30.8778 25.5 32.6111 26.06 34 27L35 25.8C33.3278 24.67 31.25 24 29 24Z"/>
<path d="M29 27C27.5 27 26.1167 27.445 25 28.2L26 29.4C26.8333 28.835 27.8722 28.5 29 28.5C30.1278 28.5 31.1667 28.835 32 29.4L33 28.2C31.8833 27.445 30.5 27 29 27Z"/>
<path fill-rule="evenodd" clip-rule="evenodd" d="M29 38C34.5228 38 39 33.5228 39 28C39 22.4772 34.5228 18 29 18C23.4772 18 19 22.4772 19 28C19 33.5228 23.4772 38 29 38ZM29 35.5C33.1421 35.5 36.5 32.1421 36.5 28C36.5 23.8579 33.1421 20.5 29 20.5C24.8579 20.5 21.5 23.8579 21.5 28C21.5 32.1421 24.8579 35.5 29 35.5Z"/>
</svg>
