<svg width="40" height="40" viewBox="0 0 40 40" xmlns="http://www.w3.org/2000/svg">
<path d="M16.5394 29C16.5133 28.6701 16.5 28.3366 16.5 28C16.5 24.4655 17.967 21.2736 20.3253 19H13V26.5H9.5V13.5H7.49761L16.5515 5.32232L26.1894 13.5H24.5V16.3345C25.8963 15.7955 27.4136 15.5 29 15.5C30.2192 15.5 31.3976 15.6745 32.5116 16H33L16.5 2L1 16H7V29H16.5394Z"/>
<path fill-rule="evenodd" clip-rule="evenodd" d="M33.1932 27.0049V26.1724C33.1932 25.5556 32.6932 25.0555 32.0764 25.0555C31.4595 25.0555 30.9595 25.5556 30.9595 26.1724V27.0049H31.6601V32H25V27.0049H29.4469V26.1724C29.4469 24.7202 30.6242 23.543 32.0764 23.543C33.5286 23.543 34.7058 24.7202 34.7058 26.1724V27.0049H34.2964H33.1932ZM27.7751 28.9474H28.8851V30.0575H27.7751V28.9474Z"/>
<path fill-rule="evenodd" clip-rule="evenodd" d="M29 38C34.5228 38 39 33.5228 39 28C39 22.4772 34.5228 18 29 18C23.4772 18 19 22.4772 19 28C19 33.5228 23.4772 38 29 38ZM29 35.5C33.1421 35.5 36.5 32.1421 36.5 28C36.5 23.8579 33.1421 20.5 29 20.5C24.8579 20.5 21.5 23.8579 21.5 28C21.5 32.1421 24.8579 35.5 29 35.5Z"/>
</svg>
