<svg width="40" height="40" viewBox="0 0 40 40" xmlns="http://www.w3.org/2000/svg">
<path d="M16.5394 29C16.5133 28.6701 16.5 28.3366 16.5 28C16.5 24.4655 17.967 21.2736 20.3253 19H13V26.5H9.5V13.5H7.49761L16.5515 5.32232L26.1894 13.5H24.5V16.3345C25.8963 15.7955 27.4136 15.5 29 15.5C30.2192 15.5 31.3976 15.6745 32.5116 16H33L16.5 2L1 16H7V29H16.5394Z"/>
<path fill-rule="evenodd" clip-rule="evenodd" d="M28.931 34C28.931 34 33.1034 29.8276 33.1034 27.0741C33.1034 24.824 31.2354 23 28.931 23C26.6267 23 24.7586 24.824 24.7586 27.0741C24.7586 29.8276 28.931 34 28.931 34ZM28.931 29.0691C29.9785 29.0691 30.8276 28.22 30.8276 27.1726C30.8276 26.1251 29.9785 25.276 28.931 25.276C27.8836 25.276 27.0345 26.1251 27.0345 27.1726C27.0345 28.22 27.8836 29.0691 28.931 29.0691Z"/>
<path fill-rule="evenodd" clip-rule="evenodd" d="M29 38C34.5228 38 39 33.5228 39 28C39 22.4772 34.5228 18 29 18C23.4772 18 19 22.4772 19 28C19 33.5228 23.4772 38 29 38ZM29 35.5C33.1421 35.5 36.5 32.1421 36.5 28C36.5 23.8579 33.1421 20.5 29 20.5C24.8579 20.5 21.5 23.8579 21.5 28C21.5 32.1421 24.8579 35.5 29 35.5Z"/>
</svg>
