<svg width="40" height="40" viewBox="0 0 40 40" xmlns="http://www.w3.org/2000/svg">
<path fill-rule="evenodd" clip-rule="evenodd" d="M16.0639 14.6961L16.0312 14.6621C15.0345 13.6271 14.5 12.3254 14.5 10.88C14.5 9.4323 15.0374 8.12304 16.0642 7.09623C17.0923 6.06816 18.4043 5.5 19.88 5.5C21.3429 5.5 22.6496 6.05955 23.664 7.09606C24.7005 8.11046 25.26 9.41715 25.26 10.88C25.26 12.3557 24.6918 13.6677 23.6638 14.6958M21.896 8.864C21.3413 8.288 20.6693 8 19.88 8C19.0907 8 18.408 8.288 17.832 8.864C17.2773 9.41867 17 10.0907 17 10.88C17 11.6693 17.2773 12.352 17.832 12.928C18.408 13.4827 19.0907 13.76 19.88 13.76C20.6693 13.76 21.3413 13.4827 21.896 12.928C22.472 12.352 22.76 11.6693 22.76 10.88C22.76 10.0907 22.472 9.41867 21.896 8.864ZM16.0639 14.6961L16.0979 14.7288L16.0639 14.6961ZM14.98 33.668V17.668H24.78V33.668H14.98ZM23.6638 14.6958C22.637 15.7226 21.3277 16.26 19.88 16.26C18.4346 16.26 17.1329 15.7255 16.0979 14.7288M17.48 31.168H22.28V20.168H17.48V31.168Z"/>
</svg>
