<svg width="40" height="40" viewBox="0 0 40 40" xmlns="http://www.w3.org/2000/svg">
<path fill-rule="evenodd" clip-rule="evenodd" d="M20 27C23.866 27 27 23.866 27 20C27 16.134 23.866 13 20 13C16.134 13 13 16.134 13 20C13 23.866 16.134 27 20 27ZM20 24.5C22.4853 24.5 24.5 22.4853 24.5 20C24.5 17.5147 22.4853 15.5 20 15.5C17.5147 15.5 15.5 17.5147 15.5 20C15.5 22.4853 17.5147 24.5 20 24.5Z"/>
<path d="M27.5 14C28.3284 14 29 13.3284 29 12.5C29 11.6716 28.3284 11 27.5 11C26.6716 11 26 11.6716 26 12.5C26 13.3284 26.6716 14 27.5 14Z"/>
<path fill-rule="evenodd" clip-rule="evenodd" d="M13 6C9.13401 6 6 9.13401 6 13V27C6 30.866 9.13401 34 13 34H27C30.866 34 34 30.866 34 27V13C34 9.13401 30.866 6 27 6H13ZM27 8.5H13C10.5147 8.5 8.5 10.5147 8.5 13V27C8.5 29.4853 10.5147 31.5 13 31.5H27C29.4853 31.5 31.5 29.4853 31.5 27V13C31.5 10.5147 29.4853 8.5 27 8.5Z"/>
</svg>
