<svg width="40" height="40" viewBox="0 0 40 40" xmlns="http://www.w3.org/2000/svg">
<path d="M24 4.5V10.2499C24.8975 10.6004 25.7377 11.0654 26.5026 11.6269L31.4234 8.7859L35.4234 15.7141L30.7969 18.3852C30.9302 19.0696 31 19.7766 31 20.5C31 20.9038 30.9782 21.3025 30.9358 21.695L35.4234 24.2859L31.4234 31.2141L27.2282 28.792C26.281 29.6183 25.191 30.285 24 30.7501V35.5H16V30.7501C14.809 30.285 13.719 29.6183 12.7718 28.792L8.5766 31.2141L4.5766 24.2859L5.953 23.4912H9.89742L9.89143 24.1041L7.99166 25.201L9.49166 27.799L13.0691 25.7336L14.4153 26.9081C15.1487 27.5479 15.9911 28.0628 16.9094 28.4214L18.5 29.0426V33H21.5V29.0426L23.0906 28.4214C24.0089 28.0628 24.8513 27.5479 25.5846 26.9082L26.9309 25.7336L30.5083 27.799L32.0083 25.201L28.2754 23.0457L28.4503 21.4265C28.4831 21.123 28.5 20.8139 28.5 20.5C28.5 19.9379 28.4458 19.3908 28.343 18.8631L28.002 17.1121L32.0083 14.799L30.5083 12.201L26.339 14.6081L25.0232 13.6422C24.4315 13.2078 23.7826 12.8489 23.0906 12.5786L21.5 11.9574V7H18.5V11.9574L16.9094 12.5786C16.2174 12.8489 15.5685 13.2078 14.9768 13.6422L13.661 14.6081L9.49166 12.201L7.99166 14.799L9.97124 15.9419L9.95853 17.2412H7.22167L4.5766 15.7141L8.5766 8.7859L13.4974 11.6269C14.2623 11.0654 15.1025 10.6004 16 10.2499V4.5H24Z"/>
<path d="M16.3575 23.143C17.1755 24.2684 18.5023 25 20 25C22.4853 25 24.5 22.9853 24.5 20.5C24.5 18.0147 22.4853 16 20 16C18.5947 16 17.3398 16.6442 16.5146 17.6534L18.5587 19.1134C18.9225 18.7353 19.4338 18.5 20 18.5C21.1046 18.5 22 19.3954 22 20.5C22 21.6046 21.1046 22.5 20 22.5C19.3883 22.5 18.8408 22.2254 18.4739 21.7927L16.3575 23.143Z"/>
<path d="M11.875 24.1719L17.5 20.4219L11.875 16.6719V19H0V21.6172H11.875V24.1719Z"/>
</svg>
