<svg width="40" height="40" viewBox="0 0 40 40" xmlns="http://www.w3.org/2000/svg">
<path fill-rule="evenodd" clip-rule="evenodd" d="M17.7095 7.75H30.034C30.6217 7.75 31.1854 7.98347 31.6009 8.39905C32.0165 8.81463 32.25 9.37828 32.25 9.966V22.2152L30.9948 22.21C29.373 22.2032 27.8963 21.5822 26.7875 20.5666V27.7352L25.5323 27.73C23.8941 27.7231 22.4034 27.0857 21.2905 26.0481V33.25H20.0405C16.5969 33.25 13.8139 30.4442 13.7995 27.0142L13.7995 27.009V26.281H13.0025C9.55589 26.281 6.75 23.4941 6.75 20.04V18.7913L13.9332 18.7838C12.8863 17.6692 12.2424 16.1717 12.2355 14.5252L12.2303 13.27H19.4048C18.356 12.1526 17.7095 10.6512 17.7095 9V7.75ZM24.2875 15.77H14.9564C15.4767 17.2156 16.8584 18.2532 18.4794 18.261H21.7965V21.4861C21.8043 23.1071 22.8419 24.4888 24.2875 25.0091V15.77ZM18.7905 21.2788L9.46398 21.2885C9.97934 22.7406 11.3685 23.781 13.0025 23.781H16.2995V27.0061C16.3073 28.6313 17.3477 30.0164 18.7905 30.5334V21.2788ZM20.426 10.25C20.9466 11.7051 22.3462 12.7525 23.962 12.7525H27.259V15.9575C27.259 17.5868 28.2959 18.972 29.75 19.4912V10.25H20.426Z"/>
</svg>
