<svg width="40" height="40" viewBox="0 0 40 40" xmlns="http://www.w3.org/2000/svg">
<path fill-rule="evenodd" clip-rule="evenodd" d="M26.5 9.75C24.4289 9.75 22.75 11.4289 22.75 13.5C22.75 15.5711 24.4289 17.25 26.5 17.25C28.5711 17.25 30.25 15.5711 30.25 13.5C30.25 11.4289 28.5711 9.75 26.5 9.75ZM25.25 13.5C25.25 12.8096 25.8096 12.25 26.5 12.25C27.1904 12.25 27.75 12.8096 27.75 13.5C27.75 14.1904 27.1904 14.75 26.5 14.75C25.8096 14.75 25.25 14.1904 25.25 13.5Z"/>
<path fill-rule="evenodd" clip-rule="evenodd" d="M25.3035 5.25C20.0864 5.25 15.8571 9.47931 15.8571 14.6964C15.8571 15.288 15.9116 15.8677 16.0162 16.4307L13.9286 18.5182V20.6789H11.0357V23.5717H8.14286V26.4646H5.25V34.7503H12.8035L23.5699 23.9839C24.1326 24.0884 24.7122 24.1429 25.3035 24.1429C30.5207 24.1429 34.75 19.9136 34.75 14.6964C34.75 9.47931 30.5207 5.25 25.3035 5.25ZM18.3571 14.6964C18.3571 10.86 21.4671 7.75 25.3035 7.75C29.1399 7.75 32.25 10.86 32.25 14.6964C32.25 18.5328 29.1399 21.6429 25.3035 21.6429C24.677 21.6429 24.0716 21.5602 23.4969 21.4059L22.7996 21.2187L11.768 32.2503H7.75V28.9646H10.6429V26.0717H13.5357V23.1789H16.4286V19.5538L18.7814 17.2009L18.5941 16.5035C18.4398 15.9287 18.3571 15.3232 18.3571 14.6964Z"/>
</svg>
