<svg width="40" height="40" viewBox="0 0 40 40" xmlns="http://www.w3.org/2000/svg">
<path d="M20 29C21.3807 29 22.5 27.8807 22.5 26.5C22.5 25.1193 21.3807 24 20 24C18.6193 24 17.5 25.1193 17.5 26.5C17.5 27.8807 18.6193 29 20 29Z"/>
<path fill-rule="evenodd" clip-rule="evenodd" d="M12 17V34H28V17L23.6923 19.6666L20 17L15.6923 19.6666L12 17ZM14.5 21.8894V31.5H25.5V21.4879L23.5853 22.6732L19.893 20.0065L15.5853 22.6732L14.5 21.8894Z"/>
<path d="M25.1188 16.4313L20 4L14.8233 16.5719L15.7779 17.2613L17.7443 16.0441L20 10.566L22.3247 16.2118L23.7779 17.2613L25.1188 16.4313Z"/>
<path d="M30 34H34V22L30 24.6667V27.6713L31.5 26.6713V31.5H30V34Z"/>
<path d="M6 22L10 24.6667V27.6713L8.5 26.6713V31.5H10V34H6V22Z"/>
</svg>
