<svg width="40" height="40" viewBox="0 0 40 40" xmlns="http://www.w3.org/2000/svg">
<path d="M30.75 4.75H4.25V24.25H16.0221C16.073 23.3904 16.2107 22.5542 16.4267 21.75H6.75V7.25H28.25V12.5024C28.3331 12.5008 28.4165 12.5 28.5 12.5C29.2682 12.5 30.0201 12.5693 30.75 12.702V4.75Z"/>
<path d="M1.5 25H16C16 25.8562 16.0861 26.6922 16.25 27.5H1.5V25Z"/>
<path d="M17.8208 18.5C17.3444 19.2811 16.9512 20.1185 16.6537 21H7.5V8H27.5V12.5394C26.6392 12.6076 25.8029 12.7629 25 12.9966V10.5H10V18.5H17.8208Z"/>
<path fill-rule="evenodd" clip-rule="evenodd" d="M25.7691 22.9651C25.7691 21.4656 26.9847 20.25 28.4842 20.25C29.9837 20.25 31.1993 21.4656 31.1993 22.9651V23.8987H32.2185V29.5H24.75V23.8987H25.7691V22.9651ZM26.9983 23.8987H29.9701V22.9651C29.9701 22.1444 29.3049 21.4792 28.4842 21.4792C27.6636 21.4792 26.9983 22.1444 26.9983 22.9651V23.8987ZM27.8619 26.077H29.1066V27.3217H27.8619V26.077Z"/>
<path fill-rule="evenodd" clip-rule="evenodd" d="M28.5 35C34.0228 35 38.5 30.5228 38.5 25C38.5 19.4772 34.0228 15 28.5 15C22.9772 15 18.5 19.4772 18.5 25C18.5 30.5228 22.9772 35 28.5 35ZM28.5 32.5C32.6421 32.5 36 29.1421 36 25C36 20.8579 32.6421 17.5 28.5 17.5C24.3579 17.5 21 20.8579 21 25C21 29.1421 24.3579 32.5 28.5 32.5Z"/>
</svg>
