<svg width="40" height="40" viewBox="0 0 40 40" xmlns="http://www.w3.org/2000/svg">
<path d="M30.75 4.75H4.25V24.25H16.0221C16.073 23.3904 16.2107 22.5542 16.4267 21.75H6.75V7.25H28.25V12.5024C28.3331 12.5008 28.4165 12.5 28.5 12.5C29.2682 12.5 30.0201 12.5693 30.75 12.702V4.75Z"/>
<path d="M16 25C16 25.8562 16.0861 26.6922 16.25 27.5H1.5V25H16Z"/>
<path d="M27.5 12.5394V8H7.5V21H16.6537C16.9512 20.1185 17.3444 19.2811 17.8208 18.5H10V10.5H25V12.9966C25.8029 12.7629 26.6392 12.6076 27.5 12.5394Z"/>
<path fill-rule="evenodd" clip-rule="evenodd" d="M30.0281 19H26.9275V21.2285C26.5796 21.3644 26.254 21.5446 25.9575 21.7622L24.0503 20.6611L22.5 23.3463L24.2931 24.3816C24.2415 24.6468 24.2144 24.9209 24.2144 25.2012C24.2144 25.3577 24.2229 25.5123 24.2393 25.6644L22.5 26.6686L24.0503 29.3538L25.6763 28.415C26.0434 28.7353 26.4659 28.9937 26.9275 29.1739V31.0149H30.0281V29.1739C30.4897 28.9937 30.9121 28.7353 31.2792 28.415L32.9052 29.3538L34.4555 26.6686L32.7163 25.6644C32.7327 25.5123 32.7411 25.3577 32.7411 25.2012C32.7411 24.9209 32.7141 24.6468 32.6624 24.3816L34.4555 23.3463L32.9052 20.6611L30.998 21.7622C30.7016 21.5446 30.3759 21.3644 30.0281 21.2285V19ZM30.0281 25.2012C30.0281 26.0574 29.334 26.7515 28.4778 26.7515C27.6216 26.7515 26.9275 26.0574 26.9275 25.2012C26.9275 24.345 27.6216 23.6509 28.4778 23.6509C29.334 23.6509 30.0281 24.345 30.0281 25.2012Z"/>
<path fill-rule="evenodd" clip-rule="evenodd" d="M28.5 35C34.0228 35 38.5 30.5228 38.5 25C38.5 19.4772 34.0228 15 28.5 15C22.9772 15 18.5 19.4772 18.5 25C18.5 30.5228 22.9772 35 28.5 35ZM28.5 32.5C32.6421 32.5 36 29.1421 36 25C36 20.8579 32.6421 17.5 28.5 17.5C24.3579 17.5 21 20.8579 21 25C21 29.1421 24.3579 32.5 28.5 32.5Z"/>
</svg>
