<svg width="40" height="40" viewBox="0 0 40 40" xmlns="http://www.w3.org/2000/svg">
<path fill-rule="evenodd" clip-rule="evenodd" d="M30 16C30 19.7014 27.989 22.9331 25 24.6622V29H15V24.6622C12.011 22.9331 10 19.7014 10 16C10 10.4772 14.4772 6 20 6C25.5228 6 30 10.4772 30 16ZM23.7482 22.4982L22.5 23.2202V26.5H17.5V23.2202L16.2518 22.4982C14.0035 21.1976 12.5 18.7729 12.5 16C12.5 11.8579 15.8579 8.5 20 8.5C24.1421 8.5 27.5 11.8579 27.5 16C27.5 18.7729 25.9965 21.1976 23.7482 22.4982Z"/>
<path d="M24 34V31H16V34H24Z"/>
</svg>
