<svg width="40" height="40" viewBox="0 0 40 40" xmlns="http://www.w3.org/2000/svg">
<path d="M5.11609 6.88398L33.1161 34.884L34.8839 33.1162L6.88386 5.11621L5.11609 6.88398Z"/>
<path d="M9.99997 16C9.99997 15.7734 10.0075 15.5485 10.0223 15.3257L12.7982 18.1015C13.3424 19.9706 14.5948 21.5397 16.2518 22.4982L17.5 23.2202V26.5H21.1967L23.6967 29H15V24.6622C12.011 22.9331 9.99997 19.7014 9.99997 16Z"/>
<path d="M27.6928 22.3895L25.9153 20.612C26.9095 19.3387 27.5 17.7377 27.5 16C27.5 11.8579 24.1421 8.5 20 8.5C18.261 8.5 16.6603 9.09181 15.3883 10.085L13.6105 8.3072C15.3432 6.86644 17.5704 6 20 6C25.5228 6 30 10.4772 30 16C30 18.4296 29.1335 20.6568 27.6928 22.3895Z"/>
<path d="M24 34V31H16V34H24Z"/>
</svg>
