<svg width="40" height="40" viewBox="0 0 40 40" xmlns="http://www.w3.org/2000/svg">
<path d="M22.0046 25.289C21.5493 25.7236 21.1667 26.0888 21.1667 26.511H18.8333C18.8333 25.5642 19.5026 24.9295 20.1242 24.3399C20.6633 23.8285 21.1667 23.3511 21.1667 22.7335C21.1667 22.2047 20.8312 21.8571 20.0875 21.8571C19.2854 21.8571 18.8042 22.4162 18.5125 23.1264L16.5 21.9327C17.1417 20.3764 18.5562 19.5 20.175 19.5C21.8375 19.5 23.5 20.5577 23.5 22.522C23.5 23.8617 22.6738 24.6503 22.0046 25.289Z"/>
<path d="M21.3854 29.0646C21.3854 29.8503 20.7583 30.5 20 30.5C19.2417 30.5 18.6146 29.8503 18.6146 29.0646C18.6146 28.2788 19.2417 27.6291 20 27.6291C20.7583 27.6291 21.3854 28.2788 21.3854 29.0646Z"/>
<path fill-rule="evenodd" clip-rule="evenodd" d="M12 13V16H8V34H32V16H28V13C28 8.58172 24.4183 5 20 5C15.5817 5 12 8.58172 12 13ZM25.5 16V13C25.5 9.96243 23.0376 7.5 20 7.5C16.9624 7.5 14.5 9.96243 14.5 13V16H25.5ZM10.5 18.5V31.5H29.5V18.5H10.5Z"/>
</svg>
