<svg width="40" height="40" viewBox="0 0 40 40" xmlns="http://www.w3.org/2000/svg">
<path d="M21 26.25H19.2L18.75 22.5V19.5H21.45V22.5L21 26.25Z"/>
<path d="M21.525 28.785C21.525 29.565 20.88 30.21 20.1 30.21C19.32 30.21 18.675 29.565 18.675 28.785C18.675 28.005 19.32 27.36 20.1 27.36C20.88 27.36 21.525 28.005 21.525 28.785Z"/>
<path fill-rule="evenodd" clip-rule="evenodd" d="M12 13V16H8V34H32V16H28V13C28 8.58172 24.4183 5 20 5C15.5817 5 12 8.58172 12 13ZM25.5 16V13C25.5 9.96243 23.0376 7.5 20 7.5C16.9624 7.5 14.5 9.96243 14.5 13V16H25.5ZM10.5 18.5V31.5H29.5V18.5H10.5Z"/>
</svg>
