<svg width="40" height="40" viewBox="0 0 40 40" xmlns="http://www.w3.org/2000/svg">
<path fill-rule="evenodd" clip-rule="evenodd" d="M7 14V11C7 6.58172 10.5817 3 15 3C19.4183 3 23 6.58172 23 11V14H24.4884C22.7683 14.5025 21.2017 15.3648 19.8756 16.5H5.5V29.5H15.9966C16.2519 30.377 16.6007 31.2142 17.0315 32H3V14H7ZM20.5 11V14H9.5V11C9.5 7.96243 11.9624 5.5 15 5.5C18.0376 5.5 20.5 7.96243 20.5 11Z"/>
<path d="M28.3333 20H26.6667L26.6667 27.3115L31.6667 30.2053L32.5 28.7619L28.3333 26.3563V20Z"/>
<path fill-rule="evenodd" clip-rule="evenodd" d="M28 36C33.5228 36 38 31.5228 38 26C38 20.4772 33.5228 16 28 16C22.4772 16 18 20.4772 18 26C18 31.5228 22.4772 36 28 36ZM28 33.5C32.1421 33.5 35.5 30.1421 35.5 26C35.5 21.8579 32.1421 18.5 28 18.5C23.8579 18.5 20.5 21.8579 20.5 26C20.5 30.1421 23.8579 33.5 28 33.5Z"/>
</svg>
