<svg width="40" height="40" viewBox="0 0 40 40" xmlns="http://www.w3.org/2000/svg">
<path d="M26.9206 29.1853C24.9951 30.6384 22.5982 31.5 20 31.5C13.6487 31.5 8.5 26.3513 8.5 20C8.5 13.6487 13.6487 8.5 20 8.5C25.9032 8.5 30.7676 12.948 31.4245 18.6753C31.7969 18.7696 32.1572 18.9003 32.5 19.0635C32.9508 18.8489 33.4317 18.6905 33.9306 18.5971C33.2269 11.5239 27.2585 6 20 6C12.268 6 6 12.268 6 20C6 27.732 12.268 34 20 34C23.2971 34 26.3279 32.8603 28.7201 30.9533C28.0724 30.3571 27.4588 29.7682 26.9206 29.1853Z"/>
<path d="M32.5 31L31.7025 30.2807C28.87 27.7357 27 26.0518 27 23.9973C27 22.3134 28.331 21 30.025 21C30.982 21 31.9005 21.4414 32.5 22.1335C33.0995 21.4414 34.018 21 34.975 21C36.669 21 38 22.3134 38 23.9973C38 26.0518 36.13 27.7357 33.2975 30.2807L32.5 31Z"/>
<path d="M21.9761 23.781L20.6008 25.5001L21.9761 27.2192L20.0239 28.781L17.3992 25.5001L20.0239 22.2192L21.9761 23.781Z"/>
<path d="M18 16.5C18 17.8807 16.8807 19 15.5 19C14.1193 19 13 17.8807 13 16.5C13 15.1193 14.1193 14 15.5 14C16.8807 14 18 15.1193 18 16.5Z"/>
<path d="M24.5 19C25.8807 19 27 17.8807 27 16.5C27 15.1193 25.8807 14 24.5 14C23.1193 14 22 15.1193 22 16.5C22 17.8807 23.1193 19 24.5 19Z"/>
</svg>
