<svg width="40" height="40" viewBox="0 0 40 40" xmlns="http://www.w3.org/2000/svg">
<path d="M18 22C18 23.1046 17.1046 24 16 24C14.8954 24 14 23.1046 14 22C14 20.8954 14.8954 20 16 20C17.1046 20 18 20.8954 18 22Z"/>
<path d="M24 24C25.1046 24 26 23.1046 26 22C26 20.8954 25.1046 20 24 20C22.8954 20 22 20.8954 22 22C22 23.1046 22.8954 24 24 24Z"/>
<path fill-rule="evenodd" clip-rule="evenodd" d="M32.8566 18.0625C31.921 11.8017 26.5213 7 20 7C12.8203 7 7 12.8203 7 20C7 20.62 7.04341 21.2299 7.12735 21.8268C8.0154 28.1416 13.4403 33 20 33C27.1797 33 33 27.1797 33 20C33 19.3416 32.951 18.6946 32.8566 18.0625ZM9.56511 21.1759C10.1496 26.4214 14.5985 30.5 20 30.5C25.799 30.5 30.5 25.799 30.5 20C30.5 19.5851 30.4759 19.1758 30.4291 18.7734C29.6422 18.9222 28.8302 19 28 19C23.5391 19 19.603 16.7532 17.2617 13.3294C15.9842 16.9474 13.1507 19.8309 9.56511 21.1759Z"/>
</svg>
