<svg width="40" height="40" viewBox="0 0 40 40" xmlns="http://www.w3.org/2000/svg">
<path fill-rule="evenodd" clip-rule="evenodd" d="M28 5.5H34.5V12H37V3H28V5.5ZM37 28H34.5V34.5H28V37H37V28ZM5.5 34.5H12V37H3V28H5.5V34.5ZM3 3V12H5.5V5.5H12V3H3ZM20 8.93262C25.6519 8.93262 30.3319 13.0944 31.1425 18.5206C31.2243 19.0683 31.2667 19.6288 31.2667 20.1993C31.2667 26.4217 26.2224 31.466 20 31.466C14.315 31.466 9.61342 27.2554 8.84372 21.7826C8.77096 21.2653 8.73334 20.7367 8.73334 20.1993C8.73334 13.9769 13.7776 8.93262 20 8.93262ZM20 28.966C15.4597 28.966 11.7255 25.5144 11.2782 21.0921C14.233 19.8783 16.558 17.445 17.6267 14.4185C19.6559 17.3858 23.0672 19.3331 26.9333 19.3331C27.5377 19.3331 28.131 19.2855 28.7096 19.1939C28.7473 19.5238 28.7667 19.8593 28.7667 20.1993C28.7667 25.041 24.8417 28.966 20 28.966ZM16.5333 23.6659C17.4906 23.6659 18.2667 22.8898 18.2667 21.9326C18.2667 20.9753 17.4906 20.1992 16.5333 20.1992C15.576 20.1992 14.8 20.9753 14.8 21.9326C14.8 22.8898 15.576 23.6659 16.5333 23.6659ZM25.2 21.9326C25.2 22.8898 24.424 23.6659 23.4667 23.6659C22.5094 23.6659 21.7333 22.8898 21.7333 21.9326C21.7333 20.9753 22.5094 20.1992 23.4667 20.1992C24.424 20.1992 25.2 20.9753 25.2 21.9326Z"/>
</svg>
