<svg width="40" height="40" viewBox="0 0 40 40" xmlns="http://www.w3.org/2000/svg">
<path fill-rule="evenodd" clip-rule="evenodd" d="M13 3L23 6L33 3V16.5401C32.2062 16.1933 31.3695 15.9265 30.5 15.75V6.36008L24.25 8.23508V16.0723C23.3708 16.3484 22.5335 16.719 21.75 17.1723V8.23508L14.25 5.98508V22.7649L16.3729 23.4018C16.0691 24.1693 15.8391 24.9742 15.6916 25.8075L13 25L3 28V6L13 3ZM11.75 5.98508V22.7649L5.5 24.6399V7.86008L11.75 5.98508Z"/>
<path d="M23.3333 26.75H32.6667V29.25H23.3333V26.75Z"/>
<path fill-rule="evenodd" clip-rule="evenodd" d="M28 38C33.5228 38 38 33.5228 38 28C38 22.4772 33.5228 18 28 18C22.4772 18 18 22.4772 18 28C18 33.5228 22.4772 38 28 38ZM28 35.5C32.1421 35.5 35.5 32.1421 35.5 28C35.5 23.8579 32.1421 20.5 28 20.5C23.8579 20.5 20.5 23.8579 20.5 28C20.5 32.1421 23.8579 35.5 28 35.5Z"/>
</svg>
