<svg width="40" height="40" viewBox="0 0 40 40" xmlns="http://www.w3.org/2000/svg">
<path d="M5.11609 6.88398L33.1161 34.884L34.8839 33.1162L6.88386 5.11621L5.11609 6.88398Z"/>
<path d="M8.99997 16.7407C8.99997 15.9848 9.07994 15.2472 9.23207 14.5354L11.5004 16.8037C11.5166 18.0398 12.0074 19.653 12.9525 21.5337C13.8926 23.4044 15.1736 25.3285 16.4982 27.0902C17.7564 28.7636 19.0202 30.2458 20 31.3401C20.7859 30.4624 21.7545 29.3351 22.7564 28.0597L24.5363 29.8397C23.4954 31.1519 22.5021 32.2986 21.7117 33.1756C20.6844 34.3156 20 35 20 35C20 35 19.3156 34.3156 18.2882 33.1756C15.1968 29.7452 8.99997 22.1893 8.99997 16.7407Z"/>
<path d="M28.826 23.5228L26.9766 21.6734C27.0004 21.6268 27.024 21.5802 27.0474 21.5337C28.0087 19.6209 28.5 17.9848 28.5 16.7407C28.5 12.2454 24.7509 8.5 20 8.5C18.2191 8.5 16.579 9.02627 15.2243 9.92105L13.4292 8.12597C15.2626 6.79055 17.5368 6 20 6C26.0751 6 31 10.8088 31 16.7407C31 18.8111 30.1052 21.1858 28.826 23.5228Z"/>
<path d="M20 12C19.2138 12 18.4699 12.1815 17.8081 12.5048L19.8103 14.5071C19.8729 14.5024 19.9362 14.5 20 14.5C21.3807 14.5 22.5 15.6193 22.5 17C22.5 17.0638 22.4976 17.127 22.4929 17.1896L24.4952 19.1919C24.8185 18.5301 25 17.7862 25 17C25 14.2386 22.7614 12 20 12Z"/>
</svg>
