<svg width="40" height="40" viewBox="0 0 40 40" xmlns="http://www.w3.org/2000/svg">
<path d="M21.4043 19.9997H18.2043C18.2043 18.7466 19.1221 17.9064 19.9746 17.1259C20.714 16.4491 21.4043 15.8172 21.4043 14.9997C21.4043 14.2997 20.9443 13.8397 19.9243 13.8397C18.8243 13.8397 18.1643 14.5797 17.7643 15.5197L15.0043 13.9397C15.8843 11.8797 17.8243 10.7197 20.0443 10.7197C22.3243 10.7197 24.6043 12.1197 24.6043 14.7197C24.6043 16.493 23.4712 17.5368 22.5535 18.3822C21.929 18.9575 21.4043 19.4409 21.4043 19.9997Z"/>
<path d="M21.7043 23.3797C21.7043 24.4197 20.8443 25.2797 19.8043 25.2797C18.7643 25.2797 17.9043 24.4197 17.9043 23.3797C17.9043 22.3397 18.7643 21.4797 19.8043 21.4797C20.8443 21.4797 21.7043 22.3397 21.7043 23.3797Z"/>
<path fill-rule="evenodd" clip-rule="evenodd" d="M31 16.7407C31 22.1893 24.8032 29.7452 21.7118 33.1756C20.6844 34.3156 20 35 20 35C20 35 19.3156 34.3156 18.2882 33.1756C15.1968 29.7452 9 22.1893 9 16.7407C9 10.8088 13.9249 6 20 6C26.0751 6 31 10.8088 31 16.7407ZM28.5 16.7407C28.5 17.9848 28.0087 19.6209 27.0475 21.5337C26.1073 23.4044 24.8264 25.3285 23.5018 27.0902C22.2436 28.7636 20.9798 30.2458 20 31.3401C19.0202 30.2458 17.7564 28.7636 16.4982 27.0902C15.1736 25.3285 13.8927 23.4044 12.9525 21.5337C11.9913 19.6209 11.5 17.9848 11.5 16.7407C11.5 12.2454 15.249 8.5 20 8.5C24.751 8.5 28.5 12.2454 28.5 16.7407Z"/>
</svg>
