<svg width="40" height="40" viewBox="0 0 40 40" xmlns="http://www.w3.org/2000/svg">
<path fill-rule="evenodd" clip-rule="evenodd" d="M13 3L23 6L33 3V16.5401C32.2062 16.1933 31.3695 15.9265 30.5 15.75V6.36008L24.25 8.23508V16.0723C23.3708 16.3484 22.5335 16.719 21.75 17.1723V8.23508L14.25 5.98508V22.7649L16.3729 23.4018C16.0691 24.1693 15.8391 24.9742 15.6916 25.8075L13 25L3 28V6L13 3ZM11.75 5.98508V22.7649L5.5 24.6399V7.86008L11.75 5.98508Z"/>
<path fill-rule="evenodd" clip-rule="evenodd" d="M27.3516 22.5C24.6721 22.5 22.5 24.6721 22.5 27.3516C22.5 30.0311 24.6721 32.2032 27.3516 32.2032C28.3419 32.2032 29.2639 31.906 30.0318 31.3962L32.1356 33.5L33.5 32.1356L31.3962 30.0318C31.906 29.2639 32.2032 28.3419 32.2032 27.3516C32.2032 24.6721 30.031 22.5 27.3516 22.5ZM24.4295 27.3516C24.4295 25.7378 25.7378 24.4295 27.3516 24.4295C28.9654 24.4295 30.2736 25.7378 30.2736 27.3516C30.2736 28.9654 28.9654 30.2737 27.3516 30.2737C25.7378 30.2737 24.4295 28.9654 24.4295 27.3516Z"/>
<path fill-rule="evenodd" clip-rule="evenodd" d="M28 38C33.5228 38 38 33.5228 38 28C38 22.4772 33.5228 18 28 18C22.4772 18 18 22.4772 18 28C18 33.5228 22.4772 38 28 38ZM28 35.5C32.1421 35.5 35.5 32.1421 35.5 28C35.5 23.8579 32.1421 20.5 28 20.5C23.8579 20.5 20.5 23.8579 20.5 28C20.5 32.1421 23.8579 35.5 28 35.5Z"/>
</svg>
