<svg width="40" height="40" viewBox="0 0 40 40" xmlns="http://www.w3.org/2000/svg">
<path d="M21.1973 20H18.7973L18.1973 15V11H21.7973V15L21.1973 20Z"/>
<path d="M21.8973 23.38C21.8973 24.42 21.0373 25.28 19.9973 25.28C18.9573 25.28 18.0973 24.42 18.0973 23.38C18.0973 22.34 18.9573 21.48 19.9973 21.48C21.0373 21.48 21.8973 22.34 21.8973 23.38Z"/>
<path fill-rule="evenodd" clip-rule="evenodd" d="M31 16.7407C31 22.1893 24.8032 29.7452 21.7118 33.1756C20.6844 34.3156 20 35 20 35C20 35 19.3156 34.3156 18.2882 33.1756C15.1968 29.7452 9 22.1893 9 16.7407C9 10.8088 13.9249 6 20 6C26.0751 6 31 10.8088 31 16.7407ZM28.5 16.7407C28.5 17.9848 28.0087 19.6209 27.0475 21.5337C26.1073 23.4044 24.8264 25.3285 23.5018 27.0902C22.2436 28.7636 20.9798 30.2458 20 31.3401C19.0202 30.2458 17.7564 28.7636 16.4982 27.0902C15.1736 25.3285 13.8927 23.4044 12.9525 21.5337C11.9913 19.6209 11.5 17.9848 11.5 16.7407C11.5 12.2454 15.249 8.5 20 8.5C24.751 8.5 28.5 12.2454 28.5 16.7407Z"/>
</svg>
