<svg width="40" height="40" viewBox="0 0 40 40" xmlns="http://www.w3.org/2000/svg">
<path d="M21.5 13.7407C21.5 14.9198 21.0587 16.4511 20.1942 18.2362C21.217 17.4175 22.3711 16.7562 23.62 16.2889C23.8632 15.4066 24 14.5504 24 13.7407C24 7.80879 19.0751 3 13 3C6.92487 3 2 7.80879 2 13.7407C2 19.1893 8.19684 26.7452 11.2882 30.1756C12.3156 31.3156 13 32 13 32C13 32 13.6844 31.3156 14.7118 30.1756C14.9737 29.885 15.2578 29.5647 15.5587 29.2187C15.5199 28.8177 15.5 28.4112 15.5 28C15.5 26.9258 15.6355 25.8833 15.8903 24.8886C14.8411 26.2343 13.8209 27.4233 13 28.3401C12.0202 27.2458 10.7564 25.7636 9.49818 24.0902C8.17358 22.3285 6.89268 20.4044 5.95255 18.5337C4.99131 16.6209 4.5 14.9848 4.5 13.7407C4.5 9.24538 8.24903 5.5 13 5.5C17.751 5.5 21.5 9.24538 21.5 13.7407Z"/>
<path fill-rule="evenodd" clip-rule="evenodd" d="M18 14C18 16.7614 15.7614 19 13 19C10.2386 19 8 16.7614 8 14C8 11.2386 10.2386 9 13 9C15.7614 9 18 11.2386 18 14ZM15.5 14C15.5 15.3807 14.3807 16.5 13 16.5C11.6193 16.5 10.5 15.3807 10.5 14C10.5 12.6193 11.6193 11.5 13 11.5C14.3807 11.5 15.5 12.6193 15.5 14Z"/>
<path d="M23.3333 26.75H32.6667V29.25H23.3333V26.75Z"/>
<path fill-rule="evenodd" clip-rule="evenodd" d="M28 38C33.5228 38 38 33.5228 38 28C38 22.4772 33.5228 18 28 18C22.4772 18 18 22.4772 18 28C18 33.5228 22.4772 38 28 38ZM28 35.5C32.1421 35.5 35.5 32.1421 35.5 28C35.5 23.8579 32.1421 20.5 28 20.5C23.8579 20.5 20.5 23.8579 20.5 28C20.5 32.1421 23.8579 35.5 28 35.5Z"/>
</svg>
