<svg width="40" height="40" viewBox="0 0 40 40" xmlns="http://www.w3.org/2000/svg">
<path d="M16 6C16.0351 6 16.0701 6.00016 16.1051 6.00048C14.9249 6.83558 13.8863 7.85356 13.0341 9.01373C9.77859 10.1874 7.5 13.2361 7.5 16.7407C7.5 17.9848 7.99131 19.6209 8.95255 21.5337C9.89268 23.4044 11.1736 25.3285 12.4982 27.0902C13.7564 28.7636 15.0202 30.2458 16 31.3401C16.2429 31.0688 16.5033 30.7737 16.7767 30.4577C17.3144 31.1618 17.848 31.8293 18.3587 32.4478C18.1314 32.707 17.9149 32.9502 17.7118 33.1756C16.6844 34.3156 16 35 16 35C16 35 15.3156 34.3156 14.2882 33.1756C11.1968 29.7452 5 22.1893 5 16.7407C5 10.8088 9.92487 6 16 6Z"/>
<path fill-rule="evenodd" clip-rule="evenodd" d="M24 22C26.7614 22 29 19.7614 29 17C29 14.2386 26.7614 12 24 12C21.2386 12 19 14.2386 19 17C19 19.7614 21.2386 22 24 22ZM24 19.5C25.3807 19.5 26.5 18.3807 26.5 17C26.5 15.6193 25.3807 14.5 24 14.5C22.6193 14.5 21.5 15.6193 21.5 17C21.5 18.3807 22.6193 19.5 24 19.5Z"/>
<path fill-rule="evenodd" clip-rule="evenodd" d="M25.7118 33.1756C28.8032 29.7452 35 22.1893 35 16.7407C35 10.8088 30.0751 6 24 6C17.9249 6 13 10.8088 13 16.7407C13 22.1893 19.1968 29.7452 22.2882 33.1756C23.3156 34.3156 24 35 24 35C24 35 24.6844 34.3156 25.7118 33.1756ZM31.0475 21.5337C32.0087 19.6209 32.5 17.9848 32.5 16.7407C32.5 12.2454 28.751 8.5 24 8.5C19.249 8.5 15.5 12.2454 15.5 16.7407C15.5 17.9848 15.9913 19.6209 16.9525 21.5337C17.8927 23.4044 19.1736 25.3285 20.4982 27.0902C21.7564 28.7636 23.0202 30.2458 24 31.3401C24.9798 30.2458 26.2436 28.7636 27.5018 27.0902C28.8264 25.3285 30.1073 23.4044 31.0475 21.5337Z"/>
</svg>
