<svg width="40" height="40" viewBox="0 0 40 40" xmlns="http://www.w3.org/2000/svg">
<path fill-rule="evenodd" clip-rule="evenodd" d="M20 18C22.7614 18 25 15.7614 25 13C25 10.2386 22.7614 8 20 8C17.2386 8 15 10.2386 15 13C15 15.7614 17.2386 18 20 18ZM20 15.5C21.3807 15.5 22.5 14.3807 22.5 13C22.5 11.6193 21.3807 10.5 20 10.5C18.6193 10.5 17.5 11.6193 17.5 13C17.5 14.3807 18.6193 15.5 20 15.5Z"/>
<path fill-rule="evenodd" clip-rule="evenodd" d="M21.7118 29.1756C24.8032 25.7452 31 18.1893 31 12.7407C31 6.80879 26.0751 2 20 2C13.9249 2 9 6.80879 9 12.7407C9 18.1893 15.1968 25.7452 18.2882 29.1756C19.3156 30.3156 20 31 20 31C20 31 20.6844 30.3156 21.7118 29.1756ZM27.0475 17.5337C28.0087 15.6209 28.5 13.9848 28.5 12.7407C28.5 8.24538 24.751 4.5 20 4.5C15.249 4.5 11.5 8.24538 11.5 12.7407C11.5 13.9848 11.9913 15.6209 12.9525 17.5337C13.8927 19.4044 15.1736 21.3285 16.4982 23.0902C17.7564 24.7636 19.0202 26.2458 20 27.3401C20.9798 26.2458 22.2436 24.7636 23.5018 23.0902C24.8264 21.3285 26.1073 19.4044 27.0475 17.5337Z"/>
<path fill-rule="evenodd" clip-rule="evenodd" d="M5 32.9998C5 30.8776 8.96644 29.0642 14.563 28.3384C15.2309 29.1712 15.8788 29.9465 16.4806 30.6467C14.0014 30.8583 11.8373 31.2849 10.184 31.836C8.99214 32.2333 8.19842 32.6518 7.74838 32.9998C8.19842 33.3479 8.99214 33.7664 10.184 34.1636C12.5811 34.9627 16.0518 35.4998 20 35.4998C23.9482 35.4998 27.4189 34.9627 29.816 34.1636C31.0079 33.7664 31.8016 33.3479 32.2516 32.9998C31.8016 32.6518 31.0079 32.2333 29.816 31.836C28.1627 31.2849 25.9986 30.8583 23.5194 30.6467C24.1212 29.9465 24.7691 29.1712 25.437 28.3384C31.0336 29.0642 35 30.8776 35 32.9998C35 35.7612 28.2843 37.9998 20 37.9998C11.7157 37.9998 5 35.7612 5 32.9998ZM32.5647 32.6995C32.5647 32.6995 32.5624 32.7051 32.5545 32.7162C32.5602 32.705 32.5647 32.6995 32.5647 32.6995ZM7.43529 32.6995C7.43529 32.6995 7.43979 32.705 7.44549 32.7162C7.43759 32.7051 7.43529 32.6995 7.43529 32.6995ZM7.43529 33.3001C7.43529 33.3001 7.43759 33.2945 7.44549 33.2835C7.43979 33.2946 7.43529 33.3001 7.43529 33.3001ZM32.5545 33.2835C32.5624 33.2945 32.5647 33.3001 32.5647 33.3001C32.5647 33.3001 32.5602 33.2946 32.5545 33.2835Z"/>
</svg>
