<svg width="40" height="40" viewBox="0 0 40 40" xmlns="http://www.w3.org/2000/svg">
<path fill-rule="evenodd" clip-rule="evenodd" d="M11.9715 30.0175L11.0288 23.4461L9.04902 23.7301L10.2758 32.2813L15.6955 31.5038L14.2978 23.4731L12.3274 23.816L13.3718 29.8166L11.9715 30.0175Z"/>
<path fill-rule="evenodd" clip-rule="evenodd" d="M13.4949 16.3692H9.85614V22.1904H13.4949V16.3692ZM7.85614 14.3692V24.1904H15.4949V14.3692H7.85614Z"/>
<path fill-rule="evenodd" clip-rule="evenodd" d="M25.9205 7.57178H32.2855V31.7377H25.9205V7.57178ZM27.9205 9.57178V29.7377H30.2855V9.57178H27.9205Z"/>
<path fill-rule="evenodd" clip-rule="evenodd" d="M27.9528 9.05837V30.0448L13.9491 24.316V14.8058L27.9528 9.05837ZM15.9491 16.1468V22.9733L25.9528 27.0658V12.0411L15.9491 16.1468Z"/>
<path fill-rule="evenodd" clip-rule="evenodd" d="M4.71423 16.1431H8.67329V18.1431H6.71423V20.0885H8.67329V22.0885H4.71423V16.1431Z"/>
</svg>
