<svg width="40" height="40" viewBox="0 0 40 40" xmlns="http://www.w3.org/2000/svg">
<path fill-rule="evenodd" clip-rule="evenodd" d="M29.5 6H19.5V10H20.459V12H20.4615L17 18.2857V19H20.0755C20.9829 18.7462 22.3369 18.5 24.2174 18.5C26.6308 18.5 28.4309 18.9056 29.5 19.2254V31.5H20.2657L19.8461 34H32V18.2857L28.5385 12H28.5525V10H29.5V6ZM26 11V12L28.3621 16.5892C27.2525 16.372 25.8605 16.2 24.2174 16.2C22.7911 16.2 21.6202 16.3296 20.6798 16.5079L23 12V11H26Z"/>
<path fill-rule="evenodd" clip-rule="evenodd" d="M8 21L10.1818 34H17.8182L20 21H8ZM10.5 23L10.8333 25H17.1667L17.5 23H10.5ZM12 32L11.25 27.5H16.75L16 32H12Z"/>
</svg>
