<svg width="40" height="40" viewBox="0 0 40 40" xmlns="http://www.w3.org/2000/svg">
<path d="M15 11C15.8454 11 16.6636 11.1166 17.4394 11.3345C16.7041 11.9766 16.0513 12.7107 15.4989 13.5189C15.3343 13.5064 15.1679 13.5 15 13.5C11.4101 13.5 8.5 16.4101 8.5 20C8.5 23.5899 11.4101 26.5 15 26.5C15.1679 26.5 15.3343 26.4936 15.4989 26.4811C16.0513 27.2893 16.7041 28.0234 17.4394 28.6655C16.6636 28.8834 15.8454 29 15 29C10.0294 29 6 24.9706 6 20C6 15.0294 10.0294 11 15 11Z"/>
<path fill-rule="evenodd" clip-rule="evenodd" d="M34 20C34 24.9706 29.9706 29 25 29C20.0294 29 16 24.9706 16 20C16 15.0294 20.0294 11 25 11C29.9706 11 34 15.0294 34 20ZM31.5 20C31.5 23.5899 28.5899 26.5 25 26.5C21.4101 26.5 18.5 23.5899 18.5 20C18.5 16.4101 21.4101 13.5 25 13.5C28.5899 13.5 31.5 16.4101 31.5 20Z"/>
</svg>
