<svg width="40" height="40" viewBox="0 0 40 40" xmlns="http://www.w3.org/2000/svg">
<path d="M23.0856 20.4261C23.9589 19.7375 24.6159 20.1456 24.8488 20.6301C25.2647 21.4802 24.7989 21.8968 23.7427 22.5854C22.8444 23.172 21.6218 23.4015 20.8317 23.478L21.4887 24.1666L23.9672 26.6999C24.3498 27.091 24.3498 27.7115 23.9672 28.0771L23.8591 28.2131C23.4765 28.5956 22.8694 28.5956 22.4951 28.2131L22.4944 28.2123C21.8623 27.5663 20.9561 26.64 20 25.6798L17.5298 28.2131C17.1556 28.5956 16.5401 28.5956 16.1659 28.2131L16.0494 28.0771C15.6751 27.7115 15.6751 27.091 16.0494 26.6999C16.6604 26.0671 17.5505 25.1652 18.4777 24.2258L18.5362 24.1666L19.2016 23.4865C18.4031 23.4015 17.1639 23.1805 16.2573 22.5854C15.2011 21.8968 14.7353 21.4802 15.1512 20.6301C15.3841 20.1456 16.0411 19.7375 16.9144 20.4261C18.1037 21.3952 20 21.3952 20 21.3952C20 21.3952 21.8963 21.3952 23.0856 20.4261Z"/>
<path fill-rule="evenodd" clip-rule="evenodd" d="M24.2084 15.8015C24.2084 18.1818 22.3288 20.1031 20 20.1031C17.6712 20.1031 15.7916 18.1818 15.7916 15.8015C15.7916 13.4297 17.6712 11.5 20 11.5C22.3288 11.5 24.2084 13.4297 24.2084 15.8015ZM22.0793 15.8015C22.0793 14.6369 21.1477 13.6848 20 13.6848C18.8523 13.6848 17.9207 14.6369 17.9207 15.8015C17.9207 16.9747 18.8523 17.9183 20 17.9183C21.1477 17.9183 22.0793 16.9747 22.0793 15.8015Z"/>
<path fill-rule="evenodd" clip-rule="evenodd" d="M35 20C35 28.2843 28.2843 35 20 35C11.7157 35 5 28.2843 5 20C5 11.7157 11.7157 5 20 5C28.2843 5 35 11.7157 35 20ZM32.5 20C32.5 26.9036 26.9036 32.5 20 32.5C13.0964 32.5 7.5 26.9036 7.5 20C7.5 13.0964 13.0964 7.5 20 7.5C26.9036 7.5 32.5 13.0964 32.5 20Z"/>
</svg>
