<svg width="40" height="40" viewBox="0 0 40 40" xmlns="http://www.w3.org/2000/svg">
<path d="M20.0551 12.67C21.4324 12.67 22.5502 13.7902 22.5502 15.1604C22.5502 16.5405 21.4324 17.6507 20.0551 17.6507C18.6778 17.6507 17.56 16.5405 17.56 15.1604C17.56 13.7902 18.6778 12.67 20.0551 12.67Z"/>
<path fill-rule="evenodd" clip-rule="evenodd" d="M11.941 19.6625C12.1927 19.1527 12.5976 18.6376 13.1548 18.249C12.7339 17.3061 12.5 16.2609 12.5 15.1607C12.5 10.9978 15.8667 7.6001 20.0501 7.6001C24.2334 7.6001 27.6002 10.9978 27.6002 15.1607C27.6002 16.2821 27.3572 17.3463 26.9209 18.3033C27.4393 18.6849 27.8189 19.1762 28.059 19.6626C28.2959 20.1391 28.5071 20.752 28.4998 21.4647C28.4921 22.2219 28.2406 22.8726 27.8885 23.3934C27.3232 24.2296 26.4145 24.8101 25.8685 25.1589L25.8375 25.1786C25.7816 25.2144 25.7253 25.2493 25.6686 25.2833L26.5303 26.1468C27.881 27.5003 28.0099 29.7465 26.6236 31.2048L26.4829 31.3783L26.381 31.4782C24.9612 32.8701 22.6629 32.8983 21.2264 31.4607L21.2245 31.4589C20.8788 31.1125 20.4663 30.6991 20.012 30.2457L18.8054 31.4589C17.3796 32.8877 15.0553 32.8877 13.6294 31.4589L13.5706 31.4L13.4299 31.2388C12.0245 29.7871 12.1374 27.5318 13.4704 26.1664L13.478 26.1586C13.7311 25.9016 14.0228 25.6081 14.3412 25.2895C14.2802 25.2529 14.2196 25.2154 14.1596 25.1768L14.1315 25.1589C13.5855 24.8101 12.6768 24.2296 12.1115 23.3934C11.7595 22.8726 11.5079 22.2219 11.5002 21.4647C11.4929 20.752 11.7042 20.139 11.941 19.6625ZM25.1002 15.1607C25.1002 17.9611 22.8446 20.2214 20.0501 20.2214C17.2556 20.2214 15 17.9611 15 15.1607C15 12.3704 17.2556 10.1001 20.0501 10.1001C22.8446 10.1001 25.1002 12.3704 25.1002 15.1607ZM16.2973 20.5318C17.7245 21.672 20 21.672 20 21.672C20 21.672 22.2755 21.672 23.7027 20.5318C24.7507 19.7217 25.5391 20.2018 25.8186 20.7718C26.3176 21.772 25.7587 22.262 24.4912 23.0721C24.2801 23.2072 24.0542 23.3263 23.8201 23.431C23.5615 23.5467 23.293 23.6449 23.0238 23.7281L22.9798 23.7416L22.9567 23.7485C22.2473 23.9612 21.5384 24.071 20.998 24.1223L21.7865 24.9324L24.7607 27.9127C25.2198 28.3728 25.2198 29.1029 24.7607 29.5329L24.6309 29.693C24.1718 30.143 23.4431 30.1429 22.994 29.6928C22.2355 28.9328 21.1474 27.8424 20 26.7126L17.0358 29.693C16.5867 30.143 15.8481 30.143 15.399 29.693L15.2593 29.5329C14.8102 29.1029 14.8102 28.3728 15.2593 27.9127C15.6985 27.4668 16.2579 26.9073 16.875 26.2927C17.2863 25.8831 17.7232 25.4491 18.1674 25.0079L18.2434 24.9324L19.0419 24.1323L19.0405 24.1321C18.5265 24.0784 17.8606 23.9787 17.1858 23.7897C17.1497 23.7796 17.1137 23.7693 17.0776 23.7587L17.063 23.7543C17.0015 23.7362 16.9401 23.7172 16.8787 23.6975C16.6486 23.6234 16.4199 23.5381 16.1984 23.44C15.9576 23.3333 15.7253 23.2114 15.5088 23.0721C14.2413 22.262 13.6824 21.772 14.1814 20.7718C14.4609 20.2018 15.2493 19.7217 16.2973 20.5318Z"/>
</svg>
