<svg width="40" height="40" viewBox="0 0 40 40" xmlns="http://www.w3.org/2000/svg">
<path d="M15 17.5C15 18.3284 14.3284 19 13.5 19C12.6716 19 12 18.3284 12 17.5C12 16.6716 12.6716 16 13.5 16C14.3284 16 15 16.6716 15 17.5Z"/>
<path d="M17.5 15C18.3284 15 19 14.3284 19 13.5C19 12.6716 18.3284 12 17.5 12C16.6716 12 16 12.6716 16 13.5C16 14.3284 16.6716 15 17.5 15Z"/>
<path d="M24 13.5C24 14.3284 23.3284 15 22.5 15C21.6716 15 21 14.3284 21 13.5C21 12.6716 21.6716 12 22.5 12C23.3284 12 24 12.6716 24 13.5Z"/>
<path d="M26.5 19C27.3284 19 28 18.3284 28 17.5C28 16.6716 27.3284 16 26.5 16C25.6716 16 25 16.6716 25 17.5C25 18.3284 25.6716 19 26.5 19Z"/>
<path fill-rule="evenodd" clip-rule="evenodd" d="M20.6939 7C30.2031 7 36.7865 19.1192 30.5689 23.8935C27.7311 26.0725 25.568 25.9357 23.9709 25.8346C22.8614 25.7644 22.025 25.7115 21.4253 26.4642C20.5685 27.5396 20.9662 28.2372 21.4429 29.0732C21.7801 29.6647 22.1568 30.3255 22.1568 31.2385C22.1568 33.442 17.2635 33.728 13.0133 31.2385C8.62438 28.6677 6.35295 23.159 7.16141 18.0175C7.73888 14.345 11.1846 7 20.6939 7ZM29.3545 14.8899C27.6413 11.87 24.3629 9.5 20.6939 9.5C16.665 9.5 14.0828 11.0237 12.4138 12.8288C10.6759 14.7084 9.85458 16.9843 9.63107 18.4058C8.96098 22.6673 10.8881 27.0964 14.2768 29.0813C16.0409 30.1146 17.8759 30.5244 19.128 30.4989C19.2107 30.4972 19.2887 30.4936 19.3618 30.4886C19.2781 30.3376 19.1712 30.1435 19.0346 29.8863C18.8044 29.4529 18.4224 28.6703 18.4224 27.675C18.4224 26.6021 18.8544 25.6791 19.47 24.9064C20.4047 23.7333 21.6168 23.3837 22.62 23.3133C23.0661 23.282 23.5017 23.3023 23.8377 23.3217C23.9564 23.3286 24.0641 23.3354 24.1662 23.3419C24.3934 23.3563 24.5928 23.3689 24.8229 23.3763C25.8913 23.4108 27.2033 23.3258 29.0463 21.9106C30.7165 20.6281 31.1251 18.0112 29.3545 14.8899Z"/>
</svg>
