<svg width="40" height="40" viewBox="0 0 40 40" xmlns="http://www.w3.org/2000/svg">
<path fill-rule="evenodd" clip-rule="evenodd" d="M27 36H29.5V30.6123C30.1807 30.8632 30.9164 31.0002 31.6842 31.0002C35.1723 31.0002 38 28.1725 38 24.6844C38 23.3816 37.6055 22.171 36.9296 21.1654C36.1431 19.9954 35.9975 18.1622 36.5265 16.8554C36.7979 16.185 36.9473 15.4521 36.9473 14.6844C36.9473 12.539 35.7804 10.6662 34.0467 9.66601C33.247 9.20468 32.7368 8.23916 32.7368 7.31594C32.7368 4.69986 30.6161 2.5791 28 2.5791C25.3839 2.5791 23.2632 4.69986 23.2632 7.31594C23.2632 8.23916 22.753 9.20468 21.9533 9.66601C20.2196 10.6662 19.0527 12.539 19.0527 14.6844C19.0527 15.4521 19.2021 16.185 19.4735 16.8554C20.0024 18.1621 19.8569 19.9954 19.0704 21.1653C18.3944 22.1709 18 23.3816 18 24.6844C18 28.1725 20.8277 31.0002 24.3158 31.0002C25.1773 31.0002 25.9985 30.8277 26.7468 30.5153C26.8299 30.4806 26.9144 30.4496 27 30.4222V36ZM30.2368 7.31594C30.2368 6.08057 29.2354 5.0791 28 5.0791C26.7646 5.0791 25.7632 6.08057 25.7632 7.31594C25.7632 9.04735 24.8473 10.8827 23.2026 11.8315C22.211 12.4035 21.5527 13.4686 21.5527 14.6844C21.5527 15.1252 21.638 15.5399 21.7908 15.9174C22.6105 17.9422 22.425 20.6562 21.1452 22.56C20.7377 23.1662 20.5 23.8938 20.5 24.6844C20.5 26.7918 22.2084 28.5002 24.3158 28.5002C24.8409 28.5002 25.3352 28.3955 25.7838 28.2082C26.1763 28.0444 26.5847 27.9262 27 27.8536V25.9853L26.9749 26.0104L22.7322 21.7678L24.5 20L27 22.5V21.8444C26.8397 21.7746 26.6849 21.6872 26.5385 21.5822C25.0993 20.5494 25.1607 18.4017 26.6336 17.444C26.7513 17.3675 26.8739 17.3018 27 17.2469V13H29.5V16.7427L32.243 13.9997L34.0108 15.7674L30.4934 19.2848C30.5793 20.1215 30.2491 20.9954 29.5 21.554V27.9641C29.7431 28.0293 29.9824 28.1107 30.2161 28.2082C30.6647 28.3955 31.1591 28.5002 31.6842 28.5002C33.7916 28.5002 35.5 26.7918 35.5 24.6844C35.5 23.8938 35.2622 23.1662 34.8547 22.56C33.575 20.6562 33.3895 17.9422 34.2092 15.9174C34.362 15.5399 34.4473 15.1252 34.4473 14.6844C34.4473 13.4686 33.789 12.4035 32.7974 11.8315C31.1527 10.8827 30.2368 9.04735 30.2368 7.31594ZM29.5 21.5375C30.231 20.9895 30.5626 20.127 30.4813 19.2969L29.5 20.2782V21.5375ZM27 17.2615C26.8764 17.3156 26.7563 17.3802 26.6409 17.4553C26.609 17.4761 26.5774 17.4976 26.5462 17.52C25.1574 18.5167 25.163 20.5829 26.5463 21.5714C26.5772 21.5935 26.6089 21.6151 26.6412 21.6361C26.7566 21.7111 26.8767 21.7756 27 21.8297V17.2615Z"/>
<path fill-rule="evenodd" clip-rule="evenodd" d="M16 31H17V33.5H16V36H13.5V33.5H6.5V36H4V33.5H3V31H4V26.5H16V31ZM13.5 31V29H6.5V31H13.5Z"/>
</svg>
