<svg width="40" height="40" viewBox="0 0 40 40" xmlns="http://www.w3.org/2000/svg">
<path d="M20 6H5V8.5H20V6Z"/>
<path fill-rule="evenodd" clip-rule="evenodd" d="M25.4028 15.0767L30.4794 20.1533L35.556 15.0767L30.4794 10L25.4028 15.0767ZM30.4794 13.5356L28.9383 15.0767L30.4794 16.6178L32.0205 15.0767L30.4794 13.5356Z"/>
<path fill-rule="evenodd" clip-rule="evenodd" d="M15.2495 35.3832L9.53831 36.0178L10.1729 30.3066L24.1336 16.3459L29.2102 21.4225L15.2495 35.3832ZM12.5608 31.4543L12.3681 33.188L14.1018 32.9954L25.6747 21.4225L24.1336 19.8814L12.5608 31.4543Z"/>
<path d="M5 12H20V14.5H5V12Z"/>
<path d="M13 18H5V20.5H13V18Z"/>
</svg>
