<svg width="40" height="40" viewBox="0 0 40 40" xmlns="http://www.w3.org/2000/svg">
<path d="M16.1 16.2002C16.818 16.2002 17.4 15.6182 17.4 14.9002C17.4 14.1822 16.818 13.6002 16.1 13.6002C15.382 13.6002 14.8 14.1822 14.8 14.9002C14.8 15.6182 15.382 16.2002 16.1 16.2002Z"/>
<path d="M26 24.2003C26 24.9182 25.418 25.5003 24.7 25.5003C23.982 25.5003 23.4 24.9182 23.4 24.2003C23.4 23.4823 23.982 22.9003 24.7 22.9003C25.418 22.9003 26 23.4823 26 24.2003Z"/>
<path fill-rule="evenodd" clip-rule="evenodd" d="M11.4012 19.625L11.3922 19.616C10.1212 18.345 9.45999 16.7402 9.45999 14.9443C9.45999 13.1514 10.1197 11.5479 11.4012 10.2876C12.6924 9.00096 14.3275 8.36426 16.136 8.36426C17.9248 8.36426 19.5535 8.97975 20.8377 10.2545C21.4905 10.8859 21.9777 11.6074 22.3019 12.3957L24.2987 10.1868L30.3129 13.6496L26.515 17.8591C27.6013 18.1491 28.5879 18.7136 29.4238 19.5604C30.6994 20.8194 31.356 22.4196 31.356 24.2083C31.356 26.0042 30.6948 27.609 29.4238 28.88C28.1368 30.167 26.5012 30.7883 24.704 30.7883C22.907 30.7883 21.2742 30.1679 19.9782 28.8978L19.9692 28.889L19.9602 28.88C19.3215 28.2413 18.8368 27.5183 18.5126 26.7291L16.0234 29.4881L10.0443 25.955L14.2686 21.2821C13.2079 20.9939 12.24 20.447 11.4102 19.6338L11.4012 19.625ZM16.3123 19.0213C17.418 18.984 18.3432 18.593 19.088 17.8483C19.888 17.0483 20.288 16.0803 20.288 14.9443C20.288 14.8393 20.2848 14.7359 20.2783 14.6341C20.2129 13.6039 19.8161 12.7392 19.088 12.0403C18.304 11.2563 17.32 10.8643 16.136 10.8643C14.952 10.8643 13.96 11.2643 13.16 12.0643C12.36 12.8483 11.96 13.8083 11.96 14.9443C11.96 16.0803 12.36 17.0483 13.16 17.8483C13.96 18.6323 14.952 19.0243 16.136 19.0243C16.1953 19.0243 16.254 19.0233 16.3123 19.0213ZM21.728 21.3283C20.928 22.1123 20.528 23.0723 20.528 24.2083C20.528 24.302 20.5307 24.3946 20.5362 24.4861C20.5967 25.5029 20.994 26.3783 21.728 27.1123C22.528 27.8963 23.52 28.2883 24.704 28.2883C25.888 28.2883 26.872 27.8963 27.656 27.1123C28.456 26.3123 28.856 25.3443 28.856 24.2083C28.856 23.0723 28.456 22.1123 27.656 21.3283C26.872 20.5283 25.888 20.1283 24.704 20.1283C24.6227 20.1283 24.5422 20.1301 24.4627 20.1339C23.3846 20.1851 22.473 20.5832 21.728 21.3283ZM26.384 14.2723L24.8 13.3603L13.952 25.3603L15.536 26.2963L26.384 14.2723Z"/>
</svg>
