<svg width="40" height="40" viewBox="0 0 40 40" xmlns="http://www.w3.org/2000/svg">
<path d="M20.5 3H2V31.5H16.0401C15.6933 30.7062 15.4265 29.8695 15.25 29H4.5V5.5H18V18.3756C18.7286 17.5244 19.5696 16.7724 20.5 16.1423V3Z"/>
<path fill-rule="evenodd" clip-rule="evenodd" d="M17.25 19.3436V6.25H5.25V24.25H15.202C15.529 22.4508 16.2412 20.7858 17.25 19.3436ZM14.75 8.75H7.75V21.75H14.75V8.75Z"/>
<path d="M11.25 28.25C12.0784 28.25 12.75 27.5784 12.75 26.75C12.75 25.9216 12.0784 25.25 11.25 25.25C10.4216 25.25 9.75 25.9216 9.75 26.75C9.75 27.5784 10.4216 28.25 11.25 28.25Z"/>
<path fill-rule="evenodd" clip-rule="evenodd" d="M29.0281 20.5H25.9275V22.7285C25.5796 22.8644 25.254 23.0446 24.9575 23.2622L23.0503 22.1611L21.5 24.8463L23.2931 25.8816C23.2415 26.1468 23.2144 26.4209 23.2144 26.7012C23.2144 26.8577 23.2229 27.0123 23.2393 27.1644L21.5 28.1686L23.0503 30.8538L24.6763 29.915C25.0434 30.2353 25.4659 30.4937 25.9275 30.6739V32.5149H29.0281V30.6739C29.4897 30.4937 29.9121 30.2353 30.2792 29.915L31.9052 30.8538L33.4555 28.1686L31.7163 27.1644C31.7327 27.0123 31.7411 26.8577 31.7411 26.7012C31.7411 26.4209 31.7141 26.1468 31.6624 25.8816L33.4555 24.8463L31.9052 22.1611L29.998 23.2622C29.7016 23.0446 29.3759 22.8644 29.0281 22.7285V20.5ZM29.0281 26.7012C29.0281 27.5574 28.334 28.2515 27.4778 28.2515C26.6216 28.2515 25.9275 27.5574 25.9275 26.7012C25.9275 25.845 26.6216 25.1509 27.4778 25.1509C28.334 25.1509 29.0281 25.845 29.0281 26.7012Z"/>
<path fill-rule="evenodd" clip-rule="evenodd" d="M27.5 36.5C33.0228 36.5 37.5 32.0228 37.5 26.5C37.5 20.9772 33.0228 16.5 27.5 16.5C21.9772 16.5 17.5 20.9772 17.5 26.5C17.5 32.0228 21.9772 36.5 27.5 36.5ZM27.5 34C31.6421 34 35 30.6421 35 26.5C35 22.3579 31.6421 19 27.5 19C23.3579 19 20 22.3579 20 26.5C20 30.6421 23.3579 34 27.5 34Z"/>
</svg>
