<svg width="40" height="40" viewBox="0 0 40 40" xmlns="http://www.w3.org/2000/svg">
<path d="M2 3H20.5V16.1423C19.5696 16.7724 18.7286 17.5244 18 18.3756V5.5H4.5V29H15.25C15.4265 29.8695 15.6933 30.7062 16.0401 31.5H2V3Z"/>
<path fill-rule="evenodd" clip-rule="evenodd" d="M17.25 6.25V19.3436C16.2412 20.7858 15.529 22.4508 15.202 24.25H5.25V6.25H17.25ZM7.75 8.75H14.75V21.75H7.75V8.75Z"/>
<path d="M12.75 26.75C12.75 27.5784 12.0784 28.25 11.25 28.25C10.4216 28.25 9.75 27.5784 9.75 26.75C9.75 25.9216 10.4216 25.25 11.25 25.25C12.0784 25.25 12.75 25.9216 12.75 26.75Z"/>
<path d="M27.5 31.5L29.5 29.1C28.9444 28.725 28.25 28.5 27.5 28.5C26.75 28.5 26.0556 28.725 25.5 29.1L27.5 31.5Z"/>
<path d="M27.5 22.5C25.25 22.5 23.1722 23.17 21.5 24.3L22.5 25.5C23.8889 24.56 25.6222 24 27.5 24C29.3778 24 31.1111 24.56 32.5 25.5L33.5 24.3C31.8278 23.17 29.75 22.5 27.5 22.5Z"/>
<path d="M27.5 25.5C26 25.5 24.6167 25.945 23.5 26.7L24.5 27.9C25.3333 27.335 26.3722 27 27.5 27C28.6278 27 29.6667 27.335 30.5 27.9L31.5 26.7C30.3833 25.945 29 25.5 27.5 25.5Z"/>
<path fill-rule="evenodd" clip-rule="evenodd" d="M27.5 36.5C33.0228 36.5 37.5 32.0228 37.5 26.5C37.5 20.9772 33.0228 16.5 27.5 16.5C21.9772 16.5 17.5 20.9772 17.5 26.5C17.5 32.0228 21.9772 36.5 27.5 36.5ZM27.5 34C31.6421 34 35 30.6421 35 26.5C35 22.3579 31.6421 19 27.5 19C23.3579 19 20 22.3579 20 26.5C20 30.6421 23.3579 34 27.5 34Z"/>
</svg>
