<svg width="40" height="40" viewBox="0 0 40 40" xmlns="http://www.w3.org/2000/svg">
<path fill-rule="evenodd" clip-rule="evenodd" d="M7.8103 7.8103V22.2931H17.2241V7.8103H7.8103ZM14.7241 10.3103H10.3103V19.7931H14.7241V10.3103Z"/>
<path d="M12.5172 25.1724C13.1171 25.1724 13.6034 24.6861 13.6034 24.0862C13.6034 23.4863 13.1171 23 12.5172 23C11.9173 23 11.431 23.4863 11.431 24.0862C11.431 24.6861 11.9173 25.1724 12.5172 25.1724Z"/>
<path fill-rule="evenodd" clip-rule="evenodd" d="M4.75 4.75H20.2845V28.25H4.75V4.75ZM7.25 7.25V25.75H17.7845V7.25H7.25Z"/>
<path d="M33 17L28 14H30.4185C29.2317 11.0682 26.3574 9 23 9V7C28.5228 7 33 11.4772 33 17Z"/>
<path d="M11.75 33.2545V30.75H14.25V30.7545H32.75V20.22H22.7845V17.72H35.25V33.2545H11.75Z"/>
<path d="M32.1897 30.1941H22.7845V27.6941H29.6897V23.2803H22.7845V20.7803H32.1897V30.1941Z"/>
</svg>
