<svg width="40" height="40" viewBox="0 0 40 40" xmlns="http://www.w3.org/2000/svg">
<path fill-rule="evenodd" clip-rule="evenodd" d="M23 10.5601L12.7591 20.8009L19.4157 27.4575L29.6566 17.2166L23 10.5601ZM26.121 17.2166L23 14.0956L16.2947 20.8009L19.4157 23.9219L26.121 17.2166Z"/>
<path d="M14.0514 26.1653C14.4756 26.5895 15.1634 26.5895 15.5876 26.1653C16.0117 25.7411 16.0117 25.0533 15.5876 24.6291C15.1634 24.205 14.4756 24.205 14.0514 24.6291C13.6272 25.0533 13.6272 25.7411 14.0514 26.1653Z"/>
<path fill-rule="evenodd" clip-rule="evenodd" d="M23 6.23218L33.9845 17.2167L17.3675 33.8337L6.383 22.8492L23 6.23218ZM23 9.76771L9.91853 22.8492L17.3675 30.2982L30.449 17.2167L23 9.76771Z"/>
<path d="M17 7L14 12V9.58152C11.0682 10.7683 9 13.6426 9 17H7C7 11.4772 11.4772 7 17 7Z"/>
<path d="M27 28L24 33C29.5229 33 34 28.5228 34 23H32C32 26.3574 29.9318 29.2317 27 30.4185V28Z"/>
</svg>
