<svg width="40" height="40" viewBox="0 0 40 40" xmlns="http://www.w3.org/2000/svg">
<path d="M20.5 3H2V31.5H16.0401C15.6933 30.7062 15.4265 29.8695 15.25 29H4.5V5.5H18V18.3756C18.7286 17.5244 19.5696 16.7724 20.5 16.1423V3Z"/>
<path fill-rule="evenodd" clip-rule="evenodd" d="M17.25 19.3436V6.25H5.25V24.25H15.202C15.529 22.4508 16.2412 20.7858 17.25 19.3436ZM14.75 8.75H7.75V21.75H14.75V8.75Z"/>
<path d="M11.25 28.25C12.0784 28.25 12.75 27.5784 12.75 26.75C12.75 25.9216 12.0784 25.25 11.25 25.25C10.4216 25.25 9.75 25.9216 9.75 26.75C9.75 27.5784 10.4216 28.25 11.25 28.25Z"/>
<path fill-rule="evenodd" clip-rule="evenodd" d="M27.4842 21.75C25.9847 21.75 24.7691 22.9656 24.7691 24.4651V25.3987H23.75V31H31.2185V25.3987H30.1993V24.4651C30.1993 22.9656 28.9837 21.75 27.4842 21.75ZM28.9701 25.3987H25.9983V24.4651C25.9983 23.6444 26.6636 22.9792 27.4842 22.9792C28.3049 22.9792 28.9701 23.6444 28.9701 24.4651V25.3987ZM28.1066 27.577H26.8619V28.8217H28.1066V27.577Z"/>
<path fill-rule="evenodd" clip-rule="evenodd" d="M27.5 36.5C33.0228 36.5 37.5 32.0228 37.5 26.5C37.5 20.9772 33.0228 16.5 27.5 16.5C21.9772 16.5 17.5 20.9772 17.5 26.5C17.5 32.0228 21.9772 36.5 27.5 36.5ZM27.5 34C31.6421 34 35 30.6421 35 26.5C35 22.3579 31.6421 19 27.5 19C23.3579 19 20 22.3579 20 26.5C20 30.6421 23.3579 34 27.5 34Z"/>
</svg>
