<svg width="40" height="40" viewBox="0 0 40 40" xmlns="http://www.w3.org/2000/svg">
<path d="M5.11612 6.88398L33.1161 34.884L34.8839 33.1162L6.88389 5.11621L5.11612 6.88398Z"/>
<path d="M10.75 34.2501V16.0534L13.25 18.5534V31.7501H26.4467L28.9467 34.2501H10.75Z"/>
<path d="M11.0533 5.75012L13.5533 8.25012H26.75V21.4468L29.25 23.9468V5.75012H11.0533Z"/>
<path d="M14 27.0001V19.3034L16.5 21.8034V24.5001H19.1967L21.6967 27.0001H14Z"/>
<path d="M14.3033 9.00012L16.8033 11.5001H23.5V18.1968L26 20.6968V9.00012H14.3033Z"/>
<path d="M21.5 29.5001C21.5 30.3285 20.8284 31.0001 20 31.0001C19.1716 31.0001 18.5 30.3285 18.5 29.5001C18.5 28.6717 19.1716 28.0001 20 28.0001C20.8284 28.0001 21.5 28.6717 21.5 29.5001Z"/>
</svg>
