<svg width="40" height="40" viewBox="0 0 40 40" xmlns="http://www.w3.org/2000/svg">
<path d="M20.5 3H2V31.5H16.0401C15.6933 30.7062 15.4265 29.8695 15.25 29H4.5V5.5H18V18.3756C18.7286 17.5244 19.5696 16.7724 20.5 16.1423V3Z"/>
<path fill-rule="evenodd" clip-rule="evenodd" d="M17.25 19.3436V6.25H5.25V24.25H15.202C15.529 22.4508 16.2412 20.7858 17.25 19.3436ZM14.75 8.75H7.75V21.75H14.75V8.75Z"/>
<path d="M11.25 28.25C12.0784 28.25 12.75 27.5784 12.75 26.75C12.75 25.9216 12.0784 25.25 11.25 25.25C10.4216 25.25 9.75 25.9216 9.75 26.75C9.75 27.5784 10.4216 28.25 11.25 28.25Z"/>
<path fill-rule="evenodd" clip-rule="evenodd" d="M31.6932 24.6724V25.5049L32.7964 25.5049L33.2058 25.5049V24.6724C33.2058 23.2202 32.0286 22.043 30.5764 22.043C29.1242 22.043 27.9469 23.2202 27.9469 24.6724V25.5049H23.5V30.5H30.1601V25.5049H29.4595V24.6724C29.4595 24.0556 29.9595 23.5555 30.5764 23.5555C31.1932 23.5555 31.6932 24.0556 31.6932 24.6724ZM27.3851 27.4474H26.2751V28.5575H27.3851V27.4474Z"/>
<path fill-rule="evenodd" clip-rule="evenodd" d="M27.5 36.5C33.0228 36.5 37.5 32.0228 37.5 26.5C37.5 20.9772 33.0228 16.5 27.5 16.5C21.9772 16.5 17.5 20.9772 17.5 26.5C17.5 32.0228 21.9772 36.5 27.5 36.5ZM27.5 34C31.6421 34 35 30.6421 35 26.5C35 22.3579 31.6421 19 27.5 19C23.3579 19 20 22.3579 20 26.5C20 30.6421 23.3579 34 27.5 34Z"/>
</svg>
