<svg width="40" height="40" viewBox="0 0 40 40" xmlns="http://www.w3.org/2000/svg">
<path d="M5 5.5H26V14.5891C26.4918 14.5303 26.9924 14.5 27.5 14.5C27.8366 14.5 28.1701 14.5133 28.5 14.5394V3H2.5V29H15.1591C15.0544 28.3488 15 27.6807 15 27C15 26.8325 15.0033 26.6659 15.0098 26.5H5V5.5Z"/>
<path d="M17 16L18.7136 18.109C17.1024 19.7014 15.9219 21.7285 15.3623 24H7.5L11.5 19L13.0194 20.8992L17 16Z"/>
<path d="M10 13C11.3807 13 12.5 11.8807 12.5 10.5C12.5 9.11929 11.3807 8 10 8C8.61929 8 7.5 9.11929 7.5 10.5C7.5 11.8807 8.61929 13 10 13Z"/>
<path d="M27.5 25.6699L30 23.1699L27.5 20.6699V22.3366C24.7386 22.3366 22.5 24.5752 22.5 27.3366C22.5 30.098 24.7386 32.3366 27.5 32.3366C30.2614 32.3366 32.5 30.098 32.5 27.3366C32.5 26.2567 32.1577 25.2568 31.5756 24.4395L30.3718 25.6433C30.665 26.1395 30.8333 26.7184 30.8333 27.3366C30.8333 29.1776 29.341 30.67 27.5 30.67C25.659 30.67 24.1667 29.1776 24.1667 27.3366C24.1667 25.4957 25.659 24.0033 27.5 24.0033V25.6699Z"/>
<path fill-rule="evenodd" clip-rule="evenodd" d="M27.5 37C33.0228 37 37.5 32.5228 37.5 27C37.5 21.4772 33.0228 17 27.5 17C21.9772 17 17.5 21.4772 17.5 27C17.5 32.5228 21.9772 37 27.5 37ZM27.5 34.5C31.6421 34.5 35 31.1421 35 27C35 22.8579 31.6421 19.5 27.5 19.5C23.3579 19.5 20 22.8579 20 27C20 31.1421 23.3579 34.5 27.5 34.5Z"/>
</svg>
