<svg width="40" height="40" viewBox="0 0 40 40" xmlns="http://www.w3.org/2000/svg">
<path d="M14 16C14 17.1046 13.1046 18 12 18C10.8954 18 10 17.1046 10 16C10 14.8954 10.8954 14 12 14C13.1046 14 14 14.8954 14 16Z"/>
<path fill-rule="evenodd" clip-rule="evenodd" d="M31.25 19.0309L26.6895 15.3794L21.9567 19.4058L19.7676 17.6723L9.57278 26.25H31.25V19.0309ZM22.0135 22.6397L26.7378 18.6206L28.75 20.2318V23.75H16.4272L19.8155 20.8992L22.0135 22.6397Z"/>
<path fill-rule="evenodd" clip-rule="evenodd" d="M4.5 9.5H35.5V30.5H4.5V9.5ZM7 12V28H33V12H7Z"/>
</svg>
