<svg width="40" height="40" viewBox="0 0 40 40" xmlns="http://www.w3.org/2000/svg">
<path fill-rule="evenodd" clip-rule="evenodd" d="M20 11C22.2091 11 24 9.20914 24 7C24 4.79086 22.2091 3 20 3C17.7909 3 16 4.79086 16 7C16 9.20914 17.7909 11 20 11ZM20 8.5C20.8284 8.5 21.5 7.82843 21.5 7C21.5 6.17157 20.8284 5.5 20 5.5C19.1716 5.5 18.5 6.17157 18.5 7C18.5 7.82843 19.1716 8.5 20 8.5Z"/>
<path d="M13.5 19.75C13.5 20.4404 12.9404 21 12.25 21C11.5596 21 11 20.4404 11 19.75C11 19.0596 11.5596 18.5 12.25 18.5C12.9404 18.5 13.5 19.0596 13.5 19.75Z"/>
<path d="M18 16.75C17.3096 16.75 16.75 17.3096 16.75 18C16.75 18.6904 17.3096 19.25 18 19.25H22C22.6904 19.25 23.25 18.6904 23.25 18C23.25 17.3096 22.6904 16.75 22 16.75H18Z"/>
<path fill-rule="evenodd" clip-rule="evenodd" d="M12.5 10.8484C13.3988 11.3952 14.4426 12.1485 15.4608 12.9326C15.8232 12.891 16.1917 12.8696 16.5652 12.8696H22.4348C27.6603 12.8696 31.9072 17.0598 31.9985 22.2636C32.0859 22.31 32.2178 22.3418 32.4096 22.3175C32.6837 22.2827 33.0237 22.1321 33.3205 21.826C33.6173 21.5198 33.7573 21.1753 33.7835 20.9003C33.8095 20.6283 33.7272 20.4792 33.6521 20.4065C33.1565 19.9259 33.1442 19.1346 33.6248 18.6389C34.1053 18.1433 34.8967 18.131 35.3923 18.6115C36.8575 20.0321 36.3658 22.2764 35.1154 23.5662C34.2542 24.4545 32.9293 24.997 31.7092 24.7846C31.1481 27.0063 29.8096 28.9186 28 30.2153V32C28 33.6569 26.6569 35 25 35C23.3431 35 22 33.6569 22 32H17C17 33.6569 15.6569 35 14 35C12.3431 35 11 33.6569 11 32V30.2153C9.82667 29.3745 8.85139 28.2749 8.15766 27H7C5.34315 27 4 25.6569 4 24V22C4 20.3431 5.34315 19 7 19H7.63522C8.15385 17.6525 8.96871 16.452 10 15.4784V10.5242C10 9.7504 10.7959 9.90436 11.9386 10.5242C12.1083 10.6163 12.2856 10.7186 12.4692 10.8297L12.5 10.8484ZM12.5 16.5562L11.7162 17.2962C10.9522 18.0176 10.3505 18.9052 9.96837 19.898L9.35179 21.5H7C6.72386 21.5 6.5 21.7239 6.5 22V24C6.5 24.2761 6.72386 24.5 7 24.5H9.64346L10.3536 25.8051C10.866 26.7468 11.5876 27.5608 12.4561 28.1831L13.5 28.9311V32C13.5 32.2761 13.7239 32.5 14 32.5C14.2761 32.5 14.5 32.2761 14.5 32V29.5H24.5V32C24.5 32.2761 24.7239 32.5 25 32.5C25.2761 32.5 25.5 32.2761 25.5 32V28.9311L26.5439 28.1831C28.3387 26.897 29.5 24.8015 29.5 22.4348C29.5 18.5328 26.3368 15.3696 22.4348 15.3696H16.5652C16.2873 15.3696 16.0141 15.3855 15.7463 15.4163L14.7388 15.5321L13.9353 14.9133C13.4367 14.5292 12.9529 14.1696 12.5 13.8484V16.5562Z"/>
</svg>
