<svg width="40" height="40" viewBox="0 0 40 40" xmlns="http://www.w3.org/2000/svg">
<path d="M17.4097 34.0151C11.1763 32.8704 6.36196 27.6696 5.80407 21.25H8.75V18.75H5.80407C6.40135 11.8772 11.8772 6.40135 18.75 5.80407V8.75H21.25V5.80407C27.6696 6.36196 32.8704 11.1763 34.0151 17.4097C34.7897 17.7699 35.5211 18.2071 36.1997 18.7115C35.5429 10.3392 28.5409 3.75 20 3.75C11.0254 3.75 3.75 11.0254 3.75 20C3.75 28.5409 10.3392 35.5429 18.7115 36.1997C18.2071 35.5211 17.7699 34.7897 17.4097 34.0151Z"/>
<path d="M16.4553 26.4819C16.3643 26.9782 16.3026 27.4848 16.2721 27.9997H11V22.3331L16.0591 20.4443C16.776 20.9829 17.6117 21.372 18.5198 21.5654C18.2153 21.9982 17.9376 22.4511 17.689 22.9219C17.0429 22.7374 16.4307 22.4719 15.8645 22.1372L12.5179 23.3866V26.4819H16.4553Z"/>
<path fill-rule="evenodd" clip-rule="evenodd" d="M24.2068 17.1013C22.5442 17.7502 21.0546 18.7448 19.8264 19.9967C17.4216 19.9055 15.5 17.9272 15.5 15.5C15.5 13.0147 17.5147 11 20 11C22.4853 11 24.5 13.0147 24.5 15.5C24.5 16.064 24.3962 16.6038 24.2068 17.1013ZM22.9503 15.5C22.9503 17.1294 21.6294 18.4503 20 18.4503C18.3706 18.4503 17.0497 17.1294 17.0497 15.5C17.0497 13.8706 18.3706 12.5497 20 12.5497C21.6294 12.5497 22.9503 13.8706 22.9503 15.5Z"/>
<path fill-rule="evenodd" clip-rule="evenodd" d="M28.75 36.95C33.2787 36.95 36.95 33.2787 36.95 28.75C36.95 24.2213 33.2787 20.55 28.75 20.55C24.2213 20.55 20.55 24.2213 20.55 28.75C20.55 33.2787 24.2213 36.95 28.75 36.95ZM28.75 38.75C34.2728 38.75 38.75 34.2728 38.75 28.75C38.75 23.2272 34.2728 18.75 28.75 18.75C23.2272 18.75 18.75 23.2272 18.75 28.75C18.75 34.2728 23.2272 38.75 28.75 38.75Z"/>
<path d="M28.75 35L30.8333 32.3333C30.2546 31.9167 29.5312 31.6667 28.75 31.6667C27.9688 31.6667 27.2454 31.9167 26.6667 32.3333L28.75 35ZM28.75 25C26.4062 25 24.2419 25.7444 22.5 27L23.5417 28.3333C24.9884 27.2889 26.794 26.6667 28.75 26.6667C30.706 26.6667 32.5116 27.2889 33.9583 28.3333L35 27C33.2581 25.7444 31.0938 25 28.75 25ZM28.75 28.3333C27.1875 28.3333 25.7465 28.8278 24.5833 29.6667L25.625 31C26.4931 30.3722 27.5752 30 28.75 30C29.9248 30 31.0069 30.3722 31.875 31L32.9167 29.6667C31.7535 28.8278 30.3125 28.3333 28.75 28.3333Z"/>
</svg>
