<svg width="40" height="40" viewBox="0 0 40 40" xmlns="http://www.w3.org/2000/svg">
<path d="M17.4097 34.0151C11.1763 32.8704 6.36196 27.6696 5.80407 21.25H8.75V18.75H5.80407C6.40135 11.8772 11.8772 6.40135 18.75 5.80407V8.75H21.25V5.80407C27.6696 6.36196 32.8704 11.1763 34.0151 17.4097C34.7897 17.7699 35.5211 18.2071 36.1997 18.7115C35.5429 10.3392 28.5409 3.75 20 3.75C11.0254 3.75 3.75 11.0254 3.75 20C3.75 28.5409 10.3392 35.5429 18.7115 36.1997C18.2071 35.5211 17.7699 34.7897 17.4097 34.0151Z"/>
<path d="M16.4553 26.4819C16.3643 26.9782 16.3026 27.4848 16.2721 27.9997H11V22.3331L16.0591 20.4443C16.776 20.9829 17.6117 21.372 18.5198 21.5654C18.2153 21.9982 17.9376 22.4511 17.689 22.9219C17.0429 22.7374 16.4307 22.4719 15.8645 22.1372L12.5179 23.3866V26.4819H16.4553Z"/>
<path fill-rule="evenodd" clip-rule="evenodd" d="M24.2068 17.1013C22.5442 17.7502 21.0546 18.7448 19.8264 19.9967C17.4216 19.9055 15.5 17.9272 15.5 15.5C15.5 13.0147 17.5147 11 20 11C22.4853 11 24.5 13.0147 24.5 15.5C24.5 16.064 24.3962 16.6038 24.2068 17.1013ZM22.9503 15.5C22.9503 17.1294 21.6294 18.4503 20 18.4503C18.3706 18.4503 17.0497 17.1294 17.0497 15.5C17.0497 13.8706 18.3706 12.5497 20 12.5497C21.6294 12.5497 22.9503 13.8706 22.9503 15.5Z"/>
<path fill-rule="evenodd" clip-rule="evenodd" d="M28.75 36.95C33.2787 36.95 36.95 33.2787 36.95 28.75C36.95 24.2213 33.2787 20.55 28.75 20.55C24.2213 20.55 20.55 24.2213 20.55 28.75C20.55 33.2787 24.2213 36.95 28.75 36.95ZM28.75 38.75C34.2728 38.75 38.75 34.2728 38.75 28.75C38.75 23.2272 34.2728 18.75 28.75 18.75C23.2272 18.75 18.75 23.2272 18.75 28.75C18.75 34.2728 23.2272 38.75 28.75 38.75Z"/>
<path d="M23.7506 26.2257C23.3138 26.4556 22.896 26.7146 22.5 27L23.5417 28.3333C23.9962 28.0052 24.4861 27.7187 25.0051 27.4802L23.7506 26.2257Z"/>
<path d="M26.2889 28.764C25.6745 28.9878 25.1014 29.2931 24.5833 29.6667L25.625 31C26.2111 30.5761 26.8948 30.2688 27.6387 30.1138L26.2889 28.764Z"/>
<path d="M29.2224 31.6975C29.0678 31.6772 28.9101 31.6667 28.75 31.6667C27.9688 31.6667 27.2454 31.9167 26.6667 32.3333L28.75 35L30.4057 32.8808L29.2224 31.6975Z"/>
<path d="M32.5766 30.102L32.9167 29.6667C32.4109 29.3019 31.8527 29.0023 31.2548 28.7801L32.5766 30.102Z"/>
<path d="M29.15 26.6754C30.9518 26.7539 32.6107 27.3605 33.9583 28.3333L35 27C33.2581 25.7444 31.0938 25 28.75 25C28.3412 25 27.9379 25.0226 27.5413 25.0667L29.15 26.6754Z"/>
<path d="M23.4142 24.4751L24.4749 23.4144L33.6673 32.6068L32.6066 33.6675L23.4142 24.4751Z"/>
</svg>
