<svg width="40" height="40" viewBox="0 0 40 40" xmlns="http://www.w3.org/2000/svg">
<path fill-rule="evenodd" clip-rule="evenodd" d="M20 20C22.4853 20 24.5 17.9853 24.5 15.5C24.5 13.0147 22.4853 11 20 11C17.5147 11 15.5 13.0147 15.5 15.5C15.5 17.9853 17.5147 20 20 20ZM20 18.4503C21.6294 18.4503 22.9503 17.1294 22.9503 15.5C22.9503 13.8706 21.6294 12.5497 20 12.5497C18.3706 12.5497 17.0497 13.8706 17.0497 15.5C17.0497 17.1294 18.3706 18.4503 20 18.4503Z"/>
<path fill-rule="evenodd" clip-rule="evenodd" d="M11 22.3331L16.0591 20.4443C17.1115 21.2349 18.4197 21.7034 19.8373 21.7034C21.2549 21.7034 22.5631 21.2349 23.6155 20.4443L28.6746 22.3331V27.9997H11V22.3331ZM12.5179 26.4819V23.3866L15.8645 22.1372C17.0291 22.8258 18.3885 23.2213 19.8373 23.2213C21.2861 23.2213 22.6455 22.8258 23.81 22.1372L27.1567 23.3866V26.4819H12.5179Z"/>
<path fill-rule="evenodd" clip-rule="evenodd" d="M20 36.25C28.9746 36.25 36.25 28.9746 36.25 20C36.25 11.0254 28.9746 3.75 20 3.75C11.0254 3.75 3.75 11.0254 3.75 20C3.75 28.9746 11.0254 36.25 20 36.25ZM21.25 34.1959C28.1187 33.599 33.5923 28.1292 34.1949 21.262H32.5V18.762H34.197C33.605 11.8836 28.1268 6.40169 21.25 5.80407V8.75H18.75V5.80407C11.8772 6.40135 6.40135 11.8772 5.80407 18.75H8.75V21.25H5.80407C6.40135 28.1228 11.8772 33.5987 18.75 34.1959V32.5H21.25V34.1959Z"/>
</svg>
