<svg width="40" height="40" viewBox="0 0 40 40" xmlns="http://www.w3.org/2000/svg">
<path d="M17.4097 34.0151C11.1763 32.8704 6.36196 27.6696 5.80407 21.25H8.75V18.75H5.80407C6.40135 11.8772 11.8772 6.40135 18.75 5.80407V8.75H21.25V5.80407C27.6696 6.36196 32.8704 11.1763 34.0151 17.4097C34.7897 17.7699 35.5211 18.2071 36.1997 18.7115C35.5429 10.3392 28.5409 3.75 20 3.75C11.0254 3.75 3.75 11.0254 3.75 20C3.75 28.5409 10.3392 35.5429 18.7115 36.1997C18.2071 35.5211 17.7699 34.7897 17.4097 34.0151Z"/>
<path d="M16.4553 26.4819C16.3643 26.9782 16.3026 27.4848 16.2721 27.9997H11V22.3331L16.0591 20.4443C16.776 20.9829 17.6117 21.372 18.5198 21.5654C18.2153 21.9982 17.9376 22.4511 17.689 22.9219C17.0429 22.7374 16.4307 22.4719 15.8645 22.1372L12.5179 23.3866V26.4819H16.4553Z"/>
<path fill-rule="evenodd" clip-rule="evenodd" d="M24.2068 17.1013C22.5442 17.7502 21.0546 18.7448 19.8264 19.9967C17.4216 19.9055 15.5 17.9272 15.5 15.5C15.5 13.0147 17.5147 11 20 11C22.4853 11 24.5 13.0147 24.5 15.5C24.5 16.064 24.3962 16.6038 24.2068 17.1013ZM22.9503 15.5C22.9503 17.1294 21.6294 18.4503 20 18.4503C18.3706 18.4503 17.0497 17.1294 17.0497 15.5C17.0497 13.8706 18.3706 12.5497 20 12.5497C21.6294 12.5497 22.9503 13.8706 22.9503 15.5Z"/>
<path fill-rule="evenodd" clip-rule="evenodd" d="M28.75 36.95C33.2787 36.95 36.95 33.2787 36.95 28.75C36.95 24.2213 33.2787 20.55 28.75 20.55C24.2213 20.55 20.55 24.2213 20.55 28.75C20.55 33.2787 24.2213 36.95 28.75 36.95ZM28.75 38.75C34.2728 38.75 38.75 34.2728 38.75 28.75C38.75 23.2272 34.2728 18.75 28.75 18.75C23.2272 18.75 18.75 23.2272 18.75 28.75C18.75 34.2728 23.2272 38.75 28.75 38.75Z"/>
<path d="M23.3628 30.2335L24.2296 27H24.6988L24.7287 27.6813L23.8022 31H23.3061L23.3628 30.2335ZM22.8159 27L23.5272 30.2225V31H22.9863L22 27H22.8159ZM25.6283 30.2088L26.3276 27H27.1465L26.1603 31H25.6193L25.6283 30.2088ZM24.9229 27L25.7897 30.2445L25.8405 31H25.3443L24.4208 27.6786L24.4567 27H24.9229Z"/>
<path d="M30.905 30.4066V31H28.5918V30.4066H30.905ZM28.8428 27V31H28.0209V27H28.8428ZM30.6031 28.6511V29.2308H28.5918V28.6511H30.6031ZM30.896 27V27.5962H28.5918V27H30.896Z"/>
<path d="M33.4937 29.217H32.3819L32.3759 28.6841H33.3293C33.4927 28.6841 33.6292 28.663 33.7388 28.6209C33.8484 28.5788 33.9311 28.5174 33.9868 28.4368C34.0446 28.3562 34.0735 28.2583 34.0735 28.1429C34.0735 28.0147 34.0466 27.9103 33.9928 27.8297C33.941 27.7491 33.8593 27.6905 33.7477 27.6539C33.6362 27.6154 33.4947 27.5962 33.3234 27.5962H32.6479V31H31.826V27H33.3234C33.5704 27 33.7906 27.022 33.9839 27.0659C34.1791 27.1081 34.3445 27.174 34.48 27.2638C34.6155 27.3535 34.7181 27.4661 34.7878 27.6017C34.8595 27.7372 34.8954 27.8984 34.8954 28.0852C34.8954 28.25 34.8536 28.402 34.7699 28.5412C34.6882 28.6786 34.5617 28.7903 34.3903 28.8764C34.221 28.9625 34.0058 29.0119 33.7448 29.0247L33.4937 29.217ZM33.4578 31H32.1398L32.4835 30.4066H33.4578C33.6212 30.4066 33.7557 30.3819 33.8613 30.3324C33.9689 30.283 34.0486 30.2152 34.1004 30.1291C34.1542 30.0412 34.1811 29.9405 34.1811 29.8269C34.1811 29.7024 34.1572 29.5943 34.1094 29.5028C34.0636 29.4112 33.9898 29.3407 33.8882 29.2912C33.7886 29.2418 33.6571 29.217 33.4937 29.217H32.6389L32.6449 28.6841H33.7328L33.9211 28.8901C34.1721 28.892 34.3764 28.9377 34.5338 29.0275C34.6932 29.1172 34.8107 29.2326 34.8864 29.3736C34.9622 29.5147 35 29.6667 35 29.8297C35 30.0861 34.9392 30.3013 34.8177 30.4753C34.6981 30.6493 34.5228 30.7802 34.2917 30.8681C34.0626 30.9561 33.7846 31 33.4578 31Z"/>
</svg>
