<svg width="40" height="40" viewBox="0 0 40 40" xmlns="http://www.w3.org/2000/svg">
<path fill-rule="evenodd" clip-rule="evenodd" d="M34.2642 6.73584L34.2044 12.099L28.6322 17.6712L33.3463 30.6347L28.8045 35.1765L22.3227 23.9807L17.9356 28.3678L18.3481 32.905L14.5865 36.6666L11.1688 29.8312L4.33344 26.4135L8.09507 22.6519L12.6324 23.0644L17.0194 18.6774L5.82349 12.1956L10.3653 7.65376L23.329 12.3678L28.9011 6.79572L34.2642 6.73584ZM29.9481 9.28419L23.9709 15.2614L11.0072 10.5474L9.8922 11.6624L21.0881 18.1442L13.5722 25.6601L9.03485 25.2476L8.55385 25.7287L13.0322 27.9678L15.2714 32.4462L15.7524 31.9652L15.3399 27.428L22.8559 19.912L29.3376 31.1078L30.4527 29.9928L25.7387 17.0292L31.7159 11.052L31.7358 9.26423L29.9481 9.28419Z"/>
</svg>
