<svg width="40" height="40" viewBox="0 0 40 40" xmlns="http://www.w3.org/2000/svg">
<path d="M11 6C13.5083 4.11667 16.625 3 20 3C23.375 3 26.4917 4.11667 29 6L27.5 8C25.4167 6.43333 22.8167 5.5 20 5.5C17.1833 5.5 14.5833 6.43333 12.5 8L11 6Z"/>
<path d="M14 10C15.675 8.74167 17.75 8 20 8C22.25 8 24.325 8.74167 26 10L24.5 12C23.25 11.0583 21.6917 10.5 20 10.5C18.3083 10.5 16.75 11.0583 15.5 12L14 10Z"/>
<path d="M28.5 21.5C29.3284 21.5 30 20.8284 30 20C30 19.1716 29.3284 18.5 28.5 18.5C27.6716 18.5 27 19.1716 27 20C27 20.8284 27.6716 21.5 28.5 21.5Z"/>
<path d="M15 26.25V28.75H25V26.25H15Z"/>
<path d="M15 32.75V30.25H25V32.75H15Z"/>
<path fill-rule="evenodd" clip-rule="evenodd" d="M6 29.5H11V36.5H29V29.5H34V14.5H6V29.5ZM31.5 27V17H8.5V27H11V22.5H29V27H31.5ZM26.5 25H13.5V34H26.5V25Z"/>
</svg>
