<svg width="40" height="40" viewBox="0 0 40 40" xmlns="http://www.w3.org/2000/svg">
<path fill-rule="evenodd" clip-rule="evenodd" d="M15.1667 24.2473V21.7473C15.1667 20.2572 15.7344 19.0538 16.4289 18.1122L9.75928 14.5159L10.7232 12.3905C12.4732 8.5318 16.2894 6.5 20.35 6.5C22.4568 6.5 24.6664 7.10252 26.4137 8.40184C28.2217 9.74634 29.5 11.8314 29.5 14.4945C29.5 17.6419 27.6435 19.6131 26.3518 20.7918C26.0022 21.1107 25.7441 21.3326 25.5311 21.5158C25.2649 21.7446 25.069 21.913 24.8531 22.1346C24.8462 22.1416 24.8397 22.1484 24.8333 22.155V24.2473H15.1667ZM24.6853 22.3291C24.6847 22.3292 24.6889 22.3221 24.6998 22.3075C24.6913 22.3217 24.6859 22.329 24.6853 22.3291ZM14.4154 11.346C15.8985 9.82647 18.0184 9 20.35 9C23.675 9 27 10.9231 27 14.4945C27 16.9303 25.3476 18.3642 24.0093 19.5254C23.0986 20.3156 22.3333 20.9796 22.3333 21.7473H17.6667C17.6667 20.757 18.1096 19.9544 18.7226 19.2473C19.1751 18.7252 19.7204 18.2551 20.2484 17.7997C21.3267 16.87 22.3333 16.002 22.3333 14.8791C22.3333 13.9176 21.6625 13.2857 20.175 13.2857C18.888 13.2857 18.0141 13.9399 17.4176 14.8654C17.2705 15.0935 17.1404 15.3381 17.025 15.5934L13 13.4231C13.1429 13.108 13.305 12.8082 13.4847 12.5243C13.7564 12.0947 14.0685 11.7014 14.4154 11.346ZM25.2708 29.3901C25.2708 32.3382 22.7543 34.5 20 34.5C17.2457 34.5 14.7292 32.3382 14.7292 29.3901C14.7292 26.442 17.2457 24.2802 20 24.2802C22.7543 24.2802 25.2708 26.442 25.2708 29.3901ZM22.7708 29.3901C22.7708 30.8187 21.5167 32 20 32C18.4833 32 17.2292 30.8187 17.2292 29.3901C17.2292 27.9615 18.4833 26.7802 20 26.7802C21.5167 26.7802 22.7708 27.9615 22.7708 29.3901Z"/>
</svg>
