<svg width="40" height="40" viewBox="0 0 40 40" xmlns="http://www.w3.org/2000/svg">
<path d="M32 16C32 20.4183 28.4183 24 24 24C19.5817 24 16 20.4183 16 16C16 11.5817 19.5817 8 24 8C28.4183 8 32 11.5817 32 16Z"/>
<path fill-rule="evenodd" clip-rule="evenodd" d="M24 29C31.1797 29 37 23.1797 37 16C37 8.8203 31.1797 3 24 3C16.8203 3 11 8.8203 11 16C11 23.1797 16.8203 29 24 29ZM24 26.5C29.799 26.5 34.5 21.799 34.5 16C34.5 10.201 29.799 5.5 24 5.5C18.201 5.5 13.5 10.201 13.5 16C13.5 21.799 18.201 26.5 24 26.5Z"/>
<path d="M4 22.9999C4 18.9249 5.87492 15.2878 8.80916 12.9043C8.60642 13.9046 8.5 14.9398 8.5 15.9999C8.5 16.2703 8.50692 16.539 8.5206 16.806C7.25008 18.5423 6.5 20.6835 6.5 22.9999C6.5 28.7989 11.201 33.4999 17 33.4999C19.3164 33.4999 21.4576 32.7498 23.1939 31.4793C23.4609 31.493 23.7296 31.4999 24 31.4999C25.0601 31.4999 26.0953 31.3935 27.0956 31.1907C24.712 34.125 21.075 35.9999 17 35.9999C9.8203 35.9999 4 30.1796 4 22.9999Z"/>
</svg>
