<svg width="40" height="40" viewBox="0 0 40 40" xmlns="http://www.w3.org/2000/svg">
<path d="M20 28C24.4183 28 28 24.4183 28 20C28 15.5817 24.4183 12 20 12C15.5817 12 12 15.5817 12 20C12 24.4183 15.5817 28 20 28Z"/>
<path fill-rule="evenodd" clip-rule="evenodd" d="M33 20C33 27.1797 27.1797 33 20 33C12.8203 33 7 27.1797 7 20C7 12.8203 12.8203 7 20 7C27.1797 7 33 12.8203 33 20ZM30.5 20C30.5 25.799 25.799 30.5 20 30.5C14.201 30.5 9.5 25.799 9.5 20C9.5 14.201 14.201 9.5 20 9.5C25.799 9.5 30.5 14.201 30.5 20Z"/>
</svg>
