<svg width="40" height="40" viewBox="0 0 40 40" xmlns="http://www.w3.org/2000/svg">
<path fill-rule="evenodd" clip-rule="evenodd" d="M18.75 1.98242L27.7678 11.0002L18.75 20.018V14.3657C15.6193 14.9519 13.25 17.6994 13.25 21.0002C13.25 24.7281 16.2721 27.7502 20 27.7502C23.7279 27.7502 26.75 24.7281 26.75 21.0002C26.75 19.7464 26.4093 18.5759 25.8162 17.5722L25.3231 16.7377L29.9425 12.1183L30.7997 13.3221C32.3424 15.4884 33.25 18.1402 33.25 21.0002C33.25 28.318 27.3178 34.2502 20 34.2502C12.6822 34.2502 6.75 28.318 6.75 21.0002C6.75 14.104 12.0184 8.43826 18.75 7.80838V1.98242ZM21.25 8.01796V10.2502H20C14.0629 10.2502 9.25 15.0631 9.25 21.0002C9.25 26.9373 14.0629 31.7502 20 31.7502C25.9371 31.7502 30.75 26.9373 30.75 21.0002C30.75 19.214 30.3152 17.5316 29.5456 16.0508L28.4233 17.1731C28.9544 18.3403 29.25 19.6369 29.25 21.0002C29.25 26.1088 25.1086 30.2502 20 30.2502C14.8914 30.2502 10.75 26.1088 10.75 21.0002C10.75 15.8916 14.8914 11.7502 20 11.7502H21.25V13.9824L24.2322 11.0002L21.25 8.01796Z"/>
</svg>
