<svg width="40" height="40" viewBox="0 0 40 40" xmlns="http://www.w3.org/2000/svg">
<path fill-rule="evenodd" clip-rule="evenodd" d="M18.75 0.982422L27.7678 10.0002L18.75 19.018V13.3657C15.6193 13.9519 13.25 16.6994 13.25 20.0002C13.25 21.254 13.5907 22.4245 14.1838 23.4282L14.6769 24.2627L10.0575 28.8821L9.20031 27.6784C7.65758 25.512 6.75 22.8602 6.75 20.0002C6.75 13.104 12.0184 7.43826 18.75 6.80838V0.982422ZM21.25 7.01796V9.25019H20C14.0629 9.25019 9.25 14.0631 9.25 20.0002C9.25 21.7864 9.68479 23.4688 10.4544 24.9497L11.5767 23.8273C11.0456 22.6601 10.75 21.3634 10.75 20.0002C10.75 14.8916 14.8914 10.7502 20 10.7502H21.25V12.9824L24.2322 10.0002L21.25 7.01796ZM29.9425 11.1183L30.7997 12.3221C32.3424 14.4884 33.25 17.1402 33.25 20.0002C33.25 26.8964 27.9816 32.5621 21.25 33.192V39.018L12.2322 30.0002L21.25 20.9824V26.6347C24.3807 26.0485 26.75 23.301 26.75 20.0002C26.75 18.7464 26.4093 17.5759 25.8162 16.5722L25.3231 15.7377L29.9425 11.1183ZM28.4233 16.1731C28.9544 17.3403 29.25 18.6369 29.25 20.0002C29.25 25.1088 25.1086 29.2502 20 29.2502H18.75V27.018L15.7678 30.0002L18.75 32.9824V30.7502H20C25.9371 30.7502 30.75 25.9373 30.75 20.0002C30.75 18.214 30.3152 16.5316 29.5456 15.0508L28.4233 16.1731Z"/>
</svg>
