<svg width="40" height="40" viewBox="0 0 40 40" xmlns="http://www.w3.org/2000/svg">
<path fill-rule="evenodd" clip-rule="evenodd" d="M20 2C15.5902 2 11.5143 3.43889 8.23394 5.86672L7.42138 6.4681L10.4921 10.5039L11.2835 9.91729C13.7029 8.12392 16.7234 7.05428 20 7.05428C23.2766 7.05428 26.2971 8.12392 28.7165 9.91729L29.5079 10.5039L32.5786 6.4681L31.7661 5.86672C28.4857 3.43889 24.4098 2 20 2ZM10.9047 7.75133L10.2509 6.89201C13.0436 5.06226 16.395 3.99511 20 3.99511C23.605 3.99511 26.9564 5.06226 29.7491 6.89201L29.0953 7.75133C26.491 6.05225 23.3608 5.05917 20 5.05917C16.6392 5.05917 13.509 6.05225 10.9047 7.75133Z"/>
<path fill-rule="evenodd" clip-rule="evenodd" d="M20 8.11834C16.9872 8.11834 14.2042 9.09813 11.9579 10.7615L11.1457 11.363L14.2168 15.3993L15.0084 14.8115C16.3925 13.7837 18.1195 13.1726 20 13.1726C21.8805 13.1726 23.6075 13.7837 24.9916 14.8115L25.7832 15.3993L28.8543 11.363L28.0421 10.7615C25.7958 9.09813 23.0128 8.11834 20 8.11834ZM14.6393 12.6597L13.9844 11.799C15.7326 10.7289 17.791 10.1134 20 10.1134C22.209 10.1134 24.2674 10.7289 26.0156 11.799L25.3607 12.6597C23.8001 11.7189 21.9637 11.1775 20 11.1775C18.0363 11.1775 16.1999 11.7189 14.6393 12.6597Z"/>
<path fill-rule="evenodd" clip-rule="evenodd" d="M20 14.2367C18.3826 14.2367 16.883 14.7685 15.6828 15.6557L14.8695 16.257L19.813 22.7543C20.4258 21.8943 21.1447 21.1153 21.9507 20.4362L25.1305 16.257L24.3172 15.6557C23.117 14.7685 21.6174 14.2367 20 14.2367ZM20 19.7051L17.742 16.7375C18.4246 16.4144 19.1912 16.2318 20 16.2318C20.8088 16.2318 21.5754 16.4144 22.258 16.7375L20 19.7051Z"/>
<path d="M4.75 24.75H18.6526C18.2856 25.5419 17.9991 26.3788 17.8035 27.25H7.25V32.75H17.8035C17.9991 33.6212 18.2856 34.4581 18.6526 35.25H11.5V37H9V35.25H4.75V24.75Z"/>
<path d="M15 29H17.5394C17.5133 29.3299 17.5 29.6634 17.5 30C17.5 30.3366 17.5133 30.6701 17.5394 31H15V29Z"/>
<path d="M26.5 31.9229H28.8077V24.2306H31.1154V31.9229H33.4231L29.9615 35.769L26.5 31.9229Z"/>
<path fill-rule="evenodd" clip-rule="evenodd" d="M20 30C20 35.5228 24.4772 40 30 40C35.5228 40 40 35.5228 40 30C40 24.4772 35.5228 20 30 20C24.4772 20 20 24.4772 20 30ZM22.5 30C22.5 34.1421 25.8579 37.5 30 37.5C34.1421 37.5 37.5 34.1421 37.5 30C37.5 25.8579 34.1421 22.5 30 22.5C25.8579 22.5 22.5 25.8579 22.5 30Z"/>
</svg>
