<svg width="40" height="40" viewBox="0 0 40 40" xmlns="http://www.w3.org/2000/svg">
<path fill-rule="evenodd" clip-rule="evenodd" d="M25.1681 21.264C24.6825 21.7055 24.1465 22.0505 23.56 22.2991C22.8038 22.6197 21.9638 22.78 21.04 22.78H18.52V23.764H23.56V26.116H18.52V28.3H14.68V26.116H13V23.764H14.68V22.78H13V19.42H14.68V11.5H21.04C22.688 11.5 24.08 12.06 25.216 13.18C26.352 14.3 26.92 15.66 26.92 17.26C26.92 18.844 26.352 20.164 25.216 21.22C25.2001 21.2348 25.1841 21.2494 25.1681 21.264ZM12.18 16.92V9H21.04C23.3207 9 25.3504 9.80182 26.9712 11.3997C28.5853 12.9911 29.42 14.9931 29.42 17.26C29.42 19.5219 28.5751 21.5108 26.9181 23.0511L26.9171 23.052C26.6424 23.3071 26.3564 23.5397 26.06 23.75V28.616H21.02V30.8H12.18V28.616H10.5V16.92H12.18ZM21.04 19.42C21.632 19.42 22.12 19.212 22.504 18.796C22.888 18.38 23.08 17.868 23.08 17.26C23.08 16.652 22.888 16.14 22.504 15.724C22.12 15.308 21.632 15.1 21.04 15.1H18.52V19.42H21.04Z"/>
</svg>
