<svg width="40" height="40" viewBox="0 0 40 40" xmlns="http://www.w3.org/2000/svg">
<path fill-rule="evenodd" clip-rule="evenodd" d="M19.113 14.0494L19.1139 14.0519L21.0898 13.3528L22.7722 13.6587L23.7205 15.026L26.2435 18.1107L30.1821 19.3767L29.4333 21.7064L24.8069 20.2194L23.2914 18.367L22.6829 23.1049L25.0664 25.7268V34H22.6193V26.6728L19.979 23.7686L18.84 29.4639L17.649 29.237C17.3096 29.1723 16.9069 29.0968 16.4678 29.0148C16.0768 28.9419 15.6569 28.8639 15.2267 28.7839L15.2238 28.7834L15.2202 28.7827C15.2185 28.7824 15.2168 28.7821 15.2152 28.7818C15.2154 28.7818 15.215 28.7818 15.2152 28.7818C14.6113 28.6696 13.9871 28.5536 13.3955 28.4428C13.3947 28.4427 13.394 28.4425 13.3932 28.4424C13.3907 28.4419 13.3882 28.4415 13.3857 28.441C13.2007 28.4063 12.9866 28.3658 12.7694 28.3246C12.1689 28.2105 11.5444 28.0904 11.4444 28.0712C11.4353 28.0694 11.4306 28.0685 11.4306 28.0685L11.4247 28.0672L10.3026 27.8193L11.0765 25.4978L11.271 25.5394C11.4158 25.5702 11.8262 25.6521 11.8931 25.6654C11.8991 25.6666 11.9024 25.6673 11.9024 25.6673L13.8437 26.0371L15.6671 26.3768L15.6689 26.3771L16.9154 26.609L17.7487 22.4423L17.7574 22.4437L18.6523 16.8596L16.5015 17.7046V21.612H14.0543V16.0368L19.113 14.0494ZM11.5543 23.0434V14.3329L18.4764 11.6135C18.1572 10.9592 17.9781 10.2241 17.9781 9.44712C17.9781 6.7149 20.193 4.5 22.9252 4.5C25.6574 4.5 27.8723 6.7149 27.8723 9.44712C27.8723 11.1407 27.0213 12.6355 25.7236 13.5273L27.7111 15.9564L33.3272 17.7616L31.0483 24.8515L26.2461 23.3079L27.5664 24.7602V36.5H20.1193V32.2525L17.1812 31.6928C16.5464 31.5719 15.6856 31.412 14.7701 31.2419L14.7654 31.241L14.7635 31.2407C14.7629 31.2405 14.7623 31.2404 14.7617 31.2403C14.7614 31.2403 14.762 31.2404 14.7617 31.2403C14.1564 31.1279 13.5283 31.0112 12.933 30.8997C12.5568 30.8292 12.0622 30.735 11.6639 30.6588L10.959 30.5236L10.9246 30.517L7.05322 29.6618L9.41214 22.585L11.5543 23.0434ZM24.2986 11.4728C24.9466 11.0326 25.3723 10.2896 25.3723 9.44712C25.3723 8.09562 24.2767 7 22.9252 7C21.5737 7 20.4781 8.09562 20.4781 9.44712C20.4781 9.93797 20.6226 10.3951 20.8714 10.7782C21.0258 11.0159 21.2204 11.2252 21.4455 11.3964C21.8564 11.7088 22.3692 11.8942 22.9252 11.8942C22.982 11.8942 23.0383 11.8923 23.0941 11.8885C23.5387 11.8582 23.9507 11.7091 24.2986 11.4728Z"/>
</svg>
