<svg width="40" height="40" viewBox="0 0 40 40" xmlns="http://www.w3.org/2000/svg">
<path d="M15.5 19C16.8807 19 18 17.8807 18 16.5C18 15.1193 16.8807 14 15.5 14C14.1193 14 13 15.1193 13 16.5C13 17.8807 14.1193 19 15.5 19Z"/>
<path d="M27 16.5C27 17.8807 25.8807 19 24.5 19C23.1193 19 22 17.8807 22 16.5C22 15.1193 23.1193 14 24.5 14C25.8807 14 27 15.1193 27 16.5Z"/>
<path d="M16.118 27.559C16.877 26.0411 18.4041 25.25 20 25.25C21.5959 25.25 23.123 26.0411 23.882 27.559L26.118 26.441C24.877 23.9589 22.4041 22.75 20 22.75C17.5959 22.75 15.123 23.9589 13.882 26.441L16.118 27.559Z"/>
<path fill-rule="evenodd" clip-rule="evenodd" d="M34 20C34 27.732 27.732 34 20 34C12.268 34 6 27.732 6 20C6 12.268 12.268 6 20 6C27.732 6 34 12.268 34 20ZM31.5 20C31.5 26.3513 26.3513 31.5 20 31.5C13.6487 31.5 8.5 26.3513 8.5 20C8.5 13.6487 13.6487 8.5 20 8.5C26.3513 8.5 31.5 13.6487 31.5 20Z"/>
</svg>
