<svg width="40" height="40" viewBox="0 0 40 40" xmlns="http://www.w3.org/2000/svg">
<path d="M11.5 9.5H14.5V12.5H11.5V9.5Z"/>
<path d="M14.5 15.5H11.5V18.5H14.5V15.5Z"/>
<path d="M11.5 21.5H14.5V24.5H11.5V21.5Z"/>
<path fill-rule="evenodd" clip-rule="evenodd" d="M7.25 5.25H18.75V13.0822L23.6 8.23224L31.7317 16.364L18.7391 29.3565C18.555 32.3661 16.0559 34.75 13 34.75C9.82436 34.75 7.25 32.1756 7.25 29V5.25ZM9.75 7.75V29C9.75 30.7949 11.2051 32.25 13 32.25C14.7949 32.25 16.25 30.7949 16.25 29V7.75H9.75ZM18.7697 16.598L23.6 11.7678L28.1962 16.364L18.8549 25.7052L18.7697 16.598Z"/>
<path fill-rule="evenodd" clip-rule="evenodd" d="M21.4286 23.25H32.75V34.75H12.9911L21.4286 23.25ZM22.4681 25.75L16.0035 32.25H30.25V25.75H22.4681Z"/>
</svg>
