<svg width="40" height="40" viewBox="0 0 40 40" xmlns="http://www.w3.org/2000/svg">
<path d="M14.0199 15.7877L15.7877 14.0199L19.5 17.7322L23.2123 14.0199L24.9801 15.7877L21.2678 19.5L24.9801 23.2123L23.2123 24.9801L19.5 21.2678L15.7877 24.9801L14.0199 23.2123L17.7322 19.5L14.0199 15.7877Z"/>
<path fill-rule="evenodd" clip-rule="evenodd" d="M19.5 31C22.2253 31 24.7292 30.052 26.6999 28.4678L32.1161 33.884L33.8839 32.1162L28.4677 26.7C30.052 24.7293 31 22.2254 31 19.5C31 13.1487 25.8513 8 19.5 8C13.1487 8 8 13.1487 8 19.5C8 25.8513 13.1487 31 19.5 31ZM19.5 28.5C24.4706 28.5 28.5 24.4706 28.5 19.5C28.5 14.5294 24.4706 10.5 19.5 10.5C14.5294 10.5 10.5 14.5294 10.5 19.5C10.5 24.4706 14.5294 28.5 19.5 28.5Z"/>
</svg>
