<svg width="40" height="40" viewBox="0 0 40 40" xmlns="http://www.w3.org/2000/svg">
<path d="M18.25 13H20.75V18.25H26V20.75H20.75V26H18.25V20.75H13V18.25H18.25V13Z"/>
<path fill-rule="evenodd" clip-rule="evenodd" d="M19.5 31C22.2253 31 24.7292 30.052 26.6999 28.4678L32.1161 33.884L33.8839 32.1162L28.4677 26.7C30.052 24.7293 31 22.2254 31 19.5C31 13.1487 25.8513 8 19.5 8C13.1487 8 8 13.1487 8 19.5C8 25.8513 13.1487 31 19.5 31ZM19.5 28.5C24.4706 28.5 28.5 24.4706 28.5 19.5C28.5 14.5294 24.4706 10.5 19.5 10.5C14.5294 10.5 10.5 14.5294 10.5 19.5C10.5 24.4706 14.5294 28.5 19.5 28.5Z"/>
</svg>
