<svg width="40" height="40" viewBox="0 0 40 40" xmlns="http://www.w3.org/2000/svg">
<path d="M19.5 15.9834C19.9111 15.9834 20.2611 15.8398 20.55 15.5525C20.85 15.2541 21 14.9006 21 14.4917C21 14.0829 20.85 13.7348 20.55 13.4475C20.2611 13.1492 19.9111 13 19.5 13C19.0889 13 18.7333 13.1492 18.4333 13.4475C18.1444 13.7348 18 14.0829 18 14.4917C18 14.9006 18.1444 15.2541 18.4333 15.5525C18.7333 15.8398 19.0889 15.9834 19.5 15.9834Z"/>
<path d="M18.25 16.7127V25H20.75V16.7127H18.25Z"/>
<path fill-rule="evenodd" clip-rule="evenodd" d="M19.5 31C22.2253 31 24.7292 30.052 26.6999 28.4678L32.1161 33.884L33.8839 32.1162L28.4677 26.7C30.052 24.7293 31 22.2254 31 19.5C31 13.1487 25.8513 8 19.5 8C13.1487 8 8 13.1487 8 19.5C8 25.8513 13.1487 31 19.5 31ZM19.5 28.5C24.4706 28.5 28.5 24.4706 28.5 19.5C28.5 14.5294 24.4706 10.5 19.5 10.5C14.5294 10.5 10.5 14.5294 10.5 19.5C10.5 24.4706 14.5294 28.5 19.5 28.5Z"/>
</svg>
