<svg width="40" height="40" viewBox="0 0 40 40" xmlns="http://www.w3.org/2000/svg">
<path fill-rule="evenodd" clip-rule="evenodd" d="M4.25 19C4.25 10.3058 11.3058 3.25 20 3.25C28.6942 3.25 35.75 10.3058 35.75 19C35.75 24.8295 32.5819 29.9011 27.8756 32.6242L27.2262 32.9999L24.9763 29.1077L25.6229 28.7317C28.989 26.774 31.25 23.1593 31.25 19C31.25 12.7842 26.2158 7.75 20 7.75C13.7842 7.75 8.75 12.7842 8.75 19C8.75 23.1597 11.0114 26.7748 14.3632 28.7324L15.008 29.1089L12.7583 33.0009L12.1085 32.6236C7.41777 29.9005 4.25 24.8292 4.25 19ZM20 4.75C12.1342 4.75 5.75 11.1342 5.75 19C5.75 24.0016 8.32736 28.389 12.2216 30.932L12.9729 29.6324C9.5349 27.3477 7.25 23.452 7.25 19C7.25 11.9558 12.9558 6.25 20 6.25C27.0442 6.25 32.75 11.9558 32.75 19C32.75 23.4526 30.4644 27.3489 27.0128 29.6335L27.764 30.9331C31.6719 28.3903 34.25 24.0024 34.25 19C34.25 11.1342 27.8658 4.75 20 4.75ZM10.25 19C10.25 13.6208 14.6208 9.25 20 9.25C25.3792 9.25 29.75 13.6208 29.75 19C29.75 22.6106 27.781 25.7461 24.8768 27.4335L24.2252 27.812L21.9798 23.905L22.6197 23.5286C24.1932 22.603 25.25 20.9344 25.25 19C25.25 16.0992 22.9008 13.75 20 13.75C17.0992 13.75 14.75 16.0992 14.75 19C14.75 20.9344 15.8068 22.603 17.3803 23.5286L18.0202 23.905L15.7748 27.812L15.1232 27.4335C12.219 25.7461 10.25 22.6106 10.25 19ZM20 10.75C15.4492 10.75 11.75 14.4492 11.75 19C11.75 21.7797 13.1302 24.2314 15.2422 25.7284L15.9995 24.4107C14.3443 23.1833 13.25 21.2367 13.25 19C13.25 15.2708 16.2708 12.25 20 12.25C23.7292 12.25 26.75 15.2708 26.75 19C26.75 21.2367 25.6557 23.1833 24.0005 24.4107L24.7578 25.7284C26.8698 24.2314 28.25 21.7797 28.25 19C28.25 14.4492 24.5508 10.75 20 10.75ZM16.25 19C16.25 16.9358 17.9358 15.25 20 15.25C22.0642 15.25 23.75 16.9358 23.75 19C23.75 21.0642 22.0642 22.75 20 22.75C17.9358 22.75 16.25 21.0642 16.25 19ZM20 16.75C18.7642 16.75 17.75 17.7642 17.75 19C17.75 20.2358 18.7642 21.25 20 21.25C21.2358 21.25 22.25 20.2358 22.25 19C22.25 17.7642 21.2358 16.75 20 16.75Z"/>
<path fill-rule="evenodd" clip-rule="evenodd" d="M21.4 24.3501H18.6V30.7501H21.4V24.3501ZM17.6 23.3501V31.7501H22.4V23.3501H17.6Z"/>
<path fill-rule="evenodd" clip-rule="evenodd" d="M20.1999 32.75H19.7999V36.75H20.1999V32.75ZM18.7999 31.75V37.75H21.1999V31.75H18.7999Z"/>
</svg>
