<svg width="40" height="40" viewBox="0 0 40 40" xmlns="http://www.w3.org/2000/svg">
<path fill-rule="evenodd" clip-rule="evenodd" d="M22.6667 27.6667V23.2C21.8 23.2 20.9672 23.2361 20.1667 23.309C16.8585 23.6106 14.1025 24.5429 11.7953 26.168C10.3662 27.1746 9.10927 28.447 8 30C8.3722 28.139 8.95219 26.278 9.79798 24.5331C11.9821 20.027 15.9387 16.2945 22.6667 15.3333V11L33 19.3333L22.6667 27.6667ZM25.1667 22.4389L29.0175 19.3333L25.1667 16.2278V17.5016L23.0202 17.8082C19.1423 18.3622 16.4369 19.933 14.5224 21.9734C16.9382 21.1092 19.6483 20.7 22.6667 20.7H25.1667V22.4389Z"/>
</svg>
