<svg width="40" height="40" viewBox="0 0 40 40" xmlns="http://www.w3.org/2000/svg">
<path fill-rule="evenodd" clip-rule="evenodd" d="M18.3333 27.6667V23.2C19.2 23.2 20.0328 23.2361 20.8333 23.309C24.1415 23.6106 26.8975 24.5429 29.2047 26.168C30.6338 27.1746 31.8907 28.447 33 30C32.6278 28.139 32.0478 26.278 31.202 24.5331C29.0179 20.027 25.0613 16.2945 18.3333 15.3333V11L8 19.3333L18.3333 27.6667ZM15.8333 22.4389L11.9825 19.3333L15.8333 16.2278V17.5016L17.9798 17.8082C21.8577 18.3622 24.5631 19.933 26.4776 21.9734C24.0618 21.1092 21.3517 20.7 18.3333 20.7H15.8333V22.4389Z"/>
</svg>
