<svg width="40" height="40" viewBox="0 0 40 40" xmlns="http://www.w3.org/2000/svg">
<path fill-rule="evenodd" clip-rule="evenodd" d="M11 13V9C11 6.23858 13.2386 4 16 4C18.7614 4 21 6.23858 21 9V13H24.8969C23.6209 13.5115 22.5304 14.3878 21.7547 15.5H8.5V32.5H17.5V35H6V13H11ZM18.5 9V13H13.5V9C13.5 7.61929 14.6193 6.5 16 6.5C17.3807 6.5 18.5 7.61929 18.5 9Z"/>
<path fill-rule="evenodd" clip-rule="evenodd" d="M32 21H35V35H20V21H23V19.5C23 17.0147 25.0147 15 27.5 15C29.9853 15 32 17.0147 32 19.5V21ZM29.5 21V19.5C29.5 18.3954 28.6046 17.5 27.5 17.5C26.3954 17.5 25.5 18.3954 25.5 19.5V21H29.5ZM22.5 32.5V23.5H32.5V32.5H22.5Z"/>
</svg>
