<svg width="40" height="40" viewBox="0 0 40 40" xmlns="http://www.w3.org/2000/svg">
<path fill-rule="evenodd" clip-rule="evenodd" d="M24.3764 16.9342C24.6226 16.7401 24.7789 16.4535 24.7789 16.0889C24.7789 15.3466 24.2529 14.686 23.4692 14.1805C22.485 13.5457 21.0944 13.1556 19.8289 13.1556C19.7638 13.1556 19.6986 13.1563 19.6333 13.1578C18.3402 13.1873 17.0204 13.5113 16.0786 14.2288C15.2734 14.8421 14.7444 15.7431 14.7444 16.9933C14.7444 17.855 14.9402 18.7518 15.7759 19.4586C15.825 19.5001 15.8764 19.541 15.93 19.5812C16.3876 19.924 17.0126 20.2156 17.8611 20.4278L21.1489 21.2589C22.1389 21.5033 22.3833 22.0533 22.3833 22.5667C22.3833 22.8836 22.2624 23.1988 22.0295 23.4675C21.6516 23.9033 20.9789 24.2167 20.0489 24.2167C18.8267 24.2167 18.181 23.8274 17.7313 23.3718C17.5679 23.2064 17.4304 23.0322 17.3005 22.8647C17.2903 22.8515 17.2801 22.8384 17.27 22.8254C17.2679 22.8227 17.2658 22.82 17.2637 22.8173C17.2621 22.8151 17.2604 22.813 17.2587 22.8108C16.9023 22.3508 16.5892 21.9556 15.93 21.9556C15.6861 21.9556 15.4653 22.0134 15.2807 22.1177C14.9286 22.3166 14.7078 22.6841 14.7078 23.1411C14.7078 23.884 15.1952 24.7624 16.2462 25.4053C17.1147 25.9364 18.3679 26.3067 20.0489 26.3067C21.5273 26.3067 22.693 26.0071 23.5471 25.4902C24.7194 24.7807 25.3044 23.6619 25.3044 22.3467C25.3044 21.4027 25.0161 20.4175 24.0887 19.6786C23.9048 19.5321 23.6958 19.3952 23.4589 19.2703C23.0497 19.0545 22.5574 18.8742 21.9678 18.7411L19.5356 18.2033C18.6067 17.9956 17.5556 17.7144 17.5556 16.8467C17.5556 16.566 17.6301 16.3128 17.7753 16.0979C18.0854 15.6391 18.7176 15.3556 19.6333 15.3556C19.7003 15.3556 19.7655 15.3567 19.8289 15.3589C20.9506 15.3978 21.5307 15.7724 21.9461 16.1759C21.9507 16.1804 21.9553 16.1849 21.9599 16.1894C22.0759 16.3033 22.1792 16.4192 22.2782 16.5303C22.3266 16.5847 22.3741 16.6379 22.4215 16.6892C22.4241 16.692 22.4266 16.6948 22.4292 16.6976C22.7062 16.9959 22.9835 17.2256 23.4589 17.2256C23.8093 17.2256 24.1358 17.124 24.3764 16.9342ZM17.1772 22.9435C17.1772 22.9435 17.1795 22.9468 17.1823 22.9542C17.1783 22.9472 17.1772 22.9435 17.1772 22.9435ZM32.8048 21.4899C33.2401 17.7249 32.0211 13.7846 29.1011 10.8989C26.2154 7.97887 22.2751 6.75986 18.5101 7.1952C17.4602 6.74318 16.3065 6.5 15.1111 6.5C12.8273 6.5 10.637 7.40724 9.02214 9.02214C7.40724 10.637 6.5 12.8273 6.5 15.1111C6.5 16.3065 6.74318 17.4602 7.1952 18.5101C6.75986 22.2751 7.97887 26.2154 10.8989 29.1011C13.7846 32.0211 17.7249 33.2401 21.4899 32.8048C22.5398 33.2568 23.6935 33.5 24.8889 33.5C27.1727 33.5 29.363 32.5928 30.9779 30.9779C32.5928 29.363 33.5 27.1727 33.5 24.8889C33.5 23.6935 33.2568 22.5398 32.8048 21.4899ZM21.8944 30.2178C22.7744 30.7189 23.8011 31 24.8889 31C26.5097 31 28.064 30.3562 29.2101 29.2101C30.3562 28.064 31 26.5097 31 24.8889C31 23.8011 30.7189 22.7744 30.2178 21.8944C30.8167 18.6433 29.8633 15.16 27.3333 12.6667C24.84 10.1367 21.3567 9.18333 18.1056 9.78222C17.2256 9.28111 16.1989 9 15.1111 9C13.4903 9 11.936 9.64385 10.7899 10.7899C9.64385 11.936 9 13.4903 9 15.1111C9 16.1989 9.28111 17.2256 9.78222 18.1056C9.18333 21.3567 10.1367 24.84 12.6667 27.3333C15.16 29.8633 18.6433 30.8167 21.8944 30.2178Z"/>
</svg>
