<svg width="40" height="40" viewBox="0 0 40 40" xmlns="http://www.w3.org/2000/svg">
<path fill-rule="evenodd" clip-rule="evenodd" d="M5 12.5H7.02746C7.08919 13.0584 7.25307 13.5859 7.5 14.0636C8.24811 15.5108 9.75853 16.5 11.5 16.5C13.8163 16.5 15.7238 14.75 15.9725 12.5H17.5L35 20.5V29.5H5V12.5ZM7.5 18.9678V17.7454C8.6336 18.5363 10.0124 19 11.5 19C14.1641 19 16.479 17.5129 17.662 15.3229L19.5599 16.1905L18.7779 17.5449L20.943 18.7949L21.8438 17.2346L23.6381 18.0549L22.7533 19.5874L24.9184 20.8374L25.9221 19.0989L32.5 22.106V23.5H9.96813C9.98917 23.3484 10 23.1822 10 23C10 21.2331 8.98172 19.7041 7.5 18.9678ZM7.5 27V26H32.5V27H7.5Z"/>
</svg>
