<svg width="40" height="40" viewBox="0 0 40 40" xmlns="http://www.w3.org/2000/svg">
<path fill-rule="evenodd" clip-rule="evenodd" d="M21.3425 14.3937H15.0046V24.6667H21.3425L11.4213 35.0603L1.50001 24.6667H7.83792L7.83791 14.3937H1.5L11.4212 4L21.3425 14.3937ZM12.5046 11.8937L12.5001 11.8945V14.3945H12.5046V24.6723H12.5001V27.1723H15.0046V27.1667H15.5L11.4213 31.4396L7.34249 27.1667H7.83791V27.1723H10.34V24.6723H10.3379L10.3379 14.3945H10.34V11.8945L7.34248 11.8937L11.4212 7.62069L15.5 11.8937H12.5046Z"/>
<path d="M23.5 13H31.5V15.5H23.5V13Z"/>
<path d="M35.5 19H23.5V21.5H35.5V19Z"/>
<path d="M38.5 25H23.5V27.5H38.5V25Z"/>
</svg>
