<svg width="40" height="40" viewBox="0 0 40 40" xmlns="http://www.w3.org/2000/svg">
<path d="M34.1471 34.9136L35.8529 33.0859L5.85289 5.08594L4.14709 6.91358L34.1471 34.9136Z"/>
<path d="M8.07547 14H5V26H14L22 33V26.9962L19.5 24.6629V27.4906L14.9393 23.5H7.5V16.5H10.754L8.07547 14Z"/>
<path d="M19.5 14.4038L22 16.7371V7L16.6154 11.7115L18.4524 13.426L19.5 12.5094V14.4038Z"/>
<path d="M25.0393 29.833C24.7189 29.9553 24.391 30.0625 24.0564 30.1535V32.9999C25.1755 32.7627 26.2425 32.3846 27.2381 31.8851L25.0393 29.833Z"/>
<path d="M32.7323 26.7539C33.9009 24.7764 34.5715 22.4696 34.5715 20.0063C34.5715 13.6196 30.0638 8.28576 24.0564 7.0127V9.85907C28.5213 11.0738 31.8044 15.1566 31.8044 20.0063C31.8044 21.736 31.3867 23.3681 30.6468 24.8074L32.7323 26.7539Z"/>
<path d="M28.5124 22.8153C28.8513 21.9444 29.0373 20.9971 29.0373 20.0063C29.0373 16.7021 26.9689 13.881 24.0564 12.7671V15.8642C25.3913 16.7577 26.2701 18.2794 26.2701 20.0063C26.2701 20.2349 26.2547 20.4599 26.2249 20.6803L28.5124 22.8153Z"/>
</svg>
