<svg width="40" height="40" viewBox="0 0 40 40" xmlns="http://www.w3.org/2000/svg">
<path fill-rule="evenodd" clip-rule="evenodd" d="M5 14H14L22 7V33L14 26H5V14ZM7.5 16.5H14.9393L19.5 12.5094V27.4906L14.9393 23.5H7.5V16.5Z"/>
<path d="M34.5715 20.0064C34.5715 26.3931 30.0638 31.7269 24.0564 33V30.1536C28.5213 28.9389 31.8044 24.8561 31.8044 20.0064C31.8044 15.1567 28.5213 11.0739 24.0564 9.85919V7.01282C30.0638 8.28589 34.5715 13.6197 34.5715 20.0064Z"/>
<path d="M29.0373 20.0064C29.0373 23.3106 26.9689 26.1317 24.0564 27.2457V24.1485C25.3913 23.255 26.2701 21.7334 26.2701 20.0064C26.2701 18.2795 25.3913 16.7578 24.0564 15.8643V12.7672C26.9689 13.8812 29.0373 16.7023 29.0373 20.0064Z"/>
</svg>
