<svg width="40" height="40" viewBox="0 0 40 40" xmlns="http://www.w3.org/2000/svg">
<path fill-rule="evenodd" clip-rule="evenodd" d="M4 15.5L20 24L33.5 16.8281V25.5H36V15.5L20 7L4 15.5ZM9.32873 15.5L20 21.1691L30.6713 15.5L20 9.83089L9.32873 15.5Z"/>
<path d="M10 20.9523V26C10 28 13 32 20 32C27 32 30 28 30 26V20.9523L27.5 22.2804V26C27.5 25.9949 27.4984 26.0002 27.494 26.0149C27.4574 26.1365 27.2268 26.9022 26.1007 27.7684C24.9597 28.6462 23.0109 29.5 20 29.5C16.9891 29.5 15.0403 28.6462 13.8993 27.7684C12.7732 26.9022 12.5426 26.1365 12.506 26.0149C12.5016 26.0002 12.5 25.9949 12.5 26V22.2804L10 20.9523Z"/>
</svg>
