<svg width="40" height="40" viewBox="0 0 40 40" xmlns="http://www.w3.org/2000/svg">
<path d="M3.11612 4.88398L35.1161 36.884L36.8839 35.1162L4.88389 3.11621L3.11612 4.88398Z"/>
<path d="M7.75 35.2501V13.0534L10.25 15.5534V32.7501H27.4467L29.9467 35.2501H7.75Z"/>
<path d="M10.0533 4.75012L12.5533 7.25012H29.75V24.4468L32.25 26.9468V4.75012H10.0533Z"/>
<path d="M11 29.0001V16.3034L13.5 18.8034V26.5001H21.1967L23.6967 29.0001H11Z"/>
<path d="M13.3033 8.00012L15.8033 10.5001H26.5V21.1968L29 23.6968V8.00012H13.3033Z"/>
<path d="M20 32.0001C20.5523 32.0001 21 31.5524 21 31.0001C21 30.4478 20.5523 30.0001 20 30.0001C19.4477 30.0001 19 30.4478 19 31.0001C19 31.5524 19.4477 32.0001 20 32.0001Z"/>
</svg>
