<svg width="40" height="40" viewBox="0 0 40 40" xmlns="http://www.w3.org/2000/svg">
<path d="M28.5 3H4V33.5H16.0108C15.5344 32.7189 15.1412 31.8815 14.8437 31H6.5V5.5H26V14.5187C26.2284 14.5063 26.4585 14.5 26.69 14.5C27.3047 14.5 27.909 14.5444 28.5 14.6301V3Z"/>
<path d="M25.25 14.582V6.25H7.25V27.25H14.1925C14.1908 27.1669 14.19 27.0835 14.19 27C14.19 26.2318 14.2593 25.4799 14.392 24.75H9.75V8.75H22.75V15.1336C23.5505 14.868 24.3869 14.681 25.25 14.582Z"/>
<path fill-rule="evenodd" clip-rule="evenodd" d="M30.8832 25.1724V26.0049L31.9864 26.0049L32.3958 26.0049V25.1724C32.3958 23.7202 31.2186 22.543 29.7664 22.543C28.3142 22.543 27.1369 23.7202 27.1369 25.1724V26.0049H22.69V31H29.3501V26.0049H28.6495V25.1724C28.6495 24.5556 29.1495 24.0555 29.7664 24.0555C30.3832 24.0555 30.8832 24.5556 30.8832 25.1724ZM26.5751 27.9474H25.4651V29.0575H26.5751V27.9474Z"/>
<path fill-rule="evenodd" clip-rule="evenodd" d="M26.69 37C32.2128 37 36.69 32.5228 36.69 27C36.69 21.4772 32.2128 17 26.69 17C21.1672 17 16.69 21.4772 16.69 27C16.69 32.5228 21.1672 37 26.69 37ZM26.69 34.5C30.8321 34.5 34.19 31.1421 34.19 27C34.19 22.8579 30.8321 19.5 26.69 19.5C22.5479 19.5 19.19 22.8579 19.19 27C19.19 31.1421 22.5479 34.5 26.69 34.5Z"/>
</svg>
