<svg width="40" height="40" viewBox="0 0 40 40" xmlns="http://www.w3.org/2000/svg">
<path d="M28.5 3H4V33.5H16.0108C15.5344 32.7189 15.1412 31.8815 14.8437 31H6.5V5.5H26V14.5187C26.2284 14.5063 26.4585 14.5 26.69 14.5C27.3047 14.5 27.909 14.5444 28.5 14.6301V3Z"/>
<path d="M25.25 14.582V6.25H7.25V27.25H14.1925C14.1908 27.1669 14.19 27.0835 14.19 27C14.19 26.2318 14.2593 25.4799 14.392 24.75H9.75V8.75H22.75V15.1336C23.5505 14.868 24.3869 14.681 25.25 14.582Z"/>
<path fill-rule="evenodd" clip-rule="evenodd" d="M28.2181 21H25.1175V23.2285C24.7696 23.3644 24.444 23.5446 24.1475 23.7622L22.2403 22.6611L20.69 25.3463L22.4831 26.3816C22.4315 26.6468 22.4044 26.9209 22.4044 27.2012C22.4044 27.3577 22.4129 27.5123 22.4293 27.6644L20.69 28.6686L22.2403 31.3538L23.8663 30.415C24.2334 30.7353 24.6559 30.9937 25.1175 31.1739V33.0149H28.2181V31.1739C28.6797 30.9937 29.1021 30.7353 29.4692 30.415L31.0952 31.3538L32.6455 28.6686L30.9063 27.6644C30.9227 27.5123 30.9311 27.3577 30.9311 27.2012C30.9311 26.9209 30.9041 26.6468 30.8524 26.3816L32.6455 25.3463L31.0952 22.6611L29.188 23.7622C28.8916 23.5446 28.5659 23.3644 28.2181 23.2285V21ZM28.2181 27.2012C28.2181 28.0574 27.524 28.7515 26.6678 28.7515C25.8116 28.7515 25.1175 28.0574 25.1175 27.2012C25.1175 26.345 25.8116 25.6509 26.6678 25.6509C27.524 25.6509 28.2181 26.345 28.2181 27.2012Z"/>
<path fill-rule="evenodd" clip-rule="evenodd" d="M26.69 37C32.2128 37 36.69 32.5228 36.69 27C36.69 21.4772 32.2128 17 26.69 17C21.1672 17 16.69 21.4772 16.69 27C16.69 32.5228 21.1672 37 26.69 37ZM26.69 34.5C30.8321 34.5 34.19 31.1421 34.19 27C34.19 22.8579 30.8321 19.5 26.69 19.5C22.5479 19.5 19.19 22.8579 19.19 27C19.19 31.1421 22.5479 34.5 26.69 34.5Z"/>
</svg>
