<svg width="40" height="40" viewBox="0 0 40 40" xmlns="http://www.w3.org/2000/svg">
<path d="M28.5 3H4V33.5H16.0108C15.5344 32.7189 15.1412 31.8815 14.8437 31H6.5V5.5H26V14.5187C26.2284 14.5063 26.4585 14.5 26.69 14.5C27.3047 14.5 27.909 14.5444 28.5 14.6301V3Z"/>
<path d="M25.25 14.582V6.25H7.25V27.25H14.1925C14.1908 27.1669 14.19 27.0835 14.19 27C14.19 26.2318 14.2593 25.4799 14.392 24.75H9.75V8.75H22.75V15.1336C23.5505 14.868 24.3869 14.681 25.25 14.582Z"/>
<path fill-rule="evenodd" clip-rule="evenodd" d="M26.6742 22.25C25.1747 22.25 23.9591 23.4656 23.9591 24.9651V25.8987H22.94V31.5H30.4085V25.8987H29.3893V24.9651C29.3893 23.4656 28.1737 22.25 26.6742 22.25ZM28.1601 25.8987H25.1883V24.9651C25.1883 24.1444 25.8536 23.4792 26.6742 23.4792C27.4949 23.4792 28.1601 24.1444 28.1601 24.9651V25.8987ZM27.2966 28.077H26.0519V29.3217H27.2966V28.077Z"/>
<path fill-rule="evenodd" clip-rule="evenodd" d="M26.69 37C32.2128 37 36.69 32.5228 36.69 27C36.69 21.4772 32.2128 17 26.69 17C21.1672 17 16.69 21.4772 16.69 27C16.69 32.5228 21.1672 37 26.69 37ZM26.69 34.5C30.8321 34.5 34.19 31.1421 34.19 27C34.19 22.8579 30.8321 19.5 26.69 19.5C22.5479 19.5 19.19 22.8579 19.19 27C19.19 31.1421 22.5479 34.5 26.69 34.5Z"/>
</svg>
