<svg width="40" height="40" viewBox="0 0 40 40" xmlns="http://www.w3.org/2000/svg">
<path d="M22.291 20.289C21.7706 20.7236 21.3333 21.0888 21.3333 21.511H18.6667C18.6667 20.5642 19.4315 19.9295 20.1419 19.3399C20.7581 18.8285 21.3333 18.3511 21.3333 17.7335C21.3333 17.2047 20.95 16.8571 20.1 16.8571C19.1833 16.8571 18.6333 17.4162 18.3 18.1264L16 16.9327C16.7333 15.3764 18.35 14.5 20.2 14.5C22.1 14.5 24 15.5577 24 17.522C24 18.8617 23.0557 19.6503 22.291 20.289Z"/>
<path d="M21.5833 24.0646C21.5833 24.8503 20.8667 25.5 20 25.5C19.1333 25.5 18.4167 24.8503 18.4167 24.0646C18.4167 23.2788 19.1333 22.6291 20 22.6291C20.8667 22.6291 21.5833 23.2788 21.5833 24.0646Z"/>
<path fill-rule="evenodd" clip-rule="evenodd" d="M18.5 3H21.5V8.09284C26.9281 8.76971 31.2303 13.0719 31.9072 18.5H37V21.5H31.9072C31.2303 26.9281 26.9281 31.2303 21.5 31.9072V37H18.5V31.9072C13.0719 31.2303 8.76971 26.9281 8.09284 21.5H3V18.5H8.09284C8.76971 13.0719 13.0719 8.76971 18.5 8.09284V3ZM29.5 20C29.5 25.2467 25.2467 29.5 20 29.5C14.7533 29.5 10.5 25.2467 10.5 20C10.5 14.7533 14.7533 10.5 20 10.5C25.2467 10.5 29.5 14.7533 29.5 20Z"/>
</svg>
