<svg width="40" height="40" viewBox="0 0 40 40" xmlns="http://www.w3.org/2000/svg">
<path d="M18.5 3H21.5V8.09284C26.9281 8.76971 31.2303 13.0719 31.9072 18.5H37V21.5H31.9072C31.7336 22.8916 31.3218 24.2091 30.7139 25.4106L28.8256 23.5223C29.2607 22.4331 29.5 21.2445 29.5 20C29.5 14.7533 25.2467 10.5 20 10.5C18.7555 10.5 17.5669 10.7393 16.4777 11.1744L14.5894 9.28611C15.7909 8.67816 17.1084 8.26637 18.5 8.09284V3Z"/>
<path d="M5.11612 6.88398L33.1161 34.884L34.8839 33.1162L6.88388 5.11621L5.11612 6.88398Z"/>
<path d="M3 21.5H8.09284C8.76971 26.9281 13.0719 31.2303 18.5 31.9072V37H21.5V31.9072C22.8916 31.7336 24.2091 31.3218 25.4106 30.7139L23.5223 28.8256C22.4331 29.2607 21.2445 29.5 20 29.5C14.7533 29.5 10.5 25.2467 10.5 20C10.5 18.7555 10.7393 17.5669 11.1744 16.4777L9.2861 14.5894C8.67816 15.7909 8.26637 17.1084 8.09284 18.5H3V21.5Z"/>
</svg>
