<svg width="40" height="40" viewBox="0 0 40 40" xmlns="http://www.w3.org/2000/svg">
<path fill-rule="evenodd" clip-rule="evenodd" d="M14.4775 29.532L14.8458 23.9474L9.94658 22.3885C9.50313 22.2575 8.94424 22.0212 8.45766 21.5711C7.90903 21.0637 7.40719 20.2156 7.51401 19.1379C7.61095 18.1599 8.16456 17.4942 8.57535 17.1285C9.00355 16.7472 9.49552 16.4874 9.94734 16.3044L9.96538 16.2971L26.7725 9.7912C27.862 9.33064 29.361 9.33645 30.4781 10.4332C31.5631 11.4986 31.6293 12.9472 31.3719 14.0328L28.5137 27.5412L28.5127 27.5462C28.3423 28.3608 27.863 29.6066 26.5367 30.2104C25.2135 30.8129 23.9689 30.3556 23.2724 29.9694L23.128 29.8893L20.3398 27.8211L19.7828 28.3632C19.7799 28.3662 19.7767 28.3694 19.7734 28.3728C19.6688 28.4792 19.3579 28.7956 18.9429 29.0446C18.4053 29.3673 17.7998 29.532 17.1478 29.532H14.4775ZM20.1206 24.5458L24.4849 27.7831C25.286 28.2274 25.8658 27.9947 26.0661 27.032L28.9335 13.48C29.2286 12.2951 28.4907 11.7556 27.7212 12.1047L10.886 18.6215C9.73695 19.087 9.7475 19.7323 10.6752 19.9968L14.9973 21.3721L24.9909 15.0352C25.0801 14.9814 25.1678 14.9434 25.2491 14.9193L25.2518 14.9185C25.601 14.816 25.8293 14.9706 25.539 15.2362L17.443 22.557L17.1478 27.032C17.58 27.032 17.7803 26.831 18.0228 26.5876L20.1206 24.5458Z"/>
</svg>
