<svg width="40" height="40" viewBox="0 0 40 40" xmlns="http://www.w3.org/2000/svg">
<path d="M35.6569 10.7513L35.6578 10.7562L35.6583 10.7601L33.6788 21.9864C33.6827 21.9643 33.6823 21.9652 33.671 21.9881C33.6364 22.058 33.5008 22.3325 33.0792 22.7811C32.5796 23.3129 31.8561 23.8974 30.9875 24.4195C29.2341 25.4734 27.3833 25.9898 26.0534 25.8169C26.1771 26.6642 26.0557 27.5239 25.832 28.3083C30.1528 28.7985 35.7131 24.8462 36.1408 22.4205L38.1204 11.1937C38.5603 8.69886 35.148 6.16787 29.5346 5.17807C23.9212 4.18828 19.849 5.39955 19.4091 7.8944L19.0725 9.80296L19.1348 9.81998C19.914 10.0355 20.7119 10.3552 21.4351 10.8011L21.871 8.32904C21.8717 8.32762 21.8731 8.32503 21.8754 8.3212C21.8841 8.30691 21.9163 8.25936 22.0009 8.18791C22.1813 8.03544 22.5499 7.81837 23.1983 7.639C24.5046 7.27764 26.5279 7.18647 29.1005 7.64009C31.6731 8.09371 33.5432 8.87139 34.647 9.65771C35.195 10.048 35.4671 10.3781 35.5846 10.5831C35.6396 10.6791 35.6536 10.7348 35.6569 10.7513Z"/>
<path d="M25.217 21.0622L24.7986 18.6893C25.418 18.6237 26.1009 18.6456 26.8059 18.7699C29.2172 19.1951 30.9749 20.6568 30.732 22.0346L25.217 21.0622Z"/>
<path d="M24.2128 13.8851C24.1022 13.8656 23.9952 13.8373 23.8921 13.8009C23.5986 12.87 23.0634 12.1171 22.3962 11.5162C22.3951 11.3469 22.4092 11.1742 22.4399 11L26.8655 11.7804C26.6225 13.1583 25.4349 14.1006 24.2128 13.8851Z"/>
<path d="M29.3782 12.2009L33.9399 13.0052C33.6969 14.3831 32.4788 15.32 31.2191 15.0979C29.9595 14.8758 29.1352 13.5788 29.3782 12.2009Z"/>
<path d="M11.9927 21.572L7.4399 22.3748C7.19695 20.997 8.01918 19.7003 9.2764 19.4786C10.5336 19.2569 11.7498 20.1942 11.9927 21.572Z"/>
<path d="M18.9759 20.3239C18.7329 18.9461 17.562 18.0008 16.3605 18.2127C15.159 18.4245 14.382 19.7133 14.6249 21.0911L18.9759 20.3239Z"/>
<path d="M9.82812 27.5398L18.5601 26.0001C18.803 27.378 17.0453 28.8396 14.634 29.2648C12.2227 29.69 10.0711 28.9177 9.82812 27.5398Z"/>
<path fill-rule="evenodd" clip-rule="evenodd" d="M11.4654 12.1781C5.852 13.1679 2.43966 15.6989 2.87957 18.1937L4.85916 29.4205C5.29907 31.9154 11.1686 36.0252 15.5346 35.2554C19.9005 34.4856 24.0104 28.616 23.5705 26.1212L21.5909 14.8944C21.151 12.3995 17.0788 11.1883 11.4654 12.1781ZM19.129 15.329C19.1283 15.3276 19.1269 15.325 19.1246 15.3212C19.1159 15.3069 19.0837 15.2594 18.9991 15.1879C18.8187 15.0354 18.4501 14.8184 17.8017 14.639C16.4954 14.2776 14.4721 14.1865 11.8995 14.6401C9.32693 15.0937 7.45683 15.8714 6.35295 16.6577C5.80498 17.048 5.53286 17.3781 5.41543 17.5831C5.36041 17.6791 5.34641 17.7348 5.34312 17.7513C5.34224 17.7556 5.34185 17.7585 5.34168 17.7601L7.32118 28.9864C7.31729 28.9643 7.31775 28.9653 7.32906 28.9881C7.36359 29.058 7.49924 29.3325 7.92078 29.7811C8.42041 30.3129 9.14389 30.8974 10.0125 31.4195C11.8346 32.5147 13.7619 33.0294 15.1004 32.7934C16.4389 32.5574 18.074 31.4145 19.4116 29.7622C20.0493 28.9745 20.5292 28.1778 20.8169 27.5072C21.0595 26.9414 21.0931 26.6371 21.1017 26.5596C21.1045 26.5343 21.1046 26.5332 21.1085 26.5552L19.129 15.329Z"/>
</svg>
