<svg width="40" height="40" viewBox="0 0 40 40" xmlns="http://www.w3.org/2000/svg">
<path d="M28 4H20V7H28V4Z"/>
<path d="M22.5376 13H25.0376V19.94L30.3377 23L29.0877 25.1651L22.5 21.3511L22.5341 20.7226L22.5376 20.7156V13Z"/>
<path fill-rule="evenodd" clip-rule="evenodd" d="M29.814 9.5C29.2369 9.17974 28.6305 8.90568 28 8.68282C26.7489 8.24062 25.4025 8 24 8C22.5975 8 21.2511 8.24062 20 8.68282C19.3695 8.90568 18.7631 9.17974 18.186 9.5C14.4969 11.5471 12 15.482 12 20C12 26.6274 17.3726 32 24 32C30.6274 32 36 26.6274 36 20C36 17.7298 35.3696 15.6069 34.2743 13.7967L36.9498 11.1213L34.8284 9L32.3991 11.4294C31.6308 10.6764 30.7618 10.0259 29.814 9.5ZM31.5118 14.0603L30.6491 13.2148C28.9331 11.5329 26.5897 10.5 24 10.5C18.7533 10.5 14.5 14.7533 14.5 20C14.5 25.2467 18.7533 29.5 24 29.5C29.2467 29.5 33.5 25.2467 33.5 20C33.5 18.1988 33.0011 16.5217 32.1354 15.0909L31.5118 14.0603Z"/>
<path d="M10.3851 25C10.707 25.8761 11.111 26.7126 11.5878 27.5H3V25H10.3851Z"/>
<path d="M9.53394 19C9.51144 19.3304 9.5 19.6639 9.5 20C9.5 20.5065 9.52597 21.0069 9.57665 21.5H5V19H9.53394Z"/>
<path d="M11.2985 13C10.8616 13.7911 10.4964 14.6274 10.2118 15.5H7V13H11.2985Z"/>
</svg>
