<svg width="40" height="40" viewBox="0 0 40 40" xmlns="http://www.w3.org/2000/svg">
<path d="M3.11612 4.88398L35.1161 36.884L36.8839 35.1162L4.88389 3.11621L3.11612 4.88398Z"/>
<path d="M6 22C6 18.9773 6.95795 16.1783 8.58682 13.8901L10.3852 15.6885C9.19341 17.5003 8.5 19.6692 8.5 22C8.5 28.3513 13.6487 33.5 20 33.5C22.3308 33.5 24.4997 32.8066 26.3115 31.6148L28.1099 33.4132C25.8217 35.0421 23.0227 36 20 36C12.268 36 6 29.732 6 22Z"/>
<path d="M32.8558 27.5524L30.9198 25.6165C31.2963 24.4793 31.5 23.2634 31.5 22C31.5 15.6487 26.3513 10.5 20 10.5C18.7366 10.5 17.5207 10.7037 16.3835 11.0802L14.4476 9.14425C16.1499 8.40801 18.0273 8 20 8C23.3128 8 26.3569 9.15065 28.7543 11.0741L30.8284 9L32.9498 11.1213L30.8811 13.19C32.8314 15.5959 34 18.6615 34 22C34 23.9727 33.592 25.8501 32.8558 27.5524Z"/>
<path d="M18.75 13V13.4467L21.25 15.9467V13H18.75Z"/>
<path d="M24 4H16V7H24V4Z"/>
</svg>
