<svg width="40" height="40" viewBox="0 0 40 40" xmlns="http://www.w3.org/2000/svg">
<path d="M24 4H16V7H24V4Z"/>
<path d="M18.75 13H21.25V21.94L26.55 25L25.3 27.1651L18.7123 23.3511L18.7464 22.7226L18.75 22.7156V13Z"/>
<path fill-rule="evenodd" clip-rule="evenodd" d="M34 22C34 29.732 27.732 36 20 36C12.268 36 6 29.732 6 22C6 14.268 12.268 8 20 8C23.3128 8 26.3569 9.15065 28.7543 11.0741L30.8284 9L32.9498 11.1213L30.881 13.19C32.8314 15.5959 34 18.6615 34 22ZM31.5 22C31.5 28.3513 26.3513 33.5 20 33.5C13.6487 33.5 8.5 28.3513 8.5 22C8.5 15.6487 13.6487 10.5 20 10.5C26.3513 10.5 31.5 15.6487 31.5 22Z"/>
</svg>
