<svg width="40" height="40" viewBox="0 0 40 40" xmlns="http://www.w3.org/2000/svg">
<path fill-rule="evenodd" clip-rule="evenodd" d="M35 10C35 12.2091 33.2091 14 31 14C29.2274 14 27.7241 12.847 27.1992 11.25H13C10.9289 11.25 9.25 12.9289 9.25 15C9.25 17.0711 10.9289 18.75 13 18.75H16.1992C16.7241 17.153 18.2274 16 20 16C21.7726 16 23.2759 17.153 23.8008 18.75H27C30.4518 18.75 33.25 21.5482 33.25 25C33.25 28.4518 30.4518 31.25 27 31.25H12.8008C12.2759 32.847 10.7726 34 9 34C6.79086 34 5 32.2091 5 30C5 27.7909 6.79086 26 9 26C10.7726 26 12.2759 27.153 12.8008 28.75H27C29.0711 28.75 30.75 27.0711 30.75 25C30.75 22.9289 29.0711 21.25 27 21.25H23.8008C23.2759 22.847 21.7726 24 20 24C18.2274 24 16.7241 22.847 16.1992 21.25H13C9.54822 21.25 6.75 18.4518 6.75 15C6.75 11.5482 9.54822 8.75 13 8.75H27.1992C27.7241 7.15303 29.2274 6 31 6C33.2091 6 35 7.79086 35 10ZM32.5 10C32.5 10.8284 31.8284 11.5 31 11.5C30.1716 11.5 29.5 10.8284 29.5 10C29.5 9.17157 30.1716 8.5 31 8.5C31.8284 8.5 32.5 9.17157 32.5 10ZM20 21.5C20.8284 21.5 21.5 20.8284 21.5 20C21.5 19.1716 20.8284 18.5 20 18.5C19.1716 18.5 18.5 19.1716 18.5 20C18.5 20.8284 19.1716 21.5 20 21.5ZM10.5 30C10.5 30.8284 9.82843 31.5 9 31.5C8.17157 31.5 7.5 30.8284 7.5 30C7.5 29.1716 8.17157 28.5 9 28.5C9.82843 28.5 10.5 29.1716 10.5 30Z"/>
</svg>
