<svg width="40" height="40" viewBox="0 0 40 40" xmlns="http://www.w3.org/2000/svg">
<path fill-rule="evenodd" clip-rule="evenodd" d="M9 27V14H27V27H9ZM11.5 16.5H24.5V24.5H11.5V16.5Z"/>
<path d="M31.5 15.5C31.5 16.3285 30.8284 17 30 17C29.1716 17 28.5 16.3285 28.5 15.5C28.5 14.6716 29.1716 14 30 14C30.8284 14 31.5 14.6716 31.5 15.5Z"/>
<path d="M30 22C30.8284 22 31.5 21.3285 31.5 20.5C31.5 19.6716 30.8284 19 30 19C29.1716 19 28.5 19.6716 28.5 20.5C28.5 21.3285 29.1716 22 30 22Z"/>
<path fill-rule="evenodd" clip-rule="evenodd" d="M35.25 9.75004H23.7352L26.7175 6.76777L24.9497 5L20.1997 9.75004H18.5178L13.7678 5.00004L12 6.76781L14.9822 9.75004H4.75V31.25H35.25V9.75004ZM7.25 28.75V12.25H32.75V28.75H7.25Z"/>
</svg>
