<svg width="40" height="40" viewBox="0 0 40 40" xmlns="http://www.w3.org/2000/svg">
<path fill-rule="evenodd" clip-rule="evenodd" d="M25.9713 8C22.4577 8 19.6644 10.974 19.6644 14.5518C19.6644 14.6036 19.665 14.6552 19.6662 14.7066C16.0329 14.194 12.8193 12.24 10.6021 9.40615L9.67928 8.22662L8.94353 9.53108C8.39909 10.4964 8.09369 11.6232 8.09369 12.8047C8.09369 14.1652 8.49171 15.4429 9.18791 16.4975L9.04398 16.7647L8.04398 16.7651V17.3619L8.09084 17.3872C8.20354 18.0962 8.50711 18.7533 8.86563 19.323C9.3172 20.0406 9.90053 20.6906 10.4598 21.2302L9.4727 21.0326L9.96465 22.6357C10.5033 24.3911 11.7546 25.8624 13.398 26.629C12.149 27.2415 10.75 27.58 9.26769 27.58C9.09739 27.58 8.81388 27.5634 8.54869 27.5439C8.42129 27.5345 8.3063 27.5251 8.22316 27.5181L8.1255 27.5096L8.0996 27.5073L8.09321 27.5067L4.77034 27.2014L7.37571 29.2835C8.93312 30.5282 10.3518 31.2235 11.809 31.5954C13.2444 31.9617 14.669 32 16.1778 32C26.6727 32 32.3528 22.9269 32.3528 15.1988V15.1888C32.3528 15.1092 32.3528 15.0278 32.3523 14.9448C32.8408 14.5311 33.3619 14.0191 33.7766 13.5951C34.0513 13.3142 34.2919 13.0588 34.464 12.8735C34.5501 12.7808 34.6194 12.7053 34.6674 12.6527L34.723 12.5914L34.7379 12.5749L34.7438 12.5685L36.2433 10.9H33.219L34.2713 8.35749L32.1752 9.07656L32.173 9.07733L32.1626 9.08086L32.1195 9.09539C32.0813 9.10823 32.0245 9.12712 31.9524 9.15071C31.8079 9.19794 31.6024 9.26376 31.3603 9.33744C31.0223 9.44029 30.6214 9.55588 30.22 9.65739C29.0906 8.60271 27.6105 8 25.9713 8ZM11.874 19.8155C11.4005 19.3612 10.9518 18.8592 10.6152 18.3461C10.8914 18.3887 11.1759 18.4118 11.4675 18.4118H14.7435L12.026 16.5822C10.8689 15.8032 10.0937 14.4106 10.0937 12.8047C10.0937 12.5132 10.1199 12.2277 10.17 11.9512C12.9041 14.7762 16.6248 16.6015 20.7486 16.8186L22.0559 16.8874L21.7784 15.6081C21.7057 15.2729 21.6644 14.9169 21.6644 14.5518C21.6644 11.9954 23.6437 10 25.9713 10C27.2476 10 28.355 10.5217 29.1488 11.4216L29.5361 11.8606L30.1086 11.7377C30.3283 11.6905 30.5525 11.6369 30.7729 11.5804L30.2267 12.9H31.6346C31.3148 13.2031 31.0024 13.4792 30.7436 13.6717L30.3146 13.9907L30.3416 14.5246C30.3526 14.7413 30.3528 14.9494 30.3528 15.1988C30.3528 22.1461 25.27 30 16.1778 30C14.679 30 13.475 29.9565 12.3036 29.6575C12.0109 29.5828 11.7172 29.4913 11.4194 29.3783C13.3289 29.015 15.0726 28.1745 16.5294 26.9693L18.6152 25.2437L15.9085 25.199C14.5491 25.1765 13.3338 24.484 12.5562 23.4134C12.9098 23.3772 13.2581 23.3105 13.5972 23.2124L15.7078 22.6019L13.861 21.4112L13.8549 21.4072L13.8255 21.3877C13.7984 21.3698 13.7571 21.3419 13.7034 21.3049C13.5959 21.2308 13.4397 21.1203 13.2511 20.9789C12.8722 20.6948 12.3711 20.2925 11.874 19.8155Z"/>
</svg>
