<svg width="40" height="40" viewBox="0 0 40 40" xmlns="http://www.w3.org/2000/svg">
<path fill-rule="evenodd" clip-rule="evenodd" d="M6 14V8H12V14H6ZM8.5 10.5H9.5V11.5H8.5V10.5Z"/>
<path fill-rule="evenodd" clip-rule="evenodd" d="M6 23V17H12V23H6ZM8.5 19.5H9.5V20.5H8.5V19.5Z"/>
<path fill-rule="evenodd" clip-rule="evenodd" d="M6 26V32H12V26H6ZM9.5 28.5H8.5V29.5H9.5V28.5Z"/>
<path fill-rule="evenodd" clip-rule="evenodd" d="M15 14V8H34V14H15ZM17.5 10.5H31.5V11.5H17.5V10.5Z"/>
<path fill-rule="evenodd" clip-rule="evenodd" d="M15 17V23H34V17H15ZM31.5 19.5H17.5V20.5H31.5V19.5Z"/>
<path fill-rule="evenodd" clip-rule="evenodd" d="M15 32V26H34V32H15ZM17.5 28.5H31.5V29.5H17.5V28.5Z"/>
</svg>
