<svg width="40" height="40" viewBox="0 0 40 40" xmlns="http://www.w3.org/2000/svg">
<path fill-rule="evenodd" clip-rule="evenodd" d="M6 14V8H12V14H6ZM8.5 10.5H9.5V11.5H8.5V10.5Z"/>
<path fill-rule="evenodd" clip-rule="evenodd" d="M12 23V17H18V23H12ZM14.5 20.5V19.5H15.5V20.5H14.5Z"/>
<path fill-rule="evenodd" clip-rule="evenodd" d="M19 26V32H25V26H19ZM22.5 28.5H21.5V29.5H22.5V28.5Z"/>
<path fill-rule="evenodd" clip-rule="evenodd" d="M15 14V8H34V14H15ZM17.5 10.5H31.5V11.5H17.5V10.5Z"/>
<path fill-rule="evenodd" clip-rule="evenodd" d="M21 17V23H34V17H21ZM31.5 19.5H23.5V20.5H31.5V19.5Z"/>
<path fill-rule="evenodd" clip-rule="evenodd" d="M28 32V26H34V32H28ZM30.5 28.5H31.5V29.5H30.5V28.5Z"/>
</svg>
