<svg width="40" height="40" viewBox="0 0 40 40" xmlns="http://www.w3.org/2000/svg">
<path d="M25.9368 20.9157C25.729 21.2286 25.6458 21.3843 25.9368 21.7343C25.9586 21.763 26.0688 21.8684 26.2355 22.0276C26.9398 22.7007 28.6515 24.3366 28.9541 25.2186C29.1176 25.7371 28.8334 26 28.2723 26H26.3043C25.7791 26 25.5142 25.7247 24.941 25.1289C24.6972 24.8755 24.3977 24.5642 23.9987 24.1914C22.8287 23.1379 22.3276 23.0007 22.0366 23.0007C21.5035 23.0007 21.5048 23.1429 21.5173 24.4644C21.5195 24.6989 21.5221 24.9705 21.5221 25.285C21.5221 25.7371 21.3691 26 20.1158 26C18.0307 26 15.7387 24.8164 14.1111 22.6321C11.669 19.4321 11 17.01 11 16.5229C11 16.2471 11.1133 16.0007 11.675 16.0007H13.6438C14.1486 16.0007 14.3384 16.2064 14.5326 16.7157C15.4949 19.3407 17.1187 21.6343 17.7877 21.6343C18.039 21.6343 18.1522 21.525 18.1522 20.9307V18.2186C18.1068 17.4458 17.8186 17.1117 17.6051 16.8643C17.4733 16.7115 17.37 16.5918 17.37 16.4221C17.37 16.2186 17.5567 16 17.871 16H20.9656C21.3804 16 21.5206 16.2093 21.5206 16.6779V20.3243C21.5206 20.715 21.7119 20.8521 21.8349 20.8521C22.0846 20.8521 22.2961 20.715 22.7537 20.2871C24.1712 18.8064 25.1732 16.5221 25.1732 16.5221C25.297 16.2464 25.528 16 26.029 16H27.9971C28.5919 16 28.7149 16.2871 28.5919 16.6779L28.5904 16.6786C28.3428 17.7507 25.9405 20.9121 25.9368 20.9157Z"/>
<path fill-rule="evenodd" clip-rule="evenodd" d="M35 20C35 28.2843 28.2843 35 20 35C11.7157 35 5 28.2843 5 20C5 11.7157 11.7157 5 20 5C28.2843 5 35 11.7157 35 20ZM32.5 20C32.5 26.9036 26.9036 32.5 20 32.5C13.0964 32.5 7.5 26.9036 7.5 20C7.5 13.0964 13.0964 7.5 20 7.5C26.9036 7.5 32.5 13.0964 32.5 20Z"/>
</svg>
