<svg width="40" height="40" viewBox="0 0 40 40" xmlns="http://www.w3.org/2000/svg">
<path fill-rule="evenodd" clip-rule="evenodd" d="M14.9511 13.1332C14.9511 12.0988 15.8198 11.25 16.9248 11.25H21.3947C21.906 11.25 22.5654 11.3921 23.018 11.9918C23.4013 12.4997 23.4464 13.1083 23.4464 13.5168V17.6379C24.2092 16.7139 24.8823 15.6176 25.3951 14.6762C25.6902 14.1344 25.9241 13.659 26.0835 13.3206C26.1631 13.1516 26.2239 13.0174 26.264 12.927C26.2841 12.8819 26.299 12.8477 26.3086 12.8256L26.3189 12.8017L26.321 12.7968L26.325 12.7873C26.4712 12.449 26.717 12.0443 27.1463 11.729C27.5882 11.4045 28.122 11.25 28.7086 11.25H31.5514C32.1284 11.25 32.9044 11.3885 33.3859 12.0607C33.8554 12.7162 33.7353 13.4526 33.6082 13.8746C33.5812 13.9809 33.5475 14.0912 33.5083 14.2042L33.4496 14.3975L33.4338 14.4054C33.2557 14.8602 33.003 15.3476 32.75 15.7994C32.3536 16.5071 31.8681 17.2786 31.404 17.9839C30.9381 18.6919 30.4846 19.347 30.1479 19.8246C29.9793 20.0638 29.8393 20.2593 29.7409 20.3958C29.7239 20.4195 29.708 20.4414 29.6935 20.4615C29.7499 20.5178 29.813 20.5805 29.8846 20.6515C29.9576 20.724 30.0395 20.8052 30.132 20.8974C30.51 21.274 31.0116 21.7794 31.5278 22.333C32.0415 22.8839 32.5841 23.4978 33.0397 24.092C33.4717 24.6553 33.915 25.3134 34.1206 25.9357L34.1254 25.9501L34.1298 25.9647C34.3177 26.5834 34.3411 27.3928 33.7672 28.0371C33.2453 28.6229 32.5021 28.75 31.9489 28.75H29.1062C28.6561 28.75 28.2367 28.6585 27.8342 28.4536C27.4575 28.2618 27.1506 27.9976 26.8879 27.7419C26.6786 27.5381 26.449 27.2901 26.2094 27.0314C26.1547 26.9723 26.0995 26.9127 26.0439 26.853C25.7342 26.52 25.371 26.1363 24.9138 25.6923C24.2354 25.0586 23.761 24.6964 23.4371 24.491C23.4371 24.516 23.4371 24.5417 23.4372 24.5682C23.4376 24.7301 23.4394 24.9313 23.4415 25.1612C23.4447 25.5258 23.4486 25.9624 23.4486 26.4275C23.4486 26.8855 23.3752 27.7242 22.544 28.2655C21.9225 28.6703 21.0704 28.75 20.1673 28.75C16.6765 28.75 13.0183 26.7136 10.4824 23.1828C8.66458 20.7083 7.4944 18.5183 6.77439 16.8308C6.41443 15.9872 6.16464 15.2636 6.00275 14.6877C5.85134 14.149 5.75 13.6473 5.75 13.2843C5.75 12.9425 5.81289 12.3462 6.29387 11.8592C6.7711 11.376 7.41113 11.2511 7.97503 11.2511H10.8189C11.3659 11.2511 11.957 11.3712 12.4582 11.8155C12.9002 12.2073 13.125 12.7315 13.276 13.1426L13.2788 13.15L13.2814 13.1575C13.9443 15.0354 14.8347 16.7901 15.6598 18.0568C15.8056 18.2805 15.9465 18.4848 16.081 18.6688V15.8656C16.0394 15.2251 15.8628 14.9579 15.7292 14.7813C15.6832 14.7205 15.6368 14.6645 15.5728 14.5875L15.5651 14.5782C15.5075 14.5089 15.4224 14.4064 15.3438 14.2959C15.1697 14.051 14.9511 13.663 14.9511 13.1332ZM17.0673 19.7501C17.0751 19.7537 17.0792 19.7564 17.0792 19.7564C17.0792 19.7564 17.0753 19.7549 17.0673 19.7501ZM22.8503 24.2538C22.8388 24.2557 22.832 24.2559 22.832 24.2559C22.832 24.2559 22.8373 24.2548 22.8503 24.2538ZM29.5308 20.3364C29.5353 20.3532 29.5396 20.3721 29.5432 20.3931L29.4707 20.4461L29.4279 20.4188L29.5308 20.3364ZM29.253 20.5588L28.5753 21.1014L29.2798 20.5859L29.253 20.5588ZM27.5954 21.8775C27.3127 21.5233 27.0056 21.0178 27.0594 20.3641C27.1017 19.8499 27.3745 19.4285 27.4994 19.2356C27.5077 19.2228 27.5154 19.2109 27.5222 19.2002L27.5973 19.0828L27.6253 19.0551C27.6481 19.0237 27.6775 18.983 27.7129 18.934C27.8067 18.8038 27.9415 18.6155 28.1046 18.3841C28.4312 17.9209 28.8686 17.2889 29.3156 16.6096C29.7643 15.9278 30.2137 15.2119 30.5687 14.5779C30.7537 14.2476 30.895 13.9706 30.9964 13.75H28.7086C28.6746 13.75 28.6492 13.752 28.6313 13.7542C28.6282 13.7605 28.6248 13.7679 28.621 13.7765L28.6199 13.7792L28.6176 13.7846L28.6028 13.8189C28.5902 13.8481 28.572 13.8897 28.5485 13.9425C28.5015 14.0482 28.4332 14.1991 28.3451 14.386C28.1692 14.7594 27.9133 15.2794 27.5906 15.872C26.9531 17.0423 26.0219 18.5572 24.8966 19.778L24.8731 19.8034L24.8484 19.8274C24.2506 20.408 23.5939 21.0282 22.6504 21.0282C21.4497 21.0282 20.9464 19.8747 20.9464 18.9864V13.75H18.0366C18.3089 14.2354 18.5288 14.8702 18.579 15.7572L18.581 15.7925V19.8961C18.581 20.3304 18.5577 20.9039 18.2917 21.3737C18.1258 21.6669 17.8746 21.9098 17.5446 22.0554C17.2501 22.1854 16.973 22.2014 16.8045 22.2014C16.3375 22.2014 15.9537 22.0055 15.7092 21.8494C15.4432 21.6795 15.1933 21.4597 14.9662 21.2286C14.5096 20.7641 14.0312 20.1369 13.5651 19.4214C12.6296 17.9853 11.6535 16.0542 10.9268 13.9976C10.8854 13.8855 10.8518 13.8066 10.825 13.7511C10.825 13.7511 10.8209 13.7511 10.8189 13.7511H8.34069C8.36007 13.8298 8.38286 13.9165 8.40947 14.0112C8.53901 14.472 8.75127 15.0937 9.07384 15.8497C9.71833 17.3602 10.7938 19.3848 12.5011 21.708L12.5053 21.7137L12.5094 21.7195C14.6752 24.7379 17.6365 26.25 20.1673 26.25C20.5196 26.25 20.7713 26.2333 20.9484 26.2094C20.9475 25.8303 20.9446 25.5148 20.9419 25.2292C20.9397 24.9971 20.9377 24.7849 20.9372 24.5745C20.9361 24.1216 20.9413 23.6934 20.995 23.3479C21.0477 23.0095 21.1906 22.438 21.738 22.0641C22.1966 21.7507 22.7168 21.751 22.9312 21.7511L22.9418 21.7511C23.8784 21.7511 24.9134 22.2692 26.6297 23.8741L26.638 23.882L26.6463 23.89C27.151 24.3796 27.5493 24.8008 27.8744 25.1502C27.9426 25.2235 28.006 25.292 28.0655 25.3562C28.3003 25.6096 28.4733 25.7962 28.632 25.9507C28.8253 26.1389 28.9212 26.2016 28.9685 26.2257C28.9899 26.2366 29.0162 26.25 29.1062 26.25H31.5038C31.393 26.073 31.2451 25.86 31.0559 25.6133C30.6694 25.1093 30.1871 24.561 29.6993 24.038C29.2141 23.5176 28.7377 23.0372 28.3675 22.6684C28.2845 22.5857 28.2037 22.5055 28.1294 22.4317C28.0432 22.3462 27.9658 22.2693 27.9037 22.2072C27.8442 22.1477 27.789 22.092 27.744 22.0452L27.7399 22.0409C27.7168 22.017 27.654 21.9518 27.5954 21.8775ZM21.4151 13.7507L21.4128 13.7505L21.4151 13.7507ZM23.4489 19.0331L23.4486 19.0311L23.4489 19.0331Z"/>
</svg>
