<svg width="40" height="40" viewBox="0 0 40 40" xmlns="http://www.w3.org/2000/svg">
<path d="M24.5 5.5H5.5V22.5H16.7427C16.3599 23.2905 16.0581 24.1274 15.8477 25H3V3H27V6.5H30.5V15.69C29.6922 15.5261 28.8562 15.44 28 15.44V9H18V19H19.2635C18.5027 19.7436 17.8364 20.5835 17.2844 21.5H15.5V6.5H24.5V5.5Z"/>
<path d="M23 14C23 14.8284 22.3284 15.5 21.5 15.5C20.6716 15.5 20 14.8284 20 14C20 13.1716 20.6716 12.5 21.5 12.5C22.3284 12.5 23 13.1716 23 14Z"/>
<path d="M32.6667 26.75H23.3333V29.25H32.6667V26.75Z"/>
<path fill-rule="evenodd" clip-rule="evenodd" d="M28 38C33.5228 38 38 33.5228 38 28C38 22.4772 33.5228 18 28 18C22.4772 18 18 22.4772 18 28C18 33.5228 22.4772 38 28 38ZM28 35.5C32.1421 35.5 35.5 32.1421 35.5 28C35.5 23.8579 32.1421 20.5 28 20.5C23.8579 20.5 20.5 23.8579 20.5 28C20.5 32.1421 23.8579 35.5 28 35.5Z"/>
</svg>
