<svg width="40" height="40" viewBox="0 0 40 40" xmlns="http://www.w3.org/2000/svg">
<path d="M12 9.75C12 9.05964 12.5596 8.5 13.25 8.5H15.75C16.4404 8.5 17 9.05964 17 9.75C17 10.4404 16.4404 11 15.75 11H13.25C12.5596 11 12 10.4404 12 9.75Z"/>
<path d="M24.25 11C24.9404 11 25.5 10.4404 25.5 9.75C25.5 9.05964 24.9404 8.5 24.25 8.5C23.5596 8.5 23 9.05964 23 9.75C23 10.4404 23.5596 11 24.25 11Z"/>
<path d="M28.5 9.75C28.5 10.4404 27.9404 11 27.25 11C26.5596 11 26 10.4404 26 9.75C26 9.05964 26.5596 8.5 27.25 8.5C27.9404 8.5 28.5 9.05964 28.5 9.75Z"/>
<path fill-rule="evenodd" clip-rule="evenodd" d="M20 31C23.866 31 27 27.866 27 24C27 20.134 23.866 17 20 17C16.134 17 13 20.134 13 24C13 27.866 16.134 31 20 31ZM24.9444 24.7483C24.981 24.5042 25 24.2543 25 24C25 21.2386 22.7614 19 20 19C17.2386 19 15 21.2386 15 24C15 24.2543 15.019 24.5042 15.0556 24.7483C15.1611 24.7417 15.2027 24.7166 15.2236 24.7036C15.2727 24.6731 15.3397 24.6148 15.4772 24.4498C15.4916 24.4325 15.5096 24.4103 15.5307 24.3842C15.6467 24.2408 15.8574 23.9804 16.0849 23.7853C16.419 23.4989 16.8847 23.25 17.5 23.25C18.1153 23.25 18.581 23.4989 18.9151 23.7853C19.1426 23.9804 19.3533 24.2408 19.4693 24.3842C19.4904 24.4103 19.5084 24.4326 19.5228 24.4498C19.6603 24.6148 19.7273 24.6731 19.7764 24.7036C19.8006 24.7186 19.8527 24.75 20 24.75C20.1473 24.75 20.1994 24.7186 20.2236 24.7036C20.2727 24.6731 20.3397 24.6148 20.4772 24.4498C20.4915 24.4326 20.5094 24.4105 20.5305 24.3845C20.6465 24.2411 20.8574 23.9804 21.0849 23.7853C21.419 23.4989 21.8847 23.25 22.5 23.25C23.1153 23.25 23.581 23.4989 23.9151 23.7853C24.1426 23.9804 24.3533 24.2408 24.4693 24.3842C24.4904 24.4103 24.5084 24.4325 24.5228 24.4498C24.6603 24.6148 24.7273 24.6731 24.7764 24.7036C24.7973 24.7166 24.8389 24.7417 24.9444 24.7483ZM23.9482 27.0683C23.7741 27.0035 23.6109 26.9226 23.458 26.8277C23.0539 26.5769 22.7772 26.2602 22.6022 26.0502C22.5625 26.0026 22.5289 25.9619 22.5 25.9268C22.4711 25.9619 22.4375 26.0026 22.3978 26.0502C22.2228 26.2602 21.9461 26.5769 21.542 26.8277C21.1131 27.0939 20.6027 27.25 20 27.25C19.3973 27.25 18.8869 27.0939 18.458 26.8277C18.0539 26.5769 17.7772 26.2602 17.6022 26.0502C17.5625 26.0026 17.5289 25.9619 17.5 25.9268C17.4711 25.9619 17.4375 26.0026 17.3978 26.0502C17.2228 26.2602 16.9461 26.5769 16.542 26.8277C16.3891 26.9226 16.2259 27.0035 16.0518 27.0683C16.9667 28.2438 18.395 29 20 29C21.605 29 23.0333 28.2438 23.9482 27.0683Z"/>
<path fill-rule="evenodd" clip-rule="evenodd" d="M32 35H8V5H32V35ZM29.5 7.5H10.5V12H29.5V7.5ZM10.5 14.5V32.5H29.5V14.5H10.5Z"/>
</svg>
