<svg width="40" height="40" viewBox="0 0 40 40" xmlns="http://www.w3.org/2000/svg">
<path fill-rule="evenodd" clip-rule="evenodd" d="M7 10V4H17V10H7ZM9.5 6.5H14.5V7.5H9.5V6.5Z"/>
<path d="M4 11H20V16.0315C19.0923 16.5291 18.253 17.1361 17.5 17.8348V13.5H6.5V24.5H13.75C13.5861 25.3078 13.5 26.1438 13.5 27H4V11Z"/>
<path d="M13.5394 28H7V34H15.6423C15.1171 33.2244 14.6767 32.3866 14.3345 31.5H9.5V30.5H13.9966C13.7629 29.6971 13.6076 28.8608 13.5394 28Z"/>
<path fill-rule="evenodd" clip-rule="evenodd" d="M27.5281 21H24.4275V23.2285C24.0796 23.3644 23.754 23.5446 23.4575 23.7622L21.5503 22.6611L20 25.3463L21.7931 26.3816C21.7415 26.6468 21.7144 26.9209 21.7144 27.2012C21.7144 27.3577 21.7229 27.5123 21.7393 27.6644L20 28.6686L21.5503 31.3538L23.1763 30.415C23.5434 30.7353 23.9659 30.9937 24.4275 31.1739V33.0149H27.5281V31.1739C27.9897 30.9937 28.4121 30.7353 28.7792 30.415L30.4052 31.3538L31.9555 28.6686L30.2163 27.6644C30.2327 27.5123 30.2411 27.3577 30.2411 27.2012C30.2411 26.9209 30.2141 26.6468 30.1624 26.3816L31.9555 25.3463L30.4052 22.6611L28.498 23.7622C28.2016 23.5446 27.8759 23.3644 27.5281 23.2285V21ZM27.5281 27.2012C27.5281 28.0574 26.834 28.7515 25.9778 28.7515C25.1216 28.7515 24.4275 28.0574 24.4275 27.2012C24.4275 26.345 25.1216 25.6509 25.9778 25.6509C26.834 25.6509 27.5281 26.345 27.5281 27.2012Z"/>
<path fill-rule="evenodd" clip-rule="evenodd" d="M26 37C31.5228 37 36 32.5228 36 27C36 21.4772 31.5228 17 26 17C20.4772 17 16 21.4772 16 27C16 32.5228 20.4772 37 26 37ZM26 34.5C30.1421 34.5 33.5 31.1421 33.5 27C33.5 22.8579 30.1421 19.5 26 19.5C21.8579 19.5 18.5 22.8579 18.5 27C18.5 31.1421 21.8579 34.5 26 34.5Z"/>
</svg>
