<svg width="40" height="40" viewBox="0 0 40 40" xmlns="http://www.w3.org/2000/svg">
<path fill-rule="evenodd" clip-rule="evenodd" d="M15 9.69668L16.3033 11H25V5H15V9.69668ZM22.5 7.5H17.5V8.5H22.5V7.5Z"/>
<path d="M12 28V17.3033L14.5 19.8033V25.5H20.1967L22.6967 28H12Z"/>
<path d="M17.3033 12L19.8033 14.5H25.5V20.1967L28 22.6967V12H17.3033Z"/>
<path fill-rule="evenodd" clip-rule="evenodd" d="M25 30.3033L23.6967 29H15V35H25V30.3033ZM17.5 31.5H22.5V32.5H17.5V31.5Z"/>
<path d="M6.11612 7.88386L32.1161 33.8839L33.8839 32.1161L7.88389 6.11609L6.11612 7.88386Z"/>
</svg>
