<svg width="40" height="40" viewBox="0 0 40 40" xmlns="http://www.w3.org/2000/svg">
<path fill-rule="evenodd" clip-rule="evenodd" d="M7 10V4H17V10H7ZM9.5 6.5H14.5V7.5H9.5V6.5Z"/>
<path d="M4 11H20V16.0315C19.0923 16.5291 18.253 17.1361 17.5 17.8348V13.5H6.5V24.5H13.75C13.5861 25.3078 13.5 26.1438 13.5 27H4V11Z"/>
<path d="M13.5394 28H7V34H15.6423C15.1171 33.2244 14.6767 32.3866 14.3345 31.5H9.5V30.5H13.9966C13.7629 29.6971 13.6076 28.8608 13.5394 28Z"/>
<path fill-rule="evenodd" clip-rule="evenodd" d="M25.9842 22.25C24.4847 22.25 23.2691 23.4656 23.2691 24.9651V25.8987H22.25V31.5H29.7185V25.8987H28.6993V24.9651C28.6993 23.4656 27.4837 22.25 25.9842 22.25ZM27.4701 25.8987H24.4983V24.9651C24.4983 24.1444 25.1636 23.4792 25.9842 23.4792C26.8049 23.4792 27.4701 24.1444 27.4701 24.9651V25.8987ZM26.6066 28.077H25.3619V29.3217H26.6066V28.077Z"/>
<path fill-rule="evenodd" clip-rule="evenodd" d="M26 37C31.5228 37 36 32.5228 36 27C36 21.4772 31.5228 17 26 17C20.4772 17 16 21.4772 16 27C16 32.5228 20.4772 37 26 37ZM26 34.5C30.1421 34.5 33.5 31.1421 33.5 27C33.5 22.8579 30.1421 19.5 26 19.5C21.8579 19.5 18.5 22.8579 18.5 27C18.5 31.1421 21.8579 34.5 26 34.5Z"/>
</svg>
