<svg width="40" height="40" viewBox="0 0 40 40" xmlns="http://www.w3.org/2000/svg">
<path d="M25.8312 24.1475C25.59 24.8287 24.6325 25.3937 23.8687 25.5587C23.3462 25.67 22.6637 25.7587 20.3662 24.8062C17.6473 23.6798 15.8239 21.0393 15.4496 20.4972C15.4193 20.4533 15.3985 20.4232 15.3875 20.4087C15.3837 20.4035 15.3793 20.3975 15.3742 20.3906C15.1909 20.1405 14.2 18.789 14.2 17.3925C14.2 15.9987 14.8875 15.2994 15.1962 14.9855C15.2053 14.9763 15.2141 14.9673 15.2225 14.9587C15.4637 14.7125 15.8625 14.6 16.245 14.6C16.3576 14.6 16.4599 14.6052 16.5527 14.6099C16.5619 14.6103 16.571 14.6108 16.58 14.6112C16.8737 14.6237 17.0212 14.6412 17.215 15.105C17.2873 15.2792 17.3907 15.5301 17.502 15.8001C17.7619 16.4308 18.0647 17.1654 18.1137 17.2687C18.185 17.4162 18.2562 17.6162 18.1562 17.81C18.0683 17.9976 17.9903 18.0873 17.8593 18.2379C17.8506 18.2479 17.8417 18.2582 17.8325 18.2687C17.7708 18.3399 17.7104 18.404 17.6502 18.4679C17.5665 18.5567 17.4833 18.6451 17.3975 18.7512C17.395 18.7541 17.3926 18.757 17.3901 18.7599C17.2571 18.9162 17.1131 19.0853 17.28 19.3737C17.45 19.6612 18.0375 20.62 18.9025 21.39C19.9281 22.303 20.7753 22.6452 21.1573 22.7994C21.1911 22.8131 21.2212 22.8253 21.2475 22.8362C21.4887 22.9362 21.7762 22.9125 21.9525 22.725C22.146 22.5163 22.3787 22.189 22.62 21.8497C22.6578 21.7966 22.6957 21.7432 22.7337 21.69C22.9337 21.4075 23.1862 21.3725 23.4512 21.4725C23.7212 21.5662 25.15 22.2725 25.4437 22.4187C25.5044 22.4492 25.5608 22.4764 25.6128 22.5014C25.8123 22.5974 25.946 22.6618 26.0025 22.76C26.0725 22.8837 26.0725 23.465 25.8312 24.1475Z"/>
<path fill-rule="evenodd" clip-rule="evenodd" d="M20.0025 32.5C17.9092 32.5 15.9345 31.9851 14.1967 31.0695L6.71759 33.4604L9.15139 26.2054C8.09989 24.3751 7.49999 22.2531 7.49999 20C7.49999 13.1049 13.1024 7.5 19.9975 7.5H20.0025C26.8978 7.5 32.5 13.1064 32.5 20C32.5 26.8936 26.8978 32.5 20.0025 32.5ZM11.9037 25.8612L10.6575 29.5763L14.5012 28.3475C16.0825 29.395 17.9687 30 20.0025 30C25.5162 30 30 25.5138 30 20C30 14.4862 25.5162 10 20.0025 10H19.9975C14.4837 10 9.99999 14.485 9.99999 20C9.99999 22.1875 10.705 24.215 11.9037 25.8612Z"/>
</svg>
