<svg width="40" height="40" viewBox="0 0 40 40" xmlns="http://www.w3.org/2000/svg">
<path fill-rule="evenodd" clip-rule="evenodd" d="M12 20C12 15.588 15.587 12 19.998 12H20.002C24.413 12 28 15.589 28 20C28 24.411 24.413 28 20.002 28C18.375 28 16.866 27.516 15.601 26.678L12.526 27.661L13.523 24.689C12.564 23.372 12 21.75 12 20ZM23.087 24.426C23.698 24.294 24.464 23.842 24.657 23.297C24.85 22.751 24.85 22.286 24.794 22.187C24.7488 22.1084 24.6419 22.057 24.4822 21.9801C24.4407 21.9601 24.3955 21.9384 24.347 21.914C24.112 21.797 22.969 21.232 22.753 21.157C22.541 21.077 22.339 21.105 22.179 21.331C22.1486 21.3736 22.1182 21.4163 22.088 21.4588C21.895 21.7302 21.7088 21.9921 21.554 22.159C21.413 22.309 21.183 22.328 20.99 22.248C20.969 22.2392 20.9448 22.2295 20.9178 22.2186C20.6122 22.0952 19.9344 21.8214 19.114 21.091C18.422 20.475 17.952 19.708 17.816 19.478C17.6825 19.2473 17.7976 19.112 17.9041 18.9869L17.91 18.98C17.9786 18.8951 18.0452 18.8244 18.1122 18.7533C18.1603 18.7022 18.2086 18.6509 18.258 18.594C18.2653 18.5855 18.2725 18.5773 18.2794 18.5694C18.3842 18.4488 18.4467 18.3771 18.517 18.227C18.597 18.072 18.54 17.912 18.483 17.794C18.4438 17.7114 18.2016 17.1237 17.9936 16.6191C17.9046 16.4031 17.8219 16.2024 17.764 16.063C17.609 15.692 17.491 15.678 17.256 15.668C17.2488 15.6676 17.2416 15.6673 17.2342 15.6669C17.1599 15.6631 17.0781 15.659 16.988 15.659C16.682 15.659 16.363 15.749 16.17 15.946C16.1633 15.9529 16.1562 15.96 16.1489 15.9675C15.902 16.2186 15.352 16.7779 15.352 17.893C15.352 19.0102 16.1447 20.0914 16.2914 20.2915C16.2954 20.297 16.299 20.3018 16.302 20.306C16.3108 20.3176 16.3275 20.3417 16.3517 20.3767C16.6511 20.8104 18.1098 22.9228 20.285 23.824C22.123 24.586 22.669 24.515 23.087 24.426Z"/>
<path fill-rule="evenodd" clip-rule="evenodd" d="M35 20C35 28.2843 28.2843 35 20 35C11.7157 35 5 28.2843 5 20C5 11.7157 11.7157 5 20 5C28.2843 5 35 11.7157 35 20ZM32.5 20C32.5 26.9036 26.9036 32.5 20 32.5C13.0964 32.5 7.5 26.9036 7.5 20C7.5 13.0964 13.0964 7.5 20 7.5C26.9036 7.5 32.5 13.0964 32.5 20Z"/>
</svg>
