<svg width="40" height="40" viewBox="0 0 40 40" xmlns="http://www.w3.org/2000/svg">
<path fill-rule="evenodd" clip-rule="evenodd" d="M5.25635 12.5952C9.36689 9.55302 14.4742 7.75 20 7.75C25.5257 7.75 30.633 9.55302 34.7436 12.5952L35.7618 13.3488L31.914 18.406L30.9223 17.6709C27.8907 15.4237 24.1058 14.0833 20 14.0833C15.8942 14.0833 12.1093 15.4237 9.07767 17.6709L8.08599 18.406L4.23816 13.3488L5.25635 12.5952ZM7.7837 13.88L8.60299 14.9568C11.8663 12.8277 15.7887 11.5833 20 11.5833C24.2112 11.5833 28.1337 12.8277 31.3969 14.9568L32.2162 13.88C28.7168 11.5872 24.5173 10.25 20 10.25C15.4827 10.25 11.2831 11.5872 7.7837 13.88ZM9.92275 18.7288C12.7375 16.6444 16.2247 15.4167 20 15.4167C23.7752 15.4167 27.2624 16.6444 30.0772 18.7288L31.0949 19.4824L27.2467 24.5401L26.2547 23.8036C24.5204 22.5157 22.3564 21.75 20 21.75C17.6435 21.75 15.4795 22.5157 13.7452 23.8036L12.7533 24.5401L8.90503 19.4824L9.92275 18.7288ZM12.4621 20.0287L13.2827 21.1073C15.2382 19.9284 17.5394 19.25 20 19.25C22.4606 19.25 24.7618 19.9284 26.7172 21.1073L27.5379 20.0287C25.3472 18.6879 22.768 17.9167 20 17.9167C17.2319 17.9167 14.6527 18.6879 12.4621 20.0287ZM14.5902 24.8615C16.0941 23.7497 17.9733 23.0833 20 23.0833C22.0266 23.0833 23.9058 23.7497 25.4097 24.8615L26.4289 25.6149L20 34.0643L13.5711 25.6149L14.5902 24.8615ZM17.1706 26.217L20 29.9357L22.8294 26.217C21.9741 25.8122 21.0135 25.5833 20 25.5833C18.9865 25.5833 18.0259 25.8122 17.1706 26.217Z"/>
</svg>
