<svg width="40" height="40" viewBox="0 0 40 40" xmlns="http://www.w3.org/2000/svg">
<path fill-rule="evenodd" clip-rule="evenodd" d="M8 19.3158V12.1316L16.4706 10.3253V19.1926L8 19.3158ZM13.9706 16.7287L10.5 16.7792V14.1547L13.9706 13.4146V16.7287ZM8 20.6842V28.5526L16.4706 30.1263V20.8074L8 20.6842ZM13.9706 23.2713L10.5 23.2208V26.4743L13.9706 27.1191V23.2713ZM17.8824 30.3863L32 33V21.0263L17.8824 20.8211V30.3863ZM20.3824 28.3067V23.3577L29.5 23.4902V29.9947L20.3824 28.3067ZM32 18.9737V7L17.8824 10.0242V19.1789L32 18.9737ZM29.5 16.5098L20.3824 16.6423V12.0454L29.5 10.0923V16.5098Z"/>
</svg>
