<svg width="40" height="40" viewBox="0 0 40 40" xmlns="http://www.w3.org/2000/svg">
<path d="M15.5 19C16.8807 19 18 17.8807 18 16.5C18 15.1193 16.8807 14 15.5 14C14.1193 14 13 15.1193 13 16.5C13 17.8807 14.1193 19 15.5 19Z"/>
<path d="M27.5 17.75H21.5V15.25H27.5V17.75Z"/>
<path d="M16.118 23.441C16.877 24.9589 18.4041 25.75 20 25.75C21.5959 25.75 23.123 24.9589 23.882 23.441L26.118 24.559C24.877 27.0411 22.4041 28.25 20 28.25C17.5959 28.25 15.123 27.0411 13.882 24.559L16.118 23.441Z"/>
<path fill-rule="evenodd" clip-rule="evenodd" d="M34 20C34 27.732 27.732 34 20 34C12.268 34 6 27.732 6 20C6 12.268 12.268 6 20 6C27.732 6 34 12.268 34 20ZM31.5 20C31.5 26.3513 26.3513 31.5 20 31.5C13.6487 31.5 8.5 26.3513 8.5 20C8.5 13.6487 13.6487 8.5 20 8.5C26.3513 8.5 31.5 13.6487 31.5 20Z"/>
</svg>
