<svg width="40" height="40" viewBox="0 0 40 40" xmlns="http://www.w3.org/2000/svg">
<path d="M16 22C17.1046 22 18 21.1046 18 20C18 18.8954 17.1046 18 16 18C14.8954 18 14 18.8954 14 20C14 21.1046 14.8954 22 16 22Z"/>
<path d="M26 20C26 21.1046 25.1046 22 24 22C22.8954 22 22 21.1046 22 20C22 18.8954 22.8954 18 24 18C25.1046 18 26 18.8954 26 20Z"/>
<path fill-rule="evenodd" clip-rule="evenodd" d="M20 5C26.5213 5 31.921 9.80173 32.8566 16.0625C32.951 16.6946 33 17.3416 33 18L35 34H5L7 18C7 10.8203 12.8203 5 20 5ZM20 28.5C14.5985 28.5 10.1496 24.4214 9.56511 19.1759C13.1507 17.8309 15.9842 14.9474 17.2617 11.3294C19.603 14.7532 23.5391 17 28 17C28.8302 17 29.6422 16.9222 30.4291 16.7734C30.4759 17.1758 30.5 17.5851 30.5 18C30.5 23.799 25.799 28.5 20 28.5Z"/>
</svg>
