<svg width="40" height="40" viewBox="0 0 40 40" xmlns="http://www.w3.org/2000/svg">
<path fill-rule="evenodd" clip-rule="evenodd" d="M28 5.5H34.5V12H37V3H28V5.5ZM37 28H34.5V34.5H28V37H37V28ZM5.5 34.5H12V37H3V28H5.5V34.5ZM3 3V12H5.5V5.5H12V3H3ZM31.1425 16.5206C31.2243 17.0683 31.2667 17.6288 31.2667 18.1993L33 32.0659H7L8.73333 18.1992C8.73337 11.9768 13.7776 6.93262 20 6.93262C22.826 6.93262 25.4089 7.97306 27.3867 9.69177C28.3146 10.4981 29.1093 11.4537 29.7333 12.5211C30.4395 13.7291 30.9273 15.0803 31.1425 16.5206ZM11.2782 19.0921C11.7255 23.5144 15.4597 26.966 20 26.966C24.8417 26.966 28.7667 23.041 28.7667 18.1993C28.7667 17.8593 28.7473 17.5238 28.7096 17.1939C28.131 17.2855 27.5377 17.3331 26.9333 17.3331C23.0672 17.3331 19.6559 15.3858 17.6267 12.4185C16.558 15.445 14.233 17.8783 11.2782 19.0921ZM18.2667 19.9326C18.2667 20.8898 17.4906 21.6659 16.5333 21.6659C15.576 21.6659 14.8 20.8898 14.8 19.9326C14.8 18.9753 15.576 18.1992 16.5333 18.1992C17.4906 18.1992 18.2667 18.9753 18.2667 19.9326ZM23.4667 21.6659C24.424 21.6659 25.2 20.8898 25.2 19.9326C25.2 18.9753 24.424 18.1992 23.4667 18.1992C22.5094 18.1992 21.7333 18.9753 21.7333 19.9326C21.7333 20.8898 22.5094 21.6659 23.4667 21.6659Z"/>
</svg>
