<svg width="40" height="40" viewBox="0 0 40 40" xmlns="http://www.w3.org/2000/svg">
<path fill-rule="evenodd" clip-rule="evenodd" d="M24.8318 15.1119V16.9599H32.1758V14.3199H29.2238L30.3518 13.1919C30.8233 12.7204 31.1955 12.2631 31.4685 11.8199C31.844 11.2104 32.0318 10.6278 32.0318 10.0719C32.0318 9.17593 31.6798 8.44793 30.9758 7.88792C30.2878 7.31193 29.4238 7.02393 28.3838 7.02393C27.5918 7.02393 26.908 7.1846 26.3324 7.50596C25.9087 7.74247 25.5437 8.06601 25.2372 8.4766C25.1836 8.54838 25.1318 8.62282 25.0818 8.69992C24.935 8.92632 24.8037 9.17565 24.6878 9.44792L27.0638 10.7919C27.1076 10.6835 27.1539 10.5828 27.2028 10.49C27.2045 10.4867 27.2063 10.4834 27.208 10.4802C27.2395 10.4208 27.272 10.3648 27.3056 10.3119C27.3501 10.242 27.3963 10.1776 27.4444 10.119C27.6042 9.92405 27.784 9.79173 27.9838 9.72205C28.095 9.6833 28.2123 9.66392 28.3358 9.66392C28.8318 9.66392 29.0798 9.87992 29.0798 10.3119C29.0798 10.6014 28.8897 10.9563 28.5096 11.3764C28.4555 11.4362 28.3976 11.4974 28.3358 11.5598C28.3278 11.5678 28.3198 11.5759 28.3118 11.5839L24.8318 15.1119ZM22.2891 8.69992H18.4072L16.7706 12.0224L15.1339 8.69992H5L12.3506 22.1812V30.4999H21.1906V22.1812L22.6743 19.4599H34.6758V11.8199H34.2288C34.4211 11.2679 34.5318 10.6847 34.5318 10.0719C34.5318 8.42106 33.8385 6.98193 32.5568 5.95117C31.3534 4.95396 29.9021 4.52393 28.3838 4.52393C27.1099 4.52393 25.8572 4.81767 24.7567 5.53942C23.6543 6.26244 22.8871 7.29534 22.3876 8.46863L22.2891 8.69992ZM19.9626 11.1999L16.7706 17.6799L13.5786 11.1999H9.21058L14.8506 21.5439V27.9999H18.6906V21.5439L24.3306 11.1999H19.9626Z"/>
</svg>
