<svg width="40" height="40" viewBox="0 0 40 40" xmlns="http://www.w3.org/2000/svg">
<path fill-rule="evenodd" clip-rule="evenodd" d="M24.9038 9.99986H28.0958L26.6078 11.8239L27.6158 13.3119H28.1918C28.2331 13.3119 28.2731 13.3129 28.3118 13.3149C28.3601 13.3174 28.4063 13.3214 28.4504 13.3271C28.4988 13.3332 28.5447 13.3413 28.5881 13.3512C28.7791 13.3949 28.9216 13.475 29.0155 13.5916C29.1063 13.7043 29.1518 13.851 29.1518 14.0319C29.1518 14.5279 28.8718 14.7759 28.3118 14.7759C28.271 14.7759 28.231 14.7746 28.1918 14.7721C27.9759 14.7581 27.7839 14.7059 27.6158 14.6153C27.5124 14.5595 27.418 14.4893 27.3326 14.4046C27.229 14.3017 27.1386 14.1775 27.0616 14.0319C27.0184 13.9502 26.9793 13.8617 26.9445 13.7666C26.936 13.7434 26.9278 13.7198 26.9198 13.6959L24.4478 15.1359C24.5345 15.3263 24.6323 15.5041 24.7411 15.6693C24.7754 15.7214 24.8108 15.7722 24.8473 15.8218C25.2191 16.3268 25.7048 16.702 26.3045 16.9475C26.8716 17.1798 27.5407 17.2959 28.3118 17.2959C29.5118 17.2959 30.4398 17.0159 31.0958 16.4559C31.7678 15.8959 32.1038 15.0879 32.1038 14.0319C32.1038 13.6003 32.0361 13.2144 31.9008 12.8742C31.6238 12.1778 31.0634 11.6726 30.2197 11.3585C30.2181 11.358 30.2166 11.3574 30.2151 11.3568C30.158 11.3356 30.0995 11.3153 30.0398 11.2959L31.6478 9.39986V7.35986H24.9038V9.99986ZM22.4038 8.69986V4.85986H34.1478V10.3172L33.6514 10.9025C34.3352 11.8542 34.6038 12.9499 34.6038 14.0319C34.6038 15.6559 34.0597 17.2339 32.7077 18.3668C31.4515 19.4334 29.8707 19.7959 28.3118 19.7959C27.0497 19.7959 25.7985 19.56 24.6859 18.9381C24.2276 18.6819 23.8183 18.3742 23.4582 18.0223L21.1906 22.1811V30.4999H12.3506V22.1811L5 8.69986H15.1339L16.7706 12.0223L18.4072 8.69986H22.4038ZM14.8506 21.5439V27.9999H18.6906V21.5439L24.3306 11.1999H19.9626L16.7706 17.6799L13.5786 11.1999H9.21058L14.8506 21.5439Z"/>
</svg>
