<svg width="40" height="40" viewBox="0 0 40 40" xmlns="http://www.w3.org/2000/svg">
<path fill-rule="evenodd" clip-rule="evenodd" d="M24.5678 12.8559L27.4958 7.35986H30.6158L27.8078 12.8559H28.8878V11.3919H31.6718V12.8559H32.5598V15.4959H31.6718V16.9599H28.8878V15.4959H24.5678V12.8559ZM24.3306 11.1999H19.9626L16.7706 17.6799L13.5786 11.1999H9.21058L14.8506 21.5439V27.9999H18.6906V21.5439L24.3306 11.1999ZM21.1906 22.1811L23.4726 17.9959H26.3878V19.4599H34.1718V17.9959H35.0598V10.3559H34.1718V8.89186H32.6404L34.7005 4.85986H25.995L23.9492 8.69986H18.4072L16.7706 12.0223L15.1339 8.69986H5L12.3506 22.1811V30.4999H21.1906V22.1811Z"/>
</svg>
