<svg width="40" height="40" viewBox="0 0 40 40" xmlns="http://www.w3.org/2000/svg">
<path fill-rule="evenodd" clip-rule="evenodd" d="M19.9747 9.75H20C22.528 9.75 24.5958 9.80163 26.1968 9.90022C27.7644 9.99675 28.9808 10.1428 29.7456 10.3656L29.7526 10.3676C31.2825 10.823 32.2802 11.9266 32.682 13.4763L32.6823 13.4775C32.8662 14.1897 32.9805 15.0856 33.0544 16.1383C33.1389 17.1745 33.1767 18.0799 33.178 18.8779L33.25 19.9584V20C33.25 22.847 33.0583 25.0408 32.6836 26.5174L32.682 26.5237C32.2802 28.0734 31.2825 29.177 29.7526 29.6323L29.7512 29.6328C29.0232 29.8485 27.8479 29.9661 26.2824 30.0425C24.7111 30.1331 23.2692 30.1724 21.9334 30.1729L20.0253 30.25H20C17.472 30.25 15.4042 30.1984 13.8032 30.0998C12.2356 30.0033 11.0192 29.8572 10.2544 29.6344L10.2474 29.6324C8.71754 29.177 7.71979 28.0734 7.318 26.5237L7.31768 26.5225C7.13384 25.8103 7.01949 24.9144 6.94556 23.8617C6.86111 22.8255 6.82332 21.9201 6.82203 21.1221L6.75 20.0416V20C6.75 17.153 6.94173 14.9592 7.31639 13.4826L7.31799 13.4763C7.71977 11.9266 8.71755 10.823 10.2474 10.3676L10.2488 10.3672C10.9768 10.1515 12.1521 10.0339 13.7176 9.95747C15.2889 9.86692 16.7308 9.82764 18.0666 9.82715L19.9747 9.75ZM20.0252 12.25L18.1173 12.3271H18.092C16.7965 12.3271 15.3926 12.365 13.856 12.4536L13.8448 12.4543C12.246 12.5322 11.3593 12.6458 10.9598 12.764C10.331 12.9514 9.93717 13.3384 9.73878 14.1007C9.44338 15.2671 9.25191 17.1988 9.25001 19.9586L9.322 21.0384V21.08C9.322 21.8128 9.35621 22.6657 9.43785 23.6654L9.43844 23.6726L9.43895 23.6799C9.50901 24.6807 9.6105 25.4022 9.73817 25.897C9.93607 26.6596 10.3292 27.0473 10.957 27.2352C11.4295 27.3721 12.3963 27.5084 13.9568 27.6045C15.4826 27.6985 17.4864 27.7497 19.9748 27.75L21.8827 27.6729H21.908C23.2035 27.6729 24.6074 27.635 26.144 27.5464L26.1552 27.5457C27.7539 27.4679 28.6405 27.3542 29.0401 27.236C29.669 27.0487 30.0628 26.6616 30.2612 25.8993C30.5566 24.7329 30.7481 22.8012 30.75 20.0414L30.678 18.9616V18.92C30.678 18.1872 30.6438 17.3343 30.5621 16.3346L30.5616 16.3274L30.5611 16.3201C30.491 15.3191 30.3895 14.5976 30.2618 14.1028C30.0638 13.3403 29.6708 12.9527 29.043 12.7648C28.5705 12.6279 27.6037 12.4916 26.0432 12.3955C24.5174 12.3015 22.5136 12.2503 20.0252 12.25ZM16.35 13.8984L26.2021 20L16.35 26.1016V13.8984ZM18.85 18.3873V21.6127L21.4539 20L18.85 18.3873Z"/>
</svg>
