<svg width="40" height="40" viewBox="0 0 40 40" xmlns="http://www.w3.org/2000/svg">
<path d="M22.3148 13.2592C22.3148 17.2684 19.0647 20.5185 15.0555 20.5185C11.0463 20.5185 7.79626 17.2684 7.79626 13.2592C7.79626 9.25008 11.0463 6 15.0555 6C19.0647 6 22.3148 9.25008 22.3148 13.2592Z"/>
<path fill-rule="evenodd" clip-rule="evenodd" d="M39.5 27C39.5 32.5228 35.0228 37 29.5 37C23.9772 37 19.5 32.5228 19.5 27C19.5 21.4772 23.9772 17 29.5 17C35.0228 17 39.5 21.4772 39.5 27ZM27.9167 20.75L27.9167 28.4556L33.258 31.547L34.3415 29.6704L30.0833 27.2119V20.75H27.9167Z"/>
<path d="M15.0555 23.6296C15.7169 23.6296 16.3638 23.5677 16.9908 23.4493C16.6711 24.5779 16.5 25.769 16.5 27C16.5 29.5773 17.25 31.9794 18.5436 34H0.5V24.6666L8.83265 21.5558C10.566 22.858 12.7206 23.6296 15.0555 23.6296Z"/>
</svg>
