<svg width="40" height="40" viewBox="0 0 40 40" xmlns="http://www.w3.org/2000/svg">
<path d="M22.3148 13.2592C22.3148 17.2684 19.0647 20.5185 15.0555 20.5185C11.0463 20.5185 7.79626 17.2684 7.79626 13.2592C7.79626 9.25008 11.0463 6 15.0555 6C19.0647 6 22.3148 9.25008 22.3148 13.2592Z"/>
<path d="M16.9908 23.4493C16.3638 23.5677 15.7169 23.6296 15.0555 23.6296C12.7206 23.6296 10.566 22.858 8.83265 21.5558L0.5 24.6666V34H18.5436C17.25 31.9794 16.5 29.5773 16.5 27C16.5 25.769 16.6711 24.5779 16.9908 23.4493Z"/>
<path fill-rule="evenodd" clip-rule="evenodd" d="M39.5 27C39.5 32.5228 35.0228 37 29.5 37C23.9772 37 19.5 32.5228 19.5 27C19.5 21.4772 23.9772 17 29.5 17C35.0228 17 39.5 21.4772 39.5 27ZM28.06 28.424H30.62C30.62 27.9769 31.0398 27.5902 31.5394 27.13C32.2735 26.4537 33.18 25.6186 33.18 24.2C33.18 22.12 31.356 21 29.532 21C27.756 21 26.204 21.928 25.5 23.576L27.708 24.84C28.028 24.088 28.556 23.496 29.436 23.496C30.252 23.496 30.62 23.864 30.62 24.424C30.62 25.078 30.0678 25.5835 29.4763 26.125C28.7942 26.7493 28.06 27.4215 28.06 28.424ZM29.34 32.648C30.172 32.648 30.86 31.96 30.86 31.128C30.86 30.296 30.172 29.608 29.34 29.608C28.508 29.608 27.82 30.296 27.82 31.128C27.82 31.96 28.508 32.648 29.34 32.648Z"/>
</svg>
