<svg width="40" height="40" viewBox="0 0 40 40" xmlns="http://www.w3.org/2000/svg">
<path d="M25.4008 17.2652C25.9061 16.3656 26.1944 15.3276 26.1944 14.2222C26.1944 14.2088 26.1943 14.1954 26.1942 14.182C26.1936 14.0754 26.1902 13.9695 26.1843 13.8643C25.9988 10.5944 23.2885 8 19.9722 8C16.5357 8 13.7499 10.7858 13.7499 14.2222C13.7499 17.6586 16.5357 20.4444 19.9722 20.4444C21.5717 20.4444 23.0303 19.8409 24.1326 18.849C24.2143 18.7755 24.2942 18.6997 24.3719 18.622C24.7736 18.2203 25.1205 17.7641 25.4008 17.2652Z"/>
<path d="M11.2499 14.2222C11.2499 13.8119 11.2783 13.4082 11.3331 13.013C11.2139 13.0044 11.0936 13 10.9722 13C8.25167 13 6.04626 15.2054 6.04626 17.9259C6.04626 19.2761 6.5895 20.4995 7.46934 21.3893L12.8955 19.3221C11.8601 17.8879 11.2499 16.1263 11.2499 14.2222Z"/>
<path d="M5.13885 24.1692L1.20831 25.6666V31.9999H5.13885V24.1692Z"/>
<path d="M28.6944 14.2222C28.6944 16.1263 28.0842 17.8879 27.0488 19.3221L32.475 21.3892C33.3548 20.4994 33.898 19.2761 33.898 17.9259C33.898 15.2054 31.6926 13 28.9721 13C28.8508 13 28.7304 13.0044 28.6112 13.013C28.666 13.4082 28.6944 13.8119 28.6944 14.2222Z"/>
<path d="M34.8055 31.9999H38.736V25.6666L34.8055 24.1693V31.9999Z"/>
<path d="M14.6383 21.3335L7.63885 23.9999V31.9999H32.3055V23.9999L25.3061 21.3335C23.8204 22.4497 21.9736 23.1111 19.9722 23.1111C17.9709 23.1111 16.124 22.4497 14.6383 21.3335Z"/>
</svg>
