<svg width="40" height="40" viewBox="0 0 40 40" xmlns="http://www.w3.org/2000/svg">
<path d="M24.4008 12.2652C24.9061 11.3656 25.1944 10.3276 25.1944 9.22221L25.1942 9.18197C25.1936 9.07542 25.1902 8.96949 25.1843 8.86427C24.9988 5.5944 22.2885 3 18.9722 3C15.5357 3 12.7499 5.78578 12.7499 9.22221C12.7499 12.6586 15.5357 15.4444 18.9722 15.4444C20.5717 15.4444 22.0303 14.8409 23.1326 13.849C23.2143 13.7755 23.2942 13.6997 23.3719 13.622C23.7736 13.2203 24.1205 12.7641 24.4008 12.2652Z"/>
<path d="M10.2499 9.22221C10.2499 8.81191 10.2783 8.40823 10.3331 8.01302C10.2139 8.00439 10.0936 8 9.97218 8C7.25167 8 5.04626 10.2054 5.04626 12.9259C5.04626 14.2761 5.5895 15.4995 6.46934 16.3893L11.8955 14.3221C10.8601 12.8879 10.2499 11.1263 10.2499 9.22221Z"/>
<path d="M4.13885 19.1692L0.208313 20.6666V26.9999H4.13885V19.1692Z"/>
<path d="M27.6944 9.22221C27.6944 11.1263 27.0842 12.8879 26.0488 14.3221L31.475 16.3892C32.3548 15.4994 32.898 14.2761 32.898 12.9259C32.898 10.2054 30.6926 8 27.9721 8C27.8508 8 27.7304 8.00439 27.6112 8.01302C27.666 8.40823 27.6944 8.81191 27.6944 9.22221Z"/>
<path d="M13.6383 16.3335L6.63885 18.9999V26.9999H17.8623C19.0383 22.2263 22.9569 18.532 27.8511 17.684L24.3061 16.3335C22.8204 17.4497 20.9736 18.1111 18.9722 18.1111C16.9709 18.1111 15.124 17.4497 13.6383 16.3335Z"/>
<path d="M22.263 23.6641C23.4044 22.2718 24.9143 21.1932 26.6437 20.5772C26.4306 20.9501 26.205 21.3751 25.9796 21.8485C25.5895 22.6676 25.1986 23.635 24.8756 24.7302C24.029 24.4607 23.2716 24.1492 22.616 23.837C22.4947 23.7792 22.377 23.7215 22.263 23.6641Z"/>
<path d="M20 30C20 28.2411 20.4541 26.5883 21.2514 25.1524C21.4408 25.2507 21.6398 25.35 21.8483 25.4492C22.597 25.8058 23.4695 26.163 24.4503 26.4684C24.2378 27.5566 24.1071 28.7388 24.1071 30.0002C24.1071 31.2617 24.2378 32.4438 24.4503 33.5321C23.4695 33.8375 22.597 34.1947 21.8483 34.5513C21.6399 34.6505 21.4409 34.7497 21.2516 34.8479C20.4542 33.412 20 31.759 20 30Z"/>
<path d="M26.6434 39.4227C24.9143 38.8067 23.4046 37.7283 22.2632 36.3363C22.3772 36.2789 22.4948 36.2212 22.616 36.1635C23.2716 35.8513 24.029 35.5397 24.8756 35.2703C25.1986 36.3654 25.5895 37.3328 25.9796 38.1519C26.2049 38.6251 26.4304 39.0499 26.6434 39.4227Z"/>
<path d="M30 40C29.7024 40 29.4078 39.987 29.1168 39.9615C29.0292 39.8444 28.9051 39.6724 28.7563 39.4491C28.4414 38.9769 28.0172 38.2775 27.5918 37.3842C27.2422 36.65 26.8934 35.7881 26.6036 34.8163C27.6447 34.5997 28.7823 34.4645 30 34.4645C31.2176 34.4645 32.3552 34.5997 33.3964 34.8163C33.1066 35.7881 32.7577 36.65 32.4081 37.3842C31.9827 38.2775 31.5585 38.9769 31.2437 39.4491C31.0948 39.6724 30.9707 39.8444 30.8831 39.9615C30.5921 39.987 30.2976 40 30 40Z"/>
<path d="M37.7367 36.3363C36.5953 37.7283 35.0856 38.8068 33.3565 39.4228C33.5695 39.05 33.7951 38.6251 34.0204 38.1519C34.4105 37.3328 34.8013 36.3654 35.1243 35.2703C35.9709 35.5397 36.7283 35.8513 37.384 36.1635C37.5051 36.2212 37.6228 36.2789 37.7367 36.3363Z"/>
<path d="M40 30C40 31.759 39.5458 33.412 38.7484 34.848C38.5591 34.7497 38.3601 34.6505 38.1517 34.5513C37.403 34.1947 36.5304 33.8375 35.5497 33.5321C35.7621 32.4438 35.8928 31.2617 35.8928 30.0002C35.8928 28.7388 35.7621 27.5566 35.5497 26.4684C36.5304 26.163 37.403 25.8058 38.1517 25.4492C38.3601 25.35 38.5592 25.2507 38.7486 25.1524C39.5459 26.5883 40 28.2411 40 30Z"/>
<path d="M33.3562 20.5771C35.0856 21.1932 36.5955 22.2718 37.737 23.664C37.623 23.7215 37.5053 23.7792 37.384 23.837C36.7283 24.1492 35.9709 24.4607 35.1243 24.7302C34.8014 23.635 34.4105 22.6677 34.0204 21.8485C33.795 21.3751 33.5693 20.9501 33.3562 20.5771Z"/>
<path d="M31.2437 20.5513C31.0946 20.3277 30.9704 20.1555 30.8828 20.0384C30.5919 20.013 30.2975 20 30 20C29.7025 20 29.408 20.013 29.1171 20.0384C29.0295 20.1555 28.9053 20.3277 28.7563 20.5513C28.4414 21.0235 28.0172 21.7229 27.5918 22.6162C27.2422 23.3504 26.8933 24.2123 26.6035 25.1842C27.6447 25.4008 28.7823 25.536 30 25.536C31.2176 25.536 32.3552 25.4008 33.3964 25.1842C33.1066 24.2123 32.7578 23.3504 32.4081 22.6162C31.9827 21.7229 31.5585 21.0235 31.2437 20.5513Z"/>
<path d="M33.8181 33.0801C33.9977 32.1262 34.1071 31.0956 34.1071 30.0002C34.1071 28.9048 33.9977 27.8742 33.8181 26.9203C32.6518 27.1668 31.3729 27.3217 30 27.3217C28.6271 27.3217 27.3481 27.1668 26.1819 26.9203C26.0022 27.8742 25.8928 28.9048 25.8928 30.0002C25.8928 31.0956 26.0022 32.1262 26.1819 33.0802C27.3481 32.8337 28.6271 32.6788 30 32.6788C31.3729 32.6788 32.6518 32.8337 33.8181 33.0801Z"/>
</svg>
