<svg width="40" height="40" viewBox="0 0 40 40" xmlns="http://www.w3.org/2000/svg">
<path fill-rule="evenodd" clip-rule="evenodd" d="M10.6481 12.7195C10.51 12.4804 10.5919 12.1746 10.8311 12.0366C11.0703 11.8985 11.376 11.9804 11.5141 12.2195L13.9194 16.3858C15.7584 15.4977 17.821 14.9999 20 14.9999C22.1771 14.9999 24.2382 15.4969 26.0759 16.3835L28.48 12.2195C28.618 11.9804 28.9238 11.8985 29.163 12.0366C29.4022 12.1746 29.4841 12.4804 29.346 12.7195L26.9611 16.8505C30.8951 19.1093 33.6277 23.2239 33.9648 27.9999H6.03516C6.37213 23.2257 9.10284 19.1124 13.0345 16.853L10.6481 12.7195ZM27.5 22.7499C27.5 23.4403 26.9404 23.9999 26.25 23.9999C25.5596 23.9999 25 23.4403 25 22.7499C25 22.0596 25.5596 21.4999 26.25 21.4999C26.9404 21.4999 27.5 22.0596 27.5 22.7499ZM13.75 23.9999C14.4404 23.9999 15 23.4403 15 22.7499C15 22.0596 14.4404 21.4999 13.75 21.4999C13.0596 21.4999 12.5 22.0596 12.5 22.7499C12.5 23.4403 13.0596 23.9999 13.75 23.9999Z"/>
</svg>
