<svg width="40" height="40" viewBox="0 0 40 40" xmlns="http://www.w3.org/2000/svg">
<path d="M29.1289 28.7485C28.0035 30.3604 26.8103 31.9333 24.9934 31.9593C23.1766 31.9983 22.5935 30.9323 20.5326 30.9323C18.4581 30.9323 17.8208 31.9333 16.0988 31.9983C14.3226 32.0633 12.9803 30.2824 11.8414 28.7095C9.52281 25.4987 7.74661 19.5841 10.133 15.6064C11.3126 13.6305 13.4278 12.3826 15.7192 12.3436C17.4547 12.3176 19.1089 13.4745 20.1801 13.4745C21.2376 13.4745 23.2444 12.0836 25.346 12.2916C26.2273 12.3306 28.695 12.6296 30.2814 14.8654C30.1594 14.9434 27.3391 16.5293 27.3662 19.8181C27.4069 23.7438 30.9593 25.0567 31 25.0697C30.9593 25.1607 30.4305 26.9416 29.1289 28.7485ZM21.3868 7.94987C22.3766 6.87094 24.0172 6.052 25.3731 6C25.5494 7.5209 24.9121 9.0548 23.963 10.1467C23.0274 11.2517 21.4817 12.1096 19.9631 11.9926C19.7597 10.4977 20.519 8.9378 21.3868 7.94987Z"/>
</svg>
