<svg width="40" height="40" viewBox="0 0 40 40" xmlns="http://www.w3.org/2000/svg">
<path fill-rule="evenodd" clip-rule="evenodd" d="M40 30C40 35.5228 35.5228 40 30 40C24.4772 40 20 35.5228 20 30C20 24.4772 24.4772 20 30 20C35.5228 20 40 24.4772 40 30ZM28.75 28.75V23.75H31.25V28.75H36.25V31.25H31.25V36.25H28.75V31.25H23.75V28.75H28.75Z"/>
<path d="M24.1354 9.76036C24.1354 13.0798 21.4444 15.7707 18.125 15.7707C14.8056 15.7707 12.1147 13.0798 12.1147 9.76036C12.1147 6.44093 14.8056 3.75 18.125 3.75C21.4444 3.75 24.1354 6.44093 24.1354 9.76036Z"/>
<path d="M24.9605 14.6866C25.9607 13.3012 26.55 11.5996 26.55 9.7603C26.55 9.36399 26.5227 8.97407 26.4697 8.59233C26.5849 8.58398 26.7012 8.57974 26.8185 8.57974C29.4464 8.57974 31.5767 10.7101 31.5767 13.3379C31.5767 14.6422 31.052 15.8239 30.2021 16.6834L24.9605 14.6866Z"/>
<path d="M17.8791 26.9328H6.2111V19.2052L12.9724 16.6294C14.4075 17.7076 16.1916 18.3466 18.1248 18.3466C20.058 18.3466 21.8419 17.7077 23.277 16.6296L26.7101 17.9374C22.3769 19.1165 18.9802 22.568 17.8791 26.9328Z"/>
<path d="M11.2892 14.6866L6.04774 16.6834C5.19787 15.8238 4.67313 14.6422 4.67313 13.3379C4.67313 10.7101 6.80344 8.57975 9.43132 8.57975C9.54859 8.57975 9.66486 8.58399 9.78 8.59233C9.72706 8.97407 9.69969 9.36399 9.69969 9.7603C9.69969 11.5996 10.2891 13.3012 11.2892 14.6866Z"/>
<path d="M3.79669 19.3689V26.9329H0V20.8152L3.79669 19.3689Z"/>
</svg>
