<svg width="40" height="40" viewBox="0 0 40 40" xmlns="http://www.w3.org/2000/svg">
<path d="M30.5634 27.3333H29.1634V29.7333H30.5634C31.2167 29.7333 31.6967 29.2133 31.6967 28.5333C31.6967 27.8533 31.2167 27.3333 30.5634 27.3333Z"/>
<path fill-rule="evenodd" clip-rule="evenodd" d="M30 40C35.5228 40 40 35.5228 40 30C40 24.4772 35.5228 20 30 20C24.4772 20 20 24.4772 20 30C20 35.5228 24.4772 40 30 40ZM33.8301 28.5333C33.8301 30.3067 32.4034 31.6 30.5634 31.6H29.1634V32.1467H31.9634V33.4533H29.1634V34.6667H27.0301V33.4533H26.0967V32.1467H27.0301V31.6H26.0967V29.7333H27.0301V25.3333H30.5634C32.4034 25.3333 33.8301 26.76 33.8301 28.5333Z"/>
<path d="M24.1354 9.76036C24.1354 13.0798 21.4444 15.7707 18.125 15.7707C14.8056 15.7707 12.1147 13.0798 12.1147 9.76036C12.1147 6.44093 14.8056 3.75 18.125 3.75C21.4444 3.75 24.1354 6.44093 24.1354 9.76036Z"/>
<path d="M24.9605 14.6866C25.9607 13.3012 26.55 11.5996 26.55 9.7603C26.55 9.36399 26.5227 8.97407 26.4697 8.59233C26.5849 8.58398 26.7012 8.57974 26.8185 8.57974C29.4464 8.57974 31.5767 10.7101 31.5767 13.3379C31.5767 14.6422 31.052 15.8239 30.2021 16.6834L24.9605 14.6866Z"/>
<path d="M17.8791 26.9328H6.2111V19.2052L12.9724 16.6294C14.4075 17.7076 16.1916 18.3466 18.1248 18.3466C20.058 18.3466 21.8419 17.7077 23.277 16.6296L26.7101 17.9374C22.3769 19.1165 18.9802 22.568 17.8791 26.9328Z"/>
<path d="M11.2892 14.6866L6.04774 16.6834C5.19787 15.8238 4.67313 14.6422 4.67313 13.3379C4.67313 10.7101 6.80344 8.57975 9.43132 8.57975C9.54859 8.57975 9.66486 8.58399 9.78 8.59233C9.72706 8.97407 9.69969 9.36399 9.69969 9.7603C9.69969 11.5996 10.2891 13.3012 11.2892 14.6866Z"/>
<path d="M3.79669 19.3689V26.9329H0V20.8152L3.79669 19.3689Z"/>
</svg>
