<svg width="40" height="40" viewBox="0 0 40 40" xmlns="http://www.w3.org/2000/svg">
<path fill-rule="evenodd" clip-rule="evenodd" d="M24 10V3H10V10H2V13H4.15625L7 26H15.6591C16.6164 20.0471 21.7772 15.5 28 15.5C28.433 15.5 28.861 15.522 29.2827 15.565L29.8438 13H32V10H24ZM21.5 5.5H12.5V10H21.5V5.5Z"/>
<path fill-rule="evenodd" clip-rule="evenodd" d="M38 28C38 33.5228 33.5228 38 28 38C22.4772 38 18 33.5228 18 28C18 22.4772 22.4772 18 28 18C33.5228 18 38 22.4772 38 28ZM23.3333 26.75H32.6667V29.25H23.3333V26.75Z"/>
</svg>
