<svg width="40" height="40" viewBox="0 0 40 40" xmlns="http://www.w3.org/2000/svg">
<path d="M6.81642 14.0881C7.11915 10.1527 9.86313 6.83248 13.6711 5.79395L14.3289 8.20585C11.5402 8.96639 9.53075 11.3979 9.30906 14.2799L9.2463 15.0958L6.75366 14.904L6.81642 14.0881Z"/>
<path d="M18 8C18 6.89543 18.8954 6 20 6C21.1045 6 22 6.89543 22 8V9.22302C26.0079 10.1325 29 13.7168 29 18V25L32 30H7.99997L11 25V18C11 13.7168 13.992 10.1325 18 9.22302V8Z"/>
<path d="M20 35.0001C21.6568 35.0001 23 33.6569 23 32.0001H17C17 33.6569 18.3431 35.0001 20 35.0001Z"/>
<path d="M26.3289 5.79395C30.1368 6.83248 32.8808 10.1527 33.1835 14.0881L33.2463 14.904L30.7536 15.0958L30.6909 14.2799C30.4692 11.3979 28.4597 8.96639 25.6711 8.20585L26.3289 5.79395Z"/>
</svg>
