<svg width="40" height="40" viewBox="0 0 40 40" xmlns="http://www.w3.org/2000/svg">
<path d="M13 5C13 3.89543 13.8954 3 15 3C16.1046 3 17 3.89543 17 5V6.22302C20.745 7.07281 23.6031 10.2581 23.9619 14.1666C19.0399 15.8458 15.5 20.5095 15.5 26C15.5 26.3366 15.5133 26.6701 15.5394 27H3L6 22V15C6 10.7168 8.99202 7.13247 13 6.22302V5Z"/>
<path d="M16.7435 31.4417C16.3692 30.6689 16.0721 29.8516 15.8623 29L12 29.0001C12 30.6569 13.3431 32.0001 15 32.0001C15.6502 32.0001 16.2521 31.7932 16.7435 31.4417Z"/>
<path fill-rule="evenodd" clip-rule="evenodd" d="M38 26C38 31.5228 33.5228 36 28 36C22.4772 36 18 31.5228 18 26C18 20.4772 22.4772 16 28 16C33.5228 16 38 20.4772 38 26ZM29.25 21.3333H26.75V24.75H23.3333V27.25H26.75V30.6667H29.25V27.25H32.6667V24.75H29.25V21.3333Z"/>
</svg>
