<svg width="40" height="40" viewBox="0 0 40 40" xmlns="http://www.w3.org/2000/svg">
<path d="M5.11609 6.88398L33.1161 34.884L34.8839 33.1162L6.88386 5.11621L5.11609 6.88398Z"/>
<path d="M11 18C11 17.4674 11.0463 16.9455 11.135 16.4383L24.6967 30H8L11 25V18Z"/>
<path d="M29 18V23.6967L15.5047 10.2014C16.2721 9.75803 17.1111 9.42473 18 9.22302V8C18 6.89543 18.8954 6 20 6C21.1046 6 22 6.89543 22 8V9.22302C26.008 10.1325 29 13.7168 29 18Z"/>
<path d="M20 35.0001C21.6569 35.0001 23 33.6569 23 32.0001H17C17 33.6569 18.3431 35.0001 20 35.0001Z"/>
</svg>
