<svg width="40" height="40" viewBox="0 0 40 40" xmlns="http://www.w3.org/2000/svg">
<path d="M20 11C21.1046 11 22 10.0598 22 8.9C22 7.7402 20 4 20 4C20 4 18 7.7402 18 8.9C18 10.0598 18.8954 11 20 11Z"/>
<path d="M22 12V16H33L33 20.75C30.8171 20.75 29.9441 21.5867 29.1823 22.3168L29.1815 22.3176C29.0962 22.3994 29.0123 22.4798 28.9281 22.5575L28.9021 22.5815C28.1163 23.3069 27.6138 23.75 26.5 23.75C25.3806 23.75 24.8567 23.3004 24.063 22.5765L23.958 22.4806C23.1344 21.7276 22.065 20.75 20 20.75C17.8857 20.75 16.7645 21.7853 15.9281 22.5575L15.9022 22.5815C15.1163 23.3069 14.6138 23.75 13.5 23.75C12.3862 23.75 11.8837 23.3069 11.0979 22.5815L11.0719 22.5575C10.2355 21.7853 9.11427 20.75 7 20.75V16H18V12H22Z"/>
<path d="M33 23.25C31.8862 23.25 31.3837 23.6931 30.5979 24.4185L30.5719 24.4425C29.7355 25.2147 28.6143 26.25 26.5 26.25C24.3107 26.25 23.425 25.4112 22.6517 24.679C22.5642 24.5961 22.4781 24.5146 22.3918 24.4359L22.3783 24.4235C21.5701 23.6865 21.0708 23.25 20 23.25C18.8862 23.25 18.3837 23.6931 17.5978 24.4185L17.5719 24.4425C16.7355 25.2147 15.6143 26.25 13.5 26.25C11.3857 26.25 10.2645 25.2147 9.4281 24.4425L9.40215 24.4185C8.61633 23.6931 8.11378 23.25 7 23.25V33H33L33 23.25Z"/>
</svg>
