<svg width="40" height="40" viewBox="0 0 40 40" xmlns="http://www.w3.org/2000/svg">
<path d="M11.75 3H14.25V5.5H29.75V3H32.25V5.5H34.75V8H9.25V5.5H11.75V3Z"/>
<path fill-rule="evenodd" clip-rule="evenodd" d="M9.25 10.5H34.75V31H9.25V10.5ZM13.25 14.5H15.75V17H13.25V14.5ZM20.75 14.5H18.25V17H20.75V14.5ZM23.25 14.5H25.75V17H23.25V14.5ZM30.75 14.5H28.25V17H30.75V14.5ZM13.25 19.5H15.75V22H13.25V19.5ZM20.75 19.5H18.25V22H20.75V19.5ZM23.25 19.5H25.75V22H23.25V19.5ZM30.75 19.5H28.25V22H30.75V19.5ZM13.25 24.5H15.75V27H13.25V24.5ZM20.75 24.5H18.25V27H20.75V24.5Z"/>
<path d="M6.75 33.5V15.5H4.25V36H29.75V33.5H6.75Z"/>
</svg>
