<svg width="40" height="40" viewBox="0 0 40 40" xmlns="http://www.w3.org/2000/svg">
<path d="M11.25 4H8.75V6.5H6.25V9H31.75V6.5H29.25V4H26.75V6.5H11.25V4Z"/>
<path fill-rule="evenodd" clip-rule="evenodd" d="M6.25 11.5H31.75V14.4341C30.2855 13.832 28.6815 13.5 27 13.5C23.3339 13.5 20.0365 15.0782 17.75 17.5923V15.5H15.25V18H17.3949C15.5874 20.1678 14.5 22.9569 14.5 26C14.5 28.1743 15.0552 30.219 16.0315 32H6.25V11.5ZM10.25 15.5H12.75V18H10.25V15.5ZM10.25 20.5H12.75V23H10.25V20.5ZM12.75 25.5H10.25V28H12.75V25.5Z"/>
<path fill-rule="evenodd" clip-rule="evenodd" d="M37 26C37 31.5228 32.5228 36 27 36C21.4772 36 17 31.5228 17 26C17 20.4772 21.4772 16 27 16C32.5228 16 37 20.4772 37 26ZM25.56 27.424H28.12C28.12 26.9769 28.5398 26.5902 29.0394 26.13C29.7735 25.4537 30.68 24.6186 30.68 23.2C30.68 21.12 28.856 20 27.032 20C25.256 20 23.704 20.928 23 22.576L25.208 23.84C25.528 23.088 26.056 22.496 26.936 22.496C27.752 22.496 28.12 22.864 28.12 23.424C28.12 24.078 27.5678 24.5835 26.9763 25.125C26.2942 25.7493 25.56 26.4215 25.56 27.424ZM26.84 31.648C27.672 31.648 28.36 30.96 28.36 30.128C28.36 29.296 27.672 28.608 26.84 28.608C26.008 28.608 25.32 29.296 25.32 30.128C25.32 30.96 26.008 31.648 26.84 31.648Z"/>
</svg>
