<svg width="40" height="40" viewBox="0 0 40 40" xmlns="http://www.w3.org/2000/svg">
<path d="M12.25 6H9.75V8.5H7.25V11H32.75V8.5H30.25V6H27.75V8.5H12.25V6Z"/>
<path fill-rule="evenodd" clip-rule="evenodd" d="M32.75 13.5H7.25V34H32.75V13.5ZM13.75 17.5H11.25V20H13.75V17.5ZM16.25 17.5H18.75V20H16.25V17.5ZM23.75 17.5H21.25V20H23.75V17.5ZM26.25 17.5H28.75V20H26.25V17.5ZM13.75 22.5H11.25V25H13.75V22.5ZM16.25 22.5H18.75V25H16.25V22.5ZM23.75 22.5H21.25V25H23.75V22.5ZM26.25 22.5H28.75V25H26.25V22.5ZM13.75 27.5H11.25V30H13.75V27.5ZM16.25 27.5H18.75V30H16.25V27.5Z"/>
</svg>
