<svg width="40" height="40" viewBox="0 0 40 40" xmlns="http://www.w3.org/2000/svg">
<path d="M11.25 4H8.75V6.5H6.25V9H31.75V6.5H29.25V4H26.75V6.5H11.25V4Z"/>
<path fill-rule="evenodd" clip-rule="evenodd" d="M6.25 11.5H31.75V14.4341C30.2855 13.832 28.6815 13.5 27 13.5C23.3339 13.5 20.0365 15.0782 17.75 17.5923V15.5H15.25V18H17.3949C15.5874 20.1678 14.5 22.9569 14.5 26C14.5 28.1743 15.0552 30.219 16.0315 32H6.25V11.5ZM10.25 15.5H12.75V18H10.25V15.5ZM10.25 20.5H12.75V23H10.25V20.5ZM12.75 25.5H10.25V28H12.75V25.5Z"/>
<path fill-rule="evenodd" clip-rule="evenodd" d="M37 26C37 31.5228 32.5228 36 27 36C21.4772 36 17 31.5228 17 26C17 20.4772 21.4772 16 27 16C32.5228 16 37 20.4772 37 26ZM27.3334 20H25.6667L25.6667 27.3115L30.6667 30.2053L31.5 28.762L27.3334 26.3563V20Z"/>
</svg>
