<svg width="40" height="40" viewBox="0 0 40 40" xmlns="http://www.w3.org/2000/svg">
<path d="M11.25 4H8.75V6.5H6.25V9H31.75V6.5H29.25V4H26.75V6.5H11.25V4Z"/>
<path fill-rule="evenodd" clip-rule="evenodd" d="M6.25 11.5H31.75V14.4341C30.2855 13.832 28.6815 13.5 27 13.5C23.3339 13.5 20.0365 15.0782 17.75 17.5923V15.5H15.25V18H17.3949C15.5874 20.1678 14.5 22.9569 14.5 26C14.5 28.1743 15.0552 30.219 16.0315 32H6.25V11.5ZM10.25 15.5H12.75V18H10.25V15.5ZM10.25 20.5H12.75V23H10.25V20.5ZM12.75 25.5H10.25V28H12.75V25.5Z"/>
<path fill-rule="evenodd" clip-rule="evenodd" d="M37 26C37 31.5228 32.5228 36 27 36C21.4772 36 17 31.5228 17 26C17 20.4772 21.4772 16 27 16C32.5228 16 37 20.4772 37 26ZM27 24.3301L29.5 21.8301L27 19.3301V20.9968C24.2386 20.9968 22 23.2354 22 25.9968C22 28.7582 24.2386 30.9968 27 30.9968C29.7614 30.9968 32 28.7582 32 25.9968C32 24.9169 31.6577 23.917 31.0756 23.0996L29.8718 24.3034C30.165 24.7997 30.3333 25.3786 30.3333 25.9968C30.3333 27.8377 28.841 29.3301 27 29.3301C25.159 29.3301 23.6667 27.8377 23.6667 25.9968C23.6667 24.1558 25.159 22.6635 27 22.6634V24.3301Z"/>
</svg>
