<svg width="40" height="40" viewBox="0 0 40 40" xmlns="http://www.w3.org/2000/svg">
<path d="M10 5H22L25 8H29V13.6591C28.3488 13.5544 27.6807 13.5 27 13.5C25.1596 13.5 23.412 13.8977 21.8386 14.612C21.2123 11.9675 18.8359 10 16 10C12.6863 10 10 12.6863 10 16C10 19.0331 12.2506 21.5406 15.1729 21.9435C14.7368 23.2155 14.5 24.5801 14.5 26H3V8H7L10 5Z"/>
<path fill-rule="evenodd" clip-rule="evenodd" d="M37 26C37 31.5228 32.5228 36 27 36C21.4772 36 17 31.5228 17 26C17 20.4772 21.4772 16 27 16C32.5228 16 37 20.4772 37 26ZM22.3333 24.75H31.6667V27.25H22.3333V24.75Z"/>
</svg>
