<svg width="40" height="40" viewBox="0 0 40 40" xmlns="http://www.w3.org/2000/svg">
<path d="M5.11609 6.88398L33.1161 34.884L34.8839 33.1162L6.88386 5.11621L5.11609 6.88398Z"/>
<path d="M6.99997 30V12.3033L14.0359 19.3393C14.0122 19.5562 14 19.7767 14 20C14 23.3137 16.6863 26 20 26C20.2233 26 20.4437 25.9878 20.6607 25.964L24.6967 30H6.99997Z"/>
<path d="M33 27.6967L25.964 20.6607C25.9878 20.4438 26 20.2233 26 20C26 16.6863 23.3137 14 20 14C19.7767 14 19.5562 14.0122 19.3392 14.036L14.3033 9H26L29 12H33V27.6967Z"/>
</svg>
