<svg width="40" height="40" viewBox="0 0 40 40" xmlns="http://www.w3.org/2000/svg">
<path d="M10 5H22L25 8H29V13.6591C28.3488 13.5544 27.6807 13.5 27 13.5C25.1596 13.5 23.412 13.8977 21.8386 14.612C21.2123 11.9675 18.8359 10 16 10C12.6863 10 10 12.6863 10 16C10 19.0331 12.2506 21.5406 15.1729 21.9435C14.7368 23.2155 14.5 24.5801 14.5 26H3V8H7L10 5Z"/>
<path fill-rule="evenodd" clip-rule="evenodd" d="M37 26C37 31.5228 32.5228 36 27 36C21.4772 36 17 31.5228 17 26C17 20.4772 21.4772 16 27 16C32.5228 16 37 20.4772 37 26ZM27 24.3301L29.5 21.8301L27 19.3301V20.9968C24.2386 20.9968 22 23.2354 22 25.9968C22 28.7582 24.2386 30.9968 27 30.9968C29.7614 30.9968 32 28.7582 32 25.9968C32 24.9169 31.6577 23.917 31.0756 23.0996L29.8718 24.3034C30.165 24.7997 30.3333 25.3786 30.3333 25.9968C30.3333 27.8377 28.841 29.3301 27 29.3301C25.159 29.3301 23.6667 27.8377 23.6667 25.9968C23.6667 24.1558 25.159 22.6635 27 22.6634V24.3301Z"/>
</svg>
