<svg width="40" height="40" viewBox="0 0 40 40" xmlns="http://www.w3.org/2000/svg">
<path fill-rule="evenodd" clip-rule="evenodd" d="M7 17H5V14H8.33333L11 8H29L31.6667 14H35V17H33V31H28V27H12V31H7V17ZM10 17L13 10H27L30 17H10ZM14 21.5C14 22.6046 13.1046 23.5 12 23.5C10.8954 23.5 10 22.6046 10 21.5C10 20.3954 10.8954 19.5 12 19.5C13.1046 19.5 14 20.3954 14 21.5ZM28 23.5C29.1046 23.5 30 22.6046 30 21.5C30 20.3954 29.1046 19.5 28 19.5C26.8954 19.5 26 20.3954 26 21.5C26 22.6046 26.8954 23.5 28 23.5Z"/>
</svg>
