<svg width="40" height="40" viewBox="0 0 40 40" xmlns="http://www.w3.org/2000/svg">
<path d="M22.6154 6.84615H24.9231L21.4615 3L18 6.84615H20.3077V14.5385H22.6154V6.84615Z"/>
<path d="M7 12.3064H12.0208L12.8732 15.8709H33L30.1408 28.4516H15.8816L16.2923 30.169C17.1718 30.3155 17.919 30.853 18.3492 31.5967H25.0056C25.5132 30.7193 26.4618 30.129 27.5484 30.129C29.1696 30.129 30.4839 31.4433 30.4839 33.0645C30.4839 34.6857 29.1696 36 27.5484 36C26.1431 36 24.9684 35.0125 24.6805 33.6935H18.6744C18.3864 35.0125 17.2118 36 15.8065 36C14.1852 36 12.871 34.6857 12.871 33.0645C12.871 32.021 13.4154 31.1047 14.2357 30.5842L10.3663 14.4032H7V12.3064Z"/>
</svg>
