<svg width="40" height="40" viewBox="0 0 40 40" xmlns="http://www.w3.org/2000/svg">
<path d="M20.3077 10.6923H18L21.4615 14.5385L24.9231 10.6923H22.6154V3H20.3077V10.6923Z"/>
<path d="M7 12.3065H12.0208L12.8732 15.871H33L30.1408 28.4517H15.8816L16.2923 30.1691C17.1718 30.3156 17.919 30.8531 18.3492 31.5968H25.0056C25.5132 30.7194 26.4618 30.1291 27.5484 30.1291C29.1696 30.1291 30.4839 31.4434 30.4839 33.0646C30.4839 34.6858 29.1696 36.0001 27.5484 36.0001C26.1431 36.0001 24.9684 35.0126 24.6805 33.6936H18.6744C18.3864 35.0126 17.2118 36.0001 15.8065 36.0001C14.1852 36.0001 12.871 34.6858 12.871 33.0646C12.871 32.0211 13.4154 31.1049 14.2357 30.5843L10.3663 14.4033H7V12.3065Z"/>
</svg>
