<svg width="40" height="40" viewBox="0 0 40 40" xmlns="http://www.w3.org/2000/svg">
<path d="M33.1161 34.884L34.8839 33.1162L6.88386 5.11621L5.11609 6.88398L33.1161 34.884Z"/>
<path d="M13.4402 27.0572L10.8273 16.1308L19.4133 24.7168H15.2463L15.697 26.6016C16.662 26.7624 17.4819 27.3521 17.954 28.1681H22.8646L27.6753 32.9788C26.302 32.8202 25.1918 31.7979 24.9018 30.469H18.311C17.9951 31.9165 16.7061 33.0003 15.1638 33.0003C13.3848 33.0003 11.9426 31.5581 11.9426 29.779C11.9426 28.634 12.54 27.6284 13.4402 27.0572Z"/>
<path d="M16.2144 10.9113L30.0199 24.7168H30.8937L34.0313 10.9113H16.2144Z"/>
</svg>
