<svg width="40" height="40" viewBox="0 0 40 40" xmlns="http://www.w3.org/2000/svg">
<path fill-rule="evenodd" clip-rule="evenodd" d="M9.98633 6.75H4V9.25H8.01367L12.6271 28.5427C11.6491 29.1634 11 30.2559 11 31.5C11 33.433 12.567 35 14.5 35C16.1756 35 17.5761 33.8226 17.9195 32.25H25.0805C25.4239 33.8226 26.8244 35 28.5 35C30.433 35 32 33.433 32 31.5C32 29.567 30.433 28 28.5 28C27.2045 28 26.0734 28.7038 25.4682 29.75H17.5318C17.0188 28.8632 16.1279 28.2224 15.0793 28.0477L14.5896 26H31.5909L35 11H11.0026L9.98633 6.75ZM18.5 15H16V17.5H18.5V15ZM16 19.5H18.5V22H16V19.5ZM23.5 15H21V17.5H23.5V15ZM21 19.5H23.5V22H21V19.5ZM28.5 15H26V17.5H28.5V15ZM26 19.5H28.5V22H26V19.5Z"/>
</svg>
