<svg width="40" height="40" viewBox="0 0 40 40" xmlns="http://www.w3.org/2000/svg">
<path d="M7.02079 4.30664H2V6.40341H5.3663L9.23567 22.5844C8.41539 23.105 7.87097 24.0213 7.87097 25.0647C7.87097 26.6859 9.18523 28.0002 10.8065 28.0002C12.2118 28.0002 13.3864 27.0127 13.6744 25.6937H15.5674C15.6421 24.975 15.7776 24.2743 15.9688 23.597H13.3492C12.919 22.8532 12.1718 22.3157 11.2923 22.1692L10.8816 20.4518H17.3504C19.2981 17.2908 22.6139 15.0625 26.4724 14.5924L28 7.87116H7.87318L7.02079 4.30664Z"/>
<path fill-rule="evenodd" clip-rule="evenodd" d="M38 27C38 32.5228 33.5228 37 28 37C22.4772 37 18 32.5228 18 27C18 21.4772 22.4772 17 28 17C33.5228 17 38 21.4772 38 27ZM23.3333 25.75H32.6667V28.25H23.3333V25.75Z"/>
</svg>
