<svg width="40" height="40" viewBox="0 0 40 40" xmlns="http://www.w3.org/2000/svg">
<path d="M15 18C16.2235 18 17.2118 17.2826 17.9176 16.2783C18.6235 15.2739 19 13.9348 19 12.5C19 11.0652 18.5765 9.72609 17.9176 8.72174C17.2118 7.71739 16.2235 7 15 7C13.7765 7 12.7882 7.71739 12.0824 8.72174C11.3765 9.72609 11 11.0652 11 12.5C11 13.9348 11.4235 15.2739 12.0824 16.2783C12.7882 17.2826 13.7765 18 15 18Z"/>
<path d="M19.9992 30.2438C18.5511 30.2438 17.9255 30.7373 17.3375 31.2011C16.8164 31.6122 16.3248 31.9999 15.3163 31.9999C12.3114 31.9999 10.6333 28.6828 12.1943 26.5365C13.7553 24.3901 17.0724 21.8536 19.9992 19.9023C19.9992 19.9023 26.2431 24.3901 27.8041 26.5365C29.365 28.6828 27.687 31.9999 24.6821 31.9999C23.6736 31.9999 23.182 31.6122 22.6609 31.2011C22.0729 30.7373 21.4473 30.2438 19.9992 30.2438Z"/>
<path d="M27.9176 16.2783C27.2118 17.2826 26.2235 18 25 18C23.7765 18 22.7882 17.2826 22.0824 16.2783C21.4235 15.2739 21 13.9348 21 12.5C21 11.0652 21.3765 9.72609 22.0824 8.72174C22.7882 7.71739 23.7765 7 25 7C26.2235 7 27.2118 7.71739 27.9176 8.72174C28.5765 9.72609 29 11.0652 29 12.5C29 13.9348 28.6235 15.2739 27.9176 16.2783Z"/>
<path d="M9.72842 25.8381C10.8087 25.461 11.5108 24.4914 11.8349 23.3603C12.105 22.283 12.051 20.9902 11.6189 19.6974C11.1868 18.4585 10.3766 17.3812 9.45835 16.7349C8.54013 16.0885 7.35184 15.7653 6.27158 16.1962C5.19132 16.5733 4.48915 17.5428 4.16507 18.674C3.89501 19.7513 3.94902 21.0441 4.38113 22.3368C4.81323 23.5757 5.62343 24.653 6.54165 25.2994C7.51388 25.8919 8.64816 26.2151 9.72842 25.8381Z"/>
<path d="M28.1651 23.3603C28.4892 24.4914 29.1913 25.461 30.2716 25.8381C31.3518 26.2151 32.4861 25.8919 33.4584 25.2994C34.3766 24.653 35.1868 23.5757 35.6189 22.3368C36.051 21.0441 36.105 19.7513 35.8349 18.674C35.5108 17.5428 34.8087 16.5733 33.7284 16.1962C32.6482 15.7653 31.4599 16.0885 30.5416 16.7349C29.6234 17.3812 28.8132 18.4585 28.3811 19.6974C27.949 20.9902 27.895 22.283 28.1651 23.3603Z"/>
</svg>
