<svg width="40" height="40" viewBox="0 0 40 40" xmlns="http://www.w3.org/2000/svg">
<path d="M23.9048 2.09515C21.1113 -0.698384 16.5705 -0.698384 13.777 2.09515L8.9061 6.96601C6.11256 9.75955 6.11256 14.3004 8.9061 17.0939C9.55232 17.7401 10.6101 17.741 11.2574 17.0964C11.9354 16.4488 11.9353 15.3848 11.2571 14.7373C9.74698 13.2379 9.74763 10.8055 11.259 9.30688L11.2599 9.30603L16.117 4.44893L16.1178 4.44808C17.6171 2.93603 20.051 2.93603 21.5502 4.44808L21.5519 4.44978C23.064 5.94901 23.064 8.38294 21.5519 9.88217L21.3495 10.0828L23.7056 12.4223L23.9048 12.223C26.6984 9.4295 26.6984 4.88869 23.9048 2.09515Z"/>
<path d="M17.0939 8.9061C16.4477 8.25988 15.3899 8.25904 14.7426 8.90359C14.0646 9.55119 14.0647 10.6152 14.7429 11.2626C16.253 12.762 16.2524 15.1945 14.741 16.6931L14.7401 16.694L9.88302 21.5511L9.88217 21.5519C8.38294 23.064 5.94901 23.064 4.44979 21.5519L4.44808 21.5502C2.93603 20.051 2.93603 17.6171 4.44808 16.1178L4.65046 15.9172L2.29441 13.5777L2.09515 13.777C-0.698384 16.5705 -0.698384 21.1113 2.09515 23.9048C4.88869 26.6984 9.4295 26.6984 12.223 23.9048L17.0939 19.034C19.8874 16.2404 19.8874 11.6996 17.0939 8.9061Z"/>
<path fill-rule="evenodd" clip-rule="evenodd" d="M27 17C21.4772 17 17 21.4772 17 27C17 32.5228 21.4772 37 27 37C32.5229 37 37 32.5229 37 27C37 21.4772 32.5229 17 27 17ZM25 22H32V29H25V22ZM23.5 24.9999H22V31.9999H29V30.4999H23.5V24.9999Z"/>
</svg>
