<svg width="40" height="40" viewBox="0 0 40 40" xmlns="http://www.w3.org/2000/svg">
<path fill-rule="evenodd" clip-rule="evenodd" d="M19.2728 1.39355L35.7272 10.8936L31.5836 18.0706L28.8922 17.7322L29.5622 16.5718L26.9641 15.0718L25.6625 17.3262L17.0501 16.2433L17.2859 15.8349L14.6878 14.3349L13.8205 15.8372L11.1291 15.4988L19.2728 1.39355ZM20.1878 4.80862L22.7859 6.30862L21.2859 8.90669L18.6878 7.40669L20.1878 4.80862ZM27.549 9.05862L24.951 7.55862L23.451 10.1567L26.049 11.6567L27.549 9.05862ZM29.7141 10.3086L32.3122 11.8086L30.8122 14.4067L28.2141 12.9067L29.7141 10.3086ZM20.0359 11.0718L17.4378 9.57176L15.9378 12.1698L18.5359 13.6698L20.0359 11.0718ZM22.201 12.3218L24.799 13.8218L23.299 16.4198L20.701 14.9198L22.201 12.3218Z"/>
<path fill-rule="evenodd" clip-rule="evenodd" d="M9.77277 17.848L30.2273 20.4198L19.7272 38.6065L3.27277 29.1065L9.77277 17.848ZM26.3122 22.201L11.1128 20.5271L23.2372 27.5271L26.3122 22.201Z"/>
</svg>
