<svg width="40" height="40" viewBox="0 0 40 40" xmlns="http://www.w3.org/2000/svg">
<path fill-rule="evenodd" clip-rule="evenodd" d="M16 9H15V12.0881C12.7333 13.1284 10.8467 14.8542 9.60536 17H30.3946C29.1533 14.8542 27.2666 13.1284 25 12.0881V9H24V8C24 5.79086 22.2091 4 20 4C17.7909 4 16 5.79086 16 8V9ZM18.5 9H21.5V8C21.5 7.17157 20.8284 6.5 20 6.5C19.1716 6.5 18.5 7.17157 18.5 8V9Z"/>
<path d="M31.8868 24.6547C31.7996 25.2869 31.6632 25.9033 31.4815 26.5H29.2676L22.2676 19.5H26.7321L31.8868 24.6547Z"/>
<path d="M31.8471 21.0795C31.7604 20.5401 31.6377 20.0128 31.4815 19.5H30.2676L31.8471 21.0795Z"/>
<path d="M18.7321 19.5L25.7321 26.5H21.2676L14.2676 19.5H18.7321Z"/>
<path d="M10.7321 19.5L17.7321 26.5H13.2676L8.1131 21.3455C8.20028 20.7133 8.33672 20.0968 8.51841 19.5H10.7321Z"/>
<path d="M8.15287 24.9208L9.73208 26.5H8.51841C8.36232 25.9873 8.23963 25.4601 8.15287 24.9208Z"/>
<path d="M20 35C15.5583 35 11.6802 32.5868 9.60536 29H30.3946C28.3197 32.5868 24.4417 35 20 35Z"/>
</svg>
