<svg width="40" height="40" viewBox="0 0 40 40" xmlns="http://www.w3.org/2000/svg">
<path d="M1.5 16.5C1.5 24.7383 8.14137 31.4254 16.3622 31.4994C16.1255 30.5385 16 29.5339 16 28.5C16 25.6176 16.9756 22.9631 18.6146 20.8486L14.5 18.4672V7.5H17V17.0344L20.3872 18.99C22.5706 17.1257 25.4039 16 28.5 16C29.5339 16 30.5385 16.1255 31.4994 16.3622C31.4254 8.14137 24.7383 1.5 16.5 1.5C8.21573 1.5 1.5 8.21573 1.5 16.5Z"/>
<path fill-rule="evenodd" clip-rule="evenodd" d="M38.5 28.5C38.5 34.0228 34.0228 38.5 28.5 38.5C22.9772 38.5 18.5 34.0228 18.5 28.5C18.5 22.9772 22.9772 18.5 28.5 18.5C34.0228 18.5 38.5 22.9772 38.5 28.5ZM29.75 23.8333H27.25V27.25H23.8333V29.75H27.25V33.1666H29.75V29.75H33.1667V27.25H29.75V23.8333Z"/>
</svg>
