<svg width="40" height="40" viewBox="0 0 40 40" xmlns="http://www.w3.org/2000/svg">
<path d="M6.11612 7.88398L32.1161 33.884L33.8839 32.1162L7.88389 6.11621L6.11612 7.88398Z"/>
<path d="M4 23.0666C4 19.2717 7.04884 16.1888 10.8307 16.134L24.6964 29.9997H21.1148L21.0667 29.9998L21.0185 29.9997H10.9868L10.9333 29.9999L10.8798 29.9997H10.4V29.9797C6.82003 29.7074 4 26.7163 4 23.0666Z"/>
<path d="M36 24.1332C36 25.9306 35.1917 27.5393 33.9187 28.6154L17.0031 11.6997C18.2371 11.1224 19.6142 10.7998 21.0667 10.7998C25.638 10.7998 29.4631 13.995 30.4305 18.2739C33.5325 18.4287 36 20.9928 36 24.1332Z"/>
</svg>
