<svg width="40" height="40" viewBox="0 0 40 40" xmlns="http://www.w3.org/2000/svg">
<path d="M20.3516 17.4295C18.7378 17.4295 17.4295 18.7378 17.4295 20.3516C17.4295 21.9654 18.7378 23.2737 20.3516 23.2737C21.9654 23.2737 23.2736 21.9654 23.2736 20.3516C23.2736 18.7378 21.9654 17.4295 20.3516 17.4295Z"/>
<path fill-rule="evenodd" clip-rule="evenodd" d="M21.1148 29.9997H30.0863L30.1334 29.9999L30.1804 29.9997H30.6667V29.976C33.6568 29.7065 36 27.1935 36 24.1332C36 20.9928 33.5325 18.4287 30.4305 18.2739C29.4631 13.995 25.638 10.7998 21.0667 10.7998C17.2367 10.7998 13.9306 13.0426 12.39 16.2865C11.9203 16.1861 11.433 16.1332 10.9333 16.1332C7.10416 16.1332 4 19.2374 4 23.0666C4 26.7163 6.82003 29.7074 10.4 29.9797V29.9997H10.8798L10.9333 29.9999L10.9868 29.9997H21.0185L21.0667 29.9998L21.1148 29.9997ZM15.5 20.3516C15.5 17.6721 17.6721 15.5 20.3516 15.5C23.031 15.5 25.2032 17.6721 25.2032 20.3516C25.2032 21.3419 24.906 22.2639 24.3962 23.0318L26.5 25.1356L25.1356 26.5L23.0318 24.3962C22.2639 24.906 21.3419 25.2032 20.3516 25.2032C17.6721 25.2032 15.5 23.0311 15.5 20.3516Z"/>
</svg>
