<svg width="40" height="40" viewBox="0 0 40 40" xmlns="http://www.w3.org/2000/svg">
<path fill-rule="evenodd" clip-rule="evenodd" d="M21.1148 29.9997H30.0863L30.1334 29.9999L30.1804 29.9997H30.6667V29.976C33.6568 29.7065 36 27.1935 36 24.1332C36 20.9928 33.5325 18.4287 30.4305 18.2739C29.4631 13.995 25.638 10.7998 21.0667 10.7998C17.2367 10.7998 13.9306 13.0426 12.39 16.2865C11.9203 16.1861 11.433 16.1332 10.9333 16.1332C7.10416 16.1332 4 19.2374 4 23.0666C4 26.7163 6.82003 29.7074 10.4 29.9797V29.9997H10.8798L10.9333 29.9999L10.9868 29.9997H21.0185L21.0667 29.9998L21.1148 29.9997ZM18.5463 25.6343L25.4055 17.9177L23.6807 16.3845L18.2322 22.5141L16.0046 20.8434L14.62 22.6896L18.5463 25.6343Z"/>
</svg>
