<svg width="40" height="40" viewBox="0 0 40 40" xmlns="http://www.w3.org/2000/svg">
<path d="M22.4701 18.7151V19.6487H19.4983V18.7151C19.4983 17.8945 20.1636 17.2292 20.9842 17.2292C21.8049 17.2292 22.4701 17.8945 22.4701 18.7151Z"/>
<path d="M21.6066 21.827H20.3619V23.0717H21.6066V21.827Z"/>
<path fill-rule="evenodd" clip-rule="evenodd" d="M21.1148 29.9997H30.0863L30.1334 29.9999L30.1804 29.9997H30.6667V29.976C33.6568 29.7065 36 27.1935 36 24.1332C36 20.9928 33.5325 18.4287 30.4305 18.2739C29.4631 13.995 25.638 10.7998 21.0667 10.7998C17.2367 10.7998 13.9306 13.0426 12.39 16.2865C11.9203 16.1861 11.433 16.1332 10.9333 16.1332C7.10416 16.1332 4 19.2374 4 23.0666C4 26.7163 6.82003 29.7074 10.4 29.9797V29.9997H10.8798L10.9333 29.9999L10.9868 29.9997H21.0185L21.0667 29.9998L21.1148 29.9997ZM20.9842 16C19.4847 16 18.2691 17.2156 18.2691 18.7151V19.6487H17.25V25.25H24.7185V19.6487H23.6993V18.7151C23.6993 17.2156 22.4837 16 20.9842 16Z"/>
</svg>
