<svg width="40" height="40" viewBox="0 0 40 40" xmlns="http://www.w3.org/2000/svg">
<path d="M25 24.25H15V21.75H25V24.25Z"/>
<path d="M15 28.25H25V25.75H15V28.25Z"/>
<path fill-rule="evenodd" clip-rule="evenodd" d="M30.0863 25.9997H29V32H11V25.9997H10.9868L10.9333 25.9999L10.8798 25.9997H10.4V25.9797C6.82003 25.7074 4 22.7163 4 19.0666C4 15.2374 7.10416 12.1332 10.9333 12.1332C11.433 12.1332 11.9203 12.1861 12.39 12.2865C13.9306 9.04262 17.2367 6.7998 21.0667 6.7998C25.638 6.7998 29.4631 9.99501 30.4305 14.2739C33.5325 14.4287 36 16.9928 36 20.1332C36 23.1935 33.6568 25.7065 30.6667 25.976V25.9997H30.1804L30.1334 25.9999L30.0863 25.9997ZM13.5 20.5H26.5V29.5H13.5V20.5Z"/>
</svg>
