<svg width="40" height="40" viewBox="0 0 40 40" xmlns="http://www.w3.org/2000/svg">
<path fill-rule="evenodd" clip-rule="evenodd" d="M21.1148 29.9997H30.0863L30.1334 29.9999L30.1804 29.9997H30.6667V29.976C33.6568 29.7065 36 27.1935 36 24.1332C36 20.9928 33.5325 18.4287 30.4305 18.2739C29.4631 13.995 25.638 10.7998 21.0667 10.7998C17.2367 10.7998 13.9306 13.0426 12.39 16.2865C11.9203 16.1861 11.433 16.1332 10.9333 16.1332C7.10416 16.1332 4 19.2374 4 23.0666C4 26.7163 6.82003 29.7074 10.4 29.9797V29.9997H10.8798L10.9333 29.9999L10.9868 29.9997H21.0185L21.0667 29.9998L21.1148 29.9997ZM23.5 17L21 19.5V17.8334C19.159 17.8334 17.6667 19.3258 17.6667 21.1667C17.6667 23.0076 19.1591 24.5 21 24.5C22.841 24.5 24.3333 23.0076 24.3333 21.1667C24.3333 20.5485 24.165 19.9696 23.8718 19.4733L25.0756 18.2695C25.6577 19.0869 26 20.0868 26 21.1667C26 23.9281 23.7614 26.1667 21 26.1667C18.2386 26.1667 16 23.9281 16 21.1667C16 18.4053 18.2386 16.1667 21 16.1667V14.5L23.5 17Z"/>
</svg>
