<svg width="40" height="40" viewBox="0 0 40 40" xmlns="http://www.w3.org/2000/svg">
<path d="M20.3851 22.1945H19.2751V23.3045H20.3851V22.1945Z"/>
<path fill-rule="evenodd" clip-rule="evenodd" d="M21.1148 29.9997H30.0863L30.1334 29.9999L30.1804 29.9997H30.6667V29.976C33.6568 29.7065 36 27.1935 36 24.1332C36 20.9928 33.5325 18.4287 30.4305 18.2739C29.4631 13.995 25.638 10.7998 21.0667 10.7998C17.2367 10.7998 13.9306 13.0426 12.39 16.2865C11.9203 16.1861 11.433 16.1332 10.9333 16.1332C7.10416 16.1332 4 19.2374 4 23.0666C4 26.7163 6.82003 29.7074 10.4 29.9797V29.9997H10.8798L10.9333 29.9999L10.9868 29.9997H21.0185L21.0667 29.9998L21.1148 29.9997ZM24.6932 19.4195V20.252L25.7964 20.252L26.2058 20.252V19.4195C26.2058 17.9673 25.0286 16.79 23.5764 16.79C22.1242 16.79 20.9469 17.9673 20.9469 19.4195V20.252H16.5V25.2471H23.1601V20.252H22.4595V19.4195C22.4595 18.8027 22.9595 18.3026 23.5764 18.3026C24.1932 18.3026 24.6932 18.8027 24.6932 19.4195Z"/>
</svg>
