<svg width="40" height="40" viewBox="0 0 40 40" xmlns="http://www.w3.org/2000/svg">
<path fill-rule="evenodd" clip-rule="evenodd" d="M3.33331 22.7057C3.33331 26.5455 6.30021 29.6923 10.0666 29.9789V30.0001H31.3889V29.9749C34.5347 29.6914 37 27.0475 37 23.8279C37 20.5239 34.404 17.8262 31.1404 17.6634C30.1227 13.1617 26.0984 9.80005 21.2889 9.80005C17.2595 9.80005 13.7812 12.1597 12.1604 15.5725C11.6662 15.4668 11.1535 15.4112 10.6278 15.4112C6.59915 15.4112 3.33331 18.6771 3.33331 22.7057ZM21.48 22.2001H19.56L19.08 18.2001V15.0001H21.96V18.2001L21.48 22.2001ZM22.04 24.9041C22.04 25.7361 21.352 26.4241 20.52 26.4241C19.688 26.4241 19 25.7361 19 24.9041C19 24.0721 19.688 23.3841 20.52 23.3841C21.352 23.3841 22.04 24.0721 22.04 24.9041Z"/>
</svg>
