<svg width="40" height="40" viewBox="0 0 40 40" xmlns="http://www.w3.org/2000/svg">
<path d="M30.0863 29.9997H21.1148C21.0988 29.9998 21.0827 29.9998 21.0667 29.9998C21.0506 29.9998 21.0346 29.9998 21.0185 29.9997H10.9868C10.969 29.9998 10.9512 29.9999 10.9333 29.9999C10.9155 29.9999 10.8976 29.9998 10.8798 29.9997H10.4V29.9797C6.82003 29.7074 4 26.7163 4 23.0666C4 19.2374 7.10416 16.1332 10.9333 16.1332C11.433 16.1332 11.9203 16.1861 12.39 16.2865C13.9306 13.0426 17.2367 10.7998 21.0667 10.7998C25.6381 10.7998 29.4631 13.995 30.4305 18.2739C33.5325 18.4287 36 20.9928 36 24.1332C36 27.1935 33.6568 29.7065 30.6667 29.976V29.9997H30.1804C30.1648 29.9998 30.1491 29.9999 30.1334 29.9999C30.1177 29.9999 30.102 29.9998 30.0863 29.9997Z"/>
</svg>
