<svg width="40" height="40" viewBox="0 0 40 40" xmlns="http://www.w3.org/2000/svg">
<path d="M21 3C19.8954 3 19 3.89543 19 5V9C20.1046 9 21 8.10457 21 7V3Z"/>
<path d="M17.5 5C16.3954 5 15.5 5.89543 15.5 7V9C16.6046 9 17.5 8.10457 17.5 7V5Z"/>
<path d="M25.7143 11H14.2857L12 14H11V17H29V14H28L25.7143 11Z"/>
<path fill-rule="evenodd" clip-rule="evenodd" d="M28 18H12L14 36H26L28 18ZM25 24H15L15.4167 30H24.5833L25 24Z"/>
<path d="M22.5 7C22.5 5.89543 23.3954 5 24.5 5V7C24.5 8.10457 23.6046 9 22.5 9V7Z"/>
</svg>
