<svg width="40" height="40" viewBox="0 0 40 40" xmlns="http://www.w3.org/2000/svg">
<path d="M13.0034 3.5H21.0034V9.24988C21.9009 9.60039 22.7411 10.0654 23.506 10.6269L28.4267 7.7859L32.4267 14.7141L32.1184 14.8921C31.1216 14.6361 30.0767 14.5 29 14.5C25.7655 14.5 22.8179 15.7285 20.5985 17.7443C19.9482 16.4153 18.5827 15.5 17.0034 15.5C14.7942 15.5 13.0034 17.2909 13.0034 19.5C13.0034 21.7069 14.7906 23.4963 16.9966 23.5C16.6733 24.6106 16.5 25.7851 16.5 27C16.5 29.814 17.4298 32.4108 18.9991 34.5H13.0034V29.7501C11.8124 29.285 10.7223 28.6183 9.77519 27.792L5.57996 30.2141L1.57996 23.2859L6.06752 20.695C6.02511 20.3025 6.00336 19.9038 6.00336 19.5C6.00336 18.7766 6.07318 18.0696 6.20645 17.3852L1.57996 14.7141L5.57996 7.7859L10.5007 10.6269C11.2656 10.0654 12.1058 9.60039 13.0034 9.24988V3.5Z"/>
<path fill-rule="evenodd" clip-rule="evenodd" d="M39 27C39 32.5228 34.5228 37 29 37C23.4772 37 19 32.5228 19 27C19 21.4772 23.4772 17 29 17C34.5228 17 39 21.4772 39 27ZM29 25.3301L31.5 22.8301L29 20.3301V21.9968C26.2386 21.9968 24 24.2354 24 26.9968C24 29.7582 26.2386 31.9968 29 31.9968C31.7614 31.9968 34 29.7582 34 26.9968C34 25.9169 33.6577 24.917 33.0756 24.0996L31.8718 25.3034C32.165 25.7997 32.3333 26.3786 32.3333 26.9968C32.3333 28.8377 30.841 30.3301 29 30.3301C27.159 30.3301 25.6667 28.8377 25.6667 26.9968C25.6667 25.1558 27.159 23.6635 29 23.6634V25.3301Z"/>
</svg>
