<svg width="40" height="40" viewBox="0 0 40 40" xmlns="http://www.w3.org/2000/svg">
<path d="M6.11612 7.88398L32.1161 33.884L33.8839 32.1162L7.88389 6.11621L6.11612 7.88398Z"/>
<path d="M11 24C11 22.5252 11.7923 20.429 12.9067 18.21L14.7764 20.0797C14.7424 20.1518 14.7089 20.2236 14.6758 20.2951C13.8478 22.0879 13.5 23.3434 13.5 24C13.5 27.5899 16.4101 30.5 20 30.5L20.0001 25.3034L25.6791 30.9824C24.3536 32.0618 22.7148 32.7713 20.9202 32.9535C20.6177 32.9843 20.3107 33 20.0001 33C15.0295 33 11 28.9706 11 24Z"/>
<path d="M28.9889 23.6855L20.0001 14.6968L20.0001 11.3183C19.5816 11.9296 19.1226 12.6134 18.6474 13.3441L16.8414 11.5381C17.4328 10.6391 17.9902 9.82282 18.4673 9.1383C19.3808 7.82758 20 7 20 7C20.0001 7 28.6348 18.5412 28.9889 23.6855Z"/>
</svg>
