<svg width="40" height="40" viewBox="0 0 40 40" xmlns="http://www.w3.org/2000/svg">
<path fill-rule="evenodd" clip-rule="evenodd" d="M20.0001 7C20.0001 7 19.3808 7.82749 18.4673 9.1382C15.8979 12.8247 11 20.3331 11 23.9999C11 28.9705 15.0294 32.9999 20 32.9999C20 32.9999 20 32.9999 20 32.9999C20.3106 32.9999 20.6177 32.9842 20.9202 32.9534C25.4585 32.4926 29.0001 28.6598 29.0001 23.9999C29.0001 19.0293 20.0001 7 20.0001 7ZM20 30.4999C20 30.4999 20 30.4999 20 30.4999C16.4102 30.4999 13.5 27.5898 13.5 23.9999C13.5 23.3433 13.8478 22.0878 14.6758 20.295C15.4595 18.5984 16.526 16.7252 17.6247 14.9534C18.4542 13.6157 19.286 12.3611 20 11.3181C20 11.318 20 11.3181 20 11.3181L20.0001 23.9999C20.0001 26.126 20.0001 27.4396 20.0001 28.5206C20 29.2257 20 29.8318 20 30.4999Z"/>
</svg>
