<svg width="40" height="40" viewBox="0 0 40 40" xmlns="http://www.w3.org/2000/svg">
<path d="M31 8H3V26H7V31L13 26H15.5394C15.698 23.9966 16.3289 22.1262 17.3208 20.5H8V18H19.3253C20.411 16.9533 21.6855 16.1013 23.0928 15.5H8V13H26V14.6591C26.6512 14.5544 27.3193 14.5 28 14.5C29.0341 14.5 30.0389 14.6256 31 14.8623V8Z"/>
<path fill-rule="evenodd" clip-rule="evenodd" d="M38 27C38 32.5228 33.5228 37 28 37C22.4772 37 18 32.5228 18 27C18 21.4772 22.4772 17 28 17C33.5228 17 38 21.4772 38 27ZM31.0815 22.4185L29.3882 24.1118L31.0815 25.8051L32.7748 24.1118L31.0815 22.4185ZM28.6593 24.8407L24.2517 29.2483L24.0966 31.0966L25.945 30.9416L30.3526 26.534L28.6593 24.8407Z"/>
</svg>
