<svg width="40" height="40" viewBox="0 0 40 40" xmlns="http://www.w3.org/2000/svg">
<path d="M5.11609 6.88398L33.1161 34.884L34.8839 33.1162L6.88386 5.11621L5.11609 6.88398Z"/>
<path d="M6 20C6 17.4961 6.65731 15.1458 7.8088 13.1121L15.6984 21.0017L13.636 26.364L18.9983 24.3016L26.8879 32.1912C24.8542 33.3427 22.5039 34 20 34C12.268 34 6 27.732 6 20Z"/>
<path d="M32.1912 26.8879L24.3016 18.9983L26.3639 13.636L21.0017 15.6984L13.1121 7.8088C15.1458 6.65731 17.4961 6 20 6C27.732 6 34 12.268 34 20C34 22.5039 33.3427 24.8542 32.1912 26.8879Z"/>
</svg>
