<svg width="40" height="40" viewBox="0 0 40 40" xmlns="http://www.w3.org/2000/svg">
<path d="M28.5 5.5H2.5V24.5H15C15 20.0977 17.2757 16.227 20.7149 14H5V10H26V12.0891C26.4918 12.0303 26.9924 12 27.5 12C27.8366 12 28.1701 12.0133 28.5 12.0394V5.5Z"/>
<path d="M28.9701 23.3987V22.4651C28.9701 21.6445 28.3049 20.9792 27.4842 20.9792C26.6636 20.9792 25.9983 21.6445 25.9983 22.4651V23.3987H28.9701Z"/>
<path d="M26.8619 25.577H28.1066V26.8217H26.8619V25.577Z"/>
<path fill-rule="evenodd" clip-rule="evenodd" d="M37.5 24.5C37.5 30.0228 33.0228 34.5 27.5 34.5C21.9772 34.5 17.5 30.0228 17.5 24.5C17.5 18.9772 21.9772 14.5 27.5 14.5C33.0228 14.5 37.5 18.9772 37.5 24.5ZM24.7691 22.4651C24.7691 20.9656 25.9847 19.75 27.4842 19.75C28.9837 19.75 30.1993 20.9656 30.1993 22.4651V23.3987H31.2185V29H23.75V23.3987H24.7691V22.4651Z"/>
</svg>
