<svg width="40" height="40" viewBox="0 0 40 40" xmlns="http://www.w3.org/2000/svg">
<path d="M28.5 5.5H2.5V24.5H15C15 20.0977 17.2757 16.227 20.7149 14H5V10H26V12.0891C26.4918 12.0303 26.9924 12 27.5 12C27.8366 12 28.1701 12.0133 28.5 12.0394V5.5Z"/>
<path fill-rule="evenodd" clip-rule="evenodd" d="M37.5 24.5C37.5 30.0228 33.0228 34.5 27.5 34.5C21.9772 34.5 17.5 30.0228 17.5 24.5C17.5 18.9772 21.9772 14.5 27.5 14.5C33.0228 14.5 37.5 18.9772 37.5 24.5ZM26.56 25.95H28.48L28.96 21.95V18.75H26.08V21.95L26.56 25.95ZM27.52 30.174C28.352 30.174 29.04 29.486 29.04 28.654C29.04 27.822 28.352 27.134 27.52 27.134C26.688 27.134 26 27.822 26 28.654C26 29.486 26.688 30.174 27.52 30.174Z"/>
</svg>
