<svg width="40" height="40" viewBox="0 0 40 40" xmlns="http://www.w3.org/2000/svg">
<path d="M28.5 5.5H2.5V24.5H15C15 20.0977 17.2757 16.227 20.7149 14H5V10H26V12.0891C26.4918 12.0303 26.9924 12 27.5 12C27.8366 12 28.1701 12.0133 28.5 12.0394V5.5Z"/>
<path fill-rule="evenodd" clip-rule="evenodd" d="M27.5 34.5C33.0228 34.5 37.5 30.0228 37.5 24.5C37.5 18.9772 33.0228 14.5 27.5 14.5C21.9772 14.5 17.5 18.9772 17.5 24.5C17.5 30.0228 21.9772 34.5 27.5 34.5ZM25.9167 18.25H28.0833V24.7119L32.3415 27.1704L31.258 29.047L25.9167 25.9556L25.9167 18.25Z"/>
</svg>
