<svg width="40" height="40" viewBox="0 0 40 40" xmlns="http://www.w3.org/2000/svg">
<path d="M28.5 5.5H2.5V24.5H15C15 20.0977 17.2757 16.227 20.7149 14H5V10H26V12.0891C26.4918 12.0303 26.9924 12 27.5 12C27.8366 12 28.1701 12.0133 28.5 12.0394V5.5Z"/>
<path d="M26.2751 25.4475H27.3851V26.5575H26.2751V25.4475Z"/>
<path fill-rule="evenodd" clip-rule="evenodd" d="M37.5 24.5C37.5 30.0228 33.0228 34.5 27.5 34.5C21.9772 34.5 17.5 30.0228 17.5 24.5C17.5 18.9772 21.9772 14.5 27.5 14.5C33.0228 14.5 37.5 18.9772 37.5 24.5ZM31.6932 23.5049V22.6724C31.6932 22.0556 31.1932 21.5556 30.5764 21.5556C29.9595 21.5556 29.4595 22.0556 29.4595 22.6724V23.5049H30.1601V28.5H23.5V23.5049H27.9469V22.6724C27.9469 21.2202 29.1242 20.043 30.5764 20.043C32.0286 20.043 33.2058 21.2202 33.2058 22.6724V23.5049H32.7964H31.6932Z"/>
</svg>
