<svg width="40" height="40" viewBox="0 0 40 40" xmlns="http://www.w3.org/2000/svg">
<path d="M28.5 5.5H2.5V24.5H15C15 20.0977 17.2757 16.227 20.7149 14H5V10H26V12.0891C26.4918 12.0303 26.9924 12 27.5 12C27.8366 12 28.1701 12.0133 28.5 12.0394V5.5Z"/>
<path fill-rule="evenodd" clip-rule="evenodd" d="M37.5 24.5C37.5 30.0228 33.0228 34.5 27.5 34.5C21.9772 34.5 17.5 30.0228 17.5 24.5C17.5 18.9772 21.9772 14.5 27.5 14.5C33.0228 14.5 37.5 18.9772 37.5 24.5ZM26.06 25.924H28.62C28.62 25.4769 29.0398 25.0902 29.5394 24.63C30.2735 23.9537 31.18 23.1186 31.18 21.7C31.18 19.62 29.356 18.5 27.532 18.5C25.756 18.5 24.204 19.428 23.5 21.076L25.708 22.34C26.028 21.588 26.556 20.996 27.436 20.996C28.252 20.996 28.62 21.364 28.62 21.924C28.62 22.578 28.0678 23.0835 27.4763 23.625C26.7942 24.2493 26.06 24.9215 26.06 25.924ZM27.34 30.148C28.172 30.148 28.86 29.46 28.86 28.628C28.86 27.796 28.172 27.108 27.34 27.108C26.508 27.108 25.82 27.796 25.82 28.628C25.82 29.46 26.508 30.148 27.34 30.148Z"/>
</svg>
