<svg width="40" height="40" viewBox="0 0 40 40" xmlns="http://www.w3.org/2000/svg">
<path d="M28.5 5.5H2.5V24.5H15C15 20.0977 17.2757 16.227 20.7149 14H5V10H26V12.0891C26.4918 12.0303 26.9924 12 27.5 12C27.8366 12 28.1701 12.0133 28.5 12.0394V5.5Z"/>
<path d="M27.4778 26.2515C28.334 26.2515 29.0281 25.5574 29.0281 24.7012C29.0281 23.845 28.334 23.1509 27.4778 23.1509C26.6216 23.1509 25.9275 23.845 25.9275 24.7012C25.9275 25.5574 26.6216 26.2515 27.4778 26.2515Z"/>
<path fill-rule="evenodd" clip-rule="evenodd" d="M37.5 24.5C37.5 30.0228 33.0228 34.5 27.5 34.5C21.9772 34.5 17.5 30.0228 17.5 24.5C17.5 18.9772 21.9772 14.5 27.5 14.5C33.0228 14.5 37.5 18.9772 37.5 24.5ZM25.9275 18.5H29.0281V20.7285C29.3759 20.8644 29.7016 21.0446 29.998 21.2622L31.9052 20.1611L33.4555 22.8463L31.6624 23.8816C31.7141 24.1468 31.7411 24.4209 31.7411 24.7012C31.7411 24.8577 31.7327 25.0123 31.7163 25.1644L33.4555 26.1686L31.9052 28.8538L30.2792 27.915C29.9121 28.2353 29.4897 28.4937 29.0281 28.6739V30.5149H25.9275V28.6739C25.4659 28.4937 25.0434 28.2353 24.6763 27.915L23.0503 28.8538L21.5 26.1686L23.2393 25.1644C23.2229 25.0123 23.2144 24.8577 23.2144 24.7012C23.2144 24.4209 23.2415 24.1468 23.2931 23.8816L21.5 22.8463L23.0503 20.1611L24.9575 21.2622C25.254 21.0446 25.5796 20.8644 25.9275 20.7285V18.5Z"/>
</svg>
