<svg width="40" height="40" viewBox="0 0 40 40" xmlns="http://www.w3.org/2000/svg">
<path fill-rule="evenodd" clip-rule="evenodd" d="M2.5 10.75C2.5 9.64543 3.39543 8.75 4.5 8.75H34.7857C35.8903 8.75 36.7857 9.64543 36.7857 10.75V12.5357H2.5V10.75ZM5.71429 10.3572C5.71429 10.653 5.47444 10.8929 5.17857 10.8929C4.88271 10.8929 4.64286 10.653 4.64286 10.3572C4.64286 10.0613 4.88271 9.82144 5.17857 9.82144C5.47444 9.82144 5.71429 10.0613 5.71429 10.3572ZM7.32143 10.8929C7.6173 10.8929 7.85715 10.653 7.85715 10.3572C7.85715 10.0613 7.6173 9.82144 7.32143 9.82144C7.02557 9.82144 6.78572 10.0613 6.78572 10.3572C6.78572 10.653 7.02557 10.8929 7.32143 10.8929ZM10 10.3572C10 10.653 9.76016 10.8929 9.46429 10.8929C9.16843 10.8929 8.92858 10.653 8.92858 10.3572C8.92858 10.0613 9.16843 9.82144 9.46429 9.82144C9.76016 9.82144 10 10.0613 10 10.3572Z"/>
<path d="M22.4352 19.9271V21.7014H23.6523C23.8752 21.7014 24.0666 21.6157 24.2266 21.4443C24.3866 21.2671 24.4666 21.0557 24.4666 20.81C24.4666 20.5643 24.3866 20.3557 24.2266 20.1843C24.0666 20.0129 23.8752 19.9271 23.6523 19.9271H22.4352Z"/>
<path fill-rule="evenodd" clip-rule="evenodd" d="M12.6429 13.5357H36.7857V29.25C36.7857 30.3546 35.8903 31.25 34.7857 31.25H12.6429V13.5357ZM17.6885 24.9414C16.7857 24.9414 16.04 24.6414 15.4514 24.0414C14.8628 23.4414 14.5685 22.7014 14.5685 21.8214C14.5685 20.9357 14.8628 20.1957 15.4514 19.6014C16.04 19.0014 16.7857 18.7014 17.6885 18.7014C18.2314 18.7014 18.7314 18.83 19.1885 19.0871C19.6514 19.3386 20.0114 19.6814 20.2685 20.1157L19.2485 20.7071C19.1 20.4386 18.8885 20.23 18.6143 20.0814C18.34 19.9271 18.0314 19.85 17.6885 19.85C17.1057 19.85 16.6343 20.0329 16.2743 20.3986C15.92 20.7643 15.7428 21.2386 15.7428 21.8214C15.7428 22.3986 15.92 22.87 16.2743 23.2357C16.6343 23.6014 17.1057 23.7843 17.6885 23.7843C18.0314 23.7843 18.34 23.71 18.6143 23.5614C18.8943 23.4071 19.1057 23.1986 19.2485 22.9357L20.2685 23.5271C20.0114 23.9614 19.6543 24.3071 19.1971 24.5643C18.74 24.8157 18.2371 24.9414 17.6885 24.9414ZM24.5437 24.8214L23.3352 22.7386H22.4352V24.8214H21.2523V18.8214H23.6523C24.2066 18.8214 24.678 19.0157 25.0666 19.4043C25.4552 19.7929 25.6495 20.2614 25.6495 20.81C25.6495 21.1814 25.5437 21.5271 25.3323 21.8471C25.1209 22.1614 24.8409 22.3986 24.4923 22.5586L25.8209 24.8214H24.5437ZM31.4717 24.8214H32.646V18.8214H31.4288L29.7145 21.6586L27.9917 18.8214H26.7745V24.8214H27.9574V20.9386L29.646 23.7157H29.7831L31.4717 20.93V24.8214Z"/>
<path fill-rule="evenodd" clip-rule="evenodd" d="M11.6429 13.5357V31.25H4.5C3.39543 31.25 2.5 30.3546 2.5 29.25V13.5357H11.6429ZM4.64286 15.2143C4.36672 15.2143 4.14286 15.4382 4.14286 15.7143C4.14286 15.9905 4.36672 16.2143 4.64286 16.2143H10C10.2761 16.2143 10.5 15.9905 10.5 15.7143C10.5 15.4382 10.2761 15.2143 10 15.2143H4.64286ZM4.14286 17.8571C4.14286 17.581 4.36672 17.3571 4.64286 17.3571H10C10.2761 17.3571 10.5 17.581 10.5 17.8571C10.5 18.1333 10.2761 18.3571 10 18.3571H4.64286C4.36672 18.3571 4.14286 18.1333 4.14286 17.8571ZM4.64286 19.5C4.36672 19.5 4.14286 19.7239 4.14286 20C4.14286 20.2761 4.36672 20.5 4.64286 20.5H7.85714C8.13329 20.5 8.35714 20.2761 8.35714 20C8.35714 19.7239 8.13329 19.5 7.85714 19.5H4.64286ZM4.14286 24.2857C4.14286 24.0095 4.36672 23.7857 4.64286 23.7857H7.85714C8.13329 23.7857 8.35714 24.0095 8.35714 24.2857C8.35714 24.5618 8.13329 24.7857 7.85714 24.7857H4.64286C4.36672 24.7857 4.14286 24.5618 4.14286 24.2857ZM4.64286 21.6429C4.36672 21.6429 4.14286 21.8667 4.14286 22.1429C4.14286 22.419 4.36672 22.6429 4.64286 22.6429H10C10.2761 22.6429 10.5 22.419 10.5 22.1429C10.5 21.8667 10.2761 21.6429 10 21.6429H4.64286Z"/>
</svg>
