<svg width="40" height="40" viewBox="0 0 40 40" xmlns="http://www.w3.org/2000/svg">
<path fill-rule="evenodd" clip-rule="evenodd" d="M34 20C34 27.732 27.732 34 20 34C12.268 34 6 27.732 6 20C6 12.268 12.268 6 20 6C27.732 6 34 12.268 34 20ZM20.4625 25.2723C21.8853 25.4106 23.1967 26.1886 23.882 27.559L26.118 26.441C24.8871 23.9791 22.4445 22.7698 20.0589 22.7502C20.2731 23.2648 20.5 23.9567 20.5 24.6668C20.5 24.8732 20.4872 25.0752 20.4625 25.2723ZM14.8314 26.9157C13.7755 26.6427 13 25.7391 13 24.6667C13 23.378 15.5 20 15.5 20C15.5 20 18 23.378 18 24.6667C18 24.7812 17.9912 24.8937 17.9741 25.0038C17.9613 25.0866 17.9438 25.1679 17.9219 25.2477C17.8562 25.4868 17.751 25.7112 17.613 25.9143C17.3791 26.2587 17.051 26.5421 16.6627 26.7328C16.3154 26.9034 15.9197 27.0001 15.5 27.0001C15.2684 27.0001 15.0442 26.9707 14.8314 26.9157ZM18 16.5C18 17.8807 16.8807 19 15.5 19C14.1193 19 13 17.8807 13 16.5C13 15.1193 14.1193 14 15.5 14C16.8807 14 18 15.1193 18 16.5ZM24.5 19C25.8807 19 27 17.8807 27 16.5C27 15.1193 25.8807 14 24.5 14C23.1193 14 22 15.1193 22 16.5C22 17.8807 23.1193 19 24.5 19Z"/>
</svg>
