<svg width="40" height="40" viewBox="0 0 40 40" xmlns="http://www.w3.org/2000/svg">
<path d="M15 4C21.6274 4 27 5.79086 27 8V10.5C27 12.7091 21.6274 14.5 15 14.5C8.37258 14.5 3 12.7091 3 10.5V8C3 5.79086 8.37258 4 15 4Z"/>
<path d="M15.5 26.4966C15.5002 25.6389 15.5868 24.8014 15.7516 23.9923C15.5031 23.9974 15.2524 24 15 24C8.88057 24 3.83099 22.4732 3.09284 20.5H3V22.5C3 24.7091 8.37258 26.5 15 26.5C15.1675 26.5 15.3342 26.4989 15.5 26.4966Z"/>
<path d="M19.058 17.7655C18.2804 18.5615 17.6082 19.4608 17.064 20.4411C16.3934 20.4798 15.7038 20.5 15 20.5C8.37258 20.5 3 18.7091 3 16.5V14.5H3.09284C3.83099 16.4732 8.88057 18 15 18C16.4243 18 17.7906 17.9173 19.058 17.7655Z"/>
<path d="M26.7751 27.9475H27.8851V29.0575H26.7751V27.9475Z"/>
<path fill-rule="evenodd" clip-rule="evenodd" d="M38 27C38 32.5228 33.5228 37 28 37C22.4772 37 18 32.5228 18 27C18 21.4772 22.4772 17 28 17C33.5228 17 38 21.4772 38 27ZM32.1932 26.0049V25.1724C32.1932 24.5556 31.6932 24.0556 31.0764 24.0556C30.4595 24.0556 29.9595 24.5556 29.9595 25.1724V26.0049H30.6601V31H24V26.0049H28.4469V25.1724C28.4469 23.7202 29.6242 22.543 31.0764 22.543C32.5286 22.543 33.7058 23.7202 33.7058 25.1724V26.0049H33.2964H32.1932Z"/>
</svg>
