<svg width="40" height="40" viewBox="0 0 40 40" xmlns="http://www.w3.org/2000/svg">
<path d="M14 5C20.6274 5 26 6.79086 26 9V11.5C26 13.7091 20.6274 15.5 14 15.5C7.37258 15.5 2 13.7091 2 11.5V9C2 6.79086 7.37258 5 14 5Z"/>
<path d="M15.7742 26.1296C15.7742 25.7333 15.7919 25.3412 15.8266 24.954C15.231 24.9843 14.621 25 14 25C7.88057 25 2.83099 23.4732 2.09284 21.5H2V23.5C2 25.7091 7.37258 27.5 14 27.5C14.6259 27.5 15.2406 27.484 15.8407 27.4532C15.7967 27.018 15.7742 26.5764 15.7742 26.1296Z"/>
<path d="M18.057 18.7656C17.4956 19.5813 17.0248 20.4648 16.6595 21.4014C15.804 21.4659 14.9139 21.5 14 21.5C7.37258 21.5 2 19.7091 2 17.5V15.5H2.09284C2.83099 17.4732 7.88057 19 14 19C15.4239 19 16.7898 18.9173 18.057 18.7656Z"/>
<path fill-rule="evenodd" clip-rule="evenodd" d="M28.6774 36.5C34.3784 36.5 39 31.857 39 26.1296C39 20.4023 34.3784 15.7593 28.6774 15.7593C22.9764 15.7593 18.3549 20.4023 18.3549 26.1296C18.3549 31.857 22.9764 36.5 28.6774 36.5ZM30.7617 30.5826V33.3176L35.2991 29.2151L30.7617 25.1125V27.8476H21.6869V30.5826H30.7617ZM26.2244 26.8362V24.1012H35.2992V21.3661H26.2244V18.6311L21.687 22.7336L26.2244 26.8362Z"/>
</svg>
