<svg width="40" height="40" viewBox="0 0 40 40" xmlns="http://www.w3.org/2000/svg">
<path d="M15 4C21.6274 4 27 5.79086 27 8V10.5C27 12.7091 21.6274 14.5 15 14.5C8.37258 14.5 3 12.7091 3 10.5V8C3 5.79086 8.37258 4 15 4Z"/>
<path d="M15.5 26.4966C15.5002 25.6389 15.5868 24.8014 15.7516 23.9923C15.5031 23.9974 15.2524 24 15 24C8.88057 24 3.83099 22.4732 3.09284 20.5H3V22.5C3 24.7091 8.37258 26.5 15 26.5C15.1675 26.5 15.3342 26.4989 15.5 26.4966Z"/>
<path d="M19.058 17.7655C18.2804 18.5615 17.6082 19.4608 17.064 20.4411C16.3934 20.4798 15.7038 20.5 15 20.5C8.37258 20.5 3 18.7091 3 16.5V14.5H3.09284C3.83099 16.4732 8.88057 18 15 18C16.4243 18 17.7906 17.9173 19.058 17.7655Z"/>
<path d="M24.4659 26.4429C24.4659 24.7987 25.7987 23.4659 27.4429 23.4659C29.0871 23.4659 30.42 24.7987 30.42 26.4429C30.42 28.0871 29.0871 29.42 27.4429 29.42C25.7987 29.42 24.4659 28.0871 24.4659 26.4429Z"/>
<path fill-rule="evenodd" clip-rule="evenodd" d="M38 27C38 32.5228 33.5228 37 28 37C22.4772 37 18 32.5228 18 27C18 21.4772 22.4772 17 28 17C33.5228 17 38 21.4772 38 27ZM27.4429 21.5C24.713 21.5 22.5 23.713 22.5 26.4429C22.5 29.1728 24.713 31.3858 27.4429 31.3858C28.4519 31.3858 29.3912 31.083 30.1736 30.5636L32.317 32.707L33.7071 31.3169L31.5637 29.1736C32.0831 28.3911 32.3858 27.4519 32.3858 26.4429C32.3858 23.713 30.1728 21.5 27.4429 21.5Z"/>
</svg>
