<svg width="40" height="40" viewBox="0 0 40 40" xmlns="http://www.w3.org/2000/svg">
<path d="M20 8.5C26.6274 8.5 32 10.2909 32 12.5V15C32 17.2091 26.6274 19 20 19C13.3726 19 8 17.2091 8 15V12.5C8 10.2909 13.3726 8.5 20 8.5Z"/>
<path d="M31.9072 19H32V21C32 23.2091 26.6274 25 20 25C13.3726 25 8 23.2091 8 21V19H8.09284C8.83099 20.9732 13.8806 22.5 20 22.5C26.1194 22.5 31.169 20.9732 31.9072 19Z"/>
<path d="M31.9072 25C31.169 26.9732 26.1194 28.5 20 28.5C13.8806 28.5 8.83099 26.9732 8.09284 25H8V27C8 29.2091 13.3726 31 20 31C26.6274 31 32 29.2091 32 27V25H31.9072Z"/>
</svg>
