<svg width="40" height="40" viewBox="0 0 40 40" xmlns="http://www.w3.org/2000/svg">
<path d="M31.5 5H1.5V24H13.5V27H10.5V30H16.6537C16.2298 28.7441 16 27.3989 16 26C16 24.4136 16.2955 22.8963 16.8345 21.5H4V7.5H29V13.5098C29.8584 13.5436 30.6946 13.6639 31.5 13.8623V5Z"/>
<path d="M28.4778 27.7515C29.334 27.7515 30.0281 27.0574 30.0281 26.2012C30.0281 25.345 29.334 24.6509 28.4778 24.6509C27.6216 24.6509 26.9275 25.345 26.9275 26.2012C26.9275 27.0574 27.6216 27.7515 28.4778 27.7515Z"/>
<path fill-rule="evenodd" clip-rule="evenodd" d="M38.5 26C38.5 31.5228 34.0228 36 28.5 36C22.9772 36 18.5 31.5228 18.5 26C18.5 20.4772 22.9772 16 28.5 16C34.0228 16 38.5 20.4772 38.5 26ZM26.9275 20H30.0281V22.2285C30.3759 22.3644 30.7016 22.5446 30.998 22.7622L32.9052 21.6611L34.4555 24.3463L32.6624 25.3816C32.7141 25.6468 32.7411 25.9209 32.7411 26.2012C32.7411 26.3577 32.7327 26.5123 32.7163 26.6644L34.4555 27.6686L32.9052 30.3538L31.2792 29.415C30.9121 29.7353 30.4897 29.9937 30.0281 30.1739V32.0149H26.9275V30.1739C26.4659 29.9937 26.0434 29.7353 25.6763 29.415L24.0503 30.3538L22.5 27.6686L24.2393 26.6644C24.2229 26.5123 24.2144 26.3577 24.2144 26.2012C24.2144 25.9209 24.2415 25.6468 24.2931 25.3816L22.5 24.3463L24.0503 21.6611L25.9575 22.7622C26.254 22.5446 26.5796 22.3644 26.9275 22.2285V20Z"/>
</svg>
