<svg width="40" height="40" viewBox="0 0 40 40" xmlns="http://www.w3.org/2000/svg">
<path d="M31.5 5H1.5V24H13.5V27H10.5V30H16.6537C16.2298 28.7441 16 27.3989 16 26C16 24.4136 16.2955 22.8963 16.8345 21.5H4V7.5H29V13.5098C29.8584 13.5436 30.6946 13.6639 31.5 13.8623V5Z"/>
<path d="M27.2751 26.9475H28.3851V28.0575H27.2751V26.9475Z"/>
<path fill-rule="evenodd" clip-rule="evenodd" d="M38.5 26C38.5 31.5228 34.0228 36 28.5 36C22.9772 36 18.5 31.5228 18.5 26C18.5 20.4772 22.9772 16 28.5 16C34.0228 16 38.5 20.4772 38.5 26ZM32.6932 25.0049V24.1724C32.6932 23.5556 32.1932 23.0556 31.5764 23.0556C30.9595 23.0556 30.4595 23.5556 30.4595 24.1724V25.0049H31.1601V30H24.5V25.0049H28.9469V24.1724C28.9469 22.7202 30.1242 21.543 31.5764 21.543C33.0286 21.543 34.2058 22.7202 34.2058 24.1724V25.0049H33.7964H32.6932Z"/>
</svg>
