<svg width="40" height="40" viewBox="0 0 40 40" xmlns="http://www.w3.org/2000/svg">
<path d="M31.5 5H1.5V24H13.5V27H10.5V30H16.6537C16.2298 28.7441 16 27.3989 16 26C16 24.4136 16.2955 22.8963 16.8345 21.5H4V7.5H29V13.5098C29.8584 13.5436 30.6946 13.6639 31.5 13.8623V5Z"/>
<path d="M29.9701 24.8987V23.9651C29.9701 23.1445 29.3049 22.4792 28.4842 22.4792C27.6636 22.4792 26.9983 23.1445 26.9983 23.9651V24.8987H29.9701Z"/>
<path d="M27.8619 27.077H29.1066V28.3217H27.8619V27.077Z"/>
<path fill-rule="evenodd" clip-rule="evenodd" d="M38.5 26C38.5 31.5228 34.0228 36 28.5 36C22.9772 36 18.5 31.5228 18.5 26C18.5 20.4772 22.9772 16 28.5 16C34.0228 16 38.5 20.4772 38.5 26ZM25.7691 23.9651C25.7691 22.4656 26.9847 21.25 28.4842 21.25C29.9837 21.25 31.1993 22.4656 31.1993 23.9651V24.8987H32.2185V30.5H24.75V24.8987H25.7691V23.9651Z"/>
</svg>
