<svg width="40" height="40" viewBox="0 0 40 40" xmlns="http://www.w3.org/2000/svg">
<path fill-rule="evenodd" clip-rule="evenodd" d="M7.56073 13.5698C6.56339 15.4953 5.99999 17.6818 5.99999 19.9999C5.99999 27.7319 12.268 33.9999 20 33.9999C27.732 33.9999 34 27.7319 34 19.9999C34 17.6814 33.4364 15.4946 32.4388 13.569C32.8074 13.3557 33.1545 13.0913 33.4699 12.7759C35.4185 10.8273 35.4185 7.66808 33.4699 5.71951C33.3928 5.64235 33.3137 5.56824 33.2329 5.49719C33.121 6.79153 32.35 8.33429 31.042 9.64232C30.7661 9.91818 30.4798 10.1701 30.1876 10.3971C27.6348 7.68979 24.0147 5.99988 20 5.99988C15.9598 5.99988 12.3194 7.71126 9.76403 10.4486C9.72979 10.4154 9.69571 10.3819 9.66178 10.3479C7.86835 8.5545 7.08441 6.31982 7.6249 4.88916C7.23188 5.10868 6.86225 5.38546 6.5282 5.71951C4.57963 7.66808 4.57963 10.8273 6.5282 12.7759C6.84401 13.0917 7.19162 13.3563 7.56073 13.5698ZM13.7678 18.5354C15.021 19.7886 17.0528 19.7886 18.306 18.5354L16.0368 16.2664C14.7836 15.0132 14.6753 14.905 13.7678 13.9972C12.5146 15.2504 12.5146 17.2822 13.7678 18.5354ZM26.2282 13.9973C27.4814 15.2505 27.4814 17.2823 26.2282 18.5355C24.975 19.7887 22.9432 19.7887 21.69 18.5355C22.5945 17.6313 22.7053 17.5205 23.9455 16.2803L26.2282 13.9973ZM16.118 23.4409C16.877 24.9587 18.4041 25.7499 20 25.7499C21.5959 25.7499 23.123 24.9587 23.882 23.4409L26.118 24.5589C24.877 27.041 22.4041 28.2499 20 28.2499C17.5959 28.2499 15.123 27.041 13.882 24.5589L16.118 23.4409Z"/>
</svg>
