<svg width="40" height="40" viewBox="0 0 40 40" xmlns="http://www.w3.org/2000/svg">
<path d="M5 20.0002C5 12.394 10.6613 6.11011 18 5.13232V11.2232C13.992 12.1326 11 15.717 11 20.0002C11 20.5762 11.0541 21.1396 11.1575 21.6855L5.57508 24.1278C5.20055 22.8165 5 21.4317 5 20.0002Z"/>
<path d="M7.17987 27.7918C9.81238 32.114 14.5691 35.0002 20 35.0002C23.0081 35.0002 25.8094 34.1147 28.1574 32.5902L24.1935 27.9655C22.9412 28.6262 21.5143 29.0002 20 29.0002C17.0329 29.0002 14.4012 27.5644 12.7617 25.3497L7.17987 27.7918Z"/>
<path d="M31.1934 29.9858L27.2296 25.3614C28.1548 24.1159 28.7657 22.623 28.9451 21.0002H34.9672C34.7407 24.4416 33.3535 27.5661 31.1934 29.9858Z"/>
<path d="M34.6999 17.0002C33.44 10.7932 28.3474 5.97803 22 5.13232V11.2232C25.0237 11.9093 27.4691 14.1177 28.4879 17.0002H34.6999Z"/>
</svg>
