<svg width="40" height="40" viewBox="0 0 40 40" xmlns="http://www.w3.org/2000/svg">
<path d="M26.192 23.576C26.192 25.032 25.736 26.208 24.824 27.104C23.928 27.984 22.744 28.512 21.272 28.688V30.8H19.592V28.712C18.232 28.616 17.064 28.232 16.088 27.56C15.128 26.888 14.432 25.976 14 24.824L17.312 22.904C17.824 24.072 18.584 24.744 19.592 24.92V21.608C19.56 21.592 19.504 21.576 19.424 21.56C19.36 21.528 19.312 21.504 19.28 21.488C18.768 21.28 18.336 21.096 17.984 20.936C17.632 20.76 17.232 20.52 16.784 20.216C16.336 19.912 15.968 19.592 15.68 19.256C15.408 18.904 15.176 18.472 14.984 17.96C14.792 17.448 14.696 16.88 14.696 16.256C14.696 14.784 15.168 13.624 16.112 12.776C17.056 11.912 18.216 11.416 19.592 11.288V9.19995H21.272V11.336C23.528 11.624 25.104 12.784 26 14.816L22.76 16.712C22.456 15.912 21.96 15.392 21.272 15.152V18.392C21.352 18.424 21.616 18.536 22.064 18.728C22.512 18.904 22.8 19.024 22.928 19.088C23.072 19.152 23.336 19.288 23.72 19.496C24.104 19.688 24.376 19.856 24.536 20C24.696 20.144 24.904 20.352 25.16 20.624C25.432 20.896 25.624 21.168 25.736 21.44C25.848 21.696 25.952 22.008 26.048 22.376C26.144 22.744 26.192 23.144 26.192 23.576ZM18.536 16.28C18.536 16.76 18.888 17.2 19.592 17.6V15.08C18.888 15.256 18.536 15.656 18.536 16.28ZM21.272 24.872C21.992 24.68 22.352 24.264 22.352 23.624C22.352 23.096 21.992 22.656 21.272 22.304V24.872Z"/>
</svg>
