<svg width="40" height="40" viewBox="0 0 40 40" xmlns="http://www.w3.org/2000/svg">
<path d="M19.5815 15.9C19.0015 16.04 18.7015 16.42 18.7015 16.9C18.7015 17.28 18.8815 17.6 19.5815 18V15.9Z"/>
<path d="M20.9815 21.92V24.06C21.6615 23.88 21.8815 23.44 21.8815 23.02C21.8815 22.52 21.5815 22.22 20.9815 21.92Z"/>
<path fill-rule="evenodd" clip-rule="evenodd" d="M20 35C28.2843 35 35 28.2843 35 20C35 11.7157 28.2843 5 20 5C11.7157 5 5 11.7157 5 20C5 28.2843 11.7157 35 20 35ZM21.4838 18.8676C23.1425 19.5433 25.0815 20.3333 25.0815 22.98C25.0815 25.48 23.3615 26.96 20.9815 27.24V29H19.5815V27.26C17.3215 27.1 15.6415 25.94 14.9215 24.02L17.6815 22.42C18.1015 23.38 18.6815 23.94 19.5815 24.1V21.34C19.5415 21.32 19.4965 21.305 19.4515 21.29C19.4065 21.275 19.3615 21.26 19.3215 21.24C17.5815 20.54 15.5015 19.56 15.5015 16.88C15.5015 14.28 17.4615 12.94 19.5815 12.74V11H20.9815V12.78C22.7015 13 24.1415 13.92 24.9215 15.68L22.2215 17.26C21.9615 16.56 21.5615 16.16 20.9815 15.96V18.66C21.1443 18.7292 21.3126 18.7978 21.4838 18.8676Z"/>
</svg>
