<svg width="40" height="40" viewBox="0 0 40 40" xmlns="http://www.w3.org/2000/svg">
<path d="M20 27.5C21.933 27.5 23.5 29.067 23.5 31C23.5 32.933 21.933 34.5 20 34.5C18.067 34.5 16.5 32.933 16.5 31C16.5 29.067 18.067 27.5 20 27.5Z"/>
<path d="M20 16.5C21.933 16.5 23.5 18.067 23.5 20C23.5 21.933 21.933 23.5 20 23.5C18.067 23.5 16.5 21.933 16.5 20C16.5 18.067 18.067 16.5 20 16.5Z"/>
<path d="M23.5 9C23.5 7.067 21.933 5.5 20 5.5C18.067 5.5 16.5 7.067 16.5 9C16.5 10.933 18.067 12.5 20 12.5C21.933 12.5 23.5 10.933 23.5 9Z"/>
</svg>
