<svg width="40" height="40" viewBox="0 0 40 40" xmlns="http://www.w3.org/2000/svg">
<path d="M15.3009 6.80813C12.88 7.67054 10.7663 9.18046 9.16835 11.1294C9.32796 11.2098 9.49268 11.2906 9.6624 11.3714C10.5803 11.8085 11.6406 12.2447 12.8258 12.6219C13.278 11.0887 13.8253 9.73437 14.3714 8.58751C14.6869 7.92499 15.0027 7.3301 15.3009 6.80813Z"/>
<path d="M7.75214 13.2131C6.63578 15.2235 6 17.5375 6 20C6 22.4625 6.63578 24.7765 7.75214 26.7869C8.0172 26.6493 8.29583 26.5103 8.58757 26.3714C9.63579 25.8723 10.8573 25.3722 12.2304 24.9446C11.933 23.421 11.75 21.766 11.75 19.9999C11.75 18.2339 11.933 16.579 12.2304 15.0554C10.8573 14.6278 9.63579 14.1277 8.58757 13.6286C8.29583 13.4897 8.0172 13.3507 7.75214 13.2131Z"/>
<path d="M9.16835 28.8706C10.7664 30.8196 12.8801 32.3295 15.301 33.1919C15.0028 32.6699 14.6869 32.0749 14.3714 31.4123C13.8253 30.2655 13.278 28.9112 12.8259 27.378C11.6406 27.7553 10.5803 28.1915 9.6624 28.6286C9.49268 28.7094 9.32796 28.7902 9.16835 28.8706Z"/>
<path d="M18.7638 33.9462C19.1711 33.9818 19.5835 34 20 34C20.4165 34 20.8288 33.9818 21.2361 33.9462C21.3588 33.7822 21.5326 33.5413 21.7412 33.2284C22.1819 32.5673 22.7759 31.5881 23.3714 30.3375C23.8609 29.3096 24.3492 28.103 24.755 26.7425C23.2973 26.4392 21.7047 26.25 20 26.25C18.2953 26.25 16.7027 26.4392 15.245 26.7425C15.6507 28.103 16.1391 29.3096 16.6285 30.3375C17.2241 31.5881 17.818 32.5673 18.2588 33.2284C18.4674 33.5413 18.6412 33.7822 18.7638 33.9462Z"/>
<path d="M24.6989 33.1919C27.1199 32.3295 29.2336 30.8196 30.8316 28.8706C30.672 28.7902 30.5073 28.7094 30.3376 28.6286C29.4197 28.1915 28.3593 27.7553 27.1741 27.378C26.7219 28.9112 26.1747 30.2655 25.6285 31.4123C25.313 32.075 24.9971 32.6699 24.6989 33.1919Z"/>
<path d="M32.2479 26.7869C33.3642 24.7765 34 22.4625 34 20C34 17.5375 33.3642 15.2235 32.2479 13.2131C31.9828 13.3506 31.7042 13.4896 31.4124 13.6286C30.3642 14.1277 29.1426 14.6278 27.7696 15.0554C28.067 16.579 28.25 18.2339 28.25 19.9999C28.25 21.766 28.0669 23.421 27.7695 24.9446C29.1426 25.3722 30.3642 25.8723 31.4124 26.3714C31.7042 26.5104 31.9828 26.6494 32.2479 26.7869Z"/>
<path d="M30.8316 11.1294C29.2336 9.18043 27.1199 7.67051 24.699 6.8081C24.9972 7.33008 25.3131 7.92498 25.6285 8.58751C26.1747 9.73437 26.7219 11.0887 27.1741 12.622C28.3593 12.2447 29.4197 11.8085 30.3376 11.3714C30.5073 11.2906 30.672 11.2098 30.8316 11.1294Z"/>
<path d="M21.2362 6.05383C21.3589 6.21778 21.5326 6.45863 21.7412 6.77143C22.1819 7.43255 22.7759 8.41173 23.3714 9.66234C23.8609 10.6903 24.3493 11.8969 24.755 13.2575C23.2973 13.5608 21.7047 13.75 20 13.75C18.2952 13.75 16.7026 13.5608 15.245 13.2575C15.6507 11.8969 16.1391 10.6903 16.6285 9.66234C17.2241 8.41173 17.818 7.43255 18.2588 6.77143C18.4673 6.45864 18.6411 6.21778 18.7637 6.05384C19.1711 6.0182 19.5834 6 20 6C20.4166 6 20.8289 6.01819 21.2362 6.05383Z"/>
<path d="M25.75 19.9999C25.75 21.5335 25.5968 22.9764 25.3453 24.3119C23.7126 23.9668 21.922 23.75 20 23.75C18.0779 23.75 16.2874 23.9668 14.6546 24.3119C14.4031 22.9764 14.25 21.5335 14.25 19.9999C14.25 18.4664 14.4031 17.0236 14.6546 15.6881C16.2874 16.0332 18.0779 16.25 20 16.25C21.9221 16.25 23.7126 16.0332 25.3453 15.6881C25.5969 17.0236 25.75 18.4664 25.75 19.9999Z"/>
</svg>
