<svg width="40" height="40" viewBox="0 0 40 40" xmlns="http://www.w3.org/2000/svg">
<path d="M5.11609 6.88398L33.1161 34.884L34.8839 33.1162L6.88386 5.11621L5.11609 6.88398Z"/>
<path d="M11.9029 17.2062L8.07422 13.3775C7.96475 13.3226 7.85738 13.2677 7.75214 13.2131C6.63578 15.2235 6 17.5375 6 20C6 22.4625 6.63578 24.7765 7.75214 26.7869C8.0172 26.6493 8.29583 26.5103 8.58757 26.3714C9.63579 25.8723 10.8573 25.3722 12.2304 24.9446C11.933 23.421 11.75 21.766 11.75 19.9999C11.75 19.0344 11.8047 18.102 11.9029 17.2062Z"/>
<path d="M18.4912 23.7945L14.2542 19.5575C14.2514 19.7041 14.25 19.8516 14.25 19.9999C14.25 21.5335 14.4031 22.9764 14.6546 24.3119C15.8521 24.0588 17.1344 23.8747 18.4912 23.7945Z"/>
<path d="M23.884 29.1873L20.967 26.2703C20.6489 26.2569 20.3265 26.25 20 26.25C18.2953 26.25 16.7027 26.4392 15.245 26.7425C15.6507 28.103 16.1391 29.3096 16.6285 30.3375C17.2241 31.5881 17.818 32.5673 18.2588 33.2284C18.4674 33.5413 18.6412 33.7822 18.7638 33.9462C19.1711 33.9818 19.5835 34 20 34C20.4165 34 20.8288 33.9818 21.2361 33.9462C21.3588 33.7822 21.5326 33.5413 21.7412 33.2284C22.1819 32.5673 22.7759 31.5881 23.3714 30.3375C23.5436 29.9759 23.7157 29.5921 23.884 29.1873Z"/>
<path d="M26.8879 32.1912L25.7818 31.0851C25.7307 31.196 25.6796 31.3051 25.6285 31.4123C25.313 32.075 24.9971 32.6699 24.6989 33.1919C25.4612 32.9204 26.193 32.5846 26.8879 32.1912Z"/>
<path d="M32.2479 26.7869C32.1426 26.7323 32.0353 26.6775 31.9258 26.6225L28.0971 22.7938C28.1953 21.8979 28.25 20.9655 28.25 19.9999C28.25 18.2339 28.067 16.579 27.7696 15.0554C29.1426 14.6278 30.3642 14.1277 31.4124 13.6286C31.7042 13.4896 31.9828 13.3506 32.2479 13.2131C33.3642 15.2235 34 17.5375 34 20C34 22.4625 33.3642 24.7765 32.2479 26.7869Z"/>
<path d="M25.75 19.9999C25.75 20.1483 25.7485 20.2958 25.7457 20.4424L21.5088 16.2054C22.8656 16.1253 24.1479 15.9412 25.3453 15.6881C25.5969 17.0236 25.75 18.4664 25.75 19.9999Z"/>
<path d="M20 13.75C19.6735 13.75 19.3511 13.7431 19.033 13.7297L16.1159 10.8126C16.2843 10.4078 16.4563 10.024 16.6285 9.66234C17.2241 8.41173 17.818 7.43255 18.2588 6.77143C18.4673 6.45864 18.6411 6.21778 18.7637 6.05384C19.1711 6.0182 19.5834 6 20 6C20.4166 6 20.8289 6.01819 21.2362 6.05383C21.3589 6.21778 21.5326 6.45863 21.7412 6.77143C22.1819 7.43255 22.7759 8.41173 23.3714 9.66234C23.8609 10.6903 24.3493 11.8969 24.755 13.2575C23.2973 13.5608 21.7047 13.75 20 13.75Z"/>
<path d="M14.3714 8.58751C14.3203 8.69481 14.2692 8.80394 14.2182 8.91485L13.1121 7.8088C13.8069 7.41539 14.5387 7.07966 15.3009 6.80813C15.0027 7.3301 14.6869 7.92499 14.3714 8.58751Z"/>
<path d="M9.16835 28.8706C10.7664 30.8196 12.8801 32.3295 15.301 33.1919C15.0028 32.6699 14.6869 32.0749 14.3714 31.4123C13.8253 30.2655 13.278 28.9112 12.8259 27.378C11.6406 27.7553 10.5803 28.1915 9.6624 28.6286C9.49268 28.7094 9.32796 28.7902 9.16835 28.8706Z"/>
<path d="M30.8316 11.1294C29.2336 9.18043 27.1199 7.67051 24.699 6.8081C24.9972 7.33008 25.3131 7.92498 25.6285 8.58751C26.1747 9.73437 26.7219 11.0887 27.1741 12.622C28.3593 12.2447 29.4197 11.8085 30.3376 11.3714C30.5073 11.2906 30.672 11.2098 30.8316 11.1294Z"/>
</svg>
