<svg width="40" height="40" viewBox="0 0 40 40" xmlns="http://www.w3.org/2000/svg">
<path d="M31 4H3V7L17 11.6824L31 7V4Z"/>
<path d="M31 9.5L17 14.3177L3 9.5V22H16.1537C17.8217 17.0582 22.4953 13.5 28 13.5C29.0341 13.5 30.0389 13.6256 31 13.8623V9.5Z"/>
<path fill-rule="evenodd" clip-rule="evenodd" d="M38 26C38 31.5228 33.5228 36 28 36C22.4772 36 18 31.5228 18 26C18 20.4772 22.4772 16 28 16C33.5228 16 38 20.4772 38 26ZM31.0815 21.4185L29.3882 23.1118L31.0815 24.8051L32.7748 23.1118L31.0815 21.4185ZM28.6593 23.8407L24.2517 28.2483L24.0966 30.0966L25.945 29.9416L30.3526 25.534L28.6593 23.8407Z"/>
</svg>
