<svg width="40" height="40" viewBox="0 0 40 40" xmlns="http://www.w3.org/2000/svg">
<path d="M23.752 23.156L26.944 24.9801C25.76 27.5081 23.872 28.7721 21.28 28.7721C19.472 28.7721 17.992 28.1961 16.84 27.0441C15.688 25.892 14.952 24.324 14.632 22.34H13V20.324H14.44V20.036V19.556H13V17.54H14.656C15.008 15.604 15.76 14.084 16.912 12.98C18.064 11.86 19.52 11.3 21.28 11.3C23.776 11.3 25.624 12.492 26.824 14.876L23.632 16.724C23.328 16.132 22.992 15.708 22.624 15.452C22.256 15.18 21.808 15.044 21.28 15.044C19.872 15.044 18.96 15.876 18.544 17.54H23.08V19.556H18.28V20.036V20.324H23.08V22.34H18.496C18.896 24.132 19.824 25.028 21.28 25.028C21.84 25.028 22.312 24.8841 22.696 24.5961C23.08 24.2921 23.432 23.812 23.752 23.156Z"/>
</svg>
