<svg width="40" height="40" viewBox="0 0 40 40" xmlns="http://www.w3.org/2000/svg">
<path fill-rule="evenodd" clip-rule="evenodd" d="M20 35C28.2843 35 35 28.2843 35 20C35 11.7157 28.2843 5 20 5C11.7157 5 5 11.7157 5 20C5 28.2843 11.7157 35 20 35ZM21.0379 24.1597C21.9979 24.1597 22.5779 23.6797 23.0979 22.5997L25.7579 24.1197C24.7979 26.1797 23.1579 27.2797 21.0379 27.2797C17.9779 27.2797 16.0179 25.1797 15.4979 21.9197H14.1379V20.2397H15.3379V19.5997H14.1379V17.9197H15.5179C16.0979 14.7597 18.0379 12.7197 21.0379 12.7197C23.0779 12.7197 24.6779 13.7597 25.6579 15.6997L22.9979 17.2397C22.4979 16.2597 21.9379 15.8397 21.0379 15.8397C19.8579 15.8397 19.0979 16.5597 18.7579 17.9197H22.5379V19.5997H18.5379V20.2397H22.5379V21.9197H18.7179C19.0379 23.3797 19.8179 24.1597 21.0379 24.1597Z"/>
</svg>
