<svg width="40" height="40" viewBox="0 0 40 40" xmlns="http://www.w3.org/2000/svg">
<path fill-rule="evenodd" clip-rule="evenodd" d="M20 34C27.732 34 34 27.732 34 20C34 12.268 27.732 6 20 6C12.268 6 6 12.268 6 20C6 27.732 12.268 34 20 34ZM20 28C23.866 28 27 25.3137 27 22C24.8162 22.0003 24.1375 22.0002 22.9967 22.0002L13 22C13 25.3137 16.134 28 20 28ZM15 13.2322L18.3839 16.6161L16.6161 18.3838L15 16.7677L13.3839 18.3838L11.6161 16.6161L15 13.2322ZM28.3839 16.6161L25 13.2322L21.6161 16.6161L23.3839 18.3838L25 16.7677L26.6161 18.3838L28.3839 16.6161Z"/>
</svg>
