<svg width="40" height="40" viewBox="0 0 40 40" xmlns="http://www.w3.org/2000/svg">
<path d="M6.11612 7.88398L32.1161 33.884L33.8839 32.1162L7.88389 6.11621L6.11612 7.88398Z"/>
<path d="M5 20C5 20 6.51001 17.282 9.53003 14.8333L15.0096 20.3129C15.1648 22.8251 17.1749 24.8353 19.6871 24.9904L23.347 28.6503C22.3017 28.8734 21.186 29 20 29C10 29 5 20 5 20Z"/>
<path d="M30.47 25.1667L24.9904 19.687C24.8352 17.1749 22.8251 15.1648 20.313 15.0096L16.6531 11.3497C17.6984 11.1266 18.814 11 20 11C30 11 35 20 35 20C35 20 33.49 22.718 30.47 25.1667Z"/>
</svg>
