<svg width="40" height="40" viewBox="0 0 40 40" xmlns="http://www.w3.org/2000/svg">
<path fill-rule="evenodd" clip-rule="evenodd" d="M18 3H3V30H14.6591C14.5544 29.3488 14.5 28.6807 14.5 28C14.5 22.4953 18.0582 17.8217 23 16.1537V8L18 3ZM15.5 10.5V5.5L20.5 10.5H15.5ZM8 16H18V18.5H8V16ZM14 21H8V23.5H14V21Z"/>
<path d="M26.9778 29.7515C27.834 29.7515 28.5281 29.0574 28.5281 28.2012C28.5281 27.345 27.834 26.6509 26.9778 26.6509C26.1216 26.6509 25.4275 27.345 25.4275 28.2012C25.4275 29.0574 26.1216 29.7515 26.9778 29.7515Z"/>
<path fill-rule="evenodd" clip-rule="evenodd" d="M37 28C37 33.5228 32.5228 38 27 38C21.4772 38 17 33.5228 17 28C17 22.4772 21.4772 18 27 18C32.5228 18 37 22.4772 37 28ZM25.4275 22H28.5281V24.2285C28.8759 24.3644 29.2016 24.5446 29.498 24.7622L31.4052 23.6611L32.9555 26.3463L31.1624 27.3816C31.2141 27.6468 31.2411 27.9209 31.2411 28.2012C31.2411 28.3577 31.2327 28.5123 31.2163 28.6644L32.9555 29.6686L31.4052 32.3538L29.7792 31.415C29.4121 31.7353 28.9897 31.9937 28.5281 32.1739V34.0149H25.4275V32.1739C24.9659 31.9937 24.5434 31.7353 24.1763 31.415L22.5503 32.3538L21 29.6686L22.7393 28.6644C22.7229 28.5123 22.7144 28.3577 22.7144 28.2012C22.7144 27.9209 22.7415 27.6468 22.7931 27.3816L21 26.3463L22.5503 23.6611L24.4575 24.7622C24.754 24.5446 25.0796 24.3644 25.4275 24.2285V22Z"/>
</svg>
