<svg width="40" height="40" viewBox="0 0 40 40" xmlns="http://www.w3.org/2000/svg">
<path d="M8.05289 28.6132C5.94622 28.6132 4.20622 27.9132 2.83289 26.5132C1.45955 25.1132 0.772888 23.3866 0.772888 21.3332C0.772888 19.2666 1.45955 17.5399 2.83289 16.1532C4.20622 14.7532 5.94622 14.0532 8.05289 14.0532C9.31955 14.0532 10.4862 14.3532 11.5529 14.9532C12.6329 15.5399 13.4729 16.3399 14.0729 17.3532L11.6929 18.7332C11.3462 18.1066 10.8529 17.6199 10.2129 17.2732C9.57289 16.9132 8.85289 16.7332 8.05289 16.7332C6.69289 16.7332 5.59289 17.1599 4.75289 18.0132C3.92622 18.8666 3.51289 19.9732 3.51289 21.3332C3.51289 22.6799 3.92622 23.7799 4.75289 24.6332C5.59289 25.4866 6.69289 25.9132 8.05289 25.9132C8.85289 25.9132 9.57289 25.7399 10.2129 25.3932C10.8662 25.0332 11.3596 24.5466 11.6929 23.9332L14.0729 25.3132C13.4729 26.3266 12.6396 27.1332 11.5729 27.7332C10.5062 28.3199 9.33289 28.6132 8.05289 28.6132Z"/>
<path d="M21.1484 28.6132C19.7617 28.6132 18.595 28.3066 17.6484 27.6932C16.7017 27.0666 16.035 26.2199 15.6484 25.1532L18.0084 23.7732C18.555 25.1999 19.6284 25.9132 21.2284 25.9132C22.0017 25.9132 22.5684 25.7732 22.9284 25.4932C23.2884 25.2132 23.4684 24.8599 23.4684 24.4332C23.4684 23.9399 23.2484 23.5599 22.8084 23.2932C22.3684 23.0132 21.5817 22.7132 20.4484 22.3932C19.8217 22.2066 19.2884 22.0199 18.8484 21.8332C18.4217 21.6466 17.9884 21.3999 17.5484 21.0932C17.1217 20.7732 16.795 20.3732 16.5684 19.8932C16.3417 19.4132 16.2284 18.8532 16.2284 18.2132C16.2284 16.9466 16.675 15.9399 17.5684 15.1932C18.475 14.4332 19.5617 14.0532 20.8284 14.0532C21.9617 14.0532 22.955 14.3332 23.8084 14.8932C24.675 15.4399 25.3484 16.2066 25.8284 17.1932L23.5084 18.5332C22.9484 17.3332 22.055 16.7332 20.8284 16.7332C20.255 16.7332 19.8017 16.8666 19.4684 17.1332C19.1484 17.3866 18.9884 17.7199 18.9884 18.1332C18.9884 18.5732 19.1684 18.9332 19.5284 19.2132C19.9017 19.4799 20.6084 19.7732 21.6484 20.0932C22.075 20.2266 22.395 20.3332 22.6084 20.4132C22.835 20.4799 23.135 20.5932 23.5084 20.7532C23.895 20.8999 24.1884 21.0399 24.3884 21.1732C24.6017 21.3066 24.8417 21.4866 25.1084 21.7132C25.375 21.9399 25.575 22.1732 25.7084 22.4132C25.855 22.6532 25.975 22.9466 26.0684 23.2932C26.175 23.6266 26.2284 23.9932 26.2284 24.3932C26.2284 25.6866 25.755 26.7132 24.8084 27.4732C23.875 28.2332 22.655 28.6132 21.1484 28.6132Z"/>
<path d="M31.6979 28.3332L26.9979 14.3332H29.9979L33.4179 25.0932L36.8179 14.3332H39.8379L35.1179 28.3332H31.6979Z"/>
</svg>
