<svg width="40" height="40" viewBox="0 0 40 40" xmlns="http://www.w3.org/2000/svg">
<path fill-rule="evenodd" clip-rule="evenodd" d="M18 3H3V30H14.6591C14.5544 29.3488 14.5 28.6807 14.5 28C14.5 22.4953 18.0582 17.8217 23 16.1537V8L18 3ZM15.5 10.5V5.5L20.5 10.5H15.5ZM8 16H18V18.5H8V16ZM14 21H8V23.5H14V21Z"/>
<path fill-rule="evenodd" clip-rule="evenodd" d="M37 28C37 33.5228 32.5228 38 27 38C21.4772 38 17 33.5228 17 28C17 22.4772 21.4772 18 27 18C32.5228 18 37 22.4772 37 28ZM25.56 29.424H28.12C28.12 28.9769 28.5398 28.5902 29.0394 28.13C29.7735 27.4537 30.68 26.6186 30.68 25.2C30.68 23.12 28.856 22 27.032 22C25.256 22 23.704 22.928 23 24.576L25.208 25.84C25.528 25.088 26.056 24.496 26.936 24.496C27.752 24.496 28.12 24.864 28.12 25.424C28.12 26.078 27.5678 26.5835 26.9763 27.125C26.2942 27.7493 25.56 28.4215 25.56 29.424ZM26.84 33.648C27.672 33.648 28.36 32.96 28.36 32.128C28.36 31.296 27.672 30.608 26.84 30.608C26.008 30.608 25.32 31.296 25.32 32.128C25.32 32.96 26.008 33.648 26.84 33.648Z"/>
</svg>
