<svg width="40" height="40" viewBox="0 0 40 40" xmlns="http://www.w3.org/2000/svg">
<path fill-rule="evenodd" clip-rule="evenodd" d="M18 3H3V30H14.6591C14.5544 29.3488 14.5 28.6807 14.5 28C14.5 22.4953 18.0582 17.8217 23 16.1537V8L18 3ZM15.5 10.5V5.5L20.5 10.5H15.5ZM8 16H18V18.5H8V16ZM14 21H8V23.5H14V21Z"/>
<path fill-rule="evenodd" clip-rule="evenodd" d="M37 28C37 33.5228 32.5228 38 27 38C21.4772 38 17 33.5228 17 28C17 22.4772 21.4772 18 27 18C32.5228 18 37 22.4772 37 28ZM31.8464 33.507L32.5535 32.7999L22.1535 22.3999L21.4464 23.107L31.8464 33.507ZM21 27.9535C21 27.9535 21.604 26.8663 22.812 25.8869L25.0039 28.0788C25.066 29.0835 25.8699 29.8873 26.8746 29.9495L28.3387 31.4136C27.9206 31.5029 27.4744 31.5535 27 31.5535C23 31.5535 21 27.9535 21 27.9535ZM31.1879 30.0202L28.9962 27.8285C28.9342 26.8234 28.13 26.0191 27.1249 25.9572L25.6611 24.4934C26.0793 24.4042 26.5256 24.3535 27 24.3535C31 24.3535 33 27.9535 33 27.9535C33 27.9535 32.396 29.0408 31.1879 30.0202Z"/>
</svg>
