<svg width="40" height="40" viewBox="0 0 40 40" xmlns="http://www.w3.org/2000/svg">
<path fill-rule="evenodd" clip-rule="evenodd" d="M18 3H3V30H14.6591C14.5544 29.3488 14.5 28.6807 14.5 28C14.5 22.4953 18.0582 17.8217 23 16.1537V8L18 3ZM15.5 10.5V5.5L20.5 10.5H15.5ZM8 16H18V18.5H8V16ZM14 21H8V23.5H14V21Z"/>
<path d="M28.4701 26.8987V25.9651C28.4701 25.1445 27.8049 24.4792 26.9842 24.4792C26.1636 24.4792 25.4983 25.1445 25.4983 25.9651V26.8987H28.4701Z"/>
<path d="M26.3619 29.077H27.6066V30.3217H26.3619V29.077Z"/>
<path fill-rule="evenodd" clip-rule="evenodd" d="M37 28C37 33.5228 32.5228 38 27 38C21.4772 38 17 33.5228 17 28C17 22.4772 21.4772 18 27 18C32.5228 18 37 22.4772 37 28ZM24.2691 25.9651C24.2691 24.4656 25.4847 23.25 26.9842 23.25C28.4837 23.25 29.6993 24.4656 29.6993 25.9651V26.8987H30.7185V32.5H23.25V26.8987H24.2691V25.9651Z"/>
</svg>
