<svg width="40" height="40" viewBox="0 0 40 40" xmlns="http://www.w3.org/2000/svg">
<path fill-rule="evenodd" clip-rule="evenodd" d="M18 3H3V30H14.6591C14.5544 29.3488 14.5 28.6807 14.5 28C14.5 22.4953 18.0582 17.8217 23 16.1537V8L18 3ZM15.5 10.5V5.5L20.5 10.5H15.5ZM8 16H18V18.5H8V16ZM14 21H8V23.5H14V21Z"/>
<path fill-rule="evenodd" clip-rule="evenodd" d="M37 28C37 33.5228 32.5228 38 27 38C21.4772 38 17 33.5228 17 28C17 22.4772 21.4772 18 27 18C32.5228 18 37 22.4772 37 28ZM32.7435 25.8909L30.8419 24.3306L25.8415 29.1752L24.0451 27.4248L22.2836 29.1412L25.9387 32.7027L32.7435 25.8909Z"/>
</svg>
