<svg width="40" height="40" viewBox="0 0 40 40" xmlns="http://www.w3.org/2000/svg">
<path fill-rule="evenodd" clip-rule="evenodd" d="M18 3H3V30H14.6591C14.5544 29.3488 14.5 28.6807 14.5 28C14.5 22.4953 18.0582 17.8217 23 16.1537V8L18 3ZM15.5 10.5V5.5L20.5 10.5H15.5ZM8 16H18V18.5H8V16ZM14 21H8V23.5H14V21Z"/>
<path fill-rule="evenodd" clip-rule="evenodd" d="M27 38C32.5228 38 37 33.5228 37 28C37 22.4772 32.5228 18 27 18C21.4772 18 17 22.4772 17 28C17 33.5228 21.4772 38 27 38ZM25.4167 21.75H27.5833V28.2119L31.8415 30.6704L30.758 32.547L25.4167 29.4556L25.4167 21.75Z"/>
</svg>
