<svg width="40" height="40" viewBox="0 0 40 40" xmlns="http://www.w3.org/2000/svg">
<path d="M14.7 28.28H11.56L8.84 23.72L6.12 28.28H3L7.28 21.1L3.22 14.28H6.34L8.84 18.48L11.34 14.28H14.46L10.4 21.08L14.7 28.28Z"/>
<path d="M19.607 25.64H24.947V28.28H16.847V14.28H19.607V25.64Z"/>
<path d="M31.6411 28.56C30.2544 28.56 29.0878 28.2533 28.1411 27.64C27.1944 27.0133 26.5278 26.1667 26.1411 25.1L28.5011 23.72C29.0478 25.1467 30.1211 25.86 31.7211 25.86C32.4944 25.86 33.0611 25.72 33.4211 25.44C33.7811 25.16 33.9611 24.8067 33.9611 24.38C33.9611 23.8867 33.7411 23.5067 33.3011 23.24C32.8611 22.96 32.0744 22.66 30.9411 22.34C30.3144 22.1533 29.7811 21.9667 29.3411 21.78C28.9144 21.5933 28.4811 21.3467 28.0411 21.04C27.6144 20.72 27.2878 20.32 27.0611 19.84C26.8344 19.36 26.7211 18.8 26.7211 18.16C26.7211 16.8933 27.1678 15.8867 28.0611 15.14C28.9678 14.38 30.0544 14 31.3211 14C32.4544 14 33.4478 14.28 34.3011 14.84C35.1678 15.3867 35.8411 16.1533 36.3211 17.14L34.0011 18.48C33.4411 17.28 32.5478 16.68 31.3211 16.68C30.7478 16.68 30.2944 16.8133 29.9611 17.08C29.6411 17.3333 29.4811 17.6667 29.4811 18.08C29.4811 18.52 29.6611 18.88 30.0211 19.16C30.3944 19.4267 31.1011 19.72 32.1411 20.04C32.5678 20.1733 32.8878 20.28 33.1011 20.36C33.3278 20.4267 33.6278 20.54 34.0011 20.7C34.3878 20.8467 34.6811 20.9867 34.8811 21.12C35.0944 21.2533 35.3344 21.4333 35.6011 21.66C35.8678 21.8867 36.0678 22.12 36.2011 22.36C36.3478 22.6 36.4678 22.8933 36.5611 23.24C36.6678 23.5733 36.7211 23.94 36.7211 24.34C36.7211 25.6333 36.2478 26.66 35.3011 27.42C34.3678 28.18 33.1478 28.56 31.6411 28.56Z"/>
</svg>
