<svg width="40" height="40" viewBox="0 0 40 40" xmlns="http://www.w3.org/2000/svg">
<path fill-rule="evenodd" clip-rule="evenodd" d="M18 3H3V30H14.6591C14.5544 29.3488 14.5 28.6807 14.5 28C14.5 22.4953 18.0582 17.8217 23 16.1537V8L18 3ZM15.5 10.5V5.5L20.5 10.5H15.5ZM8 16H18V18.5H8V16ZM14 21H8V23.5H14V21Z"/>
<path d="M25.7751 28.9475H26.8851V30.0575H25.7751V28.9475Z"/>
<path fill-rule="evenodd" clip-rule="evenodd" d="M37 28C37 33.5228 32.5228 38 27 38C21.4772 38 17 33.5228 17 28C17 22.4772 21.4772 18 27 18C32.5228 18 37 22.4772 37 28ZM31.1932 27.0049V26.1724C31.1932 25.5556 30.6932 25.0556 30.0764 25.0556C29.4595 25.0556 28.9595 25.5556 28.9595 26.1724V27.0049H29.6601V32H23V27.0049H27.4469V26.1724C27.4469 24.7202 28.6242 23.543 30.0764 23.543C31.5286 23.543 32.7058 24.7202 32.7058 26.1724V27.0049H32.2964H31.1932Z"/>
</svg>
