<svg width="40" height="40" viewBox="0 0 40 40" xmlns="http://www.w3.org/2000/svg">
<path fill-rule="evenodd" clip-rule="evenodd" d="M18 3H3V30H14.6591C14.5544 29.3488 14.5 28.6807 14.5 28C14.5 22.4953 18.0582 17.8217 23 16.1537V8L18 3ZM15.5 10.5V5.5L20.5 10.5H15.5ZM8 16H18V18.5H8V16ZM14 21H8V23.5H14V21Z"/>
<path d="M23.4295 27.3516C23.4295 25.7378 24.7378 24.4295 26.3516 24.4295C27.9654 24.4295 29.2736 25.7378 29.2736 27.3516C29.2736 28.9654 27.9654 30.2737 26.3516 30.2737C24.7378 30.2737 23.4295 28.9654 23.4295 27.3516Z"/>
<path fill-rule="evenodd" clip-rule="evenodd" d="M37 28C37 33.5228 32.5228 38 27 38C21.4772 38 17 33.5228 17 28C17 22.4772 21.4772 18 27 18C32.5228 18 37 22.4772 37 28ZM26.3516 22.5C23.6721 22.5 21.5 24.6721 21.5 27.3516C21.5 30.0311 23.6721 32.2032 26.3516 32.2032C27.3419 32.2032 28.2639 31.906 29.0318 31.3962L31.1356 33.5L32.5 32.1356L30.3962 30.0318C30.906 29.2639 31.2032 28.3419 31.2032 27.3516C31.2032 24.6721 29.031 22.5 26.3516 22.5Z"/>
</svg>
