<svg width="40" height="40" viewBox="0 0 40 40" xmlns="http://www.w3.org/2000/svg">
<path fill-rule="evenodd" clip-rule="evenodd" d="M18 3H3V30H14.6591C14.5544 29.3488 14.5 28.6807 14.5 28C14.5 22.4953 18.0582 17.8217 23 16.1537V8L18 3ZM15.5 10.5V5.5L20.5 10.5H15.5ZM8 16H18V18.5H8V16ZM14 21H8V23.5H14V21Z"/>
<path fill-rule="evenodd" clip-rule="evenodd" d="M28.7778 28C28.7778 29.0738 27.9072 29.9444 26.8333 29.9444C25.7594 29.9444 24.8889 29.0738 24.8889 28C24.8889 26.9261 25.7594 26.0555 26.8333 26.0555C27.9072 26.0555 28.7778 26.9261 28.7778 28ZM26.8333 28.7777C27.2629 28.7777 27.6111 28.4295 27.6111 27.9999C27.6111 27.5704 27.2629 27.2221 26.8333 27.2221C26.4038 27.2221 26.0556 27.5704 26.0556 27.9999C26.0556 28.4295 26.4038 28.7777 26.8333 28.7777Z"/>
<path fill-rule="evenodd" clip-rule="evenodd" d="M37 28C37 33.5228 32.5228 38 27 38C21.4772 38 17 33.5228 17 28C17 22.4772 21.4772 18 27 18C32.5228 18 37 22.4772 37 28ZM32.6667 28C32.6667 28 30.7222 31.5 26.8333 31.5C22.9444 31.5 21 28 21 28C21 28 22.9444 24.5 26.8333 24.5C30.7222 24.5 32.6667 28 32.6667 28Z"/>
</svg>
