<svg width="40" height="40" viewBox="0 0 40 40" xmlns="http://www.w3.org/2000/svg">
<path d="M7.54043 14.3335C8.8871 14.3335 10.0204 14.7868 10.9404 15.6935C11.8604 16.6002 12.3204 17.7135 12.3204 19.0335C12.3204 20.3535 11.8604 21.4668 10.9404 22.3735C10.0204 23.2802 8.8871 23.7335 7.54043 23.7335H5.08043V28.3335H2.32043V14.3335H7.54043ZM7.54043 21.1535C8.1271 21.1535 8.61377 20.9535 9.00044 20.5535C9.3871 20.1402 9.58044 19.6335 9.58044 19.0335C9.58044 18.4202 9.3871 17.9135 9.00044 17.5135C8.61377 17.1135 8.1271 16.9135 7.54043 16.9135H5.08043V21.1535H7.54043Z"/>
<path d="M20.2773 14.3335C22.1973 14.3335 23.7973 15.0068 25.0773 16.3535C26.3706 17.7002 27.0173 19.3602 27.0173 21.3335C27.0173 23.3068 26.3706 24.9668 25.0773 26.3135C23.7973 27.6602 22.1973 28.3335 20.2773 28.3335H14.7173V14.3335H20.2773ZM20.2773 25.6935C21.4906 25.6935 22.4773 25.2935 23.2373 24.4935C23.9973 23.6802 24.3773 22.6268 24.3773 21.3335C24.3773 20.0402 23.9973 18.9935 23.2373 18.1935C22.4773 17.3802 21.4906 16.9735 20.2773 16.9735H17.4773V25.6935H20.2773Z"/>
<path d="M37.9351 16.9735H32.3351V20.2935H37.7751V22.9335H32.3351V28.3335H29.5751V14.3335H37.9351V16.9735Z"/>
</svg>
