<svg width="40" height="40" viewBox="0 0 40 40" xmlns="http://www.w3.org/2000/svg">
<path fill-rule="evenodd" clip-rule="evenodd" d="M18 3H3V30H14.6591C14.5544 29.3488 14.5 28.6807 14.5 28C14.5 22.4953 18.0582 17.8217 23 16.1537V8L18 3ZM15.5 10.5V5.5L20.5 10.5H15.5ZM8 16H18V18.5H8V16ZM14 21H8V23.5H14V21Z"/>
<path fill-rule="evenodd" clip-rule="evenodd" d="M37 28C37 33.5228 32.5228 38 27 38C21.4772 38 17 33.5228 17 28C17 22.4772 21.4772 18 27 18C32.5228 18 37 22.4772 37 28ZM26.06 29.45H27.98L28.46 25.45V22.25H25.58V25.45L26.06 29.45ZM27.02 33.674C27.852 33.674 28.54 32.986 28.54 32.154C28.54 31.322 27.852 30.634 27.02 30.634C26.188 30.634 25.5 31.322 25.5 32.154C25.5 32.986 26.188 33.674 27.02 33.674Z"/>
</svg>
