<svg width="40" height="40" viewBox="0 0 40 40" xmlns="http://www.w3.org/2000/svg">
<path d="M27.6766 16.8903C26.6358 15.9236 25.4349 15.2308 24.4262 14.2158C22.0885 11.8635 21.6082 7.98064 23.0652 5C21.6082 5.37057 20.2632 6.20837 19.1424 7.12673C15.0754 10.4779 13.4742 16.3909 15.3956 21.466C15.4597 21.6271 15.5237 21.7883 15.5237 21.9977C15.5237 22.3522 15.2836 22.6744 14.9633 22.8033C14.6111 22.9644 14.2268 22.8677 13.9386 22.6099C13.8425 22.5294 13.7785 22.4488 13.6984 22.3361C11.9371 20.0321 11.6489 16.7292 12.8498 14.0869C10.2239 16.2781 8.79883 19.9838 9.02299 23.48C9.08704 24.2856 9.18311 25.0911 9.45531 25.8967C9.67947 26.8634 10.0958 27.8301 10.6081 28.684C12.2734 31.4713 15.2035 33.4691 18.3578 33.8719C21.7202 34.3069 25.3229 33.6786 27.9007 31.2941C30.7828 28.6196 31.8236 24.3339 30.3025 20.6604L30.0943 20.2415C29.7741 19.5004 29.3418 18.8398 28.8134 18.2276C28.5 17.8645 27.8473 17.0621 27.6766 16.8903ZM23.9298 28.3618C23.4815 28.7485 22.761 29.1674 22.2006 29.3285C20.4393 29.9729 18.678 29.0707 17.6052 28.0073C19.5106 27.5562 20.6314 26.1384 20.9517 24.7045C21.2239 23.4155 20.7275 22.3522 20.5194 21.1116C20.3272 19.9193 20.3592 18.9043 20.8076 17.7926C21.0798 18.4048 21.4 19.0171 21.7683 19.5004C22.9852 21.1116 24.8905 21.8205 25.2908 24.0117C25.3549 24.2372 25.3869 24.4628 25.3869 24.7045C25.4349 26.0256 24.8745 27.4756 23.9138 28.3618H23.9298Z"/>
</svg>
