<svg width="40" height="40" viewBox="0 0 40 40" xmlns="http://www.w3.org/2000/svg">
<path d="M17.7308 4H2.5V6.5H19.5L17.7308 4Z"/>
<path d="M30.5 9H2.5V25H15.0394C15.5489 18.564 20.933 13.5 27.5 13.5C28.5341 13.5 29.5389 13.6256 30.5 13.8623V9Z"/>
<path d="M26.2751 26.9475H27.3851V28.0575H26.2751V26.9475Z"/>
<path fill-rule="evenodd" clip-rule="evenodd" d="M37.5 26C37.5 31.5228 33.0228 36 27.5 36C21.9772 36 17.5 31.5228 17.5 26C17.5 20.4772 21.9772 16 27.5 16C33.0228 16 37.5 20.4772 37.5 26ZM31.6932 25.0049V24.1724C31.6932 23.5556 31.1932 23.0556 30.5764 23.0556C29.9595 23.0556 29.4595 23.5556 29.4595 24.1724V25.0049H30.1601V30H23.5V25.0049H27.9469V24.1724C27.9469 22.7202 29.1242 21.543 30.5764 21.543C32.0286 21.543 33.2058 22.7202 33.2058 24.1724V25.0049H32.7964H31.6932Z"/>
</svg>
