<svg width="40" height="40" viewBox="0 0 40 40" xmlns="http://www.w3.org/2000/svg">
<path d="M17.7308 4H2.5V6.5H19.5L17.7308 4Z"/>
<path d="M30.5 9H2.5V25H15.0394C15.5489 18.564 20.933 13.5 27.5 13.5C28.5341 13.5 29.5389 13.6256 30.5 13.8623V9Z"/>
<path d="M27.431 27.0691C28.4785 27.0691 29.3276 26.22 29.3276 25.1726C29.3276 24.1251 28.4785 23.276 27.431 23.276C26.3836 23.276 25.5345 24.1251 25.5345 25.1726C25.5345 26.22 26.3836 27.0691 27.431 27.0691Z"/>
<path fill-rule="evenodd" clip-rule="evenodd" d="M37.5 26C37.5 31.5228 33.0228 36 27.5 36C21.9772 36 17.5 31.5228 17.5 26C17.5 20.4772 21.9772 16 27.5 16C33.0228 16 37.5 20.4772 37.5 26ZM27.431 32C27.431 32 31.6034 27.8276 31.6034 25.0741C31.6034 22.824 29.7354 21 27.431 21C25.1267 21 23.2586 22.824 23.2586 25.0741C23.2586 27.8276 27.431 32 27.431 32Z"/>
</svg>
