<svg width="40" height="40" viewBox="0 0 40 40" xmlns="http://www.w3.org/2000/svg">
<path d="M17.7308 4H2.5V6.5H19.5L17.7308 4Z"/>
<path d="M30.5 9H2.5V25H15.0394C15.5489 18.564 20.933 13.5 27.5 13.5C28.5341 13.5 29.5389 13.6256 30.5 13.8623V9Z"/>
<path d="M23.9659 25.4429C23.9659 23.7987 25.2987 22.4659 26.9429 22.4659C28.5871 22.4659 29.92 23.7987 29.92 25.4429C29.92 27.0871 28.5871 28.42 26.9429 28.42C25.2987 28.42 23.9659 27.0871 23.9659 25.4429Z"/>
<path fill-rule="evenodd" clip-rule="evenodd" d="M37.5 26C37.5 31.5228 33.0228 36 27.5 36C21.9772 36 17.5 31.5228 17.5 26C17.5 20.4772 21.9772 16 27.5 16C33.0228 16 37.5 20.4772 37.5 26ZM26.9429 20.5C24.213 20.5 22 22.713 22 25.4429C22 28.1728 24.213 30.3858 26.9429 30.3858C27.9519 30.3858 28.8912 30.083 29.6736 29.5636L31.817 31.707L33.2071 30.3169L31.0637 28.1736C31.5831 27.3911 31.8858 26.4519 31.8858 25.4429C31.8858 22.713 29.6728 20.5 26.9429 20.5Z"/>
</svg>
