<svg width="40" height="40" viewBox="0 0 40 40" xmlns="http://www.w3.org/2000/svg">
<path d="M17.7308 4H2.5V6.5H19.5L17.7308 4Z"/>
<path d="M30.5 9H2.5V25H15.0394C15.5489 18.564 20.933 13.5 27.5 13.5C28.5341 13.5 29.5389 13.6256 30.5 13.8623V9Z"/>
<path fill-rule="evenodd" clip-rule="evenodd" d="M29.2778 26C29.2778 27.0738 28.4072 27.9444 27.3333 27.9444C26.2594 27.9444 25.3889 27.0738 25.3889 26C25.3889 24.9261 26.2594 24.0555 27.3333 24.0555C28.4072 24.0555 29.2778 24.9261 29.2778 26ZM27.3333 26.7777C27.7629 26.7777 28.1111 26.4295 28.1111 25.9999C28.1111 25.5704 27.7629 25.2221 27.3333 25.2221C26.9038 25.2221 26.5556 25.5704 26.5556 25.9999C26.5556 26.4295 26.9038 26.7777 27.3333 26.7777Z"/>
<path fill-rule="evenodd" clip-rule="evenodd" d="M37.5 26C37.5 31.5228 33.0228 36 27.5 36C21.9772 36 17.5 31.5228 17.5 26C17.5 20.4772 21.9772 16 27.5 16C33.0228 16 37.5 20.4772 37.5 26ZM33.1667 26C33.1667 26 31.2222 29.5 27.3333 29.5C23.4444 29.5 21.5 26 21.5 26C21.5 26 23.4444 22.5 27.3333 22.5C31.2222 22.5 33.1667 26 33.1667 26Z"/>
</svg>
