<svg width="40" height="40" viewBox="0 0 40 40" xmlns="http://www.w3.org/2000/svg">
<path d="M17.7308 4H2.5V6.5H19.5L17.7308 4Z"/>
<path d="M30.5 9H2.5V25H15.0394C15.5489 18.564 20.933 13.5 27.5 13.5C28.5341 13.5 29.5389 13.6256 30.5 13.8623V9Z"/>
<path fill-rule="evenodd" clip-rule="evenodd" d="M37.5 26C37.5 31.5228 33.0228 36 27.5 36C21.9772 36 17.5 31.5228 17.5 26C17.5 20.4772 21.9772 16 27.5 16C33.0228 16 37.5 20.4772 37.5 26ZM26.06 27.424H28.62C28.62 26.9769 29.0398 26.5902 29.5394 26.13C30.2735 25.4537 31.18 24.6186 31.18 23.2C31.18 21.12 29.356 20 27.532 20C25.756 20 24.204 20.928 23.5 22.576L25.708 23.84C26.028 23.088 26.556 22.496 27.436 22.496C28.252 22.496 28.62 22.864 28.62 23.424C28.62 24.078 28.0678 24.5835 27.4763 25.125C26.7942 25.7493 26.06 26.4215 26.06 27.424ZM27.34 31.648C28.172 31.648 28.86 30.96 28.86 30.128C28.86 29.296 28.172 28.608 27.34 28.608C26.508 28.608 25.82 29.296 25.82 30.128C25.82 30.96 26.508 31.648 27.34 31.648Z"/>
</svg>
