<svg width="40" height="40" viewBox="0 0 40 40" xmlns="http://www.w3.org/2000/svg">
<path d="M17.7308 4H2.5V6.5H19.5L17.7308 4Z"/>
<path d="M30.5 9H2.5V25H15.0394C15.5489 18.564 20.933 13.5 27.5 13.5C28.5341 13.5 29.5389 13.6256 30.5 13.8623V9Z"/>
<path fill-rule="evenodd" clip-rule="evenodd" d="M37.5 26C37.5 31.5228 33.0228 36 27.5 36C21.9772 36 17.5 31.5228 17.5 26C17.5 20.4772 21.9772 16 27.5 16C33.0228 16 37.5 20.4772 37.5 26ZM32.3464 31.507L33.0535 30.7999L22.6535 20.3999L21.9464 21.107L32.3464 31.507ZM21.5 25.9535C21.5 25.9535 22.104 24.8663 23.312 23.8869L25.5039 26.0788C25.566 27.0835 26.3699 27.8873 27.3746 27.9495L28.8387 29.4136C28.4206 29.5029 27.9744 29.5535 27.5 29.5535C23.5 29.5535 21.5 25.9535 21.5 25.9535ZM31.6879 28.0202L29.4962 25.8285C29.4342 24.8234 28.63 24.0191 27.6249 23.9572L26.1611 22.4934C26.5793 22.4042 27.0256 22.3535 27.5 22.3535C31.5 22.3535 33.5 25.9535 33.5 25.9535C33.5 25.9535 32.896 27.0408 31.6879 28.0202Z"/>
</svg>
