<svg width="40" height="40" viewBox="0 0 40 40" xmlns="http://www.w3.org/2000/svg">
<path d="M17.7308 4H2.5V6.5H19.5L17.7308 4Z"/>
<path d="M30.5 9H2.5V25H15.0394C15.5489 18.564 20.933 13.5 27.5 13.5C28.5341 13.5 29.5389 13.6256 30.5 13.8623V9Z"/>
<path d="M28.9701 24.8987V23.9651C28.9701 23.1445 28.3049 22.4792 27.4842 22.4792C26.6636 22.4792 25.9983 23.1445 25.9983 23.9651V24.8987H28.9701Z"/>
<path d="M26.8619 27.077H28.1066V28.3217H26.8619V27.077Z"/>
<path fill-rule="evenodd" clip-rule="evenodd" d="M37.5 26C37.5 31.5228 33.0228 36 27.5 36C21.9772 36 17.5 31.5228 17.5 26C17.5 20.4772 21.9772 16 27.5 16C33.0228 16 37.5 20.4772 37.5 26ZM24.7691 23.9651C24.7691 22.4656 25.9847 21.25 27.4842 21.25C28.9837 21.25 30.1993 22.4656 30.1993 23.9651V24.8987H31.2185V30.5H23.75V24.8987H24.7691V23.9651Z"/>
</svg>
