<svg width="40" height="40" viewBox="0 0 40 40" xmlns="http://www.w3.org/2000/svg">
<path d="M17.7308 4H2.5V6.5H19.5L17.7308 4Z"/>
<path d="M30.5 9H2.5V25H15.0394C15.5489 18.564 20.933 13.5 27.5 13.5C28.5341 13.5 29.5389 13.6256 30.5 13.8623V9Z"/>
<path fill-rule="evenodd" clip-rule="evenodd" d="M37.5 26C37.5 31.5228 33.0228 36 27.5 36C21.9772 36 17.5 31.5228 17.5 26C17.5 20.4772 21.9772 16 27.5 16C33.0228 16 37.5 20.4772 37.5 26ZM26.56 27.45H28.48L28.96 23.45V20.25H26.08V23.45L26.56 27.45ZM27.52 31.674C28.352 31.674 29.04 30.986 29.04 30.154C29.04 29.322 28.352 28.634 27.52 28.634C26.688 28.634 26 29.322 26 30.154C26 30.986 26.688 31.674 27.52 31.674Z"/>
</svg>
