<svg width="40" height="40" viewBox="0 0 40 40" xmlns="http://www.w3.org/2000/svg">
<path d="M17.7308 4H2.5V6.5H19.5L17.7308 4Z"/>
<path d="M30.5 9H2.5V25H15.0394C15.5489 18.564 20.933 13.5 27.5 13.5C28.5341 13.5 29.5389 13.6256 30.5 13.8623V9Z"/>
<path fill-rule="evenodd" clip-rule="evenodd" d="M27.5 36C33.0228 36 37.5 31.5228 37.5 26C37.5 20.4772 33.0228 16 27.5 16C21.9772 16 17.5 20.4772 17.5 26C17.5 31.5228 21.9772 36 27.5 36ZM25.9167 19.75H28.0833V26.2119L32.3415 28.6704L31.258 30.547L25.9167 27.4556L25.9167 19.75Z"/>
</svg>
