<svg width="40" height="40" viewBox="0 0 40 40" xmlns="http://www.w3.org/2000/svg">
<path d="M17.7308 4H2.5V6.5H19.5L17.7308 4Z"/>
<path d="M30.5 9H2.5V25H15.0394C15.5489 18.564 20.933 13.5 27.5 13.5C28.5341 13.5 29.5389 13.6256 30.5 13.8623V9Z"/>
<path fill-rule="evenodd" clip-rule="evenodd" d="M37.5 26C37.5 31.5228 33.0228 36 27.5 36C21.9772 36 17.5 31.5228 17.5 26C17.5 20.4772 21.9772 16 27.5 16C33.0228 16 37.5 20.4772 37.5 26ZM27.5 24.3301L30 21.8301L27.5 19.3301V20.9968C24.7386 20.9968 22.5 23.2354 22.5 25.9968C22.5 28.7582 24.7386 30.9968 27.5 30.9968C30.2614 30.9968 32.5 28.7582 32.5 25.9968C32.5 24.9169 32.1577 23.917 31.5756 23.0996L30.3718 24.3034C30.665 24.7997 30.8333 25.3786 30.8333 25.9968C30.8333 27.8377 29.341 29.3301 27.5 29.3301C25.659 29.3301 24.1667 27.8377 24.1667 25.9968C24.1667 24.1558 25.659 22.6635 27.5 22.6634V24.3301Z"/>
</svg>
