<svg width="40" height="40" viewBox="0 0 40 40" xmlns="http://www.w3.org/2000/svg">
<path d="M17.7308 4H2.5V6.5H19.5L17.7308 4Z"/>
<path d="M30.5 9H2.5V25H15.0394C15.5489 18.564 20.933 13.5 27.5 13.5C28.5341 13.5 29.5389 13.6256 30.5 13.8623V9Z"/>
<path fill-rule="evenodd" clip-rule="evenodd" d="M37.5 26C37.5 31.5228 33.0228 36 27.5 36C21.9772 36 17.5 31.5228 17.5 26C17.5 20.4772 21.9772 16 27.5 16C33.0228 16 37.5 20.4772 37.5 26ZM28.75 21.3333H26.25V24.75H22.8333V27.25H26.25V30.6667H28.75V27.25H32.1667V24.75H28.75V21.3333Z"/>
</svg>
