<svg width="40" height="40" viewBox="0 0 40 40" xmlns="http://www.w3.org/2000/svg">
<path d="M6 10H21.2308L23 12.5H6V10Z"/>
<path d="M26.3937 23.5C26.3937 24.25 26.8937 24.72 27.5837 24.72C28.2737 24.72 28.7737 24.25 28.7737 23.5C28.7737 22.75 28.2737 22.28 27.5837 22.28C26.8937 22.28 26.3937 22.75 26.3937 23.5Z"/>
<path fill-rule="evenodd" clip-rule="evenodd" d="M6 15H34V31H6V15ZM23.0461 20.56C23.5361 20.56 23.9461 20.15 23.9461 19.66C23.9461 19.17 23.5361 18.76 23.0461 18.76C22.5561 18.76 22.1461 19.17 22.1461 19.66C22.1461 20.15 22.5561 20.56 23.0461 20.56ZM23.7961 26V21H22.2961V26H23.7961ZM19.41 24.6L21.3 22V21H17.5V22.4H19.29L17.4 25V26H21.4V24.6H19.41ZM26.3937 21.47C26.7237 21.09 27.2137 20.86 27.8837 20.86C29.1937 20.86 30.2737 22.01 30.2737 23.5C30.2737 24.99 29.1937 26.14 27.8837 26.14C27.2137 26.14 26.7237 25.91 26.3937 25.53V28H24.8937V21H26.3937V21.47Z"/>
</svg>
