<svg width="40" height="40" viewBox="0 0 40 40" xmlns="http://www.w3.org/2000/svg">
<path fill-rule="evenodd" clip-rule="evenodd" d="M20 34C27.732 34 34 27.732 34 20C34 12.268 27.732 6 20 6C12.268 6 6 12.268 6 20C6 27.732 12.268 34 20 34ZM15.5 19C16.8807 19 18 17.8807 18 16.5C18 15.1193 16.8807 14 15.5 14C14.1193 14 13 15.1193 13 16.5C13 17.8807 14.1193 19 15.5 19ZM27 16.5C27 17.8807 25.8807 19 24.5 19C23.1193 19 22 17.8807 22 16.5C22 15.1193 23.1193 14 24.5 14C25.8807 14 27 15.1193 27 16.5ZM20 21C23.866 21 27 23.6863 27 27C24.8162 26.9997 24.1375 26.9998 22.9967 26.9998C22.3092 26.9999 21.4539 26.9999 20 26.9999L13 27C13 23.6863 16.134 21 20 21Z"/>
</svg>
