<svg width="40" height="40" viewBox="0 0 40 40" xmlns="http://www.w3.org/2000/svg">
<path fill-rule="evenodd" clip-rule="evenodd" d="M27.5834 9.22917C27.5834 11.3065 25.9128 12.9936 23.8419 13.0205H33V18.4372H21.3542V13.0208H20.0001V9.22917C20.0001 7.13509 21.6976 5.4375 23.7917 5.4375C25.8858 5.4375 27.5834 7.13509 27.5834 9.22917ZM23.5209 10.3122C24.1192 10.3122 24.6042 9.82715 24.6042 9.22884C24.6042 8.63053 24.1192 8.14551 23.5209 8.14551C22.9225 8.14551 22.4375 8.63053 22.4375 9.22884C22.4375 9.82715 22.9225 10.3122 23.5209 10.3122Z"/>
<path fill-rule="evenodd" clip-rule="evenodd" d="M18.6459 13.0208H20.0001V9.22917C20.0001 7.13509 18.3024 5.4375 16.2083 5.4375C14.1143 5.4375 12.4167 7.13509 12.4167 9.22917C12.4167 11.3065 14.0872 12.9936 16.1582 13.0205H7V18.4372H18.6459V13.0208ZM15.3959 9.22884C15.3959 9.82715 15.8809 10.3122 16.4792 10.3122C17.0775 10.3122 17.5625 9.82715 17.5625 9.22884C17.5625 8.63053 17.0775 8.14551 16.4792 8.14551C15.8809 8.14551 15.3959 8.63053 15.3959 9.22884Z"/>
<path d="M9.16663 21.1455H30.8333V33.0622H21.3542V21.1457H18.6459V33.0622H9.16663V21.1455Z"/>
</svg>
