<svg width="40" height="40" viewBox="0 0 40 40" xmlns="http://www.w3.org/2000/svg">
<path fill-rule="evenodd" clip-rule="evenodd" d="M20 34C27.732 34 34 27.732 34 20C34 12.268 27.732 6 20 6C12.268 6 6 12.268 6 20C6 27.732 12.268 34 20 34ZM17.3994 15C17.4474 14.9883 17.4967 14.977 17.547 14.966C18.1345 14.8383 18.9353 14.75 20 14.75C21.0647 14.75 21.8655 14.8383 22.453 14.966C22.5034 14.977 22.5526 14.9883 22.6007 15H30V16.5C30 18.9853 27.9853 21 25.5 21C23.2843 21 21.4426 19.3986 21.0691 17.2902C20.7721 17.2656 20.418 17.25 20 17.25C19.582 17.25 19.2279 17.2656 18.9309 17.2902C18.5574 19.3986 16.7157 21 14.5 21C12.0147 21 10 18.9853 10 16.5V15H17.3994ZM20 25.75C18.4041 25.75 16.877 24.9589 16.118 23.441L13.882 24.559C15.123 27.0411 17.5958 28.25 20 28.25C22.4041 28.25 24.877 27.0411 26.118 24.559L23.882 23.441C23.123 24.9589 21.5958 25.75 20 25.75Z"/>
</svg>
