<svg width="40" height="40" viewBox="0 0 40 40" xmlns="http://www.w3.org/2000/svg">
<path d="M5.34375 15.5H8.71875L13.2188 11H18.2812L15.5415 14.6529C15.1292 15.2028 14.9062 15.8715 14.9062 16.5588C14.9062 18.4593 16.4469 20 18.3474 20C19.0347 20 19.7035 19.7771 20.2533 19.3647L21.6562 18.3125L30.0938 26.75L27.8438 29L25.5938 26.75L23.3438 29L21.0938 26.75L18.8438 29L13.2188 23.375H5.34375V15.5Z"/>
<path d="M30.6562 23.375H35.1562V15.5H29.5312L24.4688 11H21.0938L17.5095 15.0962C17.2818 15.3565 17.1562 15.6906 17.1562 16.0365V16.0774C17.1562 17.0011 17.9051 17.75 18.8289 17.75C19.1986 17.75 19.5531 17.6031 19.8145 17.3417L22.2188 14.9375L30.6562 23.375Z"/>
</svg>
