<svg width="40" height="40" viewBox="0 0 40 40" xmlns="http://www.w3.org/2000/svg">
<path fill-rule="evenodd" clip-rule="evenodd" d="M35 20C35 28.2843 28.2843 35 20 35C11.7157 35 5 28.2843 5 20C5 11.7157 11.7157 5 20 5C28.2843 5 35 11.7157 35 20ZM23.2612 25.9524H20.9048V13H23.2553V17.9478C23.3221 17.8846 23.3855 17.8227 23.4474 17.7623C23.5781 17.6348 23.7017 17.5143 23.8334 17.4039C25.0252 16.405 26.8301 16.3525 28.0087 17.2856C28.5722 17.7318 28.8338 18.3506 28.9183 19.0454C28.9691 19.4764 28.9947 19.91 28.995 20.344C29.0012 21.6609 29.0003 22.978 28.9993 24.2951C28.999 24.7708 28.9987 25.2465 28.9987 25.7221V25.9491H26.6273V25.7078C26.6273 25.2661 26.6277 24.8244 26.6281 24.3827C26.6291 23.2152 26.6301 22.0477 26.624 20.8805C26.625 20.4466 26.599 20.013 26.5462 19.5823C26.4614 18.9371 25.9896 18.5317 25.3402 18.4964C24.2183 18.4354 23.4713 19.0884 23.3375 20.268C23.2914 20.6747 23.267 21.0837 23.2644 21.493C23.2581 22.5092 23.2592 23.5254 23.2603 24.5422C23.2607 24.9334 23.2612 25.3249 23.2612 25.7162V25.9524ZM17.7237 25.9524H20.0936V25.7299C20.0936 25.2368 20.094 24.7438 20.0944 24.2509C20.0955 22.8955 20.0967 21.5404 20.0892 20.1856C20.0887 19.7578 20.0551 19.3307 19.9888 18.9082C19.8584 18.1037 19.4771 17.4516 18.743 17.0451C18.1313 16.7073 17.4311 16.5662 16.7371 16.6409C16.0431 16.7156 15.3886 17.0025 14.8618 17.463C14.7536 17.5578 14.6509 17.6589 14.5388 17.7691C14.4826 17.8245 14.424 17.8821 14.3611 17.9425V13H12V25.9516H14.3597V25.7438C14.3604 25.3465 14.3609 24.9491 14.3614 24.5517C14.3627 23.4259 14.364 22.2995 14.3721 21.1736C14.3746 20.8316 14.4007 20.4902 14.4502 20.1518C14.6106 19.0521 15.3425 18.4481 16.4283 18.4995C17.1043 18.5315 17.5867 18.9765 17.6521 19.6513C17.6915 20.0582 17.7189 20.4683 17.7208 20.877C17.7263 22.0496 17.7254 23.2225 17.7244 24.3954C17.724 24.8439 17.7237 25.2924 17.7237 25.7409V25.9524Z"/>
</svg>
