<svg width="40" height="40" viewBox="0 0 40 40" xmlns="http://www.w3.org/2000/svg">
<path d="M16.5 2L1 16H7V29H13V20H19.3949C21.6878 17.25 25.1396 15.5 29 15.5C30.2192 15.5 31.3976 15.6745 32.5116 16H33L16.5 2Z"/>
<path fill-rule="evenodd" clip-rule="evenodd" d="M39 28C39 33.5228 34.5228 38 29 38C23.4772 38 19 33.5228 19 28C19 22.4772 23.4772 18 29 18C34.5228 18 39 22.4772 39 28ZM34.4009 24.9178L27.5417 32.6344L23.6154 29.6897L25 27.8435L27.2276 29.5142L32.6761 23.3846L34.4009 24.9178Z"/>
</svg>
