<svg width="40" height="40" viewBox="0 0 40 40" xmlns="http://www.w3.org/2000/svg">
<path d="M16.5 2L1 16H7V29H13V20H19.3949C21.6878 17.25 25.1396 15.5 29 15.5C30.2192 15.5 31.3976 15.6745 32.5116 16H33L16.5 2Z"/>
<path fill-rule="evenodd" clip-rule="evenodd" d="M39 28C39 33.5228 34.5228 38 29 38C23.4772 38 19 33.5228 19 28C19 22.4772 23.4772 18 29 18C34.5228 18 39 22.4772 39 28ZM29 33L31 30.6C30.4444 30.225 29.75 30 29 30C28.25 30 27.5556 30.225 27 30.6L29 33ZM29 24C26.75 24 24.6722 24.67 23 25.8L24 27C25.3889 26.06 27.1222 25.5 29 25.5C30.8778 25.5 32.6111 26.06 34 27L35 25.8C33.3278 24.67 31.25 24 29 24ZM29 27C27.5 27 26.1167 27.445 25 28.2L26 29.4C26.8333 28.835 27.8722 28.5 29 28.5C30.1278 28.5 31.1667 28.835 32 29.4L33 28.2C31.8833 27.445 30.5 27 29 27Z"/>
</svg>
