<svg width="40" height="40" viewBox="0 0 40 40" xmlns="http://www.w3.org/2000/svg">
<path d="M16.5 2L1 16H7V29H13V20H19.3949C21.6878 17.25 25.1396 15.5 29 15.5C30.2192 15.5 31.3976 15.6745 32.5116 16H33L16.5 2Z"/>
<path fill-rule="evenodd" clip-rule="evenodd" d="M39 28C39 33.5228 34.5228 38 29 38C23.4772 38 19 33.5228 19 28C19 22.4772 23.4772 18 29 18C34.5228 18 39 22.4772 39 28ZM28.06 29.45H29.98L30.46 25.45V22.25H27.58V25.45L28.06 29.45ZM29.02 33.674C29.852 33.674 30.54 32.986 30.54 32.154C30.54 31.322 29.852 30.634 29.02 30.634C28.188 30.634 27.5 31.322 27.5 32.154C27.5 32.986 28.188 33.674 29.02 33.674Z"/>
</svg>
