<svg width="40" height="40" viewBox="0 0 40 40" xmlns="http://www.w3.org/2000/svg">
<path d="M16.5 2L1 16H7V29H13V20H19.3949C21.6878 17.25 25.1396 15.5 29 15.5C30.2192 15.5 31.3976 15.6745 32.5116 16H33L16.5 2Z"/>
<path d="M30.4701 26.8987V25.9651C30.4701 25.1445 29.8049 24.4792 28.9842 24.4792C28.1636 24.4792 27.4983 25.1445 27.4983 25.9651V26.8987H30.4701Z"/>
<path d="M28.3619 29.077H29.6066V30.3217H28.3619V29.077Z"/>
<path fill-rule="evenodd" clip-rule="evenodd" d="M39 28C39 33.5228 34.5228 38 29 38C23.4772 38 19 33.5228 19 28C19 22.4772 23.4772 18 29 18C34.5228 18 39 22.4772 39 28ZM26.2691 25.9651C26.2691 24.4656 27.4847 23.25 28.9842 23.25C30.4837 23.25 31.6993 24.4656 31.6993 25.9651V26.8987H32.7185V32.5H25.25V26.8987H26.2691V25.9651Z"/>
</svg>
