<svg width="40" height="40" viewBox="0 0 40 40" xmlns="http://www.w3.org/2000/svg">
<path d="M16.5 2L1 16H7V29H13V20H19.3949C21.6878 17.25 25.1396 15.5 29 15.5C30.2192 15.5 31.3976 15.6745 32.5116 16H33L16.5 2Z"/>
<path d="M27.7751 28.9475H28.8851V30.0575H27.7751V28.9475Z"/>
<path fill-rule="evenodd" clip-rule="evenodd" d="M39 28C39 33.5228 34.5228 38 29 38C23.4772 38 19 33.5228 19 28C19 22.4772 23.4772 18 29 18C34.5228 18 39 22.4772 39 28ZM33.1932 27.0049V26.1724C33.1932 25.5556 32.6932 25.0556 32.0764 25.0556C31.4595 25.0556 30.9595 25.5556 30.9595 26.1724V27.0049H31.6601V32H25V27.0049H29.4469V26.1724C29.4469 24.7202 30.6242 23.543 32.0764 23.543C33.5286 23.543 34.7058 24.7202 34.7058 26.1724V27.0049H34.2964H33.1932Z"/>
</svg>
