<svg width="40" height="40" viewBox="0 0 40 40" xmlns="http://www.w3.org/2000/svg">
<path d="M16.5 2L1 16H7V29H13V20H19.3949C21.6878 17.25 25.1396 15.5 29 15.5C30.2192 15.5 31.3976 15.6745 32.5116 16H33L16.5 2Z"/>
<path d="M28.931 29.0691C29.9785 29.0691 30.8276 28.22 30.8276 27.1726C30.8276 26.1251 29.9785 25.276 28.931 25.276C27.8836 25.276 27.0345 26.1251 27.0345 27.1726C27.0345 28.22 27.8836 29.0691 28.931 29.0691Z"/>
<path fill-rule="evenodd" clip-rule="evenodd" d="M39 28C39 33.5228 34.5228 38 29 38C23.4772 38 19 33.5228 19 28C19 22.4772 23.4772 18 29 18C34.5228 18 39 22.4772 39 28ZM28.931 34C28.931 34 33.1034 29.8276 33.1034 27.0741C33.1034 24.824 31.2354 23 28.931 23C26.6267 23 24.7586 24.824 24.7586 27.0741C24.7586 29.8276 28.931 34 28.931 34Z"/>
</svg>
