<svg width="40" height="40" viewBox="0 0 40 40" xmlns="http://www.w3.org/2000/svg">
<path fill-rule="evenodd" clip-rule="evenodd" d="M6 13C6 9.13401 9.13401 6 13 6H27C30.866 6 34 9.13401 34 13V27C34 30.866 30.866 34 27 34H13C9.13401 34 6 30.866 6 27V13ZM29 12.5C29 13.3284 28.3284 14 27.5 14C26.6716 14 26 13.3284 26 12.5C26 11.6716 26.6716 11 27.5 11C28.3284 11 29 11.6716 29 12.5ZM24.5 20C24.5 22.4853 22.4853 24.5 20 24.5C17.5147 24.5 15.5 22.4853 15.5 20C15.5 17.5147 17.5147 15.5 20 15.5C22.4853 15.5 24.5 17.5147 24.5 20ZM27 20C27 23.866 23.866 27 20 27C16.134 27 13 23.866 13 20C13 16.134 16.134 13 20 13C23.866 13 27 16.134 27 20Z"/>
</svg>
