<svg width="40" height="40" viewBox="0 0 40 40" xmlns="http://www.w3.org/2000/svg">
<path d="M23.75 17C24.1642 17 24.5 16.6642 24.5 16.25C24.5 15.8358 24.1642 15.5 23.75 15.5C23.3358 15.5 23 15.8358 23 16.25C23 16.6642 23.3358 17 23.75 17Z"/>
<path fill-rule="evenodd" clip-rule="evenodd" d="M20 23.5C21.933 23.5 23.5 21.933 23.5 20C23.5 18.067 21.933 16.5 20 16.5C18.067 16.5 16.5 18.067 16.5 20C16.5 21.933 18.067 23.5 20 23.5ZM20 22.25C21.2426 22.25 22.25 21.2426 22.25 20C22.25 18.7574 21.2426 17.75 20 17.75C18.7574 17.75 17.75 18.7574 17.75 20C17.75 21.2426 18.7574 22.25 20 22.25Z"/>
<path fill-rule="evenodd" clip-rule="evenodd" d="M20 35C28.2843 35 35 28.2843 35 20C35 11.7157 28.2843 5 20 5C11.7157 5 5 11.7157 5 20C5 28.2843 11.7157 35 20 35ZM16.5 13C14.567 13 13 14.567 13 16.5V23.5C13 25.433 14.567 27 16.5 27H23.5C25.433 27 27 25.433 27 23.5V16.5C27 14.567 25.433 13 23.5 13H16.5Z"/>
</svg>
