<svg width="40" height="40" viewBox="0 0 40 40" xmlns="http://www.w3.org/2000/svg">
<path d="M24 4.5H16V10.2499C15.1025 10.6004 14.2623 11.0654 13.4973 11.6269L8.57657 8.78588L4.57657 15.7141L7.66983 17.5H9.66913V12.5L17.1561 17.6871C17.8811 16.9541 18.8875 16.5 20 16.5C22.2091 16.5 24 18.2909 24 20.5C24 22.7092 22.2091 24.5 20 24.5C18.9016 24.5 17.9066 24.0573 17.1838 23.3406L9.66913 28.5469V23.75H5.50473L4.57657 24.2859L8.57657 31.2141L12.7718 28.792C13.7189 29.6183 14.809 30.285 16 30.7501V35.5H24V30.7501C25.191 30.285 26.281 29.6183 27.2281 28.792L31.4234 31.2141L35.4234 24.2859L30.9358 21.695C30.9782 21.3025 31 20.9038 31 20.5C31 19.7766 30.9301 19.0696 30.7969 18.3852L35.4234 15.7141L31.4234 8.78585L26.5026 11.6269C25.7377 11.0654 24.8975 10.6004 24 10.2499V4.5Z"/>
<path d="M11.875 24.375L17.5 20.625L11.875 16.875V19.2578H0V21.875H11.875V24.375Z"/>
</svg>
