<svg width="40" height="40" viewBox="0 0 40 40" xmlns="http://www.w3.org/2000/svg">
<path d="M18.9125 8C18.9125 11 21.375 13.4375 24.35 13.4375H26.575V15.5625C26.575 18.5625 29 20.9875 32 21V9.05C32 8.77152 31.8894 8.50445 31.6925 8.30754C31.4955 8.11062 31.2285 8 30.95 8H18.9125ZM12.9625 14C12.975 16.9875 15.4 19.4125 18.3875 19.425H20.6375V21.575C20.65 24.5625 23.075 26.9875 26.0625 27V15.0375C26.05 14.4625 25.6 14.0125 25.025 14H12.9625ZM7 20C7 23 9.4375 25.425 12.4375 25.425H14.6625V27.575C14.675 30.5625 17.1 33 20.0875 33V21.0375C20.0875 20.759 19.9769 20.492 19.78 20.295C19.583 20.0981 19.316 19.9875 19.0375 19.9875L7 20Z"/>
</svg>
