<svg width="40" height="40" viewBox="0 0 40 40" xmlns="http://www.w3.org/2000/svg">
<path d="M20 4L14.8233 16.572L15.7779 17.2615L20.0856 14.5948L23.7779 17.2615L25.1188 16.4314L20 4Z"/>
<path d="M6 22L10 24.6667V34H6V22Z"/>
<path d="M34 34H30V24.6667L34 22V34Z"/>
<path fill-rule="evenodd" clip-rule="evenodd" d="M12 17L15.6923 19.6667L20 17L23.6923 19.6667L28 17V34H12V17ZM22.5 26.5C22.5 27.8807 21.3807 29 20 29C18.6193 29 17.5 27.8807 17.5 26.5C17.5 25.1193 18.6193 24 20 24C21.3807 24 22.5 25.1193 22.5 26.5Z"/>
</svg>
