<svg width="40" height="40" viewBox="0 0 40 40" xmlns="http://www.w3.org/2000/svg">
<path d="M4.5 5H30.5V12.6591C29.8488 12.5544 29.1807 12.5 28.5 12.5C28.3325 12.5 28.1659 12.5033 28 12.5098V7.5H7V21.5H16.4966C16.2629 22.3029 16.1076 23.1392 16.0394 24H4.5V5Z"/>
<path d="M16.25 27.5C16.0861 26.6922 16 25.8562 16 25H1.5V27.5H16.25Z"/>
<path d="M29.9701 23.8987V22.9651C29.9701 22.1445 29.3049 21.4792 28.4842 21.4792C27.6636 21.4792 26.9983 22.1445 26.9983 22.9651V23.8987H29.9701Z"/>
<path d="M27.8619 26.077H29.1066V27.3217H27.8619V26.077Z"/>
<path fill-rule="evenodd" clip-rule="evenodd" d="M38.5 25C38.5 30.5228 34.0228 35 28.5 35C22.9772 35 18.5 30.5228 18.5 25C18.5 19.4772 22.9772 15 28.5 15C34.0228 15 38.5 19.4772 38.5 25ZM25.7691 22.9651C25.7691 21.4656 26.9847 20.25 28.4842 20.25C29.9837 20.25 31.1993 21.4656 31.1993 22.9651V23.8987H32.2185V29.5H24.75V23.8987H25.7691V22.9651Z"/>
</svg>
