<svg width="40" height="40" viewBox="0 0 40 40" xmlns="http://www.w3.org/2000/svg">
<path d="M4.5 5H30.5V12.6591C29.8488 12.5544 29.1807 12.5 28.5 12.5C28.3325 12.5 28.1659 12.5033 28 12.5098V7.5H7V21.5H16.4966C16.2629 22.3029 16.1076 23.1392 16.0394 24H4.5V5Z"/>
<path d="M16.25 27.5C16.0861 26.6922 16 25.8562 16 25H1.5V27.5H16.25Z"/>
<path d="M28.4778 26.7515C29.334 26.7515 30.0281 26.0574 30.0281 25.2012C30.0281 24.345 29.334 23.6509 28.4778 23.6509C27.6216 23.6509 26.9275 24.345 26.9275 25.2012C26.9275 26.0574 27.6216 26.7515 28.4778 26.7515Z"/>
<path fill-rule="evenodd" clip-rule="evenodd" d="M38.5 25C38.5 30.5228 34.0228 35 28.5 35C22.9772 35 18.5 30.5228 18.5 25C18.5 19.4772 22.9772 15 28.5 15C34.0228 15 38.5 19.4772 38.5 25ZM26.9275 19H30.0281V21.2285C30.3759 21.3644 30.7016 21.5446 30.998 21.7622L32.9052 20.6611L34.4555 23.3463L32.6624 24.3816C32.7141 24.6468 32.7411 24.9209 32.7411 25.2012C32.7411 25.3577 32.7327 25.5123 32.7163 25.6644L34.4555 26.6686L32.9052 29.3538L31.2792 28.415C30.9121 28.7353 30.4897 28.9937 30.0281 29.1739V31.0149H26.9275V29.1739C26.4659 28.9937 26.0434 28.7353 25.6763 28.415L24.0503 29.3538L22.5 26.6686L24.2393 25.6644C24.2229 25.5123 24.2144 25.3577 24.2144 25.2012C24.2144 24.9209 24.2415 24.6468 24.2931 24.3816L22.5 23.3463L24.0503 20.6611L25.9575 21.7622C26.254 21.5446 26.5796 21.3644 26.9275 21.2285V19Z"/>
</svg>
