<svg width="40" height="40" viewBox="0 0 40 40" xmlns="http://www.w3.org/2000/svg">
<path d="M4.5 5H30.5V12.6591C29.8488 12.5544 29.1807 12.5 28.5 12.5C28.3325 12.5 28.1659 12.5033 28 12.5098V7.5H7V21.5H16.4966C16.2629 22.3029 16.1076 23.1392 16.0394 24H4.5V5Z"/>
<path d="M16.25 27.5C16.0861 26.6922 16 25.8562 16 25H1.5V27.5H16.25Z"/>
<path d="M27.2751 25.9475H28.3851V27.0575H27.2751V25.9475Z"/>
<path fill-rule="evenodd" clip-rule="evenodd" d="M38.5 25C38.5 30.5228 34.0228 35 28.5 35C22.9772 35 18.5 30.5228 18.5 25C18.5 19.4772 22.9772 15 28.5 15C34.0228 15 38.5 19.4772 38.5 25ZM32.6932 24.0049V23.1724C32.6932 22.5556 32.1932 22.0556 31.5764 22.0556C30.9595 22.0556 30.4595 22.5556 30.4595 23.1724V24.0049H31.1601V29H24.5V24.0049H28.9469V23.1724C28.9469 21.7202 30.1242 20.543 31.5764 20.543C33.0286 20.543 34.2058 21.7202 34.2058 23.1724V24.0049H33.7964H32.6932Z"/>
</svg>
