<svg width="40" height="40" viewBox="0 0 40 40" xmlns="http://www.w3.org/2000/svg">
<path d="M18.75 7V2H21.25V7H18.75Z"/>
<path d="M37 20.25H32V17.75H37V20.25Z"/>
<path d="M7.11609 8.88379L9.94452 11.7122L11.7123 9.94445L8.88386 7.11602L7.11609 8.88379Z"/>
<path d="M28.2877 9.94464L31.1161 7.11621L32.8839 8.88398L30.0554 11.7124L28.2877 9.94464Z"/>
<path d="M3 20.25H8V17.75H3V20.25Z"/>
<path d="M25 27.6622C27.989 25.9331 30 22.7014 30 19C30 13.4772 25.5228 9 20 9C14.4772 9 10 13.4772 10 19C10 22.7014 12.011 25.9331 15 27.6622V32H25V27.6622Z"/>
<path d="M24 37V34H16V37H24Z"/>
</svg>
