<svg width="40" height="40" viewBox="0 0 40 40" xmlns="http://www.w3.org/2000/svg">
<path fill-rule="evenodd" clip-rule="evenodd" d="M12 16V13C12 8.58172 15.5817 5 20 5C24.4183 5 28 8.58172 28 13V16H32V34H8V16H12ZM25.5 13V16H14.5V13C14.5 9.96243 16.9624 7.5 20 7.5C23.0376 7.5 25.5 9.96243 25.5 13ZM19.2 26.25H21L21.45 22.5V19.5H18.75V22.5L19.2 26.25ZM20.1 30.21C20.88 30.21 21.525 29.565 21.525 28.785C21.525 28.005 20.88 27.36 20.1 27.36C19.32 27.36 18.675 28.005 18.675 28.785C18.675 29.565 19.32 30.21 20.1 30.21Z"/>
</svg>
