<svg width="40" height="40" viewBox="0 0 40 40" xmlns="http://www.w3.org/2000/svg">
<path fill-rule="evenodd" clip-rule="evenodd" d="M7 14H3V32H17.0315C16.0552 30.219 15.5 28.1743 15.5 26C15.5 20.3156 19.2943 15.5174 24.4884 14H23V11C23 6.58172 19.4183 3 15 3C10.5817 3 7 6.58172 7 11V14ZM20.5 11V14H9.5V11C9.5 7.96243 11.9624 5.5 15 5.5C18.0376 5.5 20.5 7.96243 20.5 11Z"/>
<path fill-rule="evenodd" clip-rule="evenodd" d="M28 36C33.5228 36 38 31.5228 38 26C38 20.4772 33.5228 16 28 16C22.4772 16 18 20.4772 18 26C18 31.5228 22.4772 36 28 36ZM26.4167 19.75H28.5833V26.2119L32.8415 28.6704L31.758 30.547L26.4167 27.4556L26.4167 19.75Z"/>
</svg>
