<svg width="40" height="40" viewBox="0 0 40 40" xmlns="http://www.w3.org/2000/svg">
<path fill-rule="evenodd" clip-rule="evenodd" d="M7 14H3V32H17.0315C16.0552 30.219 15.5 28.1743 15.5 26C15.5 20.3156 19.2943 15.5174 24.4884 14H23V11C23 6.58172 19.4183 3 15 3C10.5817 3 7 6.58172 7 11V14ZM20.5 11V14H9.5V11C9.5 7.96243 11.9624 5.5 15 5.5C18.0376 5.5 20.5 7.96243 20.5 11Z"/>
<path fill-rule="evenodd" clip-rule="evenodd" d="M38 26C38 31.5228 33.5228 36 28 36C22.4772 36 18 31.5228 18 26C18 20.4772 22.4772 16 28 16C33.5228 16 38 20.4772 38 26ZM29.25 21.3333H26.75V24.75H23.3333V27.25H26.75V30.6667H29.25V27.25H32.6667V24.75H29.25V21.3333Z"/>
</svg>
