<svg width="40" height="40" viewBox="0 0 40 40" xmlns="http://www.w3.org/2000/svg">
<path fill-rule="evenodd" clip-rule="evenodd" d="M33.9306 18.5971C33.4317 18.6905 32.9508 18.8489 32.5 19.0635C31.7411 18.7022 30.8966 18.5 30.025 18.5C26.975 18.5 24.5 20.908 24.5 23.9973C24.5 25.854 25.3671 27.3416 26.3606 28.5459C27.0131 29.337 27.8347 30.1383 28.7201 30.9533C26.3279 32.8603 23.2971 34 20 34C12.268 34 6 27.732 6 20C6 12.268 12.268 6 20 6C27.2585 6 33.2269 11.5239 33.9306 18.5971ZM20.6008 25.5001L21.9761 23.781L20.0239 22.2192L17.3992 25.5001L20.0239 28.781L21.9761 27.2192L20.6008 25.5001ZM15.5 19C16.8807 19 18 17.8807 18 16.5C18 15.1193 16.8807 14 15.5 14C14.1193 14 13 15.1193 13 16.5C13 17.8807 14.1193 19 15.5 19ZM27 16.5C27 17.8807 25.8807 19 24.5 19C23.1193 19 22 17.8807 22 16.5C22 15.1193 23.1193 14 24.5 14C25.8807 14 27 15.1193 27 16.5Z"/>
<path d="M31.7025 30.2807L32.5 31L33.2975 30.2807C36.13 27.7357 38 26.0518 38 23.9973C38 22.3134 36.669 21 34.975 21C34.018 21 33.0995 21.4414 32.5 22.1335C31.9005 21.4414 30.982 21 30.025 21C28.331 21 27 22.3134 27 23.9973C27 26.0518 28.87 27.7357 31.7025 30.2807Z"/>
</svg>
