<svg width="40" height="40" viewBox="0 0 40 40" xmlns="http://www.w3.org/2000/svg">
<path d="M28 5.5H34.5V12H37V3H28V5.5Z"/>
<path d="M37 28H34.5V34.5H28V37H37V28Z"/>
<path d="M5.5 34.5H12V37H3V28H5.5V34.5Z"/>
<path d="M3 3V12H5.5V5.5H12V3H3Z"/>
<path fill-rule="evenodd" clip-rule="evenodd" d="M20 31.4669C26.2224 31.4669 31.2667 26.4227 31.2667 20.2003C31.2667 13.9779 26.2224 8.93359 20 8.93359C13.7776 8.93359 8.73334 13.9779 8.73334 20.2003C8.73334 26.4227 13.7776 31.4669 20 31.4669ZM17.6267 14.4189C16.558 17.4454 14.233 19.8788 11.2782 21.0926C11.2485 20.7992 11.2333 20.5015 11.2333 20.2003C11.2333 15.3586 15.1583 11.4336 20 11.4336C24.5015 11.4336 28.2106 14.8264 28.7096 19.1944C28.131 19.286 27.5377 19.3336 26.9334 19.3336C23.0672 19.3336 19.6559 17.3863 17.6267 14.4189ZM16.5333 23.6673C17.4906 23.6673 18.2667 22.8913 18.2667 21.934C18.2667 20.9767 17.4906 20.2007 16.5333 20.2007C15.576 20.2007 14.8 20.9767 14.8 21.934C14.8 22.8913 15.576 23.6673 16.5333 23.6673ZM25.2 21.934C25.2 22.8913 24.424 23.6673 23.4667 23.6673C22.5094 23.6673 21.7333 22.8913 21.7333 21.934C21.7333 20.9767 22.5094 20.2007 23.4667 20.2007C24.424 20.2007 25.2 20.9767 25.2 21.934Z"/>
</svg>
