<svg width="40" height="40" viewBox="0 0 40 40" xmlns="http://www.w3.org/2000/svg">
<path fill-rule="evenodd" clip-rule="evenodd" d="M7.12737 21.827C7.04341 21.23 7 20.6201 7 20C7 12.8203 12.8203 7 20 7C27.1797 7 33 12.8203 33 20C33 20.3365 32.9872 20.6701 32.9621 21.0002C32.9202 21.5504 32.8441 22.091 32.7359 22.62C31.5238 28.5439 26.2823 33.0002 20 33.0002C13.4403 33.0002 8.01542 28.1417 7.12737 21.827C7.12735 21.827 7.12739 21.827 7.12737 21.827ZM9.56512 21.176C13.1507 19.831 15.9842 16.9476 17.2616 13.3296C19.603 16.7533 23.5391 19.0002 28 19.0002C28.8302 19.0002 29.6422 18.9223 30.4291 18.7736C29.8218 13.5525 25.3841 9.5 20 9.5C14.201 9.5 9.5 14.201 9.5 20C9.5 20.3976 9.52209 20.7899 9.56512 21.176ZM18 22.0002C18 23.1047 17.1045 24.0002 16 24.0002C14.8954 24.0002 14 23.1047 14 22.0002C14 20.8956 14.8954 20.0002 16 20.0002C17.1045 20.0002 18 20.8956 18 22.0002ZM26 22.0002C26 23.1047 25.1045 24.0002 24 24.0002C22.8954 24.0002 22 23.1047 22 22.0002C22 20.8956 22.8954 20.0002 24 20.0002C25.1045 20.0002 26 20.8956 26 22.0002Z"/>
</svg>
