<svg width="40" height="40" viewBox="0 0 40 40" xmlns="http://www.w3.org/2000/svg">
<path fill-rule="evenodd" clip-rule="evenodd" d="M20 35C20 35 31 24 31 16.7407C31 10.8088 26.0751 6 20 6C13.9249 6 9 10.8088 9 16.7407C9 24 20 35 20 35ZM21.4043 19.9997H18.2043C18.2043 18.7466 19.1221 17.9064 19.9746 17.1259C20.714 16.4491 21.4043 15.8172 21.4043 14.9997C21.4043 14.2997 20.9443 13.8397 19.9243 13.8397C18.8243 13.8397 18.1643 14.5797 17.7643 15.5197L15.0043 13.9397C15.8843 11.8797 17.8243 10.7197 20.0443 10.7197C22.3243 10.7197 24.6043 12.1197 24.6043 14.7197C24.6043 16.493 23.4712 17.5368 22.5535 18.3822C21.929 18.9575 21.4043 19.4409 21.4043 19.9997ZM21.7043 23.3797C21.7043 24.4197 20.8443 25.2797 19.8043 25.2797C18.7643 25.2797 17.9043 24.4197 17.9043 23.3797C17.9043 22.3397 18.7643 21.4797 19.8043 21.4797C20.8443 21.4797 21.7043 22.3397 21.7043 23.3797Z"/>
</svg>
