<svg width="40" height="40" viewBox="0 0 40 40" xmlns="http://www.w3.org/2000/svg">
<path d="M16 6C16.0351 6 16.0701 6.00016 16.1051 6.00048C12.7197 8.39592 10.5 12.2961 10.5 16.7407C10.5 19.1263 11.3837 21.5874 12.485 23.7788C13.6073 26.0122 15.0764 28.1993 16.5018 30.095C17.132 30.9332 17.7611 31.7241 18.3587 32.4478C16.9818 34.0182 16 35 16 35C16 35 5 24 5 16.7407C5 10.8088 9.92487 6 16 6Z"/>
<path fill-rule="evenodd" clip-rule="evenodd" d="M35 16.7407C35 24 24 35 24 35C24 35 13 24 13 16.7407C13 10.8088 17.9249 6 24 6C30.0751 6 35 10.8088 35 16.7407ZM29 17C29 19.7614 26.7614 22 24 22C21.2386 22 19 19.7614 19 17C19 14.2386 21.2386 12 24 12C26.7614 12 29 14.2386 29 17Z"/>
</svg>
