<svg width="40" height="40" viewBox="0 0 40 40" xmlns="http://www.w3.org/2000/svg">
<path fill-rule="evenodd" clip-rule="evenodd" d="M13 32C13 32 14.0778 30.9222 15.5587 29.2187C15.5199 28.8177 15.5 28.4112 15.5 28C15.5 22.6375 18.8768 18.0636 23.62 16.2889C23.8632 15.4066 24 14.5504 24 13.7407C24 7.80879 19.0751 3 13 3C6.92487 3 2 7.80879 2 13.7407C2 21 13 32 13 32ZM13 19C15.7614 19 18 16.7614 18 14C18 11.2386 15.7614 9 13 9C10.2386 9 8 11.2386 8 14C8 16.7614 10.2386 19 13 19Z"/>
<path fill-rule="evenodd" clip-rule="evenodd" d="M38 28C38 33.5228 33.5228 38 28 38C22.4772 38 18 33.5228 18 28C18 22.4772 22.4772 18 28 18C33.5228 18 38 22.4772 38 28ZM29.9231 31.8462V29.5385H22.2308V27.2308H29.9231V24.9231L33.7692 28.3846L29.9231 31.8462Z"/>
</svg>
