<svg width="40" height="40" viewBox="0 0 40 40" xmlns="http://www.w3.org/2000/svg">
<path d="M11.75 3.375L3 6V28L11.75 25.375V3.375Z"/>
<path d="M14.25 25.375V3.375L21.75 5.625V17.1723C18.6178 18.9842 16.3447 22.1162 15.6916 25.8075L14.25 25.375Z"/>
<path d="M28 15.5C29.7778 15.5 31.4688 15.8711 33 16.5401V3L24.25 5.625V16.0723C25.4338 15.7004 26.6935 15.5 28 15.5Z"/>
<path d="M24.4659 27.4429C24.4659 25.7987 25.7987 24.4659 27.4429 24.4659C29.0871 24.4659 30.42 25.7987 30.42 27.4429C30.42 29.0871 29.0871 30.42 27.4429 30.42C25.7987 30.42 24.4659 29.0871 24.4659 27.4429Z"/>
<path fill-rule="evenodd" clip-rule="evenodd" d="M38 28C38 33.5228 33.5228 38 28 38C22.4772 38 18 33.5228 18 28C18 22.4772 22.4772 18 28 18C33.5228 18 38 22.4772 38 28ZM27.4429 22.5C24.713 22.5 22.5 24.713 22.5 27.4429C22.5 30.1728 24.713 32.3858 27.4429 32.3858C28.4519 32.3858 29.3912 32.083 30.1736 31.5636L32.317 33.707L33.7071 32.3169L31.5637 30.1736C32.0831 29.3911 32.3858 28.4519 32.3858 27.4429C32.3858 24.713 30.1728 22.5 27.4429 22.5Z"/>
</svg>
