<svg width="40" height="40" viewBox="0 0 40 40" xmlns="http://www.w3.org/2000/svg">
<path d="M11.75 3.375L3 6V28L11.75 25.375V3.375Z"/>
<path d="M14.25 25.375V3.375L21.75 5.625V17.1723C18.6178 18.9842 16.3447 22.1162 15.6916 25.8075L14.25 25.375Z"/>
<path d="M28 15.5C29.7778 15.5 31.4688 15.8711 33 16.5401V3L24.25 5.625V16.0723C25.4338 15.7004 26.6935 15.5 28 15.5Z"/>
<path fill-rule="evenodd" clip-rule="evenodd" d="M38 28C38 33.5228 33.5228 38 28 38C22.4772 38 18 33.5228 18 28C18 22.4772 22.4772 18 28 18C33.5228 18 38 22.4772 38 28ZM23.3333 26.75H32.6667V29.25H23.3333V26.75Z"/>
</svg>
