<svg width="40" height="40" viewBox="0 0 40 40" xmlns="http://www.w3.org/2000/svg">
<path d="M5.11609 6.88398L33.1161 34.884L34.8839 33.1162L6.88386 5.11621L5.11609 6.88398Z"/>
<path d="M8.99997 16.7407C8.99997 15.9848 9.07994 15.2472 9.23207 14.5354L24.5363 29.8397C22.1424 32.8575 20 35 20 35C20 35 8.99997 24 8.99997 16.7407Z"/>
<path d="M31 16.7407C31 18.8111 30.1052 21.1858 28.826 23.5228L24.4952 19.1919C24.8185 18.5301 25 17.7862 25 17C25 14.2386 22.7614 12 20 12C19.2138 12 18.4699 12.1815 17.8081 12.5048L13.4292 8.12597C15.2627 6.79055 17.5368 6 20 6C26.0751 6 31 10.8088 31 16.7407Z"/>
</svg>
