<svg width="40" height="40" viewBox="0 0 40 40" xmlns="http://www.w3.org/2000/svg">
<path fill-rule="evenodd" clip-rule="evenodd" d="M31 12.7407C31 20 20 31 20 31C20 31 9 20 9 12.7407C9 6.80879 13.9249 2 20 2C26.0751 2 31 6.80879 31 12.7407ZM25 13C25 15.7614 22.7614 18 20 18C17.2386 18 15 15.7614 15 13C15 10.2386 17.2386 8 20 8C22.7614 8 25 10.2386 25 13Z"/>
<path d="M20 38C28.2843 38 35 35.7614 35 33C35 30.9106 31.1553 29.1206 25.6956 28.373C20 34.5 20 34.5002 20 34.5002L14.274 28.3772C8.83039 29.1272 5 30.9145 5 33C5 35.7614 11.7157 38 20 38Z"/>
</svg>
