<svg width="40" height="40" viewBox="0 0 40 40" xmlns="http://www.w3.org/2000/svg">
<path d="M11.75 3.375L3 6V28L11.75 25.375V3.375Z"/>
<path d="M14.25 25.375V3.375L21.75 5.625V17.1723C18.6178 18.9842 16.3447 22.1162 15.6916 25.8075L14.25 25.375Z"/>
<path d="M28 15.5C29.7778 15.5 31.4688 15.8711 33 16.5401V3L24.25 5.625V16.0723C25.4338 15.7004 26.6935 15.5 28 15.5Z"/>
<path d="M27.931 29.0691C28.9785 29.0691 29.8276 28.22 29.8276 27.1726C29.8276 26.1251 28.9785 25.276 27.931 25.276C26.8836 25.276 26.0345 26.1251 26.0345 27.1726C26.0345 28.22 26.8836 29.0691 27.931 29.0691Z"/>
<path fill-rule="evenodd" clip-rule="evenodd" d="M38 28C38 33.5228 33.5228 38 28 38C22.4772 38 18 33.5228 18 28C18 22.4772 22.4772 18 28 18C33.5228 18 38 22.4772 38 28ZM27.931 34C27.931 34 32.1034 29.8276 32.1034 27.0741C32.1034 24.824 30.2354 23 27.931 23C25.6267 23 23.7586 24.824 23.7586 27.0741C23.7586 29.8276 27.931 34 27.931 34Z"/>
</svg>
