<svg width="40" height="40" viewBox="0 0 40 40" xmlns="http://www.w3.org/2000/svg">
<path fill-rule="evenodd" clip-rule="evenodd" d="M29.5 6H19.5V10H20.459V12H20.4615L17 18.2857V19H22.3636L19.8461 34H32V18.2857L28.5385 12H28.5525V10H29.5V6ZM25.8333 12.6337L28.2864 16.8942C27.3763 16.5696 26.0794 16.25 24.5 16.25C22.9206 16.25 21.6237 16.5696 20.7136 16.8942L23.1667 12.6337V10.5H25.8333V12.6337Z"/>
<path fill-rule="evenodd" clip-rule="evenodd" d="M8 21H20L17.8182 34H10.1818L8 21ZM17.5 23.5H10.5L11 26H17L17.5 23.5Z"/>
</svg>
