<svg width="40" height="40" viewBox="0 0 40 40" xmlns="http://www.w3.org/2000/svg">
<path d="M16.7434 25.224C15.3461 25.224 14.2474 24.696 13.4474 23.64C12.6581 22.5733 12.2634 21.16 12.2634 19.4C12.2634 17.64 12.6581 16.232 13.4474 15.176C14.2474 14.1093 15.3461 13.576 16.7434 13.576C18.1514 13.576 19.2501 14.1093 20.0394 15.176C20.8288 16.232 21.2234 17.64 21.2234 19.4C21.2234 21.16 20.8288 22.5733 20.0394 23.64C19.2501 24.696 18.1514 25.224 16.7434 25.224ZM15.0474 22.136C15.4314 22.7547 15.9968 23.064 16.7434 23.064C17.4901 23.064 18.0554 22.7493 18.4394 22.12C18.8341 21.4907 19.0314 20.584 19.0314 19.4C19.0314 18.2053 18.8341 17.2933 18.4394 16.664C18.0554 16.0347 17.4901 15.72 16.7434 15.72C15.9968 15.72 15.4314 16.0347 15.0474 16.664C14.6634 17.2933 14.4714 18.2053 14.4714 19.4C14.4714 20.5947 14.6634 21.5067 15.0474 22.136ZM25.2291 13.8H27.1491V25H24.9411V16.136L22.8291 16.728L22.2851 14.84L25.2291 13.8Z"/>
</svg>
