<svg width="40" height="40" viewBox="0 0 40 40" xmlns="http://www.w3.org/2000/svg">
<path d="M27.2732 20.4267C26.9239 19.7141 25.9384 19.114 24.6284 20.1266C22.8444 21.5518 20 21.5518 20 21.5518C20 21.5518 17.1556 21.5518 15.3716 20.1266C14.0616 19.114 13.0761 19.7141 12.7268 20.4267C12.103 21.6768 12.8016 22.2894 14.386 23.302C15.7458 24.1771 17.6047 24.5022 18.8023 24.6272L17.8043 25.6273C16.3821 27.04 15.0098 28.4027 14.0741 29.3528C13.5127 29.9279 13.5127 30.8405 14.0741 31.378L14.2488 31.5781C14.8102 32.1406 15.7334 32.1406 16.2948 31.5781L20 27.8526C21.4347 29.2653 22.7945 30.628 23.7427 31.5781C24.3041 32.1406 25.2148 32.1406 25.7886 31.5781L25.9508 31.378C26.5247 30.8405 26.5247 29.9279 25.9508 29.3528L22.2331 25.6273L21.2476 24.6147C22.4327 24.5022 24.2666 24.1646 25.614 23.302C27.1984 22.2894 27.897 21.6768 27.2732 20.4267ZM20 10.2129C21.7216 10.2129 23.1189 11.6131 23.1189 13.3258C23.1189 15.051 21.7216 16.4387 20 16.4387C18.2784 16.4387 16.8811 15.051 16.8811 13.3258C16.8811 11.6131 18.2784 10.2129 20 10.2129ZM20 19.6516C23.4931 19.6516 26.3126 16.8262 26.3126 13.3258C26.3126 9.83785 23.4931 7 20 7C16.5069 7 13.6874 9.83785 13.6874 13.3258C13.6874 16.8262 16.5069 19.6516 20 19.6516Z"/>
</svg>
