<svg width="40" height="40" viewBox="0 0 40 40" xmlns="http://www.w3.org/2000/svg">
<path fill-rule="evenodd" clip-rule="evenodd" d="M30.5689 23.8935C36.7865 19.1192 30.2031 7 20.6939 7C11.1846 7 7.73887 14.345 7.1614 18.0175C6.35293 23.159 8.62436 28.6677 13.0133 31.2385C17.2635 33.728 22.1568 33.442 22.1568 31.2385C22.1568 30.3255 21.7801 29.6647 21.4428 29.0732C20.9662 28.2372 20.5685 27.5396 21.4253 26.4642C22.025 25.7115 22.8614 25.7644 23.9709 25.8346C25.568 25.9357 27.7311 26.0725 30.5689 23.8935ZM15 17.5C15 18.3284 14.3284 19 13.5 19C12.6716 19 12 18.3284 12 17.5C12 16.6716 12.6716 16 13.5 16C14.3284 16 15 16.6716 15 17.5ZM17.5 15C18.3284 15 19 14.3284 19 13.5C19 12.6716 18.3284 12 17.5 12C16.6716 12 16 12.6716 16 13.5C16 14.3284 16.6716 15 17.5 15ZM24 13.5C24 14.3284 23.3284 15 22.5 15C21.6716 15 21 14.3284 21 13.5C21 12.6716 21.6716 12 22.5 12C23.3284 12 24 12.6716 24 13.5ZM26.5 19C27.3284 19 28 18.3284 28 17.5C28 16.6716 27.3284 16 26.5 16C25.6716 16 25 16.6716 25 17.5C25 18.3284 25.6716 19 26.5 19Z"/>
</svg>
