<svg width="40" height="40" viewBox="0 0 40 40" xmlns="http://www.w3.org/2000/svg">
<path d="M32.7368 7.73684C32.7368 8.66006 33.247 9.62558 34.0467 10.0869C35.7804 11.0871 36.9473 12.9599 36.9473 15.1053C36.9473 15.873 36.7979 16.6059 36.5265 17.2763C35.9975 18.5831 36.1431 20.4163 36.9296 21.5863C37.6055 22.5919 38 23.8025 38 25.1053C38 28.5934 35.1723 31.4211 31.6842 31.4211C30.9164 31.4211 30.1807 31.2841 29.5 31.0332V21.6992L34.0104 17.1888L32.2426 15.4211L29.5 18.1637V13.421H27V23.0068L24.4142 20.421L23 21.8352L27 25.8352V30.8431C26.9144 30.8705 26.8299 30.9015 26.7468 30.9362C25.9985 31.2486 25.1773 31.4211 24.3158 31.4211C20.8277 31.4211 18 28.5934 18 25.1053C18 23.8025 18.3944 22.5918 19.0704 21.5862C19.8569 20.4163 20.0024 18.583 19.4735 17.2763C19.2021 16.6059 19.0527 15.873 19.0527 15.1053C19.0527 12.9599 20.2196 11.0871 21.9533 10.0869C22.753 9.62557 23.2632 8.66006 23.2632 7.73684C23.2632 5.12076 25.3839 3 28 3C30.6161 3 32.7368 5.12076 32.7368 7.73684Z"/>
<path d="M27 32.5567C27.175 32.497 27.3475 32.4317 27.5172 32.3608C27.8174 32.2355 28.1825 32.2355 28.4827 32.3608C28.8119 32.4982 29.1516 32.615 29.5 32.7097V36H27V32.5567Z"/>
<path d="M4 27H16V31H17V33.5H16V36H13.5V33.5H6.5V36H4V33.5H3V31H4V27Z"/>
</svg>
