<svg width="40" height="40" viewBox="0 0 40 40" xmlns="http://www.w3.org/2000/svg">
<path fill-rule="evenodd" clip-rule="evenodd" d="M2.5 3.5H20.5V16.1423C19.5696 16.7724 18.7286 17.5244 18 18.3756V6H5V26H15.0098C15.0033 26.1659 15 26.3325 15 26.5C15 28.6743 15.5552 30.719 16.5315 32.5H2.5V3.5ZM11.5 30.5C12.3284 30.5 13 29.8284 13 29C13 28.1716 12.3284 27.5 11.5 27.5C10.6716 27.5 10 28.1716 10 29C10 29.8284 10.6716 30.5 11.5 30.5Z"/>
<path fill-rule="evenodd" clip-rule="evenodd" d="M37.5 26.5C37.5 32.0228 33.0228 36.5 27.5 36.5C21.9772 36.5 17.5 32.0228 17.5 26.5C17.5 20.9772 21.9772 16.5 27.5 16.5C33.0228 16.5 37.5 20.9772 37.5 26.5ZM27.5 31.5L29.5 29.1C28.9444 28.725 28.25 28.5 27.5 28.5C26.75 28.5 26.0556 28.725 25.5 29.1L27.5 31.5ZM27.5 22.5C25.25 22.5 23.1722 23.17 21.5 24.3L22.5 25.5C23.8889 24.56 25.6222 24 27.5 24C29.3778 24 31.1111 24.56 32.5 25.5L33.5 24.3C31.8278 23.17 29.75 22.5 27.5 22.5ZM27.5 25.5C26 25.5 24.6167 25.945 23.5 26.7L24.5 27.9C25.3333 27.335 26.3722 27 27.5 27C28.6278 27 29.6667 27.335 30.5 27.9L31.5 26.7C30.3833 25.945 29 25.5 27.5 25.5Z"/>
</svg>
