<svg width="40" height="40" viewBox="0 0 40 40" xmlns="http://www.w3.org/2000/svg">
<path fill-rule="evenodd" clip-rule="evenodd" d="M23.5 6L34.1713 16.6713L16.9787 33.864L6.30734 23.1927L23.5 6ZM23.5 8.96424L31.2071 16.6713L19.35 28.5283L11.643 20.8212L23.5 8.96424ZM12.8286 27.3427C13.3198 27.8338 14.116 27.8338 14.6072 27.3427C15.0983 26.8516 15.0983 26.0553 14.6072 25.5641C14.116 25.073 13.3198 25.073 12.8286 25.5641C12.3375 26.0553 12.3375 26.8516 12.8286 27.3427Z"/>
<path d="M17 7L14 12V9.58152C11.0682 10.7683 9.00001 13.6426 9.00001 17H7.00001C7.00001 11.4772 11.4772 7 17 7Z"/>
<path d="M27 28L24 33C29.5229 33 34 28.5228 34 23H32C32 26.3574 29.9318 29.2317 27 30.4185V28Z"/>
</svg>
