<svg width="40" height="40" viewBox="0 0 40 40" xmlns="http://www.w3.org/2000/svg">
<path d="M5.11612 6.88398L33.1161 34.884L34.8839 33.1162L6.88389 5.11621L5.11612 6.88398Z"/>
<path fill-rule="evenodd" clip-rule="evenodd" d="M29 34.5001V32.5356L24.4646 28.0001H13.5V17.0356L11 14.5356V34.5001H29ZM20 32.5001C20.8284 32.5001 21.5 31.8285 21.5 31.0001C21.5 30.1717 20.8284 29.5001 20 29.5001C19.1716 29.5001 18.5 30.1717 18.5 31.0001C18.5 31.8285 19.1716 32.5001 20 32.5001Z"/>
<path d="M29 25.4645L26.5 22.9645V8.00012H13.5V9.9645L11 7.4645V5.50012H29V25.4645Z"/>
</svg>
