<svg width="40" height="40" viewBox="0 0 40 40" xmlns="http://www.w3.org/2000/svg">
<path fill-rule="evenodd" clip-rule="evenodd" d="M2.5 3.5H20.5V16.1423C19.5696 16.7724 18.7286 17.5244 18 18.3756V6H5V26H15.0098C15.0033 26.1659 15 26.3325 15 26.5C15 28.6743 15.5552 30.719 16.5315 32.5H2.5V3.5ZM11.5 30.5C12.3284 30.5 13 29.8284 13 29C13 28.1716 12.3284 27.5 11.5 27.5C10.6716 27.5 10 28.1716 10 29C10 29.8284 10.6716 30.5 11.5 30.5Z"/>
<path d="M27.4778 28.2515C28.334 28.2515 29.0281 27.5574 29.0281 26.7012C29.0281 25.845 28.334 25.1509 27.4778 25.1509C26.6216 25.1509 25.9275 25.845 25.9275 26.7012C25.9275 27.5574 26.6216 28.2515 27.4778 28.2515Z"/>
<path fill-rule="evenodd" clip-rule="evenodd" d="M37.5 26.5C37.5 32.0228 33.0228 36.5 27.5 36.5C21.9772 36.5 17.5 32.0228 17.5 26.5C17.5 20.9772 21.9772 16.5 27.5 16.5C33.0228 16.5 37.5 20.9772 37.5 26.5ZM25.9275 20.5H29.0281V22.7285C29.3759 22.8644 29.7016 23.0446 29.998 23.2622L31.9052 22.1611L33.4555 24.8463L31.6624 25.8816C31.7141 26.1468 31.7411 26.4209 31.7411 26.7012C31.7411 26.8577 31.7327 27.0123 31.7163 27.1644L33.4555 28.1686L31.9052 30.8538L30.2792 29.915C29.9121 30.2353 29.4897 30.4937 29.0281 30.6739V32.5149H25.9275V30.6739C25.4659 30.4937 25.0434 30.2353 24.6763 29.915L23.0503 30.8538L21.5 28.1686L23.2393 27.1644C23.2229 27.0123 23.2144 26.8577 23.2144 26.7012C23.2144 26.4209 23.2415 26.1468 23.2931 25.8816L21.5 24.8463L23.0503 22.1611L24.9575 23.2622C25.254 23.0446 25.5796 22.8644 25.9275 22.7285V20.5Z"/>
</svg>
