<svg width="40" height="40" viewBox="0 0 40 40" xmlns="http://www.w3.org/2000/svg">
<path fill-rule="evenodd" clip-rule="evenodd" d="M2.5 3.5H20.5V16.1423C19.5696 16.7724 18.7286 17.5244 18 18.3756V6H5V26H15.0098C15.0033 26.1659 15 26.3325 15 26.5C15 28.6743 15.5552 30.719 16.5315 32.5H2.5V3.5ZM11.5 30.5C12.3284 30.5 13 29.8284 13 29C13 28.1716 12.3284 27.5 11.5 27.5C10.6716 27.5 10 28.1716 10 29C10 29.8284 10.6716 30.5 11.5 30.5Z"/>
<path d="M26.2751 27.4475H27.3851V28.5575H26.2751V27.4475Z"/>
<path fill-rule="evenodd" clip-rule="evenodd" d="M37.5 26.5C37.5 32.0228 33.0228 36.5 27.5 36.5C21.9772 36.5 17.5 32.0228 17.5 26.5C17.5 20.9772 21.9772 16.5 27.5 16.5C33.0228 16.5 37.5 20.9772 37.5 26.5ZM31.6932 25.5049V24.6724C31.6932 24.0556 31.1932 23.5556 30.5764 23.5556C29.9595 23.5556 29.4595 24.0556 29.4595 24.6724V25.5049H30.1601V30.5H23.5V25.5049H27.9469V24.6724C27.9469 23.2202 29.1242 22.043 30.5764 22.043C32.0286 22.043 33.2058 23.2202 33.2058 24.6724V25.5049H32.7964H31.6932Z"/>
</svg>
