<svg width="40" height="40" viewBox="0 0 40 40" xmlns="http://www.w3.org/2000/svg">
<path d="M19.0345 6H6V27H10.5V22.2931H7.81031V7.81031H17.2241V17.5H19.0345V6Z"/>
<path fill-rule="evenodd" clip-rule="evenodd" d="M34 20V33.0345H13V20H34ZM32.1897 21.8103V31.2241H17.7069V21.8103H32.1897ZM14.4482 26.5172C14.4482 27.1171 14.9345 27.6034 15.5344 27.6034C16.1343 27.6034 16.6206 27.1171 16.6206 26.5172C16.6206 25.9173 16.1343 25.431 15.5344 25.431C14.9345 25.431 14.4482 25.9173 14.4482 26.5172Z"/>
<path d="M26 12L23 7C28.5228 7 33 11.4772 33 17H31C31 13.6426 28.9318 10.7683 26 9.58152V12Z"/>
</svg>
