<svg width="40" height="40" viewBox="0 0 40 40" xmlns="http://www.w3.org/2000/svg">
<path fill-rule="evenodd" clip-rule="evenodd" d="M2.5 3.5H20.5V16.1423C19.5696 16.7724 18.7286 17.5244 18 18.3756V6H5V26H15.0098C15.0033 26.1659 15 26.3325 15 26.5C15 28.6743 15.5552 30.719 16.5315 32.5H2.5V3.5ZM11.5 30.5C12.3284 30.5 13 29.8284 13 29C13 28.1716 12.3284 27.5 11.5 27.5C10.6716 27.5 10 28.1716 10 29C10 29.8284 10.6716 30.5 11.5 30.5Z"/>
<path d="M28.9701 25.3987V24.4651C28.9701 23.6445 28.3049 22.9792 27.4842 22.9792C26.6636 22.9792 25.9983 23.6445 25.9983 24.4651V25.3987H28.9701Z"/>
<path d="M26.8619 27.577H28.1066V28.8217H26.8619V27.577Z"/>
<path fill-rule="evenodd" clip-rule="evenodd" d="M37.5 26.5C37.5 32.0228 33.0228 36.5 27.5 36.5C21.9772 36.5 17.5 32.0228 17.5 26.5C17.5 20.9772 21.9772 16.5 27.5 16.5C33.0228 16.5 37.5 20.9772 37.5 26.5ZM24.7691 24.4651C24.7691 22.9656 25.9847 21.75 27.4842 21.75C28.9837 21.75 30.1993 22.9656 30.1993 24.4651V25.3987H31.2185V31H23.75V25.3987H24.7691V24.4651Z"/>
</svg>
