<svg width="40" height="40" viewBox="0 0 40 40" xmlns="http://www.w3.org/2000/svg">
<path fill-rule="evenodd" clip-rule="evenodd" d="M6 6H19.0345V27H6V6ZM7.81031 7.81031H17.2241V22.2931H7.81031V7.81031ZM12.5172 25.5518C13.1171 25.5518 13.6034 25.0655 13.6034 24.4656C13.6034 23.8657 13.1171 23.3794 12.5172 23.3794C11.9173 23.3794 11.431 23.8657 11.431 24.4656C11.431 25.0655 11.9173 25.5518 12.5172 25.5518Z"/>
<path d="M13 29.5V33.0345H34V20H21.5V21.8103H32.1897V31.2241H17.7069V29.5H13Z"/>
<path d="M28 14L33 17C33 11.4772 28.5228 7 23 7V9C26.3574 9 29.2317 11.0682 30.4185 14H28Z"/>
</svg>
