<svg width="40" height="40" viewBox="0 0 40 40" xmlns="http://www.w3.org/2000/svg">
<path fill-rule="evenodd" clip-rule="evenodd" d="M28.5 3H2.5V29H15.1591C15.0544 28.3488 15 27.6807 15 27C15 25.9659 15.1256 24.9611 15.3623 24H7.5L11.5 19L13.0194 20.8992L17 16L18.7136 18.109C20.9714 15.8776 24.0748 14.5 27.5 14.5C27.8366 14.5 28.1701 14.5133 28.5 14.5394V3ZM10 13C11.3807 13 12.5 11.8807 12.5 10.5C12.5 9.11929 11.3807 8 10 8C8.61929 8 7.5 9.11929 7.5 10.5C7.5 11.8807 8.61929 13 10 13Z"/>
<path fill-rule="evenodd" clip-rule="evenodd" d="M37.5 27C37.5 32.5228 33.0228 37 27.5 37C21.9772 37 17.5 32.5228 17.5 27C17.5 21.4772 21.9772 17 27.5 17C33.0228 17 37.5 21.4772 37.5 27ZM27.5 25.3301L30 22.8301L27.5 20.3301V21.9968C24.7386 21.9968 22.5 24.2354 22.5 26.9968C22.5 29.7582 24.7386 31.9968 27.5 31.9968C30.2614 31.9968 32.5 29.7582 32.5 26.9968C32.5 25.9169 32.1577 24.917 31.5756 24.0996L30.3718 25.3034C30.665 25.7997 30.8333 26.3786 30.8333 26.9968C30.8333 28.8377 29.341 30.3301 27.5 30.3301C25.659 30.3301 24.1667 28.8377 24.1667 26.9968C24.1667 25.1558 25.659 23.6635 27.5 23.6634V25.3301Z"/>
</svg>
