<svg width="40" height="40" viewBox="0 0 40 40" xmlns="http://www.w3.org/2000/svg">
<path fill-rule="evenodd" clip-rule="evenodd" d="M28.5 3H2.5V29H15.1591C15.0544 28.3488 15 27.6807 15 27C15 25.9659 15.1256 24.9611 15.3623 24H7.5L11.5 19L13.0194 20.8992L17 16L18.7136 18.109C20.9714 15.8776 24.0748 14.5 27.5 14.5C27.8366 14.5 28.1701 14.5133 28.5 14.5394V3ZM10 13C11.3807 13 12.5 11.8807 12.5 10.5C12.5 9.11929 11.3807 8 10 8C8.61929 8 7.5 9.11929 7.5 10.5C7.5 11.8807 8.61929 13 10 13Z"/>
<path fill-rule="evenodd" clip-rule="evenodd" d="M37.5 27C37.5 32.5228 33.0228 37 27.5 37C21.9772 37 17.5 32.5228 17.5 27C17.5 21.4772 21.9772 17 27.5 17C33.0228 17 37.5 21.4772 37.5 27ZM28.75 22.3333H26.25V25.75H22.8333V28.25H26.25V31.6667H28.75V28.25H32.1667V25.75H28.75V22.3333Z"/>
</svg>
