<svg width="40" height="40" viewBox="0 0 40 40" xmlns="http://www.w3.org/2000/svg">
<path d="M18.4569 21.6556C17.1835 23.4997 16.3928 25.7027 16.2675 28.082H11.25V22.4713L16.259 20.6013C16.9056 21.0871 17.6498 21.4501 18.4569 21.6556Z"/>
<path d="M24.0862 17.1491C22.4817 17.7947 21.0419 18.7636 19.8477 19.9751C17.5081 19.8949 15.6361 17.973 15.6361 15.6139C15.6361 13.2038 17.5899 11.25 20 11.25C22.4101 11.25 24.3639 13.2038 24.3639 15.6139C24.3639 16.1542 24.2657 16.6715 24.0862 17.1491Z"/>
<path d="M34.0151 17.4097C32.8704 11.1763 27.6696 6.36196 21.25 5.80407V8.75H18.75V5.80407C11.8772 6.40135 6.40135 11.8772 5.80407 18.75H8.75V21.25H5.80407C6.36196 27.6696 11.1763 32.8704 17.4097 34.0151C17.7699 34.7897 18.2071 35.5211 18.7115 36.1997C10.3392 35.5429 3.75 28.5409 3.75 20C3.75 11.0254 11.0254 3.75 20 3.75C28.5409 3.75 35.5429 10.3392 36.1997 18.7115C35.5211 18.2071 34.7897 17.7699 34.0151 17.4097Z"/>
<path fill-rule="evenodd" clip-rule="evenodd" d="M38.75 28.75C38.75 34.2728 34.2728 38.75 28.75 38.75C23.2272 38.75 18.75 34.2728 18.75 28.75C18.75 23.2272 23.2272 18.75 28.75 18.75C34.2728 18.75 38.75 23.2272 38.75 28.75ZM28.75 35L30.8333 32.3333C30.2546 31.9167 29.5312 31.6667 28.75 31.6667C27.9688 31.6667 27.2454 31.9167 26.6667 32.3333L28.75 35ZM24.9461 25.6884C24.0662 26.0201 23.2445 26.4634 22.5 27L23.5417 28.3333C24.3509 27.7491 25.2724 27.297 26.2697 27.012L27.6709 28.4133C26.5258 28.5847 25.4733 29.0249 24.5833 29.6667L25.625 31C26.4931 30.3722 27.5752 30 28.75 30C28.9302 30 29.1082 30.0088 29.2835 30.0258L34.2577 35L35 34.2577L31.4878 30.7455C31.6211 30.8248 31.7502 30.9098 31.875 31L32.9167 29.6667C31.8366 28.8877 30.5171 28.4058 29.0832 28.3409L27.4955 26.7532C27.9051 26.6962 28.324 26.6667 28.75 26.6667C30.706 26.6667 32.5116 27.2889 33.9583 28.3333L35 27C33.2581 25.7444 31.0938 25 28.75 25C27.8256 25 26.9291 25.1158 26.0754 25.3331L23.2423 22.5L22.5 23.2423L24.9461 25.6884Z"/>
</svg>
