<svg width="40" height="40" viewBox="0 0 40 40" xmlns="http://www.w3.org/2000/svg">
<path d="M18.4569 21.6556C17.1835 23.4996 16.3928 25.7027 16.2675 28.082H11.25V22.4713L16.259 20.6013C16.9056 21.0871 17.6498 21.4501 18.4569 21.6556Z"/>
<path d="M24.0862 17.1491C22.4817 17.7947 21.0419 18.7636 19.8477 19.9751C17.5081 19.8949 15.6361 17.973 15.6361 15.6139C15.6361 13.2038 17.5899 11.25 20 11.25C22.4101 11.25 24.3639 13.2038 24.3639 15.6139C24.3639 16.1542 24.2657 16.6715 24.0862 17.1491Z"/>
<path d="M34.0151 17.4097C32.8704 11.1763 27.6696 6.36196 21.25 5.80407V8.75H18.75V5.80407C11.8772 6.40135 6.40135 11.8772 5.80407 18.75H8.75V21.25H5.80407C6.36196 27.6696 11.1763 32.8704 17.4097 34.0151C17.7699 34.7897 18.2071 35.5211 18.7115 36.1997C10.3392 35.5429 3.75 28.5409 3.75 20C3.75 11.0254 11.0254 3.75 20 3.75C28.5409 3.75 35.5429 10.3392 36.1997 18.7115C35.5211 18.2071 34.7897 17.7699 34.0151 17.4097Z"/>
<path fill-rule="evenodd" clip-rule="evenodd" d="M28.75 38.75C34.2728 38.75 38.75 34.2728 38.75 28.75C38.75 23.2272 34.2728 18.75 28.75 18.75C23.2272 18.75 18.75 23.2272 18.75 28.75C18.75 34.2728 23.2272 38.75 28.75 38.75ZM30.8333 32.3333L28.75 35L26.6667 32.3333C27.2454 31.9167 27.9688 31.6667 28.75 31.6667C29.5312 31.6667 30.2546 31.9167 30.8333 32.3333ZM22.5 27C24.2419 25.7444 26.4062 25 28.75 25C31.0938 25 33.2581 25.7444 35 27L33.9583 28.3333C32.5116 27.2889 30.706 26.6667 28.75 26.6667C26.794 26.6667 24.9884 27.2889 23.5417 28.3333L22.5 27ZM24.5833 29.6667C25.7465 28.8278 27.1875 28.3333 28.75 28.3333C30.3125 28.3333 31.7535 28.8278 32.9167 29.6667L31.875 31C31.0069 30.3722 29.9248 30 28.75 30C27.5752 30 26.4931 30.3722 25.625 31L24.5833 29.6667Z"/>
</svg>
