<svg width="40" height="40" viewBox="0 0 40 40" xmlns="http://www.w3.org/2000/svg">
<path d="M24.3639 15.6139C24.3639 18.024 22.4101 19.9777 20 19.9777C17.5899 19.9777 15.6361 18.024 15.6361 15.6139C15.6361 13.2038 17.5899 11.25 20 11.25C22.4101 11.25 24.3639 13.2038 24.3639 15.6139Z"/>
<path d="M16.259 20.6013L11.25 22.4713V28.082H28.75V22.4713L23.7409 20.6013C22.6989 21.3841 21.4036 21.848 20 21.848C18.5963 21.848 17.301 21.3841 16.259 20.6013Z"/>
<path fill-rule="evenodd" clip-rule="evenodd" d="M36.25 20C36.25 28.9746 28.9746 36.25 20 36.25C11.0254 36.25 3.75 28.9746 3.75 20C3.75 11.0254 11.0254 3.75 20 3.75C28.9746 3.75 36.25 11.0254 36.25 20ZM18.75 34.1959V31.25H21.25V34.1959C28.1228 33.5987 33.5987 28.1228 34.1959 21.25H31.25V18.75H34.1959C33.5987 11.8772 28.1228 6.40135 21.25 5.80407V8.75H18.75V5.80407C11.8772 6.40135 6.40135 11.8772 5.80407 18.75H8.75V21.25H5.80407C6.40135 28.1228 11.8772 33.5987 18.75 34.1959Z"/>
</svg>
