<svg width="40" height="40" viewBox="0 0 40 40" xmlns="http://www.w3.org/2000/svg">
<path d="M18.4569 21.6556C17.1835 23.4997 16.3928 25.7027 16.2675 28.082H11.25V22.4713L16.259 20.6013C16.9056 21.0871 17.6498 21.4501 18.4569 21.6556Z"/>
<path d="M24.0862 17.1491C22.4817 17.7947 21.0419 18.7636 19.8477 19.9751C17.5081 19.8949 15.6361 17.973 15.6361 15.6139C15.6361 13.2038 17.5899 11.25 20 11.25C22.4101 11.25 24.3639 13.2038 24.3639 15.6139C24.3639 16.1542 24.2657 16.6715 24.0862 17.1491Z"/>
<path d="M34.0151 17.4097C32.8704 11.1763 27.6696 6.36196 21.25 5.80407V8.75H18.75V5.80407C11.8772 6.40135 6.40135 11.8772 5.80407 18.75H8.75V21.25H5.80407C6.36196 27.6696 11.1763 32.8704 17.4097 34.0151C17.7699 34.7897 18.2071 35.5211 18.7115 36.1997C10.3392 35.5429 3.75 28.5409 3.75 20C3.75 11.0254 11.0254 3.75 20 3.75C28.5409 3.75 35.5429 10.3392 36.1997 18.7115C35.5211 18.2071 34.7897 17.7699 34.0151 17.4097Z"/>
<path d="M33.5284 29.2583V30.7383H34.4547C34.6415 30.7383 34.7953 30.7075 34.9161 30.646C35.0391 30.5845 35.1303 30.5002 35.1895 30.3931C35.2511 30.2837 35.2818 30.1584 35.2818 30.0171C35.2818 29.8621 35.2545 29.7277 35.1998 29.6138C35.1474 29.4998 35.0631 29.4121 34.9469 29.3506C34.8329 29.2891 34.6825 29.2583 34.4957 29.2583H33.5284Z"/>
<path d="M34.3077 28.5952C34.4945 28.5952 34.6506 28.569 34.776 28.5166C34.9013 28.4642 34.9958 28.3879 35.0596 28.2876C35.1257 28.1873 35.1588 28.0654 35.1588 27.9219C35.1588 27.7624 35.128 27.6325 35.0665 27.5322C35.0072 27.432 34.9138 27.3591 34.7862 27.3135C34.6586 27.2656 34.4968 27.2417 34.3009 27.2417H33.5284V28.5952H34.3077Z"/>
<path fill-rule="evenodd" clip-rule="evenodd" d="M28.75 38.75C34.2728 38.75 38.75 34.2728 38.75 28.75C38.75 23.2272 34.2728 18.75 28.75 18.75C23.2272 18.75 18.75 23.2272 18.75 28.75C18.75 34.2728 23.2272 38.75 28.75 38.75ZM22.479 31.4766H23.4121L24.2957 28.0333L25.1758 31.4766H26.1089L27.2368 26.5H26.3003L25.5785 30.1027L24.6938 26.5H23.9009L23.0143 30.0984L22.2842 26.5H21.3511L22.479 31.4766ZM31.5352 30.7383V31.4766H28.2368V26.5H31.5249V27.2417H29.1768V28.5542H31.1899V29.2754H29.1768V30.7383H31.5352ZM35.3855 28.8986C35.4332 28.8794 35.4784 28.8581 35.5211 28.8345C35.717 28.7274 35.8617 28.5884 35.9552 28.4175C36.0509 28.2443 36.0987 28.0552 36.0987 27.8501C36.0987 27.6177 36.0577 27.4172 35.9757 27.2485C35.8959 27.0799 35.7786 26.9398 35.6236 26.8281C35.4687 26.7165 35.2795 26.6344 35.0562 26.582C34.8352 26.5273 34.5834 26.5 34.3009 26.5H32.5885V31.4766H34.4547C34.8284 31.4766 35.1462 31.4219 35.4083 31.3125C35.6726 31.2031 35.8731 31.0402 36.0098 30.8237C36.1488 30.6073 36.2183 30.3395 36.2183 30.0205C36.2183 29.8177 36.175 29.6286 36.0885 29.4531C36.0019 29.2777 35.8674 29.1341 35.6851 29.0225C35.5978 28.9683 35.4979 28.927 35.3855 28.8986Z"/>
</svg>
