<svg width="40" height="40" viewBox="0 0 40 40" xmlns="http://www.w3.org/2000/svg">
<path fill-rule="evenodd" clip-rule="evenodd" d="M20 35C28.2843 35 35 28.2843 35 20C35 11.7157 28.2843 5 20 5C11.7157 5 5 11.7157 5 20C5 28.2843 11.7157 35 20 35ZM21.4043 21.9997H18.2043C18.2043 20.7466 19.1221 19.9064 19.9746 19.1259C20.714 18.4491 21.4043 17.8172 21.4043 16.9997C21.4043 16.2997 20.9443 15.8397 19.9243 15.8397C18.8243 15.8397 18.1643 16.5797 17.7643 17.5197L15.0043 15.9397C15.8843 13.8797 17.8243 12.7197 20.0443 12.7197C22.3243 12.7197 24.6043 14.1197 24.6043 16.7197C24.6043 18.493 23.4712 19.5368 22.5535 20.3822C21.929 20.9575 21.4043 21.4409 21.4043 21.9997ZM21.7043 25.3797C21.7043 26.4197 20.8443 27.2797 19.8043 27.2797C18.7643 27.2797 17.9043 26.4197 17.9043 25.3797C17.9043 24.3397 18.7643 23.4797 19.8043 23.4797C20.8443 23.4797 21.7043 24.3397 21.7043 25.3797Z"/>
</svg>
