<svg width="40" height="40" viewBox="0 0 40 40" xmlns="http://www.w3.org/2000/svg">
<path fill-rule="evenodd" clip-rule="evenodd" d="M37 16C37 23.1797 31.1797 29 24 29C16.8203 29 11 23.1797 11 16C11 8.8203 16.8203 3 24 3C31.1797 3 37 8.8203 37 16ZM32 16C32 20.4183 28.4183 24 24 24C19.5817 24 16 20.4183 16 16C16 11.5817 19.5817 8 24 8C28.4183 8 32 11.5817 32 16Z"/>
<path d="M24 31.4999C25.0601 31.4999 26.0953 31.3935 27.0956 31.1907C24.712 34.125 21.075 35.9999 17 35.9999C9.8203 35.9999 4 30.1796 4 22.9999C4 18.9249 5.87492 15.2878 8.80916 12.9043C8.60642 13.9046 8.5 14.9398 8.5 15.9999C8.5 24.5603 15.4396 31.4999 24 31.4999Z"/>
</svg>
