<svg width="40" height="40" viewBox="0 0 40 40" xmlns="http://www.w3.org/2000/svg">
<path d="M20.8453 16H18.7453V19.6H20.8453C21.8253 19.6 22.5453 18.82 22.5453 17.8C22.5453 16.78 21.8253 16 20.8453 16Z"/>
<path fill-rule="evenodd" clip-rule="evenodd" d="M20 35C28.2843 35 35 28.2843 35 20C35 11.7157 28.2843 5 20 5C11.7157 5 5 11.7157 5 20C5 28.2843 11.7157 35 20 35ZM25.7453 17.8C25.7453 20.46 23.6053 22.4 20.8453 22.4H18.7453V23.22H22.9453V25.18H18.7453V27H15.5453V25.18H14.1453V23.22H15.5453V22.4H14.1453V19.6H15.5453V13H20.8453C23.6053 13 25.7453 15.14 25.7453 17.8Z"/>
</svg>
