<svg width="40" height="40" viewBox="0 0 40 40" xmlns="http://www.w3.org/2000/svg">
<path d="M26.556 7.01179C26.556 8.67515 25.2076 10.0236 23.5442 10.0236C21.8808 10.0236 20.5324 8.67515 20.5324 7.01179C20.5324 5.34842 21.8808 4 23.5442 4C25.2076 4 26.556 5.34842 26.556 7.01179Z"/>
<path d="M18.8523 11.4453L18.8535 11.4484L21.2853 10.5879L23.3559 10.9644L24.523 12.6472L24.5228 12.6483L27.6281 16.4437L32.4756 18.0018L31.5539 20.8691L25.8601 19.0389L23.9949 16.7592L23.246 22.5903L26.1795 25.8171V35.9994H23.1677V26.9815L19.9183 23.4071L18.5164 30.4165L17.0506 30.1373C16.2618 29.9871 15.1959 29.789 14.0731 29.5804L14.0697 29.5798L14.0686 29.5796L14.0635 29.5786C13.3165 29.4398 12.5446 29.2964 11.8128 29.1594C10.8992 28.9883 10.0489 28.8272 9.39728 28.6992C9.0721 28.6353 8.79065 28.5785 8.57315 28.5322C8.39726 28.4947 8.16335 28.444 8.00903 28.3925L8.96144 25.5353C8.94111 25.5285 8.94162 25.5286 8.97537 25.5365C9.01032 25.5446 9.08093 25.561 9.20086 25.5865C9.39513 25.6279 9.65839 25.6811 9.97792 25.7439C10.6157 25.8692 11.4549 26.0282 12.3672 26.199C13.088 26.334 13.8551 26.4766 14.6008 26.6151L14.6076 26.6164C15.1403 26.7154 15.6619 26.8123 16.1477 26.9029L17.1734 21.7744L17.184 21.7765L18.2853 14.9039L15.6382 15.9439V20.7529H12.6264V13.8912L18.8523 11.4453Z"/>
</svg>
