<svg width="40" height="40" viewBox="0 0 40 40" xmlns="http://www.w3.org/2000/svg">
<path fill-rule="evenodd" clip-rule="evenodd" d="M26.6999 28.4678C24.7292 30.052 22.2253 31 19.5 31C13.1487 31 8 25.8513 8 19.5C8 13.1487 13.1487 8 19.5 8C25.8513 8 31 13.1487 31 19.5C31 22.2254 30.052 24.7293 28.4677 26.7L33.8839 32.1162L32.1161 33.884L26.6999 28.4678ZM15.7877 14.0199L14.0199 15.7877L17.7322 19.5L14.0199 23.2123L15.7877 24.9801L19.5 21.2678L23.2123 24.9801L24.9801 23.2123L21.2678 19.5L24.9801 15.7877L23.2123 14.0199L19.5 17.7322L15.7877 14.0199Z"/>
</svg>
