<svg width="40" height="40" viewBox="0 0 40 40" xmlns="http://www.w3.org/2000/svg">
<path fill-rule="evenodd" clip-rule="evenodd" d="M31 19.5C31 22.2254 30.052 24.7293 28.4677 26.7L33.8839 32.1162L32.1161 33.884L26.6999 28.4678C24.7292 30.052 22.2253 31 19.5 31C13.1487 31 8 25.8513 8 19.5C8 13.1487 13.1487 8 19.5 8C25.8513 8 31 13.1487 31 19.5ZM19.5 15.9834C19.9111 15.9834 20.2611 15.8398 20.55 15.5525C20.85 15.2541 21 14.9006 21 14.4917C21 14.0829 20.85 13.7348 20.55 13.4475C20.2611 13.1492 19.9111 13 19.5 13C19.0889 13 18.7333 13.1492 18.4333 13.4475C18.1444 13.7348 18 14.0829 18 14.4917C18 14.9006 18.1444 15.2541 18.4333 15.5525C18.7333 15.8398 19.0889 15.9834 19.5 15.9834ZM18.25 16.7127V25H20.75V16.7127H18.25Z"/>
</svg>
