<svg width="40" height="40" viewBox="0 0 40 40" xmlns="http://www.w3.org/2000/svg">
<path d="M20 16C18.35 16 17 17.35 17 19C17 20.65 18.35 22 20 22C21.65 22 23 20.65 23 19C23 17.35 21.65 16 20 16ZM29 19C29 14.035 24.965 10 20 10C15.035 10 11 14.035 11 19C11 22.33 12.815 25.225 15.5 26.785L17 24.175C15.215 23.125 14 21.22 14 19C14 15.685 16.685 13 20 13C23.315 13 26 15.685 26 19C26 21.22 24.785 23.125 23 24.175L24.5 26.785C27.185 25.225 29 22.33 29 19ZM20 4C11.72 4 5 10.72 5 19C5 24.55 8.015 29.38 12.485 31.975L13.985 29.38C10.415 27.295 8 23.44 8 19C8 12.37 13.37 7 20 7C26.63 7 32 12.37 32 19C32 23.44 29.585 27.295 26 29.38L27.5 31.975C31.985 29.38 35 24.55 35 19C35 10.72 28.28 4 20 4Z"/>
<path d="M17.6 22.3501H22.4V30.7501H17.6V22.3501Z"/>
<path d="M18.7999 30.75H21.1999V36.75H18.7999V30.75Z"/>
</svg>
