<svg width="40" height="40" viewBox="0 0 40 40" xmlns="http://www.w3.org/2000/svg">
<path fill-rule="evenodd" clip-rule="evenodd" d="M11 13H6V35H17.5V19.5H20.5C20.5 16.5539 22.32 14.0329 24.8969 13H21V9C21 6.23858 18.7614 4 16 4C13.2386 4 11 6.23858 11 9V13ZM18.5 13V9C18.5 7.61929 17.3807 6.5 16 6.5C14.6193 6.5 13.5 7.61929 13.5 9V13H18.5Z"/>
<path fill-rule="evenodd" clip-rule="evenodd" d="M20 22H23V19.5C23 17.0147 25.0147 15 27.5 15C29.9853 15 32 17.0147 32 19.5V22H35V35H20V22ZM29.5 19.5V22H25.5V19.5C25.5 18.3954 26.3954 17.5 27.5 17.5C28.6046 17.5 29.5 18.3954 29.5 19.5Z"/>
</svg>
