<svg width="40" height="40" viewBox="0 0 40 40" xmlns="http://www.w3.org/2000/svg">
<path d="M23.8578 21.7067C23.8578 23.36 22.5867 24.5867 20.0356 24.5867C17.3333 24.5867 16.1511 23.2711 16.1511 22.2844C16.1511 21.7778 16.5244 21.4222 17.04 21.4222C17.5245 21.4222 17.7519 21.7158 18.0146 22.0548C18.3736 22.5182 18.7984 23.0667 20.0356 23.0667C21.1289 23.0667 21.7333 22.4711 21.7333 21.8667C21.7333 21.4933 21.5556 21.0933 20.8356 20.9156L18.4444 20.3111C16.5244 19.8311 16.1778 18.7911 16.1778 17.8133C16.1778 15.7867 18.0889 15.0222 19.8756 15.0222C21.5289 15.0222 23.4756 15.9378 23.4756 17.1556C23.4756 17.68 23.0311 17.9822 22.5156 17.9822C22.1074 17.9822 21.9 17.7495 21.6569 17.4766C21.3122 17.0898 20.8956 16.6222 19.7333 16.6222C18.7556 16.6222 18.2222 17.0667 18.2222 17.7067C18.2222 18.3378 18.9867 18.5422 19.6622 18.6933L21.4311 19.0844C23.36 19.52 23.8578 20.6489 23.8578 21.7067Z"/>
<path fill-rule="evenodd" clip-rule="evenodd" d="M20 35C28.2843 35 35 28.2843 35 20C35 11.7157 28.2843 5 20 5C11.7157 5 5 11.7157 5 20C5 28.2843 11.7157 35 20 35ZM27.4311 21.3778C27.8667 19.0133 27.1733 16.48 25.3333 14.6667C23.52 12.8267 20.9867 12.1333 18.6222 12.5689C17.9822 12.2044 17.2356 12 16.4444 12C15.2657 12 14.1352 12.4683 13.3017 13.3017C12.4683 14.1352 12 15.2657 12 16.4444C12 17.2356 12.2044 17.9822 12.5689 18.6222C12.1333 20.9867 12.8267 23.52 14.6667 25.3333C16.48 27.1733 19.0133 27.8667 21.3778 27.4311C22.0178 27.7956 22.7644 28 23.5556 28C24.7343 28 25.8648 27.5317 26.6983 26.6983C27.5317 25.8648 28 24.7343 28 23.5556C28 22.7644 27.7956 22.0178 27.4311 21.3778Z"/>
</svg>
