<svg width="40" height="40" viewBox="0 0 40 40" xmlns="http://www.w3.org/2000/svg">
<path d="M28.6667 11.3333C31.6567 14.28 32.7833 18.3967 32.0756 22.2389C32.6678 23.2789 33 24.4922 33 25.7778C33 27.6932 32.2391 29.5302 30.8847 30.8847C29.5302 32.2391 27.6932 33 25.7778 33C24.4922 33 23.2789 32.6678 22.2389 32.0756C18.3967 32.7833 14.28 31.6567 11.3333 28.6667C8.34333 25.72 7.21667 21.6033 7.92444 17.7611C7.33222 16.7211 7 15.5078 7 14.2222C7 12.3068 7.76091 10.4698 9.11534 9.11534C10.4698 7.76091 12.3068 7 14.2222 7C15.5078 7 16.7211 7.33222 17.7611 7.92444C21.6033 7.21667 25.72 8.34333 28.6667 11.3333ZM20.0578 27.4533C24.2033 27.4533 26.2689 25.46 26.2689 22.7733C26.2689 21.0544 25.46 19.22 22.3256 18.5122L19.4511 17.8767C18.3533 17.6311 17.1111 17.2989 17.1111 16.2733C17.1111 15.2333 17.9778 14.5111 19.5667 14.5111C22.7878 14.5111 22.4844 16.7211 24.0878 16.7211C24.9256 16.7211 25.6478 16.23 25.6478 15.3778C25.6478 13.3989 22.4844 11.9111 19.7978 11.9111C16.8944 11.9111 13.7889 13.1533 13.7889 16.4467C13.7889 18.0356 14.3522 19.7256 17.4722 20.5056L21.3578 21.4878C22.5278 21.7767 22.8167 22.4267 22.8167 23.0333C22.8167 24.0156 21.8344 24.9833 20.0578 24.9833C16.5767 24.9833 17.0533 22.3111 15.19 22.3111C14.3522 22.3111 13.7456 22.8889 13.7456 23.7122C13.7456 25.3156 15.6667 27.4533 20.0578 27.4533Z"/>
</svg>
