<svg width="40" height="40" viewBox="0 0 40 40" xmlns="http://www.w3.org/2000/svg">
<path fill-rule="evenodd" clip-rule="evenodd" d="M6 11H34V29H12L6 34V11ZM14.2315 23C13.6689 23 13.1955 22.8736 12.8114 22.6209C12.4274 22.3626 12.1569 22.0137 12 21.5742L12.9575 21.0055C13.1793 21.5934 13.6148 21.8874 14.2639 21.8874C14.5777 21.8874 14.8076 21.8297 14.9536 21.7143C15.0997 21.5989 15.1727 21.4533 15.1727 21.2775C15.1727 21.0742 15.0835 20.9176 14.9049 20.8077C14.7264 20.6923 14.4073 20.5687 13.9474 20.4368C13.6932 20.3599 13.4768 20.283 13.2983 20.206C13.1252 20.1291 12.9494 20.0275 12.7709 19.9011C12.5978 19.7692 12.4652 19.6044 12.3733 19.4066C12.2813 19.2088 12.2353 18.978 12.2353 18.7143C12.2353 18.1923 12.4165 17.7775 12.779 17.4698C13.1468 17.1566 13.5877 17 14.1016 17C14.5614 17 14.9644 17.1154 15.3107 17.3462C15.6623 17.5714 15.9355 17.8874 16.1302 18.294L15.1889 18.8462C14.9617 18.3516 14.5993 18.1044 14.1016 18.1044C13.869 18.1044 13.6851 18.1593 13.5498 18.2692C13.42 18.3736 13.3551 18.511 13.3551 18.6813C13.3551 18.8626 13.4281 19.011 13.5742 19.1264C13.7257 19.2363 14.0124 19.3571 14.4343 19.489C14.6074 19.544 14.7372 19.5879 14.8238 19.6209C14.9158 19.6484 15.0375 19.6951 15.1889 19.761C15.3458 19.8214 15.4648 19.8791 15.546 19.9341C15.6325 19.989 15.7299 20.0632 15.8381 20.1566C15.9463 20.25 16.0274 20.3462 16.0815 20.4451C16.141 20.544 16.1897 20.6648 16.2276 20.8077C16.2709 20.9451 16.2925 21.0962 16.2925 21.261C16.2925 21.794 16.1005 22.217 15.7164 22.5302C15.3377 22.8434 14.8427 23 14.2315 23ZM22.785 17.1154V22.8846H21.6733V19.1429L20.0748 21.8214H19.945L18.3464 19.1511V22.8846H17.2267V17.1154H18.3789L20.0099 19.8434L21.6328 17.1154H22.785ZM24.5189 22.6209C24.903 22.8736 25.3764 23 25.939 23C26.5502 23 27.0452 22.8434 27.4239 22.5302C27.808 22.217 28 21.794 28 21.261C28 21.0962 27.9784 20.9451 27.9351 20.8077C27.8972 20.6648 27.8485 20.544 27.789 20.4451C27.7349 20.3462 27.6538 20.25 27.5456 20.1566C27.4374 20.0632 27.34 19.989 27.2535 19.9341C27.1723 19.8791 27.0533 19.8214 26.8964 19.761C26.745 19.6951 26.6233 19.6484 26.5313 19.6209C26.4447 19.5879 26.3149 19.544 26.1418 19.489C25.7199 19.3571 25.4332 19.2363 25.2817 19.1264C25.1356 19.011 25.0626 18.8626 25.0626 18.6813C25.0626 18.511 25.1275 18.3736 25.2573 18.2692C25.3926 18.1593 25.5765 18.1044 25.8091 18.1044C26.3068 18.1044 26.6692 18.3516 26.8964 18.8462L27.8377 18.294C27.643 17.8874 27.3698 17.5714 27.0182 17.3462C26.672 17.1154 26.2689 17 25.8091 17C25.2952 17 24.8543 17.1566 24.4865 17.4698C24.124 17.7775 23.9428 18.1923 23.9428 18.7143C23.9428 18.978 23.9888 19.2088 24.0808 19.4066C24.1727 19.6044 24.3053 19.7692 24.4784 19.9011C24.6569 20.0275 24.8327 20.1291 25.0058 20.206C25.1843 20.283 25.4007 20.3599 25.655 20.4368C26.1148 20.5687 26.4339 20.6923 26.6124 20.8077C26.791 20.9176 26.8802 21.0742 26.8802 21.2775C26.8802 21.4533 26.8072 21.5989 26.6611 21.7143C26.5151 21.8297 26.2852 21.8874 25.9714 21.8874C25.3223 21.8874 24.8868 21.5934 24.665 21.0055L23.7075 21.5742C23.8644 22.0137 24.1349 22.3626 24.5189 22.6209Z"/>
</svg>
