<svg width="40" height="40" viewBox="0 0 40 40" xmlns="http://www.w3.org/2000/svg">
<path d="M22 7L14 14H5V26H14L22 33V7Z"/>
<path d="M24.0564 33C30.0638 31.7269 34.5715 26.3931 34.5715 20.0064C34.5715 13.6197 30.0638 8.28589 24.0564 7.01282V9.85919C28.5213 11.0739 31.8044 15.1567 31.8044 20.0064C31.8044 24.8561 28.5213 28.9389 24.0564 30.1536V33Z"/>
<path d="M24.0564 27.2457C26.9689 26.1317 29.0373 23.3106 29.0373 20.0064C29.0373 16.7023 26.9689 13.8812 24.0564 12.7672V15.8643C25.3913 16.7578 26.2701 18.2795 26.2701 20.0064C26.2701 21.7334 25.3913 23.255 24.0564 24.1485V27.2457Z"/>
</svg>
