<svg width="40" height="40" viewBox="0 0 40 40" xmlns="http://www.w3.org/2000/svg">
<path d="M34.1471 34.9136L35.8529 33.0859L5.85289 5.08594L4.14709 6.91358L34.1471 34.9136Z"/>
<path d="M5 14H8.07545L22 26.9962V33L14 26H5V14Z"/>
<path d="M24.0564 30.1536C24.391 30.0626 24.719 29.9554 25.0394 29.8331L27.2381 31.8852C26.2426 32.3847 25.1755 32.7628 24.0564 33V30.1536Z"/>
<path d="M34.5715 20.0064C34.5715 22.4697 33.9009 24.7764 32.7323 26.754L30.6468 24.8075C31.3867 23.3682 31.8044 21.7361 31.8044 20.0064C31.8044 15.1567 28.5213 11.0739 24.0564 9.85919V7.01282C30.0638 8.28589 34.5715 13.6197 34.5715 20.0064Z"/>
<path d="M29.0373 20.0064C29.0373 20.9972 28.8513 21.9445 28.5124 22.8153L26.2249 20.6804C26.2547 20.46 26.2701 20.235 26.2701 20.0064C26.2701 18.2795 25.3913 16.7578 24.0564 15.8643V12.7672C26.9689 13.8812 29.0373 16.7023 29.0373 20.0064Z"/>
<path d="M22 7V16.7371L16.6154 11.7115L22 7Z"/>
</svg>
