<svg width="40" height="40" viewBox="0 0 40 40" xmlns="http://www.w3.org/2000/svg">
<path d="M24.6154 24.5714V26.8571H26.9231V24.5714H24.6154ZM11.2031 4.25143L5.43385 8.82286C5.05077 9.12457 5 9.64571 5 10.1029V14.2857C5 15.5726 5.42923 16.7589 6.15385 17.7143V34.8571C6.15385 35.1602 6.27541 35.4509 6.4918 35.6653C6.70819 35.8796 7.00167 36 7.30769 36H10.7692V23.4286C10.7692 23.1255 10.8908 22.8348 11.1072 22.6204C11.3236 22.4061 11.6171 22.2857 11.9231 22.2857H18.8462C19.1522 22.2857 19.4457 22.4061 19.662 22.6204C19.8784 22.8348 20 23.1255 20 23.4286V36H32.6923C32.9983 36 33.2918 35.8796 33.5082 35.6653C33.7246 35.4509 33.8462 35.1602 33.8462 34.8571V17.7143C34.5708 16.7589 35 15.5726 35 14.2857V10.0937C35 9.63657 34.9492 9.12457 34.5662 8.82286L28.7969 4.25143C28.5927 4.08913 28.3388 4.00046 28.0769 4H11.9231C11.6612 4.00046 11.4073 4.08913 11.2031 4.25143ZM7.30769 14.2857V10.8571H14.2308V14.2857C14.2308 15.195 13.8661 16.0671 13.2169 16.7101C12.5677 17.3531 11.6873 17.7143 10.7692 17.7143C9.85117 17.7143 8.97072 17.3531 8.32155 16.7101C7.67239 16.0671 7.30769 15.195 7.30769 14.2857ZM16.5385 14.2857V10.8571H23.4615V14.2857C23.4615 15.195 23.0968 16.0671 22.4477 16.7101C21.7985 17.3531 20.9181 17.7143 20 17.7143C19.0819 17.7143 18.2015 17.3531 17.5523 16.7101C16.9032 16.0671 16.5385 15.195 16.5385 14.2857ZM25.7692 14.2857V10.8571H32.6923V14.2857C32.6923 15.195 32.3276 16.0671 31.6784 16.7101C31.0293 17.3531 30.1488 17.7143 29.2308 17.7143C28.3127 17.7143 27.4323 17.3531 26.7831 16.7101C26.1339 16.0671 25.7692 15.195 25.7692 14.2857ZM9.44231 8.57143L12.3269 6.28571H15.4538L14.5885 8.57143H9.44231ZM17.0508 8.57143L17.9162 6.28571H22.0538L22.8223 8.57143H17.0508ZM24.4862 6.28571H27.6708L30.5554 8.57143H25.2546L24.4862 6.28571ZM22.3077 23.4286C22.3077 23.1255 22.4293 22.8348 22.6456 22.6204C22.862 22.4061 23.1555 22.2857 23.4615 22.2857H28.0769C28.3829 22.2857 28.6764 22.4061 28.8928 22.6204C29.1092 22.8348 29.2308 23.1255 29.2308 23.4286V28C29.2308 28.3031 29.1092 28.5938 28.8928 28.8081C28.6764 29.0225 28.3829 29.1429 28.0769 29.1429H23.4615C23.1555 29.1429 22.862 29.0225 22.6456 28.8081C22.4293 28.5938 22.3077 28.3031 22.3077 28V23.4286ZM13.0769 36H17.6923V24.5714H13.0769V36Z"/>
</svg>
