<svg width="40" height="40" viewBox="0 0 40 40" xmlns="http://www.w3.org/2000/svg">
<path d="M3.5 3H27.875V14.5557C27.4841 14.5188 27.088 14.5 26.6875 14.5C26.2977 14.5 25.912 14.5178 25.5312 14.5528V5.34375H5.84375V28.7812H14.3134C14.4086 29.4484 14.5565 30.0985 14.7527 30.7273C14.7645 30.8854 14.8155 31.0325 14.8961 31.159C15.1215 31.7981 15.3974 32.4133 15.719 33H3.5V3Z"/>
<path d="M26.6653 28.7515C27.5215 28.7515 28.2156 28.0574 28.2156 27.2012C28.2156 26.345 27.5215 25.6509 26.6653 25.6509C25.8091 25.6509 25.115 26.345 25.115 27.2012C25.115 28.0574 25.8091 28.7515 26.6653 28.7515Z"/>
<path fill-rule="evenodd" clip-rule="evenodd" d="M36.6875 27C36.6875 32.5228 32.2103 37 26.6875 37C21.1647 37 16.6875 32.5228 16.6875 27C16.6875 21.4772 21.1647 17 26.6875 17C32.2103 17 36.6875 21.4772 36.6875 27ZM25.115 21H28.2156V23.2285C28.5634 23.3644 28.8891 23.5446 29.1855 23.7622L31.0927 22.6611L32.643 25.3463L30.8499 26.3816C30.9016 26.6468 30.9286 26.9209 30.9286 27.2012C30.9286 27.3577 30.9202 27.5123 30.9038 27.6644L32.643 28.6686L31.0927 31.3538L29.4667 30.415C29.0996 30.7353 28.6772 30.9937 28.2156 31.1739V33.0149H25.115V31.1739C24.6534 30.9937 24.2309 30.7353 23.8638 30.415L22.2378 31.3538L20.6875 28.6686L22.4268 27.6644C22.4104 27.5123 22.4019 27.3577 22.4019 27.2012C22.4019 26.9209 22.429 26.6468 22.4806 26.3816L20.6875 25.3463L22.2378 22.6611L24.145 23.7622C24.4415 23.5446 24.7671 23.3644 25.115 23.2285V21Z"/>
</svg>
