<svg width="40" height="40" viewBox="0 0 40 40" xmlns="http://www.w3.org/2000/svg">
<path d="M3.5 3H27.875V14.5557C27.4841 14.5188 27.088 14.5 26.6875 14.5C26.2977 14.5 25.912 14.5178 25.5312 14.5528V5.34375H5.84375V28.7812H14.3134C14.4086 29.4484 14.5565 30.0985 14.7527 30.7273C14.7645 30.8854 14.8155 31.0325 14.8961 31.159C15.1215 31.7981 15.3974 32.4133 15.719 33H3.5V3Z"/>
<path d="M28.1601 25.8987V24.9651C28.1601 24.1445 27.4949 23.4792 26.6742 23.4792C25.8536 23.4792 25.1883 24.1445 25.1883 24.9651V25.8987H28.1601Z"/>
<path d="M26.0519 28.077H27.2966V29.3217H26.0519V28.077Z"/>
<path fill-rule="evenodd" clip-rule="evenodd" d="M36.69 27C36.69 32.5228 32.2128 37 26.69 37C21.1672 37 16.69 32.5228 16.69 27C16.69 21.4772 21.1672 17 26.69 17C32.2128 17 36.69 21.4772 36.69 27ZM23.9591 24.9651C23.9591 23.4656 25.1747 22.25 26.6742 22.25C28.1737 22.25 29.3893 23.4656 29.3893 24.9651V25.8987H30.4085V31.5H22.94V25.8987H23.9591V24.9651Z"/>
</svg>
