<svg width="40" height="40" viewBox="0 0 40 40" xmlns="http://www.w3.org/2000/svg">
<path d="M3.5 3H27.875V14.5557C27.4841 14.5188 27.088 14.5 26.6875 14.5C26.2977 14.5 25.912 14.5178 25.5312 14.5528V5.34375H5.84375V28.7812H14.3134C14.4086 29.4484 14.5565 30.0985 14.7527 30.7273C14.7645 30.8854 14.8155 31.0325 14.8961 31.159C15.1215 31.7981 15.3974 32.4133 15.719 33H3.5V3Z"/>
<path d="M25.4651 27.9475H26.5751V29.0575H25.4651V27.9475Z"/>
<path fill-rule="evenodd" clip-rule="evenodd" d="M36.69 27C36.69 32.5228 32.2128 37 26.69 37C21.1672 37 16.69 32.5228 16.69 27C16.69 21.4772 21.1672 17 26.69 17C32.2128 17 36.69 21.4772 36.69 27ZM30.8832 26.0049V25.1724C30.8832 24.5556 30.3832 24.0556 29.7664 24.0556C29.1495 24.0556 28.6495 24.5556 28.6495 25.1724V26.0049H29.3501V31H22.69V26.0049H27.1369V25.1724C27.1369 23.7202 28.3142 22.543 29.7664 22.543C31.2186 22.543 32.3958 23.7202 32.3958 25.1724V26.0049H31.9864H30.8832Z"/>
</svg>
