<svg width="40" height="40" viewBox="0 0 40 40" xmlns="http://www.w3.org/2000/svg">
<path d="M6.88389 5.11621L5.11612 6.88398L33.1161 34.884L34.8839 33.1162L6.88389 5.11621Z"/>
<path d="M3 20C3 16.6633 3.9613 13.5512 5.62205 10.9254L11.5612 16.8645C11.3665 17.3884 11.2192 17.9353 11.1244 18.5H6V21.5H11.1244C11.7567 25.2688 14.7312 28.2433 18.5 28.8756V34H21.5V28.8756C22.0647 28.7808 22.6116 28.6335 23.1355 28.4388L29.0746 34.378C26.4488 36.0387 23.3367 37 20 37C10.6112 37 3 29.3888 3 20Z"/>
<path d="M13.5 20C13.5 19.6239 13.5319 19.2552 13.5933 18.8966L21.1034 26.4067C20.7448 26.4681 20.3761 26.5 20 26.5C16.4101 26.5 13.5 23.5899 13.5 20Z"/>
<path d="M34.378 29.0746L28.4388 23.1355C28.6335 22.6116 28.7808 22.0647 28.8756 21.5H34V18.5H28.8756C28.2433 14.7312 25.2688 11.7567 21.5 11.1244V6H18.5V11.1244C17.9353 11.2192 17.3884 11.3665 16.8645 11.5612L10.9254 5.62205C13.5512 3.9613 16.6633 3 20 3C29.3888 3 37 10.6112 37 20C37 23.3367 36.0387 26.4488 34.378 29.0746Z"/>
<path d="M20 13.5C19.6239 13.5 19.2552 13.5319 18.8966 13.5933L26.4067 21.1034C26.4681 20.7448 26.5 20.3761 26.5 20C26.5 16.4101 23.5899 13.5 20 13.5Z"/>
</svg>
