<svg width="40" height="40" viewBox="0 0 40 40" xmlns="http://www.w3.org/2000/svg">
<path d="M26.5 20C26.5 23.5899 23.5899 26.5 20 26.5C16.4101 26.5 13.5 23.5899 13.5 20C13.5 16.4101 16.4101 13.5 20 13.5C23.5899 13.5 26.5 16.4101 26.5 20Z"/>
<path fill-rule="evenodd" clip-rule="evenodd" d="M20 37C29.3888 37 37 29.3888 37 20C37 10.6112 29.3888 3 20 3C10.6112 3 3 10.6112 3 20C3 29.3888 10.6112 37 20 37ZM21.5 6H18.5V11.1244C14.7312 11.7567 11.7567 14.7312 11.1244 18.5H6V21.5H11.1244C11.7567 25.2688 14.7312 28.2433 18.5 28.8756V34H21.5V28.8756C25.2688 28.2433 28.2433 25.2688 28.8756 21.5H34V18.5H28.8756C28.2433 14.7312 25.2688 11.7567 21.5 11.1244V6Z"/>
</svg>
