<svg width="40" height="40" viewBox="0 0 40 40" xmlns="http://www.w3.org/2000/svg">
<path fill-rule="evenodd" clip-rule="evenodd" d="M20 26.5C23.5899 26.5 26.5 23.5899 26.5 20C26.5 16.4101 23.5899 13.5 20 13.5C16.4101 13.5 13.5 16.4101 13.5 20C13.5 23.5899 16.4101 26.5 20 26.5ZM19.1022 21.0004H20.7022C20.7022 20.7209 20.9646 20.4792 21.2768 20.1916C21.7356 19.7689 22.3022 19.247 22.3022 18.3604C22.3022 17.0604 21.1622 16.3604 20.0222 16.3604C18.9122 16.3604 17.9422 16.9404 17.5022 17.9704L18.8822 18.7604C19.0822 18.2904 19.4122 17.9204 19.9622 17.9204C20.4722 17.9204 20.7022 18.1504 20.7022 18.5004C20.7022 18.9091 20.357 19.225 19.9874 19.5635C19.5611 19.9537 19.1022 20.3738 19.1022 21.0004ZM19.9022 23.6404C20.4222 23.6404 20.8522 23.2104 20.8522 22.6904C20.8522 22.1704 20.4222 21.7404 19.9022 21.7404C19.3822 21.7404 18.9522 22.1704 18.9522 22.6904C18.9522 23.2104 19.3822 23.6404 19.9022 23.6404Z"/>
<path fill-rule="evenodd" clip-rule="evenodd" d="M20 37C29.3888 37 37 29.3888 37 20C37 10.6112 29.3888 3 20 3C10.6112 3 3 10.6112 3 20C3 29.3888 10.6112 37 20 37ZM21.5 6H18.5V11.1244C14.7312 11.7567 11.7567 14.7312 11.1244 18.5H6V21.5H11.1244C11.7567 25.2688 14.7312 28.2433 18.5 28.8756V34H21.5V28.8756C25.2688 28.2433 28.2433 25.2688 28.8756 21.5H34V18.5H28.8756C28.2433 14.7312 25.2688 11.7567 21.5 11.1244V6Z"/>
</svg>
