<svg width="40" height="40" viewBox="0 0 40 40" xmlns="http://www.w3.org/2000/svg">
<path fill-rule="evenodd" clip-rule="evenodd" d="M20 35C28.2843 35 35 28.2843 35 20C35 11.7157 28.2843 5 20 5C11.7157 5 5 11.7157 5 20C5 28.2843 11.7157 35 20 35ZM16.876 22.5776L16.643 26.2135C16.9842 26.2135 17.1423 26.0502 17.3338 25.8525L18.9899 24.1936L22.4354 26.8238C23.0679 27.1848 23.5257 26.9957 23.6838 26.2135L25.9475 15.2026C26.1805 14.2399 25.5979 13.8015 24.9904 14.0851L11.6995 19.38C10.7923 19.7582 10.8007 20.2826 11.533 20.4974L14.9452 21.6149L22.8349 16.4661C23.2094 16.234 23.5506 16.363 23.2677 16.6294L16.876 22.5776Z"/>
</svg>
