<svg width="40" height="40" viewBox="0 0 40 40" xmlns="http://www.w3.org/2000/svg">
<path fill-rule="evenodd" clip-rule="evenodd" d="M29.5346 5.17807C23.9212 4.18828 19.849 5.39955 19.4091 7.8944L19.0726 9.80292L19.1348 9.81994C19.9325 10.0406 20.7499 10.3705 21.4867 10.8332L26.4537 11.709C26.2328 12.9616 25.1269 13.8358 23.8924 13.8019C23.9587 14.0121 24.0126 14.2315 24.0529 14.4602L24.9774 19.7028C25.5899 19.6405 26.2636 19.6635 26.9588 19.7861C29.3701 20.2113 31.1278 21.6729 30.8849 23.0508L25.3971 22.0831L26.0325 25.687C26.1893 26.5761 26.0671 27.4838 25.832 28.3083C30.1528 28.7985 35.7131 24.8462 36.1409 22.4205L38.1204 11.1937C38.5604 8.69886 35.148 6.16787 29.5346 5.17807ZM30.196 12.3688L35.1857 13.2487C34.9427 14.6265 33.6288 15.5465 32.2509 15.3036C30.8731 15.0606 29.953 13.7467 30.196 12.3688Z"/>
<path fill-rule="evenodd" clip-rule="evenodd" d="M23.6012 26.6141C23.5074 29.314 19.6339 34.5325 15.5346 35.2553C11.1686 36.0251 5.29909 31.9153 4.85918 29.4204L2.87959 18.1936C2.43968 15.6988 5.85202 13.1678 11.4654 12.178C16.925 11.2153 20.9266 12.3347 21.5466 14.6921L23.6012 26.6141ZM8.30919 19.8086C6.93132 20.0516 6.0113 21.3655 6.25425 22.7434L11.2439 21.8636C11.001 20.4857 9.68706 19.5657 8.30919 19.8086ZM17.0412 18.269C18.419 18.026 19.733 18.946 19.9759 20.3239L14.9862 21.2037C14.7433 19.8259 15.6633 18.5119 17.0412 18.269ZM14.6548 30.2656C17.066 29.8404 18.8238 28.3788 18.5808 27.0009L9.84887 28.5406C10.0918 29.9185 12.2435 30.6908 14.6548 30.2656Z"/>
</svg>
