<svg width="40" height="40" viewBox="0 0 40 40" xmlns="http://www.w3.org/2000/svg">
<path d="M20 4H28V7H20V4Z"/>
<path fill-rule="evenodd" clip-rule="evenodd" d="M36 20C36 26.6274 30.6274 32 24 32C17.3726 32 12 26.6274 12 20C12 13.3726 17.3726 8 24 8C27.2701 8 30.2346 9.30801 32.3991 11.4294L34.8284 9L36.9498 11.1213L34.2743 13.7967C35.3696 15.6069 36 17.7298 36 20ZM25.25 13H22.75V20.7156L22.7464 20.7226L22.7123 21.3511L29.3 25.1651L30.55 23L25.25 19.94V13Z"/>
<path d="M11.5878 27.5C11.111 26.7126 10.707 25.8761 10.3851 25H3V27.5H11.5878Z"/>
<path d="M9.5 20C9.5 19.6639 9.51144 19.3304 9.53394 19H5V21.5H9.57665C9.52597 21.0069 9.5 20.5065 9.5 20Z"/>
<path d="M10.2118 15.5C10.4964 14.6274 10.8616 13.7911 11.2985 13H7V15.5H10.2118Z"/>
</svg>
