<svg width="40" height="40" viewBox="0 0 40 40" xmlns="http://www.w3.org/2000/svg">
<path d="M3.11612 4.88398L35.1161 36.884L36.8839 35.1162L4.88389 3.11621L3.11612 4.88398Z"/>
<path d="M6 22C6 18.9773 6.95795 16.1783 8.58682 13.8901L28.1099 33.4132C25.8217 35.042 23.0227 36 20 36C12.268 36 6 29.732 6 22Z"/>
<path d="M34 22C34 23.9727 33.592 25.8501 32.8558 27.5524L21.25 15.9467V13H18.75V13.4467L14.4476 9.14424C16.1499 8.40801 18.0273 8 20 8C23.3128 8 26.3569 9.15065 28.7543 11.0741L30.8284 9L32.9498 11.1213L30.881 13.19C32.8314 15.5959 34 18.6615 34 22Z"/>
<path d="M24 4H16V7H24V4Z"/>
</svg>
