<svg width="40" height="40" viewBox="0 0 40 40" xmlns="http://www.w3.org/2000/svg">
<path fill-rule="evenodd" clip-rule="evenodd" d="M20 34C27.732 34 34 27.732 34 20C34 12.268 27.732 6 20 6C12.268 6 6 12.268 6 20C6 27.732 12.268 34 20 34ZM14.25 18C14.25 17.6594 14.3437 17.1483 14.5719 16.7681C14.7608 16.4532 15.0114 16.25 15.5 16.25C15.9886 16.25 16.2392 16.4532 16.4281 16.7681C16.6563 17.1483 16.75 17.6594 16.75 18H19.25C19.25 17.3406 19.0937 16.3517 18.5719 15.4819C18.0108 14.5468 17.0114 13.75 15.5 13.75C13.9886 13.75 12.9892 14.5468 12.4281 15.4819C11.9063 16.3517 11.75 17.3406 11.75 18H14.25ZM23.5719 16.7681C23.3437 17.1483 23.25 17.6594 23.25 18H20.75C20.75 17.3406 20.9063 16.3517 21.4281 15.4819C21.9892 14.5468 22.9886 13.75 24.5 13.75C26.0114 13.75 27.0108 14.5468 27.5719 15.4819C28.0937 16.3517 28.25 17.3406 28.25 18H25.75C25.75 17.6594 25.6563 17.1483 25.4281 16.7681C25.2392 16.4532 24.9886 16.25 24.5 16.25C24.0114 16.25 23.7608 16.4532 23.5719 16.7681ZM27 24.25H26.9933C26.8804 26.3427 25.3595 28 23.5 28C21.6405 28 20.1196 26.3427 20.0067 24.25H13V21.75H27V24.25Z"/>
</svg>
