<svg width="40" height="40" viewBox="0 0 40 40" xmlns="http://www.w3.org/2000/svg">
<path d="M31 14C33.2091 14 35 12.2091 35 10C35 7.79086 33.2091 6 31 6C29.2274 6 27.7241 7.15303 27.1992 8.75H13C9.54822 8.75 6.75 11.5482 6.75 15C6.75 18.4518 9.54822 21.25 13 21.25H16.1992C16.7241 22.847 18.2274 24 20 24C21.7726 24 23.2759 22.847 23.8008 21.25H27C29.0711 21.25 30.75 22.9289 30.75 25C30.75 27.0711 29.0711 28.75 27 28.75H12.8008C12.2759 27.153 10.7726 26 9 26C6.79086 26 5 27.7909 5 30C5 32.2091 6.79086 34 9 34C10.7726 34 12.2759 32.847 12.8008 31.25H27C30.4518 31.25 33.25 28.4518 33.25 25C33.25 21.5482 30.4518 18.75 27 18.75H23.8008C23.2759 17.153 21.7726 16 20 16C18.2274 16 16.7241 17.153 16.1992 18.75H13C10.9289 18.75 9.25 17.0711 9.25 15C9.25 12.9289 10.9289 11.25 13 11.25H27.1992C27.7241 12.847 29.2274 14 31 14Z"/>
</svg>
