<svg width="40" height="40" viewBox="0 0 40 40" xmlns="http://www.w3.org/2000/svg">
<path fill-rule="evenodd" clip-rule="evenodd" d="M34 11H23.5853L26.7175 7.86786L24.9498 6.1001L20.0498 11H18.6677L13.7678 6.10014L12 7.8679L15.1321 11H6V30H34V11ZM26 14H9V27H26V14ZM31.5 15.5C31.5 16.3285 30.8284 17 30 17C29.1716 17 28.5 16.3285 28.5 15.5C28.5 14.6716 29.1716 14 30 14C30.8284 14 31.5 14.6716 31.5 15.5ZM30 22C30.8284 22 31.5 21.3285 31.5 20.5C31.5 19.6716 30.8284 19 30 19C29.1716 19 28.5 19.6716 28.5 20.5C28.5 21.3285 29.1716 22 30 22Z"/>
</svg>
