<svg width="40" height="40" viewBox="0 0 40 40" xmlns="http://www.w3.org/2000/svg">
<path fill-rule="evenodd" clip-rule="evenodd" d="M20 35C28.2843 35 35 28.2843 35 20C35 11.7157 28.2843 5 20 5C11.7157 5 5 11.7157 5 20C5 28.2843 11.7157 35 20 35ZM26.1185 16.2153C26.7763 16.1247 27.4111 15.9353 28 15.6471C27.5564 16.3635 27.0057 16.9894 26.3633 17.4835C26.3709 17.64 26.3709 17.7882 26.3709 17.9447C26.3709 22.6141 23.0593 28 17.0325 28C15.1816 28 13.4532 27.4153 12 26.4106C12.26 26.4435 12.5201 26.46 12.7801 26.46C14.325 26.46 15.74 25.9 16.8566 24.9447C15.4111 24.92 14.2103 23.8824 13.7973 22.4906C13.9962 22.5318 14.2027 22.5565 14.4092 22.5565C14.7075 22.5565 14.9981 22.5153 15.2734 22.4329C13.7744 22.1118 12.6424 20.6788 12.6424 18.9659V18.9412C13.086 19.1882 13.5908 19.3529 14.1338 19.3529C13.2467 18.7353 12.673 17.6482 12.673 16.4212C12.673 15.7788 12.8337 15.1694 13.1166 14.6506C14.7304 16.7835 17.1549 18.1918 19.8776 18.34C19.8241 18.0847 19.7935 17.8129 19.7935 17.5329C19.7935 15.5812 21.262 14 23.0593 14C24.0229 14 24.8719 14.4118 25.4761 15.12C26.218 14.9553 26.9216 14.6671 27.5564 14.2553C27.3117 15.0871 26.7916 15.7788 26.1185 16.2153Z"/>
</svg>
