<svg width="40" height="40" viewBox="0 0 40 40" xmlns="http://www.w3.org/2000/svg">
<path d="M34 11.5882C33.043 12.0412 32.0115 12.3388 30.9426 12.4812C32.0363 11.7953 32.8815 10.7082 33.2792 9.40118C32.2476 10.0482 31.1042 10.5012 29.8987 10.76C28.9168 9.64706 27.5373 9 25.9713 9C23.0507 9 20.6644 11.4847 20.6644 14.5518C20.6644 14.9918 20.7142 15.4188 20.8011 15.82C16.3767 15.5871 12.4369 13.3741 9.81453 10.0224C9.35468 10.8376 9.09369 11.7953 9.09369 12.8047C9.09369 14.7329 10.0258 16.4412 11.4675 17.4118C10.5851 17.4118 9.76482 17.1529 9.04398 16.7647C9.04398 16.7647 9.04398 16.7647 9.04398 16.8035C9.04398 19.4953 10.8834 21.7471 13.3193 22.2518C12.8719 22.3812 12.3996 22.4459 11.9149 22.4459C11.5794 22.4459 11.2438 22.4071 10.9207 22.3424C11.5918 24.5294 13.543 26.16 15.892 26.1988C14.0774 27.7 11.7782 28.58 9.26769 28.58C8.84512 28.58 8.42256 28.5541 8 28.5024C10.3614 30.0812 13.1702 31 16.1778 31C25.9713 31 31.3528 22.5365 31.3528 15.1988C31.3528 14.9529 31.3528 14.72 31.3403 14.4741C32.3843 13.6976 33.2792 12.7141 34 11.5882Z"/>
</svg>
