<svg width="40" height="40" viewBox="0 0 40 40" xmlns="http://www.w3.org/2000/svg">
<path d="M28.5753 21.1014C28.155 20.5764 28.2752 20.3429 28.5753 19.8736C28.5807 19.8682 32.0508 15.1261 32.4083 13.5179L32.4105 13.5168C32.5881 12.9307 32.4105 12.5 31.5514 12.5H28.7086C27.9849 12.5 27.6512 12.8696 27.4725 13.2832C27.4725 13.2832 26.0251 16.7096 23.9775 18.9307C23.3166 19.5725 23.0111 19.7782 22.6504 19.7782C22.4727 19.7782 22.1964 19.5725 22.1964 18.9864V13.5168C22.1964 12.8139 21.9939 12.5 21.3947 12.5H16.9248C16.4708 12.5 16.2011 12.8279 16.2011 13.1332C16.2011 13.7996 17.2249 13.9529 17.331 15.8279V19.8961C17.331 20.7875 17.1674 20.9514 16.8045 20.9514C15.8381 20.9514 13.4926 17.5111 12.1027 13.5736C11.8221 12.8096 11.548 12.5011 10.8189 12.5011H7.97503C7.16359 12.5011 7 12.8707 7 13.2843C7 14.015 7.96637 17.6482 11.4938 22.4482C13.8447 25.7246 17.1555 27.5 20.1673 27.5C21.9776 27.5 22.1986 27.1057 22.1986 26.4275C22.1986 23.2968 22.035 23.0011 22.9418 23.0011C23.3622 23.0011 24.0858 23.2068 25.7759 24.7871C27.7076 26.6611 28.025 27.5 29.1062 27.5H31.9489C32.7593 27.5 33.1699 27.1057 32.9337 26.3279C32.3931 24.6918 28.74 21.3264 28.5753 21.1014Z"/>
</svg>
