<svg width="40" height="40" viewBox="0 0 40 40" xmlns="http://www.w3.org/2000/svg">
<path d="M3 3H27V6.5H15.5V21.5H17.2844C16.6386 22.5723 16.1491 23.7495 15.8477 25H3V3Z"/>
<path fill-rule="evenodd" clip-rule="evenodd" d="M19.2635 19C21.517 16.7975 24.6 15.44 28 15.44V9H18V19H19.2635ZM23 14C23 14.8284 22.3284 15.5 21.5 15.5C20.6716 15.5 20 14.8284 20 14C20 13.1716 20.6716 12.5 21.5 12.5C22.3284 12.5 23 13.1716 23 14Z"/>
<path fill-rule="evenodd" clip-rule="evenodd" d="M38 28C38 33.5228 33.5228 38 28 38C22.4772 38 18 33.5228 18 28C18 22.4772 22.4772 18 28 18C33.5228 18 38 22.4772 38 28ZM23.3333 26.75H32.6667V29.25H23.3333V26.75Z"/>
</svg>
