<svg width="40" height="40" viewBox="0 0 40 40" xmlns="http://www.w3.org/2000/svg">
<path fill-rule="evenodd" clip-rule="evenodd" d="M8 5H32V12H8V5ZM12 9C12 8.44772 12.4477 8 13 8H16C16.5523 8 17 8.44772 17 9C17 9.55228 16.5523 10 16 10H13C12.4477 10 12 9.55228 12 9ZM24 10C24.5523 10 25 9.55228 25 9C25 8.44772 24.5523 8 24 8C23.4477 8 23 8.44772 23 9C23 9.55228 23.4477 10 24 10ZM28 9C28 9.55228 27.5523 10 27 10C26.4477 10 26 9.55228 26 9C26 8.44772 26.4477 8 27 8C27.5523 8 28 8.44772 28 9Z"/>
<path d="M25 24C25 24.3409 24.9659 24.6739 24.9009 24.9957C24.7715 24.9836 24.6971 24.9486 24.6446 24.916C24.56 24.8635 24.472 24.7793 24.3307 24.6098C24.3135 24.5891 24.293 24.5639 24.2699 24.5353C24.151 24.3887 23.9599 24.153 23.7524 23.9751C23.4523 23.7179 23.0422 23.5 22.5 23.5C21.9578 23.5 21.5477 23.7179 21.2476 23.9751C21.0401 24.153 20.849 24.3887 20.7301 24.5353C20.707 24.5639 20.6865 24.5891 20.6693 24.6098C20.528 24.7793 20.44 24.8635 20.3554 24.916C20.2907 24.9562 20.1928 25 20 25C19.8072 25 19.7093 24.9562 19.6446 24.916C19.56 24.8635 19.472 24.7793 19.3307 24.6098C19.3135 24.5891 19.293 24.5639 19.2699 24.5353C19.151 24.3887 18.9599 24.153 18.7524 23.9751C18.4523 23.7179 18.0422 23.5 17.5 23.5C16.9578 23.5 16.5477 23.7179 16.2476 23.9751C16.0401 24.153 15.849 24.3887 15.7301 24.5353C15.707 24.5639 15.6865 24.5891 15.6693 24.6098C15.528 24.7793 15.44 24.8635 15.3554 24.916C15.3029 24.9486 15.2285 24.9836 15.0991 24.9957C15.0341 24.6739 15 24.3409 15 24C15 21.2386 17.2386 19 20 19C22.7614 19 25 21.2386 25 24Z"/>
<path d="M23.5898 26.6153C23.7479 26.7134 23.9187 26.7954 24.1031 26.8581C23.1995 28.1529 21.6987 29 20 29C18.3013 29 16.8005 28.1529 15.8969 26.8581C16.0813 26.7954 16.2521 26.7134 16.4102 26.6153C16.7787 26.3865 17.0345 26.0957 17.2057 25.8902C17.2615 25.8233 17.3063 25.7686 17.3437 25.7231C17.4155 25.6355 17.4595 25.5818 17.5 25.5401C17.5405 25.5818 17.5845 25.6355 17.6563 25.7231C17.6937 25.7686 17.7385 25.8233 17.7943 25.8902C17.9655 26.0957 18.2213 26.3865 18.5898 26.6153C18.9782 26.8563 19.4428 27 20 27C20.5572 27 21.0218 26.8563 21.4102 26.6153C21.7787 26.3865 22.0345 26.0957 22.2057 25.8902C22.2615 25.8233 22.3063 25.7686 22.3437 25.7231C22.4155 25.6355 22.4595 25.5818 22.5 25.5401C22.5405 25.5818 22.5845 25.6355 22.6563 25.7231C22.6937 25.7686 22.7385 25.8233 22.7943 25.8902C22.9655 26.0957 23.2213 26.3865 23.5898 26.6153Z"/>
<path fill-rule="evenodd" clip-rule="evenodd" d="M8 14.5H32V35H8V14.5ZM20 31C23.866 31 27 27.866 27 24C27 20.134 23.866 17 20 17C16.134 17 13 20.134 13 24C13 27.866 16.134 31 20 31Z"/>
</svg>
