<svg width="40" height="40" viewBox="0 0 40 40" xmlns="http://www.w3.org/2000/svg">
<path d="M7 4H17V10H7V4Z"/>
<path d="M20 11H4V27H13.5C13.5 26.1438 13.5861 25.3078 13.75 24.5H6.5V13.5H17.5V17.8348C18.253 17.1361 19.0923 16.5291 20 16.0315V11Z"/>
<path d="M7 28H13.5394C13.7145 30.212 14.4654 32.262 15.6423 34H7V28Z"/>
<path d="M24.7751 27.9475H25.8851V29.0575H24.7751V27.9475Z"/>
<path fill-rule="evenodd" clip-rule="evenodd" d="M36 27C36 32.5228 31.5228 37 26 37C20.4772 37 16 32.5228 16 27C16 21.4772 20.4772 17 26 17C31.5228 17 36 21.4772 36 27ZM30.1932 26.0049V25.1724C30.1932 24.5556 29.6932 24.0556 29.0764 24.0556C28.4595 24.0556 27.9595 24.5556 27.9595 25.1724V26.0049H28.6601V31H22V26.0049H26.4469V25.1724C26.4469 23.7202 27.6242 22.543 29.0764 22.543C30.5286 22.543 31.7058 23.7202 31.7058 25.1724V26.0049H31.2964H30.1932Z"/>
</svg>
