<svg width="40" height="40" viewBox="0 0 40 40" xmlns="http://www.w3.org/2000/svg">
<path d="M7 4H17V10H7V4Z"/>
<path d="M20 11H4V27H13.5C13.5 26.1438 13.5861 25.3078 13.75 24.5H6.5V13.5H17.5V17.8348C18.253 17.1361 19.0923 16.5291 20 16.0315V11Z"/>
<path d="M7 28H13.5394C13.7145 30.212 14.4654 32.262 15.6423 34H7V28Z"/>
<path d="M27.4701 25.8987V24.9651C27.4701 24.1445 26.8049 23.4792 25.9842 23.4792C25.1636 23.4792 24.4983 24.1445 24.4983 24.9651V25.8987H27.4701Z"/>
<path d="M25.3619 28.077H26.6066V29.3217H25.3619V28.077Z"/>
<path fill-rule="evenodd" clip-rule="evenodd" d="M36 27C36 32.5228 31.5228 37 26 37C20.4772 37 16 32.5228 16 27C16 21.4772 20.4772 17 26 17C31.5228 17 36 21.4772 36 27ZM23.2691 24.9651C23.2691 23.4656 24.4847 22.25 25.9842 22.25C27.4837 22.25 28.6993 23.4656 28.6993 24.9651V25.8987H29.7185V31.5H22.25V25.8987H23.2691V24.9651Z"/>
</svg>
