<svg width="40" height="40" viewBox="0 0 40 40" xmlns="http://www.w3.org/2000/svg">
<path d="M7 4H17V10H7V4Z"/>
<path d="M20 11H4V27H13.5C13.5 26.1438 13.5861 25.3078 13.75 24.5H6.5V13.5H17.5V17.8348C18.253 17.1361 19.0923 16.5291 20 16.0315V11Z"/>
<path d="M7 28H13.5394C13.7145 30.212 14.4654 32.262 15.6423 34H7V28Z"/>
<path d="M25.9778 28.7515C26.834 28.7515 27.5281 28.0574 27.5281 27.2012C27.5281 26.345 26.834 25.6509 25.9778 25.6509C25.1216 25.6509 24.4275 26.345 24.4275 27.2012C24.4275 28.0574 25.1216 28.7515 25.9778 28.7515Z"/>
<path fill-rule="evenodd" clip-rule="evenodd" d="M36 27C36 32.5228 31.5228 37 26 37C20.4772 37 16 32.5228 16 27C16 21.4772 20.4772 17 26 17C31.5228 17 36 21.4772 36 27ZM24.4275 21H27.5281V23.2285C27.8759 23.3644 28.2016 23.5446 28.498 23.7622L30.4052 22.6611L31.9555 25.3463L30.1624 26.3816C30.2141 26.6468 30.2411 26.9209 30.2411 27.2012C30.2411 27.3577 30.2327 27.5123 30.2163 27.6644L31.9555 28.6686L30.4052 31.3538L28.7792 30.415C28.4121 30.7353 27.9897 30.9937 27.5281 31.1739V33.0149H24.4275V31.1739C23.9659 30.9937 23.5434 30.7353 23.1763 30.415L21.5503 31.3538L20 28.6686L21.7393 27.6644C21.7229 27.5123 21.7144 27.3577 21.7144 27.2012C21.7144 26.9209 21.7415 26.6468 21.7931 26.3816L20 25.3463L21.5503 22.6611L23.4575 23.7622C23.754 23.5446 24.0796 23.3644 24.4275 23.2285V21Z"/>
</svg>
