<svg width="40" height="40" viewBox="0 0 40 40" xmlns="http://www.w3.org/2000/svg">
<path d="M20.0033 7H19.9967C12.8289 7 7 12.8305 7 20C7 22.8438 7.9165 25.4795 9.47487 27.6196L7.85475 32.4491L12.8516 30.8518C14.9072 32.2135 17.3594 33 20.0033 33C27.1711 33 33 27.1679 33 20C33 12.8321 27.1711 7 20.0033 7ZM27.5676 25.3576C27.254 26.2432 26.0092 26.9777 25.0164 27.1922C24.3371 27.3369 23.4499 27.4523 20.4631 26.214C16.6427 24.6313 14.1825 20.7491 13.9908 20.4972C13.8071 20.2454 12.447 18.4416 12.447 16.5761C12.447 14.7106 13.3944 13.8022 13.7762 13.4123C14.0899 13.0921 14.6083 12.9459 15.1055 12.9459C15.2664 12.9459 15.411 12.954 15.541 12.9605C15.9229 12.9767 16.1146 12.9995 16.3665 13.6024C16.6801 14.358 17.4439 16.2235 17.5349 16.4152C17.6275 16.607 17.7201 16.867 17.5901 17.1189C17.4683 17.3789 17.361 17.4943 17.1692 17.7153C16.9775 17.9362 16.7955 18.1052 16.6038 18.3425C16.4283 18.5489 16.23 18.7699 16.451 19.1518C16.672 19.5255 17.4357 20.7719 18.5602 21.7729C20.0114 23.0648 21.1879 23.4775 21.6087 23.653C21.9224 23.783 22.2961 23.7521 22.5252 23.5084C22.8161 23.1947 23.1752 22.6748 23.5409 22.1629C23.8009 21.7956 24.1291 21.7501 24.4736 21.8801C24.8246 22.002 26.682 22.9201 27.0639 23.1102C27.4457 23.302 27.6976 23.393 27.7902 23.5539C27.8812 23.7148 27.8813 24.4704 27.5676 25.3576Z"/>
</svg>
