<svg width="40" height="40" viewBox="0 0 40 40" xmlns="http://www.w3.org/2000/svg">
<path fill-rule="evenodd" clip-rule="evenodd" d="M20 34C27.732 34 34 27.732 34 20C34 12.268 27.732 6 20 6C12.268 6 6 12.268 6 20C6 27.732 12.268 34 20 34ZM15.5 19C16.8807 19 18 17.8807 18 16.5C18 15.1193 16.8807 14 15.5 14C14.1193 14 13 15.1193 13 16.5C13 17.8807 14.1193 19 15.5 19ZM27.5 17.75H21.5V15.25H27.5V17.75ZM16.118 23.441C16.877 24.9589 18.4041 25.75 20 25.75C21.5958 25.75 23.123 24.9589 23.882 23.441L26.118 24.559C24.877 27.0411 22.4041 28.25 20 28.25C17.5958 28.25 15.123 27.0411 13.882 24.559L16.118 23.441Z"/>
</svg>
