<svg width="40" height="40" viewBox="0 0 40 40" xmlns="http://www.w3.org/2000/svg">
<path d="M28 5.5H34.5V12H37V3H28V5.5Z"/>
<path d="M37 28H34.5V34.5H28V37H37V28Z"/>
<path d="M5.5 34.5H12V37H3V28H5.5V34.5Z"/>
<path d="M3 3V12H5.5V5.5H12V3H3Z"/>
<path fill-rule="evenodd" clip-rule="evenodd" d="M20 6.93359C26.2224 6.93359 31.2667 11.9779 31.2667 18.2003L33 32.0669H7L8.73333 18.2002C8.73337 11.9778 13.7776 6.93359 20 6.93359ZM11.2782 19.0926C14.233 17.8788 16.558 15.4454 17.6267 12.4189C19.6559 15.3863 23.0672 17.3336 26.9334 17.3336C27.5377 17.3336 28.131 17.286 28.7096 17.1944C28.2106 12.8264 24.5015 9.43359 20 9.43359C15.1583 9.43359 11.2333 13.3586 11.2333 18.2003C11.2333 18.5015 11.2485 18.7992 11.2782 19.0926ZM29.5039 24.2538C27.5032 27.3883 23.9943 29.4669 20 29.4669C16.0057 29.4669 12.4968 27.3883 10.4961 24.2538L9.83196 29.5669H30.168L29.5039 24.2538ZM18.2667 19.934C18.2667 20.8913 17.4906 21.6673 16.5333 21.6673C15.576 21.6673 14.8 20.8913 14.8 19.934C14.8 18.9767 15.576 18.2007 16.5333 18.2007C17.4906 18.2007 18.2667 18.9767 18.2667 19.934ZM23.4667 21.6673C24.424 21.6673 25.2 20.8913 25.2 19.934C25.2 18.9767 24.424 18.2007 23.4667 18.2007C22.5094 18.2007 21.7333 18.9767 21.7333 19.934C21.7333 20.8913 22.5094 21.6673 23.4667 21.6673Z"/>
</svg>
