<svg width="40" height="40" viewBox="0 0 40 40" xmlns="http://www.w3.org/2000/svg">
<path fill-rule="evenodd" clip-rule="evenodd" d="M33 18C33 10.8203 27.1797 5 20 5C12.8203 5 7 10.8203 7 18L5 34H35L33 18ZM17.2616 11.3296C15.9842 14.9476 13.1507 17.831 9.56512 19.176C9.52209 18.7899 9.5 18.3976 9.5 18C9.5 12.201 14.201 7.5 20 7.5C25.3841 7.5 29.8218 11.5525 30.4291 16.7736C29.6422 16.9223 28.8302 17.0002 28 17.0002C23.5391 17.0002 19.603 14.7533 17.2616 11.3296ZM8.71268 24.4542L7.83196 31.5H32.168L31.2873 24.4541C29.0462 28.3652 24.8308 31.0002 20 31.0002C15.1692 31.0002 10.9538 28.3653 8.71268 24.4542ZM16 22.0002C17.1045 22.0002 18 21.1047 18 20.0002C18 18.8956 17.1045 18.0002 16 18.0002C14.8954 18.0002 14 18.8956 14 20.0002C14 21.1047 14.8954 22.0002 16 22.0002ZM24 22.0002C25.1045 22.0002 26 21.1047 26 20.0002C26 18.8956 25.1045 18.0002 24 18.0002C22.8954 18.0002 22 18.8956 22 20.0002C22 21.1047 22.8954 22.0002 24 22.0002Z"/>
</svg>
