<svg width="40" height="40" viewBox="0 0 40 40" xmlns="http://www.w3.org/2000/svg">
<path d="M17.4 24.0714L24.147 20L17.4 15.9286V24.0714ZM32.428 13.445C32.597 14.0829 32.714 14.9379 32.792 16.0236C32.883 17.1093 32.922 18.0457 32.922 18.86L33 20C33 22.9721 32.792 25.1571 32.428 26.555C32.103 27.7764 31.349 28.5636 30.179 28.9029C29.568 29.0793 28.45 29.2014 26.734 29.2829C25.044 29.3779 23.497 29.4186 22.067 29.4186L20 29.5C14.553 29.5 11.16 29.2829 9.821 28.9029C8.651 28.5636 7.897 27.7764 7.572 26.555C7.403 25.9171 7.286 25.0621 7.208 23.9764C7.117 22.8907 7.078 21.9543 7.078 21.14L7 20C7 17.0279 7.208 14.8429 7.572 13.445C7.897 12.2236 8.651 11.4364 9.821 11.0971C10.432 10.9207 11.55 10.7986 13.266 10.7171C14.956 10.6221 16.503 10.5814 17.933 10.5814L20 10.5C25.447 10.5 28.84 10.7171 30.179 11.0971C31.349 11.4364 32.103 12.2236 32.428 13.445Z"/>
</svg>
