<svg width="40" height="40" viewBox="0 0 40 40" xmlns="http://www.w3.org/2000/svg">
<path d="M22.552 20L18.4 22.5714V17.4286L22.552 20Z"/>
<path fill-rule="evenodd" clip-rule="evenodd" d="M20 35C28.2843 35 35 28.2843 35 20C35 11.7157 28.2843 5 20 5C11.7157 5 5 11.7157 5 20C5 28.2843 11.7157 35 20 35ZM27.872 17.4886C27.824 16.8029 27.752 16.2629 27.648 15.86C27.448 15.0886 26.984 14.5914 26.264 14.3771C25.44 14.1371 23.352 14 20 14L18.728 14.0514C17.848 14.0514 16.896 14.0771 15.856 14.1371C14.8 14.1886 14.112 14.2657 13.736 14.3771C13.016 14.5914 12.552 15.0886 12.352 15.86C12.128 16.7429 12 18.1229 12 20L12.048 20.72C12.048 21.2343 12.072 21.8257 12.128 22.5114C12.176 23.1971 12.248 23.7371 12.352 24.14C12.552 24.9114 13.016 25.4086 13.736 25.6229C14.56 25.8629 16.648 26 20 26L21.272 25.9486C22.152 25.9486 23.104 25.9229 24.144 25.8629C25.2 25.8114 25.888 25.7343 26.264 25.6229C26.984 25.4086 27.448 24.9114 27.648 24.14C27.872 23.2571 28 21.8771 28 20L27.952 19.28C27.952 18.7657 27.928 18.1743 27.872 17.4886Z"/>
</svg>
